<svg xmlns="http://www.w3.org/2000/svg" id="Layer_1" data-name="Layer 1" viewBox="0 0 140 90"><defs><style>      .cls-1 {        fill: #0e0318;      }      body {    margin: 0;    padding: 0;    background: linear-gradient(to bottom, #87CEEB, #E0F6FF);    min-height: 100vh;    overflow: hidden;    position: relative;}.cls-19 {    fill: #e0720d;    animation: eyeGlow 4s infinite;}.cls-17 {    fill: none;    stroke: #e69600;    stroke-width: 2px;    stroke-dasharray: 300;    stroke-dashoffset: 300;    animation:         lineAnimation 8s ease-in-out infinite,        colorCycle 8s infinite,        flickerLine 15s infinite;}.cls-17:nth-of-type(1) { animation-delay: 0s, 0s, 0s; }.cls-17:nth-of-type(2) { animation-delay: 0.3s, 0.3s, 0.3s; }.cls-17:nth-of-type(3) { animation-delay: 0.6s, 0.6s, 0.6s; }.cls-17:nth-of-type(4) { animation-delay: 0.9s, 0.9s, 0.9s; }.cls-17:nth-of-type(5) { animation-delay: 1.2s, 1.2s, 1.2s; }.cls-17:nth-of-type(6) { animation-delay: 1.5s, 1.5s, 1.5s; }.cls-17:nth-of-type(7) { animation-delay: 1.8s, 1.8s, 1.8s; }.cls-17:nth-of-type(8) { animation-delay: 2.1s, 2.1s, 2.1s; }.cls-17:nth-of-type(9) { animation-delay: 2.4s, 2.4s, 2.4s; }.cls-17:nth-of-type(10) { animation-delay: 2.7s, 2.7s, 2.7s; }@keyframes lineAnimation {    0% {        stroke-dashoffset: 300;        opacity: 0;    }    20% {        stroke-dashoffset: 0;        opacity: 1;    }    40% {        stroke-dashoffset: 0;        opacity: 1;    }    60% {        stroke-dashoffset: 300;        opacity: 0;    }    100% {        stroke-dashoffset: 300;        opacity: 0;    }}@keyframes colorCycle {    0%, 100% {        stroke: #e69600;        filter: drop-shadow(0 0 5px #e69600);    }    25% {        stroke:rgb(255, 132, 0);        filter: drop-shadow(0 0 8pxrgb(144, 70, 18));    }    30% {        stroke:rgb(209, 102, 1);        filter: drop-shadow(0 0 12pxrgb(196, 92, 44));    }    35% {        stroke:rgb(152, 90, 39);        filter: drop-shadow(0 0 8pxrgb(163, 77, 34));    }    50% {        stroke: #e69600;        filter: drop-shadow(0 0 5px #e69600);    }    75% {        stroke:rgb(125, 70, 15);        filter: drop-shadow(0 0 15pxrgb(111, 72, 28));    }    80% {        stroke:rgb(196, 134, 47);        filter: drop-shadow(0 0 20pxrgb(232, 197, 61));    }    85% {        stroke:rgb(202, 122, 47);        filter: drop-shadow(0 0 15pxrgb(143, 56, 22));    }}@keyframes flickerLine {    0%, 100% {        opacity: 1;    }    15%, 15.2% {        opacity: 0.8;    }    35%, 35.1% {        opacity: 0.9;    }    52%, 52.1% {        opacity: 0.7;    }    75%, 75.15% {        opacity: 0.9;    }    85%, 85.1% {        opacity: 0.8;    }}.cls-18, .cls-32 {    animation: mouthPulse 3s ease-in-out infinite;}@keyframes eyeGlow {    0% {        fill: #e0720d;        filter: drop-shadow(0 0 2px #e0720d);    }    45% {        fill: #e0720d;        filter: drop-shadow(0 0 2px #e0720d);    }    50% {        fill: #ff9d1c;        filter: drop-shadow(0 0 8px #ff9d1c);    }    55% {        fill: #e0720d;        filter: drop-shadow(0 0 2px #e0720d);    }    85% {        fill: #e0720d;        filter: drop-shadow(0 0 2px #e0720d);    }    87% {        fill: #ff9d1c;        filter: drop-shadow(0 0 5px #ff9d1c);    }    89% {        fill: #e0720d;        filter: drop-shadow(0 0 2px #e0720d);    }    100% {        fill: #e0720d;        filter: drop-shadow(0 0 2px #e0720d);    }}@keyframes mouthPulse {    0% {        filter: brightness(1) drop-shadow(0 0 2px rgba(230, 114, 13, 0.3));    }    50% {        filter: brightness(1.2) drop-shadow(0 0 4px rgba(230, 114, 13, 0.5));    }    100% {        filter: brightness(1) drop-shadow(0 0 2px rgba(230, 114, 13, 0.3));    }}.cls-21 {    animation: gentleFloat 8s ease-in-out infinite;    transform-origin: center center;}@keyframes gentleFloat {    0% {        transform: scale(1);    }    50% {        transform: scale(1.01);    }    100% {        transform: scale(1);    }}.cls-1 {    fill: #0e0318;    transform-origin: center;    animation:         glide 3s ease-in-out infinite,        wingFlex 4s ease-in-out infinite,        drift 6s ease-in-out infinite;    filter: drop-shadow(0 2px 4px rgba(0, 0, 0, 0.2));}@keyframes glide {    0%, 100% {        transform: translateY(0) rotate(0deg);        animation-timing-function: cubic-bezier(0.4, 0, 0.2, 1);    }    25% {        transform: translateY(-15px) rotate(1deg);        animation-timing-function: cubic-bezier(0.4, 0, 0.2, 1);    }    50% {        transform: translateY(0) rotate(0deg);        animation-timing-function: cubic-bezier(0.4, 0, 0.2, 1);    }    75% {        transform: translateY(10px) rotate(-1deg);        animation-timing-function: cubic-bezier(0.4, 0, 0.2, 1);    }}@keyframes wingFlex {    0%, 100% {        transform: scale(1, 1);    }    25% {        transform: scale(1.02, 0.98) rotate(0.5deg);    }    50% {        transform: scale(1, 1);    }    75% {        transform: scale(0.98, 1.02) rotate(-0.5deg);    }}@keyframes drift {    0%, 100% {        transform: translateX(0) rotate(0deg);    }    25% {        transform: translateX(20px) rotate(2deg);    }    50% {        transform: translateX(0) rotate(0deg);    }    75% {        transform: translateX(-20px) rotate(-2deg);    }}@keyframes lightShift {    0%, 100% {        filter: drop-shadow(0 2px 4px rgba(0, 0, 0, 0.2)) brightness(1);    }    50% {        filter: drop-shadow(0 2px 4px rgba(0, 0, 0, 0.3)) brightness(1.1);    }}#Layer_1 {    position: absolute;    top: 50%;    left: 50%;    transform: translate(-50%, -50%);    animation: overallMotion 8s ease-in-out infinite;}@keyframes overallMotion {    0%, 100% {        transform: translate(-50%, -50%) rotate(0deg);    }    25% {        transform: translate(-45%, -52%) rotate(1deg);    }    50% {        transform: translate(-50%, -50%) rotate(0deg);    }    75% {        transform: translate(-55%, -48%) rotate(-1deg);    }}    </style></defs><path class="cls-1" d="m106.85,63.83c-5.11-5.33-11.35-12-10.66-13.73.98-2.47,3.06-.34,3.06-.34,0,0-.39-2.49-2.86-2.47-1.83.02-2.98,2.28-3.26,2.47-.46.3-2.68,1.1-9.09,2.36-6.41,1.26-12.69-.18-12.69-.18,0,0,1.66-2.44,1.86-3.54.2-1.1,4.01-3.46,4.01-3.46,0,0-2.33.26-3.82.43-1.48.17-3.2-.68-3.2-.68,0,0-1.51-1.18-2.01-2.59-.49-1.41-1.27-3.63-1.27-3.63,0,0-.47,4.46-1.37,5.12-.9.65-2.38,3.21-2.38,3.21,0,0-4.03-5.03-5.68-11.35-1.65-6.32-1.9-8.66-1.82-9.21.04-.33,1.59-2.35.81-4.01-1.05-2.23-3.47-1.5-3.47-1.5,0,0,2.82.94,1.02,2.9-1.26,1.37-9.97-1.34-17-3.63-7.02-2.29-16.78-6.9-16.91-6.29-.13.61,7.86,5.28,8.97,8.26,1.62,4.38-1.21,5.85-.86,6.85.35,1.01,5.82-.56,8.65,3.75,1.98,3.01-1.39,7.68-.94,8.32.45.63,5.95-.2,8.6,2.81,2.63,2.98,1.02,6.23,2.02,7.13.99.9,5.43-1.05,7.43,1.98,2.13,3.22,1.79,5.84.73,7.68-1.05,1.84-3.44,4.37-3.44,4.37,0,0,1.23,1.48,1.58,2.49.35,1.01.57,3.99.57,3.99,0,0,2.78-1.1,3.85-1.22,1.06-.12,2.93.35,2.93.35,0,0,1.24-3.26,2.44-5,1.2-1.75,3.41-3.2,7.23-2.68,3.6.49,3.78,5.33,5.02,5.84,1.24.5,3.47-2.36,7.3-1.28,3.87,1.09,5.51,6.4,6.27,6.53.77.13,3.52-4.93,7.08-4.46,5.11.68,6.08,6.28,7.14,6.16,1.06-.12,1.15-3.31,5.8-3.75,3.17-.3,10.85,4.87,11.34,4.49.49-.38-7.9-7.16-13.01-12.5Z"></path></svg>