<svg width="400" height="70" viewBox="0 0 400 70" fill="none" xmlns="http://www.w3.org/2000/svg">
<path d="M399.98 22.9033C399.98 22.9033 399.921 22.8667 399.901 22.8392C399.901 21.5124 399.733 20.2131 399.447 18.9686C399.447 18.8039 399.437 18.6301 399.407 18.4013C399.407 18.5203 399.387 18.6118 399.367 18.685C397.321 10.5961 389.503 4.56601 380.133 4.56601H379.253C379.827 4.50196 380.736 4.54771 381.645 4.63921C380.469 4.45621 379.273 4.35555 378.087 4.2549L374.529 3.94379C374.41 4.19085 374.044 4.39215 373.54 4.57516H367.807C368.44 4.24575 368.302 3.87974 367.145 3.56863L355.027 4.48366C356.905 4.48366 359.001 4.43791 360.296 4.57516H349.235C347.515 4.2366 345.539 4.08104 343.483 4.57516H334.211C335.486 4.39215 336.752 4.2 337.888 4.04444C323.378 5.27059 322.667 1.57386 311.597 4.3647L314.671 4.57516H304.45C305.785 3.95294 308.157 3.43137 310.638 3.10196L302.859 3.94379L299.419 2.38823C293.805 3.12026 289.713 2.99216 284.267 2.80915L285.068 2.7085C278.327 0.915032 272.159 3.72418 264.459 2.9464C265.27 2.84575 264.696 2.69019 266.308 2.47974L259.804 2.66274L259.497 2.26013C259.883 3.32157 253.162 3.76078 250.276 4.58431H142.875C145.356 4.53856 148.123 4.55686 152.482 3.98954L151.929 3.83398C155.843 2.65359 164.906 3.47712 170.046 3.24836C167.961 3.97124 162.267 4.04444 158.511 4.3098C164.284 4.89542 178.863 4.3281 183.835 2.7817C187.126 3.01961 194.243 3.65098 189.439 4.28235C201.152 4.53856 194.322 2.07712 204.433 2.54379L204.038 3.71503C215.108 5.38954 225.842 2.20523 236.329 3.72418L236.981 2.30588C239.235 2.9098 243.88 3.18431 244.76 3.74248L239.393 4.22745C243.88 5.42614 244.681 3.08366 250.206 3.92549C250.157 3.49542 245.6 2.52549 245.6 2.04052C223.154 2.86405 200.904 0.814379 178.201 2.26013C179.051 2.43399 180.079 2.62614 179.495 2.90065C177.024 2.55294 172.458 2.9281 173.17 2.16863L173.98 2.06797C168.06 2.39738 162.683 0.640523 159.144 0.658823C156.831 1.62876 146.888 0.247059 149.527 1.92157L145.613 0.869281C144.318 1.48235 144.96 2.29673 142.549 2.60784C138.466 2.47059 138.387 1.81176 141.59 1.39085C126.042 0.750327 107.598 0.924183 91.6455 1.4549L95.9154 0.677124C92.0705 0.29281 81.959 2.05882 85.2504 0.0640523C77.4716 0.86013 64.0095 -0.503268 63.456 1.57386C58.3064 -0.439216 44.6169 0.695425 33.7938 0.988235C34.713 1.87582 32.4891 1.99477 29.6721 2.00392C28.2686 2.00392 26.7069 1.97647 25.3231 2.00392C24.9771 2.01307 24.6411 2.02222 24.3248 2.03137C23.9591 2.05882 23.6131 2.09542 23.2968 2.13203C22.6544 2.22353 22.1108 2.27843 21.7253 2.46144C21.2607 2.19608 21.6363 1.82091 22.5358 1.58301C22.9806 1.4549 23.5538 1.33595 24.2062 1.22614C24.7992 1.12549 25.3725 1.06144 26.0051 0.988235C28.4761 0.695425 31.1646 0.457516 31.2536 0C29.8599 0.265359 28.3279 0.439215 26.7167 0.549019C25.8964 0.603921 25.1056 0.640523 24.2062 0.677124C23.1881 0.768627 22.1404 0.750327 21.0927 0.933333C20.5688 1.00654 20.045 1.07974 19.5112 1.16209C18.9874 1.28105 18.4635 1.4 17.9397 1.51895C17.4158 1.61961 16.8919 1.77516 16.3879 1.93987C15.8739 2.10457 15.3599 2.26013 14.8558 2.44314C12.8493 3.22091 10.9318 4.19085 9.24164 5.37124C5.84151 7.72287 3.42979 10.8706 2.26346 13.7255C1.08725 16.5987 1.14656 19.1059 1.91752 20.4327C1.62099 21.8235 1.51227 21.851 1.37389 21.3477C1.34424 21.9059 1.2454 22.5921 1.18609 23.1595C1.1169 23.7176 1.03783 24.2941 0.93899 24.8706C0.751192 26.0235 0.55351 27.1673 0.464553 28.1555C1.12679 29.3359 1.4332 25.0353 1.6803 29.7935C1.53204 33.5725 0.484321 31.4222 0 32.9778C0.425017 36.583 0.731424 41.2405 1.12679 45.1477C1.15644 45.3948 1.17621 45.6418 1.20586 45.8889C1.2454 46.1634 1.28493 46.4379 1.32447 46.7124C1.41343 47.2431 1.46285 47.7647 1.60123 48.2497C1.8681 49.2196 2.10532 50.098 2.48091 50.8117C3.10361 52.2758 3.90422 53.1268 4.34901 53.3189C4.65542 54.4627 4.95194 55.698 5.06066 56.3477C5.13974 57.0065 4.88275 57.1346 3.9833 56.0091C6.02931 58.8 7.96659 60.5019 9.64689 61.7647C11.347 63.0091 12.7604 63.9058 14.2825 64.647C14.668 64.83 15.0436 65.013 15.439 65.2052C15.8442 65.3699 16.2594 65.5163 16.6844 65.681C17.5344 66.0287 18.4932 66.2392 19.5607 66.5045C20.6479 66.6784 21.8538 66.898 23.2474 66.8889C23.5934 66.8889 23.9591 66.898 24.3248 66.9072C24.651 66.898 24.9771 66.8797 25.3231 66.8706C25.669 66.8522 26.0347 66.834 26.4103 66.8157C25.926 66.8614 25.5405 66.9255 25.2341 67.0078C24.7103 67.1359 24.4236 67.3189 23.9294 67.4379C23.4649 67.566 22.9114 67.6666 22.002 67.6758C21.1125 67.5934 19.8374 67.4928 18.0583 66.8706C18.7007 67.2823 19.5607 67.6941 20.6084 67.9503C21.6561 68.2706 22.8817 68.3895 24.226 68.481C26.4499 68.5634 28.9703 68.481 31.6885 68.3804C37.1049 68.1699 43.1441 67.8405 48.1257 68.3712L52.1387 67.0993C58.1976 66.8706 58.5535 68.0967 54.3132 68.5542C64.6124 69.3503 70.0981 68.5542 77.9757 68.5542C78.3513 68.6823 78.1833 68.8653 77.4222 68.9019L88.1564 68.9477C89.3029 68.6274 93.4048 67.9869 92.5647 67.1725C91.1512 67.9045 88.7791 68.3529 82.5817 67.8588C80.7729 66.1568 89.1448 67.7856 88.6605 66.1568C85.2603 66.5137 82.7102 66.7882 81.1288 65.9006C83.926 64.9673 88.1663 65.9921 89.5204 64.583L84.4103 65.1228C82.987 64.8209 83.0364 64.4366 83.2934 64.1072H99.8394C94.8776 64.6196 94.502 66.0104 92.8513 66.9987L106.373 66.7791C106.244 67.8405 97.8626 67.6849 95.3322 67.9594C91.3094 69.2313 102.597 68.8653 101.124 69.8719C103.081 69.03 108.409 69.3045 111.819 68.9477L112.422 69.515C118.718 70.1098 122.257 68.6823 127.95 68.7006C128.454 68.8653 128.533 68.9843 128.444 69.0758C130.441 68.4353 132.477 67.6575 135.956 67.4287L133.307 67.4928C137.814 66.23 148.489 65.3974 143.695 64.1072H152.116L156.021 64.2261C154.489 65.7085 151.731 67.9869 143.814 68.1608L142.885 68.7921C148.815 69.634 159.638 67.6392 155.764 66.3673C161.734 62.7804 176.777 66.2392 186.859 64.7385C187.571 65.7176 181.996 66.1019 179.545 66.7791C176.52 66.8889 174.346 66.9163 174.099 66.0928C161.101 66.6326 176.748 69.1856 162.188 68.8379C155.032 68.3346 170.946 67.2732 160.37 67.1359L152.828 69.8353C159.381 69.7621 165.302 69.3228 170.56 68.9934C199.817 67.2091 220.495 68.7189 220.495 68.7189L349.443 67.8313C362.925 67.447 367.778 67.566 373.125 64.8849C370.911 64.4549 365.257 64.5189 364.417 64.098H380.153C391.075 64.098 399.921 55.9085 399.921 45.7974V24.1843C399.951 23.7908 399.98 23.3882 400 22.9673L399.98 22.9033ZM294.665 3.66013C297.699 3.82483 300.2 4.17255 301.772 4.55686H281.341C281.875 4.53856 282.537 4.50196 283.368 4.46536C279.364 2.75425 291.542 4.73987 294.665 3.66013ZM278.07 3.37647C281.163 3.98954 279.028 4.43791 279.424 4.55686H268.868C271.18 3.87974 272.663 3.10196 278.07 3.37647ZM265.635 4.55686H261.751C261.978 4.47451 262.206 4.383 262.453 4.30065C264.617 4.2366 265.378 4.3647 265.635 4.55686ZM259.468 4.46536C259.389 4.49281 259.319 4.52941 259.24 4.55686H254.961C255.801 4.20915 256.285 3.78823 259.458 4.46536H259.468ZM136.984 1.73856C141.965 2.42484 136.035 2.75425 135.551 3.26667L143.409 3.12941C141.491 4.1451 137.952 4.1268 136.035 4.55686H130.134C132.921 3.63268 130.569 2.09542 136.984 1.73856ZM102.518 4.01699L103.635 4.31895L109.98 2.8183C114.161 3.16601 119.044 3.70588 122.019 4.55686H110.554C110.662 4.383 110.771 4.2 110.929 4.02614C107.144 3.89804 107.519 4.2 107.816 4.55686H101.707C101.47 4.35555 101.51 4.15425 102.508 4.01699H102.518ZM86.9703 3.36732C87.8401 3.92549 84.5585 3.67843 82.9672 3.88889C88.2552 4.98693 88.0971 3.66013 91.2896 3.24836C95.6881 3.39477 100.798 3.73333 100.877 4.54771H58.0691C58.1976 4.2732 58.4349 4.02614 59.0773 3.88889L53.1567 4.2183C60.7675 2.10457 75.2082 4.68497 86.9802 3.36732H86.9703ZM4.52692 27.7529C4.50715 26.3895 4.4775 25.1542 4.39843 24.1752L4.52692 24.2758V27.7529ZM14.8756 6.54248C15.6762 6.14902 16.4768 5.68235 17.3664 5.35294C18.2263 4.95947 19.1554 4.71242 20.0351 4.44706C20.9345 4.2549 21.8142 4.06274 22.6346 4.01699C24.2951 3.90719 25.5801 4.04444 26.3016 4.39215L24.2853 3.53202C35.7508 4.04444 45.289 2.12287 56.9127 1.72026C53.473 2.17778 52.7416 3.59608 48.017 3.56863C51.0514 3.78823 51.6346 4.1451 51.5654 4.54771H24.2853C18.5525 4.54771 13.4127 6.81699 9.79515 10.4222C9.93353 10.1386 10.0521 9.88235 10.1114 9.69934C10.1806 9.51634 10.1707 9.40653 10.062 9.37908C10.7934 9.10457 11.6534 8.5098 12.7307 7.83268C13.3534 7.39346 14.1145 7 14.8657 6.53333L14.8756 6.54248ZM4.63565 15.702C4.79379 16.0222 4.7246 17.5503 4.98159 18.3738C5.01124 18.4837 5.0409 18.5843 5.08043 18.6667C4.73449 20.0118 4.53681 21.4118 4.53681 22.8575V23.6627C4.29959 22.5555 3.9833 21.6588 3.7955 20.6065C3.63735 19.3529 3.56816 17.7974 4.64553 15.702H4.63565ZM3.24199 38.8797C4.30947 42.1372 4.1019 35.1647 4.53681 33.4444V45.7333C4.53681 45.9529 4.56646 46.1634 4.57634 46.3738C3.62747 44.7817 2.82686 44.0131 3.24199 38.8797ZM8.83639 57.5921C8.4608 57.3176 8.07532 56.9974 7.64042 56.6039C6.81015 55.2222 6.65201 54.4993 6.69154 54.0052C7.53169 55.5333 8.59917 56.9333 9.84457 58.1778C9.52828 58.0039 9.19222 57.8117 8.83639 57.5921ZM41.3156 66.0562C37.609 65.3974 33.3292 65.3791 28.9407 65.5529C27.8435 65.6078 26.7365 65.6627 25.6394 65.7176C25.076 65.7451 24.5719 65.8 23.9591 65.8C23.3562 65.8 22.7532 65.8 22.1503 65.8091C19.7386 65.6993 17.3565 65.2235 15.2116 64.4091C15.2611 64.0889 15.6861 63.9699 16.2495 63.8692C16.8129 63.7594 17.5048 63.7137 18.0682 63.6313C18.4932 63.5581 18.849 63.4666 19.0664 63.3477C20.2723 63.6496 21.5177 63.8601 22.7928 63.9516C22.7829 63.9516 22.773 63.9516 22.7631 63.9516C23.287 64.0065 23.8009 64.0431 24.2951 64.0797C24.7893 64.0889 25.2638 64.0797 25.7283 64.0797C26.2522 64.0797 26.7563 64.0523 27.2505 64.0248H32.3309C35.7805 64.098 39.1114 64.1804 42.1557 64.0248H49.9147C49.8554 64.0431 49.7961 64.0523 49.7368 64.0706C49.8258 64.0614 49.9147 64.0431 50.0037 64.0248H53.4434C54.7085 64.3085 55.3411 64.8117 58.3162 64.2353C56.6162 65.8915 46.307 65.0954 41.3156 66.047V66.0562ZM77.1059 64.0248H78.717C78.1932 64.0431 77.6594 64.0431 77.1059 64.0248ZM110.485 65.8457C109.714 64.9398 109.239 64.5098 109.239 64.0248H121.594C117.641 64.6196 113.796 65.2327 110.485 65.8457ZM187.67 64.5738C189.281 64.4732 190.19 64.2719 190.684 64.034H196.012C193.659 64.2353 190.576 64.8849 187.66 64.5738H187.67ZM198.028 64.034H205.263C204.206 64.3725 202.486 64.6379 199.57 64.7843C199.244 64.3451 198.71 64.1255 198.028 64.034ZM247.725 67.6575L248.348 66.7516C240.925 66.9072 238.741 66.9255 232.316 67.4104C220.435 65.7268 242.754 67.1359 239.482 64.9581L236.082 65.3242C236.892 64.9764 237.752 64.5098 238.741 64.0431H269.876C270.103 64.2902 270.726 64.5006 272.238 64.6196C259.151 63.2836 256.7 66.9072 247.706 67.6575H247.725ZM329.961 64.034H330.653C330.574 64.0614 330.475 64.0797 330.396 64.1072C330.238 64.0797 330.1 64.0614 329.961 64.034ZM351.261 65.0405C350.54 64.0706 357.706 64.5647 355.897 64.3359L354.563 64.2719C354.681 64.1895 354.83 64.1072 354.988 64.034H363.893C361.729 64.7477 357.182 65.1137 351.271 65.0405H351.261Z" fill="#191919"/>
</svg>
