<svg xmlns="http://www.w3.org/2000/svg" xmlns:xlink="http://www.w3.org/1999/xlink" viewBox="0 0 250 285"><defs><filter id="glow"></filter><filter id="eye-glow"></filter><linearGradient id="ghost-gradient" x1="0%" y1="0%" x2="100%" y2="100%" gradientUnits="userSpaceOnUse"><stop offset=".36" stop-color="#fff"></stop><stop offset=".41" stop-color="#f7f7f7"></stop><stop offset=".49" stop-color="#e3e3e3"></stop><stop offset=".59" stop-color="#c2c2c2"></stop><stop offset=".7" stop-color="#939393"></stop><stop offset=".82" stop-color="#585858"></stop><stop offset=".95" stop-color="#111"></stop><stop offset=".98" stop-color="#000"></stop></linearGradient><style>      #ghost-container {        opacity: 0.8;      }      #ghost-wrapper {        isolation: isolate;      }      #ghost-body {        fill: url(#ghost-gradient);        mix-blend-mode: screen;        filter: url(#glow);      }      #ghost-eye {        fill: #1a1a1a;        filter: url(#eye-glow);      }      @keyframes float {        0% {          transform: translateY(0px) rotate(0deg) scale(1);        }        25% {          transform: translateY(-8px) rotate(0.5deg) scale(1.02);        }        50% {          transform: translateY(-12px) rotate(0deg) scale(1);        }        75% {          transform: translateY(-8px) rotate(-0.5deg) scale(0.98);        }        100% {          transform: translateY(0px) rotate(0deg) scale(1);        }      }      @keyframes glow {        0% {          filter: drop-shadow(0 0 8px rgba(255, 255, 255, 0.3)) drop-shadow(0 0 15px rgba(255, 255, 255, 0.1));        }        50% {          filter: drop-shadow(0 0 12px rgba(255, 255, 255, 0.5)) drop-shadow(0 0 20px rgba(255, 255, 255, 0.2));        }        100% {          filter: drop-shadow(0 0 8px rgba(255, 255, 255, 0.3)) drop-shadow(0 0 15px rgba(255, 255, 255, 0.1));        }      }      @keyframes wave {        0% {          transform: translateX(0px) scale(1);        }        25% {          transform: translateX(3px) scale(1.02);        }        50% {          transform: translateX(5px) scale(1);        }        75% {          transform: translateX(3px) scale(0.98);        }        100% {          transform: translateX(0px) scale(1);        }      }      @keyframes eye-pulse {        0% {          fill: #1a1a1a;          filter: drop-shadow(0 0 2px rgba(255, 0, 0, 0.1));        }        50% {          fill: #ff0000;          filter: drop-shadow(0 0 4px rgba(255, 0, 0, 0.3));        }        100% {          fill: #1a1a1a;          filter: drop-shadow(0 0 2px rgba(255, 0, 0, 0.1));        }      }      #ghost-body {        animation: float 6s ease-in-out infinite,          glow 4s ease-in-out infinite;        transform-origin: center bottom;      }      #ghost-eyes {        animation: wave 4s ease-in-out infinite;        transform-origin: center;      }      #ghost-eye {        animation: eye-pulse 3s ease-in-out infinite;      }      #ghost-eye:hover {        fill: #ff0000;        filter: drop-shadow(0 0 6px rgba(255, 0, 0, 0.5));      }    </style></defs><g id="ghost-wrapper"><g id="Layer_1" data-name="Layer 1"><g id="ghost-container"><path id="ghost-body" d="m229.93,35.85c-6.03,1.09-13.2,11.69-18.88,22.81-6.81,13.33-11.03,26.05-12.3,19.37-4.82-25.16-15.69-33.27-24.34-37.84-8.65-4.57-31.26-2.34-44.82,18.21-13.56,20.55-14.73,55.21-19.59,52.78-3.71-1.86-2.48-22.16,3.44-39.11,3.95-11.34,10.32-21.64,12.47-25.03,4.13-6.52,9.22-7.07,14.31-8.05,5.2-1.01,10.35-2.44,11.46-7.09.84-3.51-2.37-5.12-4.88-5.56-4.09-.72-8.68.97-8.46-2.33.44-6.74,23.23.03,19.26-12.88-4.19-13.62-24.82-8.96-53.95,37.43-29.76,47.39-26.18,63.55-23.45,64.96,2.73,1.41,8.09-12.36,10.53-10.23,2.09,1.84-7.54,39.87.89,42.98,4.06,1.5,12.47-13.82,12.47-13.82-.44,36.15-22.54,46.13-35.3,46.03-8.99-.07-32.86,4.23-50.34,36.31-23.39,42.91-8.57,63.73-4.56,65.16,4.02,1.43,7.57.92,13.62-5.33,8.6-8.87,14.37-22.61,19.64-22.56,2.63.02,2.02,7.72,1.9,8.95.36-.76,3.45-7.73-.12-11.32-2.8-2.82-8.35,1.54-13.27,7.7-6.19,7.75-12.11,18.54-16.22,17.48-9.82-2.53,2.91-37.49,13.4-51.64,9.1-12.28,27.89-26.22,34.77-18.88,7.49,7.98,11.99,11.91,12.67,12.49v-.02c1.37,1.15,22.99,22.61,64.31-3.56,48.34-30.62,56.62-82.81,56.62-82.81,0,0,4.72,8.96,8.4,6.95,5.31-2.89,2.88-39.15,3.9-49.35,1.13-11.38,7.28-20.53,10.6-20.75,1.99-.13.95,14.78,6.33,14.99,3.98.15,3.24-17,4.95-18.91,1.06-1.17,2.37,11.03,7.17,9.45,5.68-1.87-2.23-38.85-12.63-36.97Z"></path><g id="ghost-eyes"><path id="ghost-eye" d="m161.58,64.27c-1.44-1.83-2.8-1.5-3.78-.47-1.37,1.46-1.33,6.26-.27,9.57.69,2.14,2.11,3.78,3.42,4.03,1.31.24,2.19-.72,2.63-2.29.83-2.91.4-7.76-2.01-10.84Z"></path><path id="ghost-eye" d="m177.89,69.26c-.1-.54-.25-1.1-.46-1.64-4.72-12.16-9.42,5.33-1.97,6.9,1.87.39,2.95-2.31,2.42-5.26Z"></path></g><path id="ghost-mouth" fill="black" d="m179.63,85.42l-1.72,3.26-2.8-2.81c-.48,0-.97,0-1.47,0l-3.11,3.13-1.97-3.39c-.72-.07-1.43-.17-2.14-.28l-2.97,2.5-2.08-3.71c-.41-.13-.82-.27-1.22-.42l-2.73,2.02-1.21-3.58c-.63-.26-1.26-.53-1.9-.79-2.4-1-5.6-3.18-8.24-2.34-6.86,2.19-2.49,16.51-.71,21.16,3.08,8.03,9.66,13.48,18.54,12.97,15.62-.89,19.79-23.09,24.9-30.34.91-1.29-4.73,1.48-9.16,2.59Z"></path></g></g></g></svg>