<svg xmlns="http://www.w3.org/2000/svg" id="Layer_1" data-name="Layer 1" viewBox="0 0 250 280"><defs><filter id="glow"></filter><style>      .cls-1 {        fill: #fff;        filter: url(#glow);      }      .cls-2 {        opacity: 0.8;      }      .cls-3 {        fill: #1a1a1a;      }      @keyframes float {        0% {          transform: translateY(0px) rotate(0deg);        }        25% {          transform: translateY(-8px) rotate(0.5deg);        }        50% {          transform: translateY(-12px) rotate(0deg);        }        75% {          transform: translateY(-8px) rotate(-0.5deg);        }        100% {          transform: translateY(0px) rotate(0deg);        }      }      @keyframes glow {        0% {          filter: drop-shadow(0 0 8px rgba(255, 255, 255, 0.3))                  drop-shadow(0 0 15px rgba(255, 255, 255, 0.1));        }        50% {          filter: drop-shadow(0 0 12px rgba(255, 255, 255, 0.5))                 drop-shadow(0 0 20px rgba(255, 255, 255, 0.2));        }        100% {          filter: drop-shadow(0 0 8px rgba(255, 255, 255, 0.3))                 drop-shadow(0 0 15px rgba(255, 255, 255, 0.1));        }      }      @keyframes wave {        0% {          transform: translateX(0px) scale(1);        }        25% {          transform: translateX(3px) scale(1.02);        }        50% {          transform: translateX(5px) scale(1);        }        75% {          transform: translateX(3px) scale(0.98);        }        100% {          transform: translateX(0px) scale(1);        }      }      .ghost-body {        animation: float 6s ease-in-out infinite,                    glow 4s ease-in-out infinite;        transform-origin: center bottom;      }      .ghost-eyes {        animation: wave 4s ease-in-out infinite;        transform-origin: center;      }      .ghost-eyes path {        transition: fill 0.3s ease;      }      .ghost-eyes:hover path {        fill: #ff0000;      }    </style></defs><g class="cls-2"><path class="cls-1 ghost-body" d="m229.64,273.8s21.74-27.14,8.09-73.46c-15.04-51.04-54.12-82.51-53.92-85.3.19-2.64,4.81.42,5.95-6.44,1.14-6.86-6.83-17.37-5.63-19.95.7-1.5,3.33.84,4.72-2.36,2.03-4.68-4.21-17.12-2.44-18.23,1.43-.89,11.06,4.31,13.25-2.56,2.35-7.39-9.85-21.83-15.1-31.07-10.51-18.48-17.98-28-29.72-28.22-8.62-.16-12.15.78-17.95,3.33-6.31,2.77-12.58,12.92-9.47,15.14,4.57,3.26,11.37-4.96,13.33-3.58,1.96,1.38-1.54,12.12,3.19,13.28,4.73,1.16,12.19-11.05,15.45-9.42,3.26,1.63,6.74,10.08,3.74,20.83-1.25,4.46-8.03,10.85-15.19,10.69-13.97-.3-41.3-19.82-57.35-9.49-13.28,8.54,0,33.28-9.81,39-12.9,7.5-32.91-14.63-41.82-16.21-4.17-.74-12.47,1.81-19.51,8.02-8,7.05-13.04,17.55-11.37,18.45,5.07,2.75,14.5-5.86,17.11-5.58,1.46.16-1.58,8.72-2.27,14.69-.52,4.48,1.08,7.12,2.71,6.75,9.47-2.15,9.97-15.87,12.26-15.02,2.28.85.99,27.38,9.61,28.04,5.95.46,7.91-15.45,10.64-15.07,4.29.59,6.51,17.55,14.42,29.82,4.79,7.44,11.75,12.44,16.86,12.42,9.98-.04,9.94-8.71,12.34-9.42,3.5-1.04,12.5,12.03,35.1,18.39,22.6,6.35,68.55,30.99,77.91,43.37,14.27,18.87,23.64,50.08,14.88,69.17h0Z"></path><g class="ghost-eyes"><path class="cls-3" d="m109.16,78.1c.23-.45,1.27-.7,1.79-.73,3.92-.21,6.31,3.05,8.22,6,1.52,2.33,8.04,12.66,4.29,14.93-1.74,1.05-4.43-1.05-5.86-1.91-2.68-1.61-5.38-3.53-7.37-5.96-2.22-2.69-5.86-11.64-.05-12.79.56-.11,1.01-.47,1.62-.3l-2.64.74Z"></path><path class="cls-3" d="m93.75,62.61c3.05-.9,5.52,2.83,6.61,5.13,1.3,2.73,1.73,5.9,1.06,8.86-.33,1.47-1.16,3.09-2.64,3.31-1.5.22-2.76-1.1-3.56-2.4-1.5-2.43-2.41-5.21-2.68-8.05-.18-1.89-.73-6.55,1.92-6.87h-.7Z"></path><path class="cls-3" d="m118.66,68.64c-5.86,1.91-12.96-2.45-15.47-7.63-.75-1.54-1.14-3.56,0-4.85.68-.77,1.78-1.08,2.8-1.01,1.02.06,2,.45,2.94.87,3.52,1.58,6.8,3.7,9.66,6.29.84.76,1.68,1.59,2.05,2.66.68,1.94-.72,3.76-2.76,3.65l.77.03Z"></path></g></g></svg>