<svg xmlns="http://www.w3.org/2000/svg" xmlns:xlink="http://www.w3.org/1999/xlink" id="Layer_1" data-name="Layer 1" viewBox="0 0 310 310"><defs><style>      .cls-1 {        fill: url(#linear-gradient-4);      }                 @keyframes innerFlicker {            0%, 100% { opacity: 1; filter: brightness(2) drop-shadow(0 0 25px #ff6600) drop-shadow(0 0 35px #ff6600); }            25% { opacity: 0.6; filter: brightness(1.8) drop-shadow(0 0 20px #ff6600) drop-shadow(0 0 30px #ff6600); }            50% { opacity: 1.2; filter: brightness(2.2) drop-shadow(0 0 30px #ff6600) drop-shadow(0 0 40px #ff6600); }            75% { opacity: 0.4; filter: brightness(1.7) drop-shadow(0 0 15px #ff6600) drop-shadow(0 0 25px #ff6600); }            85% { opacity: 0.9; filter: brightness(2) drop-shadow(0 0 22px #ff6600) drop-shadow(0 0 32px #ff6600); }            95% { opacity: 0.7; filter: brightness(1.9) drop-shadow(0 0 20px #ff6600) drop-shadow(0 0 30px #ff6600); }        }                @keyframes eyeGlow {            0%, 100% { opacity: 1; filter: brightness(2.2) drop-shadow(0 0 30px #ff9900) drop-shadow(0 0 45px #ff9900) drop-shadow(0 0 60px #ff9900); }            25% { opacity: 0.5; filter: brightness(2) drop-shadow(0 0 25px #ff9900) drop-shadow(0 0 40px #ff9900) drop-shadow(0 0 55px #ff9900); }            50% { opacity: 1.1; filter: brightness(2.4) drop-shadow(0 0 35px #ff9900) drop-shadow(0 0 50px #ff9900) drop-shadow(0 0 65px #ff9900); }            75% { opacity: 0.6; filter: brightness(2.1) drop-shadow(0 0 28px #ff9900) drop-shadow(0 0 43px #ff9900) drop-shadow(0 0 58px #ff9900); }        }                @keyframes smileFlow {            0% { filter: brightness(2) blur(0px) drop-shadow(0 0 30px #ff6600) drop-shadow(0 0 45px #ff6600) drop-shadow(0 0 60px #ff6600); }            50% { filter: brightness(2.3) blur(1px) drop-shadow(0 0 35px #ff6600) drop-shadow(0 0 50px #ff6600) drop-shadow(0 0 65px #ff6600); }            100% { filter: brightness(2) blur(0px) drop-shadow(0 0 30px #ff6600) drop-shadow(0 0 45px #ff6600) drop-shadow(0 0 60px #ff6600); }        }                @keyframes vapor {            0% { opacity: 0; transform: translateY(0); filter: blur(8px) brightness(1.5); }            50% { opacity: 0.7; transform: translateY(-5px); filter: blur(10px) brightness(1.8); }            100% { opacity: 0; transform: translateY(-10px); filter: blur(12px) brightness(1.5); }        }                @keyframes lightning {            0%, 100% { filter: brightness(1); }            50% { filter: brightness(2.5) drop-shadow(0 0 40px #ffffff) drop-shadow(0 0 50px #ffffff); }        }                @keyframes warmPulse {            0%, 100% { filter: brightness(1.5) drop-shadow(0 0 25px #ff6600) drop-shadow(0 0 35px #ff6600); }            50% { filter: brightness(1.8) drop-shadow(0 0 30px #ff6600) drop-shadow(0 0 40px #ff6600); }        }                @keyframes suddenDarkness {            0%, 95% { opacity: 1; }            97% { opacity: 0; }            100% { opacity: 1; }        }                .cls-25 {             animation: innerFlicker 3s infinite;            filter: drop-shadow(0 0 25px #ff6600) drop-shadow(0 0 35px #ff6600);        }        .cls-17, .cls-18 {             filter: drop-shadow(0 0 30px #ff9900) drop-shadow(0 0 45px #ff9900) drop-shadow(0 0 60px #ff9900);        }        .cls-18 {            animation-delay: 0.2s;         }        .cls-26 {             animation: smileFlow 4s infinite;            filter: drop-shadow(0 0 30px #ff6600) drop-shadow(0 0 45px #ff6600) drop-shadow(0 0 60px #ff6600);        }                .vapor {            position: absolute;            width: 40px;            height: 80px;            background: radial-gradient(circle, rgba(255,165,0,0.7) 0%, rgba(255,165,0,0) 70%);            filter: blur(8px) brightness(1.5);            animation: vapor 3s infinite;        }        .vapor.left {            left: 120px;            top: 150px;            animation-delay: 0.5s;        }        .vapor.right {            right: 120px;            top: 150px;            animation-delay: 1s;        }        .vapor.mouth {            left: 50%;            top: 200px;            transform: translateX(-50%);            animation-delay: 1.5s;            width: 50px;            height: 100px;        }                .lightning {            position: absolute;            top: 0;            left: 0;            width: 100%;            height: 100%;            background: white;            opacity: 0;            pointer-events: none;            animation: lightning 0.2s infinite;            animation-play-state: paused;            filter: drop-shadow(0 0 40px #ffffff) drop-shadow(0 0 50px #ffffff);        }                .pumpkin-container {            animation: warmPulse 4s infinite;            filter: drop-shadow(0 0 25px #ff6600) drop-shadow(0 0 35px #ff6600);        }                .sudden-darkness {            position: absolute;            top: 0;            left: 0;            width: 100%;            height: 100%;            background: black;            opacity: 0;            pointer-events: none;            animation: suddenDarkness 30s infinite;        }                .pumpkin-container:hover .lightning {            animation-play-state: running;        }      .cls-1, .cls-2, .cls-3, .cls-4, .cls-5, .cls-6, .cls-7, .cls-8, .cls-9, .cls-10, .cls-11, .cls-12, .cls-13, .cls-14, .cls-15, .cls-16, .cls-17, .cls-18, .cls-19, .cls-20, .cls-21, .cls-22, .cls-23 {        fill-rule: evenodd;      }      .cls-2 {        fill: url(#linear-gradient-12);      }      .cls-3 {        fill: url(#linear-gradient-21);      }      .cls-4 {        fill: url(#linear-gradient-2);      }      .cls-5 {        fill: url(#linear-gradient);      }      .cls-6 {        fill: url(#linear-gradient-15);      }      .cls-7 {        fill: url(#linear-gradient-9);      }      .cls-8 {        fill: url(#linear-gradient-6);      }      .cls-9 {        fill: url(#linear-gradient-16);      }      .cls-10 {        fill: url(#linear-gradient-14);      }      .cls-11 {        fill: url(#linear-gradient-5);      }      .cls-12 {        fill: url(#linear-gradient-10);      }      .cls-13 {        fill: url(#linear-gradient-18);      }      .cls-14 {        fill: url(#linear-gradient-11);      }      .cls-24 {        fill: url(#linear-gradient-25);      }      .cls-15 {        fill: url(#linear-gradient-19);      }      .cls-25 {        fill: url(#radial-gradient-3);      }      .cls-16 {        fill: url(#linear-gradient-20);      }      .cls-17 {        fill: url(#radial-gradient-2);      }      .cls-17, .cls-18 {        opacity: .54;      }      .cls-18 {        fill: url(#radial-gradient);      }      .cls-26 {        fill: url(#linear-gradient-24);      }      .cls-27 {        fill: url(#linear-gradient-22);      }      .cls-19 {        fill: url(#linear-gradient-13);      }      .cls-20 {        fill: url(#linear-gradient-7);      }      .cls-21 {        fill: url(#linear-gradient-8);      }      .cls-28 {        fill: url(#linear-gradient-23);      }      .cls-22 {        fill: url(#linear-gradient-3);      }      .cls-23 {        fill: url(#linear-gradient-17);      }      .cls-29 {        fill: url(#linear-gradient-26);      }    </style><linearGradient id="linear-gradient" x1="68.08" y1="162.54" x2="108.89" y2="121.47" gradientTransform="translate(75.83 -112.77) rotate(1.49)" gradientUnits="userSpaceOnUse"><stop offset="0" stop-color="#102626"></stop><stop offset="1" stop-color="#3a5c43"></stop></linearGradient><linearGradient id="linear-gradient-2" x1="58.75" y1="152.78" x2="55.87" y2="156.18" gradientTransform="translate(75.83 -112.77) rotate(1.49)" gradientUnits="userSpaceOnUse"><stop offset="0" stop-color="#296b3c" stop-opacity="0"></stop><stop offset="1" stop-color="#3a5c43"></stop></linearGradient><linearGradient id="linear-gradient-3" x1="75.48" y1="153.34" x2="73.04" y2="176.36" xlink:href="#linear-gradient-2"></linearGradient><linearGradient id="linear-gradient-4" x1="108.75" y1="156.87" x2="106.3" y2="179.89" xlink:href="#linear-gradient-2"></linearGradient><linearGradient id="linear-gradient-5" x1="90.94" y1="154.98" x2="88.5" y2="178" xlink:href="#linear-gradient-2"></linearGradient><linearGradient id="linear-gradient-6" x1="230.06" y1="294.89" x2="163.85" y2="309.75" gradientTransform="translate(75.83 -112.77) rotate(1.49)" gradientUnits="userSpaceOnUse"><stop offset="0" stop-color="#fe6600"></stop><stop offset="1" stop-color="#8e3114"></stop></linearGradient><linearGradient id="linear-gradient-7" x1="168.16" y1="353.68" x2="196.16" y2="357.6" gradientTransform="translate(75.83 -112.77) rotate(1.49)" gradientUnits="userSpaceOnUse"><stop offset="0" stop-color="#662e04"></stop><stop offset="1" stop-color="#8e3114" stop-opacity="0"></stop></linearGradient><linearGradient id="linear-gradient-8" x1="222.14" y1="231.95" x2="214.11" y2="245.91" gradientTransform="translate(75.83 -112.77) rotate(1.49)" gradientUnits="userSpaceOnUse"><stop offset="0" stop-color="#eec165"></stop><stop offset="1" stop-color="#e18d21" stop-opacity="0"></stop></linearGradient><linearGradient id="linear-gradient-9" x1="196.54" y1="277.12" x2="111.74" y2="309.22" xlink:href="#linear-gradient-6"></linearGradient><linearGradient id="linear-gradient-10" x1="107.46" y1="362.11" x2="152.1" y2="356.18" xlink:href="#linear-gradient-7"></linearGradient><linearGradient id="linear-gradient-11" x1="197.41" y1="218.66" x2="172.64" y2="234.7" xlink:href="#linear-gradient-8"></linearGradient><linearGradient id="linear-gradient-12" x1="-75.18" y1="272.96" x2="39.69" y2="305.84" xlink:href="#linear-gradient-6"></linearGradient><linearGradient id="linear-gradient-13" x1="-8.55" y1="190.48" x2="-8.9" y2="215.59" xlink:href="#linear-gradient-8"></linearGradient><linearGradient id="linear-gradient-14" x1="20.83" y1="400.05" x2="-11.96" y2="355.75" xlink:href="#linear-gradient-7"></linearGradient><linearGradient id="linear-gradient-15" x1="-26.76" y1="301.94" x2="69.64" y2="301.04" xlink:href="#linear-gradient-6"></linearGradient><linearGradient id="linear-gradient-16" x1="72.25" y1="404.21" x2="47.83" y2="366.53" xlink:href="#linear-gradient-7"></linearGradient><linearGradient id="linear-gradient-17" x1="32.92" y1="190.63" x2="36.06" y2="208.07" xlink:href="#linear-gradient-8"></linearGradient><linearGradient id="linear-gradient-18" x1="125.8" y1="232.62" x2="22.2" y2="405.59" xlink:href="#linear-gradient-6"></linearGradient><linearGradient id="linear-gradient-19" x1="136.74" y1="111.96" x2="163.25" y2="98.36" gradientTransform="translate(-28.61 157.74) rotate(-2.8)" xlink:href="#linear-gradient-7"></linearGradient><linearGradient id="linear-gradient-20" x1="177.99" y1="74.94" x2="172.25" y2="101.63" gradientTransform="matrix(1,0,0,1,0,0)" xlink:href="#linear-gradient-8"></linearGradient><linearGradient id="linear-gradient-21" x1="74.71" y1="152.58" x2="99.12" y2="125.81" gradientTransform="translate(75.83 -112.77) rotate(1.49)" gradientUnits="userSpaceOnUse"><stop offset="0" stop-color="#9dc44d" stop-opacity="0"></stop><stop offset="1" stop-color="#d7dd3f"></stop></linearGradient><radialGradient id="radial-gradient" cx="1071.66" cy="829.14" fx="1071.66" fy="829.14" r="24.95" gradientTransform="translate(-1415.24 -1032.47) rotate(-21.25) scale(1 1.99)" gradientUnits="userSpaceOnUse"><stop offset="0" stop-color="#fdfcda"></stop><stop offset=".09" stop-color="#fcf9d4" stop-opacity=".96"></stop><stop offset=".24" stop-color="#faf2c7" stop-opacity=".84"></stop><stop offset=".44" stop-color="#f7e7b1" stop-opacity=".65"></stop><stop offset=".68" stop-color="#f3d892" stop-opacity=".39"></stop><stop offset=".95" stop-color="#eec46c" stop-opacity=".06"></stop><stop offset="1" stop-color="#eec165" stop-opacity="0"></stop></radialGradient><radialGradient id="radial-gradient-2" cx="751.12" cy="324.64" fx="751.12" fy="324.64" r="24.85" gradientTransform="translate(-459.83 -107.41) rotate(-22.98) scale(.75 1.48)" xlink:href="#radial-gradient"></radialGradient><radialGradient id="radial-gradient-3" cx="86.59" cy="308.08" fx="86.59" fy="308.08" r="84.06" gradientTransform="translate(75.83 -112.77) rotate(1.49)" gradientUnits="userSpaceOnUse"><stop offset="0" stop-color="#fdfcda"></stop><stop offset=".1" stop-color="#fdf5cf"></stop><stop offset=".27" stop-color="#fde2b1"></stop><stop offset=".49" stop-color="#fdc582"></stop><stop offset=".76" stop-color="#fd9c41"></stop><stop offset="1" stop-color="#fe7400"></stop></radialGradient><linearGradient id="linear-gradient-22" x1="34.88" y1="311.75" x2="18.18" y2="245.33" gradientTransform="translate(75.83 -112.77) rotate(1.49)" gradientUnits="userSpaceOnUse"><stop offset="0" stop-color="#fe9901"></stop><stop offset="1" stop-color="maroon"></stop></linearGradient><linearGradient id="linear-gradient-23" x1="119.95" y1="281.1" x2="178.57" y2="247.34" xlink:href="#linear-gradient-22"></linearGradient><linearGradient id="linear-gradient-24" x1="87.06" y1="323.12" x2="91.79" y2="380.39" gradientTransform="translate(75.83 -112.77) rotate(1.49)" gradientUnits="userSpaceOnUse"><stop offset="0" stop-color="maroon"></stop><stop offset="1" stop-color="#fe9901"></stop></linearGradient><linearGradient id="linear-gradient-25" x1="59.9" y1="338.96" x2="64.89" y2="338.96" gradientTransform="translate(75.83 -112.77) rotate(1.49)" gradientUnits="userSpaceOnUse"><stop offset="0" stop-color="#de912f"></stop><stop offset="1" stop-color="#8e3114"></stop></linearGradient><linearGradient id="linear-gradient-26" x1="107.29" y1="338.96" x2="113.27" y2="338.96" xlink:href="#linear-gradient-25"></linearGradient></defs><g><g><path class="cls-5" d="m188.97,77.53c-51.76,8.01-77.65,12.01-77.65,12.01,23.43-16.57,40.78-34.17,22.82-42.61-22.62-10.62-27.76-21.31-25.43-37.15.4-2.75,2.59-4.94,5.33-5.41,4.93-.86,9.27-1.1,13.02-.73,3.13.31,5.53,2.82,5.91,5.94,1.83,15.08,10.41,24.8,25.73,29.17,16.68,2.25,26.77,15.18,30.28,38.78h0Z"></path><path class="cls-4" d="m111.32,89.54s10.35-1.6,31.03-4.8c2.42-4.46,5.18-9.46,5.49-9.67.58-.38.26-6.67-1-18.74-1.26-12.07-2.13-8.82-19.64-19.62-13.7-8.44-17.45-21.79-18.43-27.22-.02.1-.05.19-.07.28-2.32,15.85,2.81,26.53,25.43,37.15,17.97,8.44.61,26.03-22.82,42.61Z"></path><g><path class="cls-22" d="m150.54,70.43c1.42-9.25-.04-13.61-2.04-20.73-2-7.12-15.96-11.8-15.96-11.8,0,0,2.28,3.07,8.66,9.21,6.38,6.14,4.15,6.3,3.13,20.67-.64,8.9-8.19,15.25-13.84,18.79,7.03-1.09,16-2.47,26.89-4.16-3.88-1.69-7.73-6.1-6.83-11.99Z"></path><path class="cls-1" d="m181.66,66.27c-5.89-14.94-10.96-16.51-10.96-16.51,0,0,2.65,3.86,7.14,12.36,2.37,4.49,3.95,11.06,4.86,16.39.99-.15,2-.31,3.01-.47-1.13-3.75-2.48-7.77-4.05-11.77Z"></path><path class="cls-11" d="m174.83,79.72c-1.46-3.91-3.23-9.21-4.8-14.01-2.67-8.18-3.62-11.61-7.41-16.81-3.79-5.2-16.09-8.79-16.09-8.79,0,0,3.58,1.93,10.63,7.43,7.05,5.51,5.64,9.74,8.04,18.18,2.14,7.51,1.83,12.56-.9,15.64,3.36-.52,6.86-1.06,10.54-1.63Z"></path></g><path class="cls-8" d="m212.99,286.42c29.05-122.9,43.57-184.35,43.57-184.35,28.47,8.95,43.69,30.91,47.39,65.73,4.21,39.68-28.2,155.64-90.95,118.62h0Z"></path><path class="cls-20" d="m212.99,286.42l6.96-29.43c7.83-6.1,46.66-40.79,49.54-54.64-9.45,45.48-13.18,72.03,2.01,72.02-14.79,17.91-34.41,26.27-58.51,12.05h0Z"></path><path class="cls-21" d="m261.26,103.71c25.45,9.83,39.19,31.24,42.68,64.09.26,2.41.37,5.11.36,8.04-8.79-24.62-22.02-40.82-39.71-48.59-4.09-9.97-5.2-17.81-3.33-23.53h0Z"></path><path class="cls-7" d="m166.81,291.14c20.45-125.71,32.23-193.86,35.34-204.46,67.18-51.86,113.78,108.42,18.14,202.9-14.64,12.6-32.47,13.12-53.49,1.56h0Z"></path><path class="cls-12" d="m166.81,291.14l2-12.26c5.42-11.79,50.86-58.52,51.95-81.7-1.63,34.52-9.06,86.05,6.3,85.33-2.18,2.39-4.41,4.76-6.76,7.08-14.64,12.6-32.47,13.12-53.49,1.56h0Z"></path><path class="cls-14" d="m201.12,90.88c.41-1.85.76-3.25,1.04-4.2,42.28-32.63,76.39,18.74,72.05,84.85-15.41-55.69-38.18-80.71-68.29-75.02l-4.79-5.64h0Z"></path><path class="cls-2" d="m109.63,282.7c-16.93-101.95-20.48-165.9-10.63-191.87-34.27-32.74-68.76,8.85-81.89,40.79-21.87,53.18-12.32,99.52,28.67,139.01,19.11,21.14,40.39,25.16,63.86,12.06h0Z"></path><path class="cls-19" d="m96.63,88.7c-27.33-23.42-54.49-.79-70.52,25.29,18.83-12.54,37.11-15.39,54.85-8.53,2.49-8.15,8.86-13.02,15.67-16.75h0Z"></path><path class="cls-10" d="m9.23,155.74c-10.3,43.19,1.88,81.49,36.54,114.9,19.05,21.08,40.26,25.14,63.64,12.18l-37.03-60.84c-23.59,51.39-44.64,29.31-63.16-66.24h0Z"></path><path class="cls-6" d="m139.65,286.55c.56-131.23.84-196.84.84-196.84C61.58,44.5,48.9,172.62,65.23,244.24c2.55,11.2,4.86,17.29,10.81,27.18,18.35,30.5,39.56,35.55,63.61,15.13h0Z"></path><path class="cls-9" d="m139.65,286.55l.11-26.15c-4.39-18.82-10.23-42.49-17.53-71.03-9.08,82.92-29.41,93.52-61,31.82,1.72,13.69,4.38,26.42,7.8,37.06,19.9,41.93,43.43,51.36,70.61,28.3h0Z"></path><path class="cls-23" d="m140.43,101.6l.05-11.88c-33.26-19.06-54.75-7.31-67.26,18.01,29.7-16.1,52.1-18.14,67.21-6.13h0Z"></path><path class="cls-13" d="m211.41,221.73c.29-2.1.57-4.18.83-6.24,12.3-95.78-4.35-146.68-49.95-152.71-42.83,1.81-59.69,49.01-50.59,141.61,9.17,64.47,22.34,98.38,39.52,101.72,14.24,2.56,27.73-6.4,40.46-26.87,12.69-20.4,16.42-33.73,19.72-57.51h0Z"></path><path class="cls-15" d="m110.64,192.21c.3,3.97.66,8.03,1.07,12.18,9.17,64.47,22.34,98.38,39.52,101.72,14.16,2.54,27.57-6.29,40.23-26.5-49.96,11.19-66.9-62.48-80.82-87.4h0Z"></path><path class="cls-16" d="m216.15,158.51c-.4-59.12-18.35-91.03-53.86-95.73-26.81,1.13-43.45,20.06-49.91,56.77,41.89-44.04,76.48-31.06,103.76,38.96h0Z"></path><path class="cls-3" d="m158.69,38.75c-15.32-4.37-23.9-14.09-25.73-29.17-.38-3.12-2.78-5.63-5.91-5.94-3.75-.38-8.09-.13-13.02.73-.41.07-.8.19-1.18.33,1.13-.35,8.03-2.18,11.53,4.55,3.82,7.34,9.73,21.71,16.34,25.9,6.61,4.19,19.9,6.19,28,10.15,6.48,3.17,15.6,19.29,19,25.62-4.33-19.39-13.99-30.13-29.04-32.17Z"></path></g><path class="cls-18" d="m203.79,105.09c9.92,25.51,7.55,50.24-5.29,55.23-12.84,4.99-31.29-11.64-41.21-37.15-9.92-25.51-7.55-50.24,5.29-55.23,12.84-4.99,31.29,11.64,41.21,37.15Z"></path><path class="cls-17" d="m261.25,108.54c7.93,18.69,6.71,37.09-2.72,41.09-9.43,4-23.51-7.91-31.44-26.6-7.93-18.69-6.71-37.09,2.72-41.09,9.43-4,23.51,7.91,31.44,26.6Z"></path></g><path class="cls-25" d="m127.78,161.1l-73.81-27.28,35.98,49.04,37.82-21.76Zm130.18-21.98l-75.12,23.41,36.64,23.69,38.48-47.1Zm-61.26,94.63l-16.62,2.1-2.14-13.71c-7.39.52-15.45.75-24.21.52-8.76-.23-16.8-.87-24.15-1.78l-2.85,13.58-16.49-2.96-3.28-14.62c-22.46-5.28-33.87-12.2-33.87-12.2,21.97,52.28,79.71,53.78,79.71,53.78,0,0,57.75,1.5,82.4-49.57,0,0-11.75,6.33-34.46,10.43l-4.04,14.42Z"></path><polygon class="cls-27" points="62.79 145.84 117.76 166.87 127.78 161.1 53.97 133.82 62.79 145.84"></polygon><polygon class="cls-28" points="248.53 150.67 192.54 168.81 182.84 162.53 257.96 139.13 248.53 150.67"></polygon><path class="cls-26" d="m152.79,258.47s57.75,1.5,82.4-49.57c0,0-3.3,1.76-9.71,4.02h-.01s-19.87,40.49-72.52,39.63c-52.65-.86-74.93-45.34-74.93-45.34h0c-3.28-1.53-4.93-2.54-4.93-2.54,21.97,52.28,79.71,53.78,79.71,53.78Z"></path><polygon class="cls-24" points="126.72 234.47 130.67 230.01 132.06 221.18 129.57 220.89 126.72 234.47"></polygon><polygon class="cls-29" points="180.07 235.86 175.23 232.02 174.44 222.37 177.93 222.15 180.07 235.86"></polygon></svg>