<svg width="52" height="52" viewBox="0 0 52 52" fill="none" xmlns="http://www.w3.org/2000/svg">
<path d="M21.9179 1.07172C21.8093 1.16585 21.6355 1.2962 21.5703 1.41206C21.7296 1.36861 21.8527 1.27447 21.9179 1.07172Z" fill="#F54F02"/>
<path d="M48.8242 14.584L48.9184 14.7216C48.9184 14.6854 48.9328 14.6492 48.9401 14.613L48.8242 14.584Z" fill="#F54F02"/>
<path d="M48.9414 14.613L49.3614 14.7216C49.05 14.3813 48.9776 14.4537 48.9414 14.613Z" fill="#F54F02"/>
<path d="M1.17341 22.9116C1.12272 23.0999 1.10099 23.2664 1.09375 23.433L1.15892 23.4692C1.26754 23.3895 1.20237 23.0709 1.17341 22.9116Z" fill="#F54F02"/>
<path d="M0.738281 19.9209C0.774488 20.073 0.846903 20.225 0.926557 20.3699C0.883109 20.1454 0.941039 19.7978 0.738281 19.9209Z" fill="#F54F02"/>
<path d="M21.9653 0.912415C21.9581 0.977587 21.9364 1.02103 21.9219 1.07172C21.9943 1.00655 22.0233 0.948621 21.9653 0.912415Z" fill="#F54F02"/>
<path d="M51.8516 26.1847C51.8733 26.4888 51.8805 26.7929 51.924 27.1043C52.0616 26.4019 51.9964 26.1847 51.8516 26.1847Z" fill="#F54F02"/>
<path d="M30.8592 2.43309C30.7434 2.38964 30.6202 2.33895 30.4609 2.2955C30.6058 2.36792 30.7434 2.41136 30.8592 2.43309Z" fill="#F54F02"/>
<path d="M10.0312 9.73236C10.0385 9.69615 10.053 9.6527 10.0602 9.60925C10.0457 9.64546 10.0385 9.68891 10.0312 9.73236Z" fill="#F54F02"/>
<path d="M51.1945 20.2612C51.1004 19.7688 51.0064 19.2764 50.9052 18.784C50.7678 18.2988 50.5942 17.8282 50.4206 17.3575C50.0952 16.4016 49.5384 15.5327 48.9236 14.7289C48.8947 14.9099 48.873 15.1271 48.685 15.1127C48.685 14.8737 48.5548 14.5913 48.4536 14.374C48.3523 14.1568 48.3162 13.983 48.5476 13.9251L48.6778 14.0192C48.3234 13.6209 48.2438 13.0851 48.2077 12.5709C48.186 12.3103 48.1788 12.0641 48.1498 11.8396C48.1137 11.6296 48.0486 11.4413 47.9546 11.3182C47.2386 11.3182 46.8047 9.37752 46.3202 10.3768C46.3491 10.051 46.3346 9.76131 46.3419 9.44269C45.9079 9.50787 45.6259 9.90614 45.1992 9.71787C44.7798 9.13856 45.0474 8.84891 45.6187 9.10959C44.0349 6.75616 41.2145 4.69962 38.517 3.67135C38.8207 3.64963 39.1245 3.62067 39.421 3.62791C38.9075 3.06308 36.7813 3.24412 37.8299 2.4186C37.0923 2.28826 36.2028 1.89723 35.4362 1.62206C34.6696 1.3324 34.0115 1.28172 33.7946 1.86826C33.5053 1.19482 32.6953 0.796546 31.7045 0.666202C30.7065 0.572065 29.5711 0.543099 28.5804 0.622754C28.8407 1.70171 26.9677 0.796547 26.4542 1.33965C26.3168 0.955856 26.7146 0.680685 27.1629 0.5431C27.6113 0.391032 28.1103 0.267929 28.1465 0C27.6113 0.304136 27.0111 0.318618 26.3674 0.38379C25.731 0.419996 25.0584 0.369307 24.4148 0.340342C23.142 0.362066 21.9921 0.5431 21.7896 1.6293C21.5437 1.60758 21.5221 1.52792 21.5871 1.42654C21.2183 1.51344 20.6325 1.2962 20.2348 1.30344C20.1046 1.70895 20.9507 1.66551 20.0974 2.02757C19.3742 2.13619 19.6056 1.47723 19.2368 1.2962C18.6221 1.74516 17.8193 2.23033 17.1902 2.69377C16.5682 3.17894 16.1415 3.70756 16.2211 4.12756C15.7655 4.09859 15.1508 3.86687 15.4907 3.51929C15.0568 3.90308 14.7313 4.15652 14.4637 4.36652C14.1889 4.56204 13.9503 4.6779 13.7044 4.79376C13.256 4.99652 12.7715 5.18479 12.0989 5.8872C12.3593 5.4672 11.853 5.03997 12.8655 4.74307C12.1423 4.46066 11.4697 5.08341 10.7393 5.7641C10.3633 6.0972 10.0378 6.52444 9.66901 6.88651C9.30742 7.25581 8.91689 7.56719 8.46851 7.76995C8.47575 8.13201 8.49744 8.48684 8.5119 8.83442C7.88273 9.72511 7.28249 9.30511 7.61515 8.53753C7.21017 8.8127 6.8775 9.08787 6.60269 9.36304C6.34234 9.65269 6.14708 9.94959 5.95905 10.2392C5.61192 10.833 5.28649 11.3616 4.92489 11.9989C4.80195 12.0206 4.70794 11.883 4.87427 11.6947L3.7461 13.5051C3.79672 13.7803 3.81842 14.642 4.31742 14.7216C4.18001 14.5116 4.10046 14.2727 4.15108 13.9758C4.20894 13.6861 4.42589 13.353 4.84534 12.9403C5.8795 13.1792 4.26679 13.983 5.15631 14.374C5.27925 13.7585 5.3805 13.2806 5.96629 13.324C6.19047 14.0265 5.27203 14.3451 5.9012 14.9533C5.93736 14.6492 6.00967 14.3523 6.0603 14.0482C6.32788 13.9396 6.51591 14.0482 6.66054 14.1785C6.19047 14.9606 5.77102 15.7789 5.39497 16.6189C5.46728 15.7644 4.7658 15.3299 4.37527 14.8085C4.07877 15.5616 3.70994 16.2785 3.50745 17.0678C3.2254 16.9447 3.21094 16.5247 3.31942 16.0902C3.44236 15.663 3.63762 15.2068 3.66655 14.9606C3.31219 13.954 2.59623 15.9454 2.16955 15.4675C2.45159 15.9961 1.98152 16.8868 1.95982 17.5602H1.60546C1.42467 17.8137 1.30896 18.0599 1.26556 18.3061C1.2294 18.5523 1.24387 18.7985 1.26556 19.0375C1.30896 19.5226 1.4102 19.9861 1.26556 20.5002C1.14985 20.5726 1.07753 20.5726 1.02691 20.5437C1.28726 20.9854 1.71394 21.4488 1.74287 22.0933L1.77903 21.6081C2.10446 22.115 2.32142 22.9043 2.589 23.3967C2.71917 23.6429 2.87104 23.8167 3.05907 23.8457C3.18201 23.8674 3.32665 23.8167 3.49298 23.6864C3.43513 24.2222 3.39897 24.7653 3.37727 25.3084C3.35558 25.4533 3.33388 25.5981 3.30495 25.7429C2.44436 25.475 1.09923 24.9319 1.09923 23.4547L0.752101 23.2447C0.419435 23.766 0.585767 24.5771 0.875042 25.1347C1.17878 25.6995 1.64885 26.0036 2.03937 25.6705C3.03737 26.2209 3.15309 27.0753 3.05184 28.0674C2.98675 28.5598 2.96506 29.0812 3.00845 29.5808C3.05184 30.0805 3.16032 30.5584 3.44236 30.935C2.89274 31.1739 2.52391 30.2615 2.06107 29.885C1.91643 29.3636 1.84411 28.9726 2.32142 28.8784C2.07553 27.7633 1.64162 27.8936 1.2511 28.0095C0.867813 28.1253 0.542378 28.1977 0.578538 26.8291C0.809958 25.5185 1.58377 28.3933 1.5693 26.4815C1.00522 26.0398 0.527914 25.5619 0.00721872 25.0622C-0.0578682 26.315 0.332649 27.4374 0.556837 28.4005C1.33788 31.0726 1.92367 33.2522 2.41544 34.8163C2.66132 35.5911 2.77703 36.2429 2.92166 36.6629C3.05184 37.0901 3.10246 37.3363 3.10246 37.3363C4.89597 40.9135 7.44882 44.1069 10.6164 46.4966C13.7695 48.8935 17.4505 50.5662 21.2979 51.341C22.5201 51.4931 23.359 51.5293 24.0171 51.4279C24.6752 51.2976 25.1669 50.9138 25.6587 50.1535C25.4273 49.9797 24.9717 49.9145 24.6318 49.8204C24.4365 49.7697 24.2846 49.6973 24.2412 49.5959C25.1018 49.69 25.9697 49.7407 26.8519 49.7407C29.9978 49.7407 32.9991 49.118 35.7472 47.9883C35.805 47.9811 35.8629 47.9738 35.9207 47.9666V47.9231C36.1377 47.829 36.3619 47.7276 36.5788 47.6262C36.6077 47.6262 36.6295 47.6335 36.6656 47.6335C36.6439 47.6335 36.6367 47.6117 36.6222 47.6045C37.895 47.0252 39.1028 46.33 40.2382 45.5407L41.3953 45.128C41.3229 45.0049 41.3085 44.8745 41.3085 44.7442C41.5616 44.5487 41.8075 44.3459 42.0534 44.1432C42.104 44.3604 42.2559 44.5052 42.5162 44.5125C42.9067 43.9042 43.3045 43.3321 43.6516 42.7239C43.4491 42.9411 43.2177 43.1801 43.0152 43.2814C43.4636 42.8542 43.8975 42.4197 44.3097 41.9563C44.6207 41.8694 44.8738 41.6811 44.8955 41.2828C45.2209 40.8918 45.5319 40.4863 45.8356 40.0808C45.7995 40.298 45.7633 40.5225 45.7272 40.718C45.9513 40.117 46.2262 39.7477 46.5154 39.487C46.7758 39.2046 47.065 39.0235 47.3254 38.8425C47.5785 38.6615 47.8099 38.4804 47.9401 38.1835C48.0847 37.9011 48.0992 37.4884 47.9256 36.8801C47.8389 36.996 47.7304 37.1046 47.6291 37.2204C47.8822 36.7425 48.1137 36.2573 48.3306 35.7649C48.562 36.1198 48.6705 36.5977 48.6561 37.0684L48.779 35.6563C49.1551 35.6056 49.4877 35.5332 49.8493 35.4608C49.8204 34.9177 49.8783 34.4905 50.0012 34.0922C50.0591 33.8894 50.1386 33.7012 50.2254 33.4984C50.2977 33.2956 50.3772 33.0856 50.4568 32.8612L50.4785 33.0132C51.1366 32.586 51.1366 31.9777 51.0643 31.3622C50.963 30.7394 50.7316 30.095 51.0643 29.4722C51.1004 29.6243 51.2089 29.5301 51.2885 29.827L51.3463 28.6829L51.585 28.6539C50.963 28.6539 50.7605 27.5098 50.3122 27.0029C50.3194 26.735 50.3339 26.4743 50.3339 26.1991C50.3339 26.0109 50.3266 25.8226 50.3194 25.6343C50.4206 26.0253 51.1004 26.2715 50.6882 26.974C50.9413 26.974 51.556 26.1991 51.8453 26.1919C51.6573 25.1998 51.6501 24.215 51.5488 23.2302C51.4114 22.2526 51.4114 21.2461 51.1872 20.2685L51.1945 20.2612ZM44.8883 8.63891C45.1848 9.57304 44.3386 8.92856 44.0711 9.08787L45.0401 10.0365C44.3748 10.1958 43.9843 9.74683 43.5865 9.6889C43.3551 9.45718 43.1237 9.22546 42.885 9.00822C43.0947 8.97925 43.2755 8.87787 43.4491 8.76925C43.8396 8.5158 44.2374 8.16098 44.881 8.64615L44.8883 8.63891ZM39.3848 5.94513L39.4499 6.19134C39.9127 6.12617 40.3973 6.05375 40.8529 6.03927C41.3085 6.65478 41.8002 7.38616 41.8581 8.08857C41.3736 7.68305 40.8673 7.29926 40.3466 6.93719C40.419 6.86478 40.4913 6.79237 40.5708 6.7272C40.0935 6.28547 40.0501 6.46651 39.9706 6.66926C39.6885 6.48099 39.3993 6.29272 39.11 6.11892C39.1461 6.0103 39.2112 5.92341 39.3848 5.94513ZM34.2863 3.22239C35.2192 3.70756 36.1883 4.21445 37.2514 4.33756C37.2442 4.69962 36.803 4.33032 36.5065 4.32307C37.0417 5.30065 37.3382 4.57652 37.9529 4.59825C38.3651 4.82997 38.7484 5.19928 38.9364 5.52513C39.0449 5.71341 39.0666 5.8872 38.9943 6.03927C36.9838 4.82273 34.7781 3.90308 32.435 3.33101C32.4928 3.18619 32.5651 3.06308 32.6808 3.01239L31.6684 2.95446C32.4133 2.51274 33.3534 2.78067 34.2936 3.21515L34.2863 3.22239ZM25.6732 2.51274C26.2951 2.34619 26.9387 2.13619 27.1774 2.58515L26.8375 2.05654C27.8138 2.27378 28.7106 2.05654 29.6507 1.89723C30.1208 1.82481 30.5981 1.74516 31.0898 1.67999C31.3357 1.65102 31.5888 1.62206 31.842 1.60757C32.0951 1.60757 32.3482 1.63654 32.6085 1.66551C31.9432 1.76688 31.6612 2.58515 30.844 2.43309C31.3429 2.63584 31.4153 2.86032 31.3574 3.09929C29.8893 2.80964 28.3779 2.65757 26.8303 2.65757C25.919 2.65757 25.0151 2.7155 24.1328 2.81688C24.2629 2.63584 24.3208 2.48378 24.1689 2.36792C24.4437 2.8024 25.044 2.68653 25.6659 2.49826L25.6732 2.51274ZM21.9849 2.66481C22.1585 2.43309 22.3826 2.25205 22.7949 2.27378C22.7732 2.45481 22.5273 2.83136 22.4622 3.07757C22.1585 3.1355 21.862 3.20067 21.5654 3.26584C21.7245 3.08481 21.8475 2.86757 21.9921 2.66481H21.9849ZM21.4642 3.23687V3.29481C21.363 3.31653 21.2689 3.33825 21.1677 3.35998C21.2762 3.32377 21.3774 3.28032 21.4642 3.23687ZM18.7016 3.38894C18.3473 4.1348 19.4682 3.61342 19.8443 3.72929C19.1066 3.96101 18.3834 4.22894 17.6747 4.52583C17.7542 3.97549 17.7253 3.49032 18.7016 3.38894ZM16.3657 5.1341C16.0981 5.27169 15.8233 5.40927 15.563 5.5541C15.6136 5.38755 15.6787 5.21376 15.7944 5.04721C16.062 4.99652 16.2355 5.04721 16.3657 5.1341ZM8.98921 10.7317C8.7144 10.3044 8.96752 9.83373 9.30742 9.34856C9.63285 8.84166 10.1391 8.41443 10.262 7.90029C10.6308 7.82788 10.9563 7.66857 11.2456 7.45857C11.5421 7.25581 11.8386 7.02409 12.1061 6.74892C12.381 6.48099 12.6413 6.1841 12.9017 5.8872C13.162 5.59031 13.4585 5.35134 13.7478 5.12686C14.0371 5.53238 13.9069 6.12616 14.0081 6.48823C13.7912 6.63306 13.5742 6.77789 13.3573 6.92995C13.2271 7.00237 13.1114 7.08202 13.0174 7.17616C12.7209 7.3934 12.4316 7.61064 12.1495 7.84236C12.0772 7.88581 12.0049 7.9365 11.9326 7.98719C11.6722 8.17546 11.4336 8.38546 11.2166 8.6027C11.1805 8.64615 11.1443 8.68235 11.1081 8.7258C10.7393 9.0589 10.3777 9.40649 10.0306 9.76855C10.0306 9.76131 10.0306 9.75407 10.0306 9.74683C10.0306 9.75407 10.0306 9.76856 10.0234 9.7758C9.87873 9.92062 9.73409 10.0727 9.59669 10.2248C9.34357 10.2537 9.06876 10.1668 8.98921 10.7389V10.7317ZM3.71717 17.9295C4.25233 17.9802 4.51991 17.9947 4.77302 18.0888C4.5416 18.7188 4.33911 19.3633 4.16555 20.015C3.99198 19.2981 3.82565 18.574 3.71717 17.9295ZM3.94136 31.4636C4.00644 31.7315 4.0643 31.9994 4.13662 32.2674C3.9052 31.9343 3.47129 31.5505 3.51468 31.0508C3.63762 31.297 3.78226 31.4129 3.93413 31.4636H3.94136ZM3.89797 33.035C4.11492 32.9191 4.2234 32.8032 4.25233 32.6874C4.36081 33.0639 4.47652 33.4332 4.59946 33.8025C4.36081 33.7012 4.12216 33.4767 3.89797 33.035ZM9.45928 42.3401C9.14108 42.1301 8.77225 42.0432 8.3962 41.9852C7.61515 41.8911 6.84134 41.8549 6.15432 41.3335L6.65331 41.1018C5.76379 40.1097 5.61192 39.7477 4.75133 38.9077C4.51991 36.5977 5.85781 40.4283 6.64608 39.2263L6.16154 38.8425C6.40743 38.8497 6.71117 38.8353 7.02214 38.828C7.96228 40.298 9.04706 41.6594 10.2765 42.8832C10.2042 43.0135 10.1897 43.1728 10.3271 43.3901C10.0378 42.8904 9.79195 42.5283 9.45928 42.3256V42.3401ZM18.6872 48.278C18.6872 48.278 18.7161 48.2924 18.7306 48.2924C18.7306 48.2924 18.7161 48.2924 18.7089 48.2997C18.7016 48.2924 18.6944 48.2852 18.6872 48.278ZM21.9343 49.8276C21.9343 49.2555 23.0624 49.719 22.7876 49.5452L22.5707 49.4728C22.5996 49.4293 22.6285 49.3931 22.6575 49.3569C23.142 49.4438 23.6265 49.5162 24.1183 49.5742C23.7061 49.929 22.9178 50.0376 21.9343 49.8276ZM40.2743 45.5045C40.3466 45.4538 40.4117 45.4031 40.484 45.3525C40.4334 45.4031 40.3539 45.4538 40.2743 45.5045ZM49.777 33.0277C49.5817 33.4912 49.1912 34.0343 49.4154 34.4036C49.1478 34.8525 48.8079 35.1711 48.5114 35.3305C48.9309 34.3384 49.278 33.3101 49.5601 32.2529C49.5601 32.3108 49.5528 32.3687 49.5456 32.4339C50.1169 32.2384 49.994 32.5643 49.7842 33.0277H49.777ZM50.3122 29.016C50.2905 29.3564 50.2109 29.4722 50.1097 29.5157C50.1386 29.3057 50.1675 29.1029 50.1892 28.8929C50.2326 28.9364 50.276 28.9798 50.3122 29.0233V29.016ZM50.3917 31.7243C49.9433 32.1153 49.7698 31.7967 49.6758 31.7822C49.8132 31.2246 49.9289 30.6526 50.0229 30.0805C50.1241 30.2181 50.2326 30.3412 50.3266 30.4788C50.5364 30.7829 50.6738 31.1377 50.3917 31.7243ZM50.2832 28.5091C50.2832 28.5091 50.2471 28.4802 50.2326 28.4729C50.2543 28.2412 50.2688 28.0095 50.2832 27.7705C50.4785 27.9153 50.6882 28.024 50.2832 28.5091ZM50.8401 26.0398L50.5074 25.1419C50.3989 25.265 50.3483 25.3736 50.3266 25.4678C50.1531 19.8268 48.0052 14.6854 44.5411 10.7172C44.7942 10.9634 45.1124 11.2241 45.6548 11.5354L45.6693 11.4051C46.1466 11.4558 46.5299 11.8758 46.8626 12.3537C47.1952 12.8389 47.4049 13.4254 47.7015 13.7658C47.1374 13.6861 46.6456 12.8606 46.1032 12.4623C46.4214 13.4254 47.8967 15.3154 49.0611 15.7499C49.1189 16.0395 49.2057 16.4958 49.1695 16.8071C49.1189 17.1257 48.9743 17.2851 48.6633 16.9737C49.1912 18.8781 50.1964 17.2851 50.5002 19.0519L49.8204 19.1895C49.6975 19.7181 49.7481 20.1816 49.8855 20.6233C50.0301 21.065 50.2543 21.4778 50.4206 21.9123C50.7822 22.774 51.2161 23.6719 50.775 24.5988L51.6211 24.6567C51.2885 25.0767 51.1583 25.8805 50.8401 26.0326V26.0398Z" fill="#F54F02"/>
<path d="M4.29631 14.7144L4.35423 14.8013L4.3832 14.7289C4.34699 14.7289 4.31803 14.7144 4.28906 14.7144H4.29631Z" fill="#F54F02"/>
<path d="M48.6567 37.0467L48.6133 37.5029C48.6422 37.358 48.6495 37.206 48.6567 37.0467Z" fill="#F54F02"/>
<path d="M1.0646 34.3529C1.56425 34.0487 1.25288 33.1219 0.992188 32.9481C1.18046 33.2305 1.1515 33.8605 1.0646 34.3529Z" fill="#F54F02"/>
<path d="M25.7062 51.5945C25.4097 52.1738 26.5162 51.8479 26.8416 52C26.8995 51.8552 26.2197 51.0659 25.7062 51.5945Z" fill="#F54F02"/>
<path d="M23 17.75C23 16.0953 24.3453 14.75 26 14.75C27.6547 14.75 29 16.0953 29 17.75V20H23V17.75ZM20.75 20H17.75C16.5078 20 15.5 21.0078 15.5 22.25V32C15.5 34.4844 17.5156 36.5 20 36.5H32C34.4844 36.5 36.5 34.4844 36.5 32V22.25C36.5 21.0078 35.4922 20 34.25 20H31.25V17.75C31.25 14.8484 28.9016 12.5 26 12.5C23.0984 12.5 20.75 14.8484 20.75 17.75V20ZM21.875 22.25C22.4984 22.25 23 22.7516 23 23.375C23 23.9984 22.4984 24.5 21.875 24.5C21.2516 24.5 20.75 23.9984 20.75 23.375C20.75 22.7516 21.2516 22.25 21.875 22.25ZM29 23.375C29 22.7516 29.5016 22.25 30.125 22.25C30.7484 22.25 31.25 22.7516 31.25 23.375C31.25 23.9984 30.7484 24.5 30.125 24.5C29.5016 24.5 29 23.9984 29 23.375Z" fill="white"/>
</svg>
