<svg xmlns="http://www.w3.org/2000/svg" width="198" height="56" viewBox="0 0 198 56" fill="none"><path d="M197.608 38.5239C196.621 38.5239 196 38.4244 194.988 38.5852C194.237 38.7 193.368 39.1594 192.474 39.1594C189.675 39.1594 187.068 38.8455 184.331 38.8455C184.331 38.2177 185.467 37.2607 185.69 37.1841C186.311 36.9927 186.491 37.3296 187.298 36.4798C187.366 36.4109 187.974 35.4845 188.08 35.2472C187.968 35.5075 187.769 33.9227 187.856 33.6318C187.993 33.1724 188.638 32.9351 188.868 32.8126C189.321 32.5753 189.923 32.6901 190.321 32.2843C190.842 31.7484 190.687 31.2738 191.096 30.7302C190.817 30.2096 190.457 30.0565 190.029 30.2708C190.196 29.1837 193.654 29.5818 193.554 28.6095C193.505 28.1655 184.38 28.0506 183.53 28.0506C183.53 27.6372 184.312 27.4611 184.616 27.4152C184.691 27.4075 186.913 27.4535 186.243 26.7797C185.212 25.7462 183.251 27.4535 182.183 26.351C182.301 25.9299 182.742 26.3587 182.717 25.7538C182.68 24.927 182.09 25.417 181.891 24.9882C183.158 23.5949 184.151 23.1432 185.703 22.9671C187.161 22.8063 188.98 22.768 190.296 21.8723C189.104 20.6473 186.516 22.3316 185.163 22.3316H181.097C180.116 22.3316 178.372 22.4694 177.578 21.5431C178.142 20.854 182.382 20.8234 182.407 20.632C182.58 19.1161 177.54 21.1909 177.304 19.4683C177.64 19.5908 177.838 18.6032 177.751 18.2663C177.72 18.1591 175.498 18.2663 175.678 17.562C176.069 17.8376 176.342 17.7381 176.498 17.2481C176.498 16.5744 173.618 16.2911 173.239 16.2911C173.239 15.0279 176.318 14.5149 176.895 14.3848C178.173 14.0938 179.57 13.7417 180.749 13.4354C182.307 13.0297 184.219 12.9991 185.703 12.8C186.621 12.6775 190.662 13.2517 191.084 11.9808C190.954 11.6439 190.786 11.4985 190.581 11.5291C190.581 10.5338 191.736 11.0009 192.059 10.8707C192.468 10.7023 192.94 9.78356 193.287 9.62278C194.523 9.04859 196.267 10.1587 197.316 8.84953C196.434 7.67052 193.151 8.81125 191.928 8.66579C190.203 8.46674 188.154 8.26768 186.423 8.03035C183.089 7.57099 179.862 7.21882 176.603 6.75946C173.915 6.38432 171.24 5.60342 168.509 5.17469C165.325 4.67705 162.06 4.00333 158.857 3.58225C152.023 2.67885 145.227 3.03868 138.356 1.97451C135.264 1.49984 131.751 1.46156 128.58 1.04048C124.439 0.489254 120.362 0.405039 116.203 0.405039C108.047 0.405039 99.1212 0.0911455 91.1141 0.0911455C87.1603 0.0911455 82.654 0.695964 78.9981 0.0911455C77.3036 -0.192124 75.7332 0.405039 74.0139 0.405039C71.8042 0.405039 69.8552 0.718932 67.72 0.718932C60.9978 0.718932 54.8901 1.53046 48.4907 2.62526C46.5914 2.94681 44.63 2.44917 42.7182 2.67885C40.9927 2.89322 38.9878 3.2607 37.1816 3.2607C33.7863 3.2607 30.3601 4.04926 27.0021 4.5469C23.5386 5.05985 20.1185 4.84548 16.7543 5.79482C15.3516 6.19293 13.9922 6.83602 12.5646 7.37194C11.1867 7.89254 9.32458 8.17581 8.21973 9.76059C6.74247 11.8813 8.8156 12.4555 9.9639 12.7923C10.2432 12.8766 11.0625 13.1828 11.1867 13.2594C11.2301 13.29 11.9874 14.0785 11.6956 13.5426C12.2481 14.5685 11.5653 14.247 11.7267 14.8748C12.0743 16.2452 13.4398 16.6739 12.2853 17.6845C11.7081 18.1821 10.9881 17.5926 10.3736 17.8682C9.15699 18.4118 12.4777 18.5037 12.8129 18.5037C12.8129 20.0578 10.0384 18.8022 9.60389 19.8894C9.74665 19.5296 15.1778 19.9277 15.2523 20.8464C15.3888 22.5383 12.2232 20.7545 11.7763 21.7881C11.5963 22.2015 13.3591 22.1326 13.4026 22.1326C13.7315 22.102 14.3895 22.4312 14.7122 22.3163C14.644 22.814 9.47354 22.9518 9.02043 22.9518C8.83422 23.6791 10.746 23.6331 9.94528 24.5365C9.67837 24.8428 6.82936 24.0006 6.89764 25.6313C6.89764 25.5931 8.15766 26.9252 8.27559 27.0018C9.20044 27.5606 10.5722 27.1778 11.4598 27.8822C11.2612 28.2037 10.6653 28.1731 10.3984 28.5023C10.9012 29.2909 10.1936 29.222 10.7584 30.2555C10.8887 30.4929 11.6708 30.3321 11.6894 31.0747C11.7205 32.3379 8.64181 32.4145 8.07076 32.4757C7.07764 32.5829 5.94797 32.6212 4.96106 32.4757C4.69416 32.4375 4.30312 32.1006 3.89346 32.1619C3.3969 32.2308 3.76311 32.6825 3.52724 32.736C2.64585 32.9274 2.04377 32.9351 1.43549 33.4098C1.16859 33.6241 0.672025 34.1754 0.355469 34.5429C0.932719 35.2395 0.603749 36.2654 0.88927 36.61C1.06307 36.8167 1.60307 36.8549 1.79549 36.9315C2.73275 37.299 3.43414 36.6635 3.81897 38.4091C2.66447 39.7642 4.18518 40.0245 4.78726 41.0198C5.09761 41.5327 5.439 41.9768 5.73693 42.3749C5.92935 42.6275 6.37625 42.7577 6.58108 43.1711C7.13971 44.2965 6.83557 45.2918 7.73559 46.0803C8.6356 46.8612 9.89562 46.9608 10.8018 47.6804C11.1432 47.9484 11.7329 48.7063 11.9998 49.0279C12.186 49.2576 12.5398 49.6633 12.8067 49.9389C13.1357 49.8011 13.3964 49.9619 13.5888 50.4136L13.6571 51.1026C14.4702 51.9142 14.7867 51.8223 15.7364 51.6615C16.0654 51.6079 16.3819 51.5314 16.7481 51.5314C17.3626 51.5314 17.9895 51.6079 18.4985 51.6921C19.144 51.7993 19.8951 51.7687 20.6275 51.8529C21.062 51.8989 22.5641 51.8376 22.8186 52.3199C21.9868 53.3918 23.8303 52.1515 23.7745 52.1745C24.2586 51.9984 25.6117 52.1438 26.1828 52.4118C26.6731 52.6415 26.76 53.0932 27.3683 53.1315C27.6538 53.1468 27.84 53.2004 27.9642 53.185C28.7711 53.0626 28.7711 53.0166 29.4849 53.453C30.0001 52.764 30.5773 53.6674 31.136 53.7133C31.7442 53.7592 32.8491 53.4683 33.5381 53.4453C34.6553 53.4071 35.996 53.7439 37.2312 53.7592C37.883 53.7669 38.5968 53.5985 39.0871 53.7592C39.174 53.7899 39.2547 54.9765 40.0244 55.0148C40.2416 55.0225 40.6513 54.4712 40.8499 54.3947C41.5078 54.142 42.2092 54.0655 43.0286 54.0808C43.8913 54.0961 44.6113 54.188 45.4555 54.0808C45.741 54.0502 46.2314 54.1038 46.4734 54.1267C46.8955 54.165 47.119 53.1391 47.6031 54.3947C48.1928 53.7363 48.5962 54.387 49.2355 54.3794C49.67 54.3794 50.3404 54.0655 50.8742 54.0655C51.6935 54.0655 52.5377 54.165 53.3508 54.0042C53.4749 53.9813 53.9156 53.4607 54.1267 53.43C55.1322 53.2846 56.4667 54.0272 57.3978 53.7439C58.4033 53.4454 58.1426 52.8865 59.2723 53.1085C59.9426 53.2386 60.4888 53.43 61.1716 53.4224C61.7985 53.4224 62.1523 52.9554 62.6613 52.9477C63.6854 52.9247 64.362 53.1238 65.3613 53.2616C66.4165 53.4071 67.3227 53.1315 68.3469 53.2616C68.6883 53.3075 69.1662 53.453 69.5697 53.4071C68.9055 53.476 70.9166 52.9018 70.6931 53.0396C70.8111 52.963 71.0718 52.1132 71.3262 52.1438C71.7794 52.1974 71.4193 52.8482 71.6366 52.9324C71.8725 53.0243 72.1766 52.986 72.4125 53.0932C73.4987 53.5908 74.256 52.9783 75.3173 53.0932C77.5891 53.3382 79.7305 53.0932 81.8905 53.0932C83.5106 53.0932 85.2858 52.8176 86.6451 52.7793C94.379 52.5266 102.703 53.1008 110.039 53.1008C112.106 53.1008 114.012 53.1008 116.234 53.1008H116.662C117.227 53.3611 117.699 53.1544 118.071 52.473C118.462 52.4807 119.126 53.1008 119.71 53.1008C120.622 53.1008 121.802 52.9094 122.54 52.7869C124.259 52.496 126.357 52.8176 128.182 52.6032C130.808 52.297 133.657 52.473 136.357 52.473C140.683 52.473 145.072 52.0979 149.007 51.9907C152.539 51.8989 156.511 52.297 159.931 52.3123C161.241 52.3123 178.372 53.1161 178.372 52.4654C178.372 51.9984 172.097 52.2127 171.402 51.9984C170.055 51.5926 168.596 51.9065 167.417 51.83C166.74 51.784 166.033 51.6232 165.449 51.5237C164.866 51.4242 164.847 51.2864 164.369 51.2481C164.276 51.2481 163.959 51.9065 163.736 51.83C163.736 51.4395 163.736 51.2481 163.463 51.1945C163.643 50.1303 168.515 50.8806 169.31 50.8806C171.24 50.8806 173.171 50.8806 175.101 50.8806C175.616 50.8806 175.939 50.8883 176.404 50.8041C176.473 50.6356 176.498 50.4442 176.473 50.2452C176.808 49.9925 177.019 50.0844 177.106 50.5055C177.354 50.4672 177.516 50.8041 177.739 50.8194C177.975 50.8347 178.639 50.3677 178.862 50.3753C179.452 50.3906 180.153 50.9572 180.942 50.8653C182.754 50.6586 184.436 50.9112 186.36 50.8653C189.092 50.8117 192.276 50.36 194.79 49.2729C195.249 49.0738 196.689 48.6527 197.061 48.1321C197.682 47.2747 197.514 46.2871 196.677 46.111C195.876 45.9425 194.976 47.068 195.708 44.909C196.037 43.929 196.608 43.4237 196.794 41.9768C196.85 41.5098 196.348 41.6093 196.571 41.1346C196.72 40.8131 197.068 40.7977 197.248 40.3996C197.421 40.0092 197.452 40.3001 197.614 39.4426C197.682 39.0828 198.284 38.4933 197.614 38.4933L197.608 38.5239Z" fill="#FDB809"></path></svg>