<?xml version="1.0" standalone="no"?>
<!DOCTYPE svg PUBLIC "-//W3C//DTD SVG 1.1//EN" "http://www.w3.org/Graphics/SVG/1.1/DTD/svg11.dtd" >
<svg xmlns="http://www.w3.org/2000/svg" xmlns:xlink="http://www.w3.org/1999/xlink" version="1.1">
<metadata>
Created by FontForge 20201107 at Mon Sep  8 18:04:14 2025
 By 
(c)Maikohatta
</metadata>
<defs>
<font id="TrickOrDeadRegular" horiz-adv-x="1085" >
  <font-face 
    font-family="Trick Or Dead"
    font-weight="400"
    font-stretch="normal"
    units-per-em="2048"
    panose-1="0 0 0 0 0 0 0 0 0 0"
    ascent="1638"
    descent="-410"
    x-height="1413"
    cap-height="1430"
    bbox="-184 -446.143 2403.6 1786"
    underline-thickness="0"
    underline-position="0"
    unicode-range="U+000A-00AD"
  />
<missing-glyph horiz-adv-x="1079" 
d="M102 1434h875v-1434h-875v1434zM160 1393l379 -633l381 633h-760zM514 717l-369 614v-1231zM541 674l-379 -631h758zM565 717l371 -621v1239z" />
    <glyph glyph-name=".notdef" horiz-adv-x="1079" 
d="M102 1434h875v-1434h-875v1434zM160 1393l379 -633l381 633h-760zM514 717l-369 614v-1231zM541 674l-379 -631h758zM565 717l371 -621v1239z" />
    <glyph glyph-name=".null" horiz-adv-x="0" 
 />
    <glyph glyph-name=".null" horiz-adv-x="0" 
 />
    <glyph glyph-name="nonmarkingreturn" horiz-adv-x="682" 
 />
    <glyph glyph-name="controlLF" unicode="&#xa;" horiz-adv-x="0" 
 />
    <glyph glyph-name="controlCR" unicode="&#xd;" horiz-adv-x="0" 
 />
    <glyph glyph-name="space" unicode=" " horiz-adv-x="573" 
 />
    <glyph glyph-name="exclam" unicode="!" horiz-adv-x="477" 
d="M327 339q16 3 64 3q2 0 6 -0.5t6 -0.5v-47q0 -6 -17.5 -33t-3.5 -46q7 -9 11.5 -30t6 -53t2 -53t0 -56t-0.5 -37t0.5 -5t0.5 -5q-1 0 -37 -3q-16 12 -34 30l-9 9q0 -7 -1 -20t-1 -20q-11 0 -31.5 2t-27.5 2q-6 0 -47 -2.5t-46 3.5q-17 4 -23 5q-13 1 -33.5 -4.5
t-32.5 -5.5h-12q0 35 8 53q11 26 2 36q-15 23 -13 87t13 91q2 10 1.5 14.5t-3 14.5l-3.5 14q-1 6 -2.5 19t-2.5 19v7q0 3 1 8t1 8q1 0 26 0.5t26 -0.5q32 -1 64 0l-6 -18q31 11 61 18q17 0 47 -6q10 -2 40 2zM406 1209q-14 -83 -5 -115q13 -80 9 -219t-19 -221
q-3 -23 -3 -32t2 -31.5t2 -31.5q0 -14 1 -41.5t1 -41.5q0 -12 -1 -17q-1 -6 -2 -18.5t-2 -18.5h-22.5t-29.5 2q-29 4 -63 3q3 16 7 41q-37 -26 -63 -39q-10 1 -16 2t-8.5 2t-9.5 5t-12 7q-13 7 -40 -2q-23 -8 -65 -4q-2 0 -6 0.5t-6 0.5l6 102q3 24 15 56t15 49t-4 64
q-9 43 -12 136.5t-1.5 171.5t5.5 194t4 140q0 7 -0.5 23t-0.5 23q6 1 12 3t13.5 5t12.5 4q7 -22 31 -122q2 -6 5 -17.5t4 -16.5q1 27 2.5 79t2.5 78q16 -1 33.5 -7.5t25.5 -8.5q15 -3 32.5 5t31 8t28.5 -19q12 -16 23 -21q12 -5 32.5 17t34.5 22h12q-2 -132 -12 -199z" />
    <glyph glyph-name="quotedbl" unicode="&#x22;" horiz-adv-x="858" 
d="M813 1393q0 -32 -1 -48q0 -6 -17.5 -32.5t-3.5 -45.5q20 -26 20 -160v-8v-10q-2 -178 -162 -272q28 66 28 130q0 37 -10 80q-10 0 -28 -1.5t-32.5 -1.5t-28.5 4q-17 4 -23 5q-13 1 -33.5 -4t-32.5 -5h-13q0 34 8 52q11 26 2 37q-15 23 -13 86.5t13 90.5q2 10 1.5 14.5
t-3 15t-3.5 14.5q-1 6 -2 19t-2 19q0 1 -0.5 3.5t-0.5 3.5l3 15h51q32 -1 64 0q-1 -3 -2.5 -9t-2.5 -9q33 12 60 18q17 0 47 -6q10 -2 40 2q16 3 65 3h12zM306 1390q17 3 64 3h13q0 -32 -1 -48q0 -6 -17.5 -32.5t-3.5 -45.5q20 -26 20 -160v-8v-10q-2 -178 -162 -272
q28 66 28 130q0 37 -10 80q-10 0 -28 -1.5t-32.5 -1.5t-28.5 4q-17 4 -23 5q-13 1 -33.5 -4t-32.5 -5h-13q0 34 8 52q13 25 3 37q-15 23 -13.5 86.5t12.5 90.5q2 10 1.5 14.5t-3 15t-3.5 14.5q-1 6 -2 18.5t-2 18.5q0 1 -0.5 4t-0.5 4q0 3 1.5 8t1.5 7q1 0 25.5 0.5
t25.5 -0.5q32 -1 64 0l-6 -18q31 11 61 18q17 0 47 -6q10 -2 40 2z" />
    <glyph glyph-name="quotedbl" unicode="&#x201d;" horiz-adv-x="858" 
d="M813 1393q0 -32 -1 -48q0 -6 -17.5 -32.5t-3.5 -45.5q20 -26 20 -160v-8v-10q-2 -178 -162 -272q28 66 28 130q0 37 -10 80q-10 0 -28 -1.5t-32.5 -1.5t-28.5 4q-17 4 -23 5q-13 1 -33.5 -4t-32.5 -5h-13q0 34 8 52q11 26 2 37q-15 23 -13 86.5t13 90.5q2 10 1.5 14.5
t-3 15t-3.5 14.5q-1 6 -2 19t-2 19q0 1 -0.5 3.5t-0.5 3.5l3 15h51q32 -1 64 0q-1 -3 -2.5 -9t-2.5 -9q33 12 60 18q17 0 47 -6q10 -2 40 2q16 3 65 3h12zM306 1390q17 3 64 3h13q0 -32 -1 -48q0 -6 -17.5 -32.5t-3.5 -45.5q20 -26 20 -160v-8v-10q-2 -178 -162 -272
q28 66 28 130q0 37 -10 80q-10 0 -28 -1.5t-32.5 -1.5t-28.5 4q-17 4 -23 5q-13 1 -33.5 -4t-32.5 -5h-13q0 34 8 52q13 25 3 37q-15 23 -13.5 86.5t12.5 90.5q2 10 1.5 14.5t-3 15t-3.5 14.5q-1 6 -2 18.5t-2 18.5q0 1 -0.5 4t-0.5 4q0 3 1.5 8t1.5 7q1 0 25.5 0.5
t25.5 -0.5q32 -1 64 0l-6 -18q31 11 61 18q17 0 47 -6q10 -2 40 2z" />
    <glyph glyph-name="quotedbl" unicode="&#x201c;" horiz-adv-x="858" 
d="M813 1393q0 -32 -1 -48q0 -6 -17.5 -32.5t-3.5 -45.5q20 -26 20 -160v-8v-10q-2 -178 -162 -272q28 66 28 130q0 37 -10 80q-10 0 -28 -1.5t-32.5 -1.5t-28.5 4q-17 4 -23 5q-13 1 -33.5 -4t-32.5 -5h-13q0 34 8 52q11 26 2 37q-15 23 -13 86.5t13 90.5q2 10 1.5 14.5
t-3 15t-3.5 14.5q-1 6 -2 19t-2 19q0 1 -0.5 3.5t-0.5 3.5l3 15h51q32 -1 64 0q-1 -3 -2.5 -9t-2.5 -9q33 12 60 18q17 0 47 -6q10 -2 40 2q16 3 65 3h12zM306 1390q17 3 64 3h13q0 -32 -1 -48q0 -6 -17.5 -32.5t-3.5 -45.5q20 -26 20 -160v-8v-10q-2 -178 -162 -272
q28 66 28 130q0 37 -10 80q-10 0 -28 -1.5t-32.5 -1.5t-28.5 4q-17 4 -23 5q-13 1 -33.5 -4t-32.5 -5h-13q0 34 8 52q13 25 3 37q-15 23 -13.5 86.5t12.5 90.5q2 10 1.5 14.5t-3 15t-3.5 14.5q-1 6 -2 18.5t-2 18.5q0 1 -0.5 4t-0.5 4q0 3 1.5 8t1.5 7q1 0 25.5 0.5
t25.5 -0.5q32 -1 64 0l-6 -18q31 11 61 18q17 0 47 -6q10 -2 40 2z" />
    <glyph glyph-name="numbersign" unicode="#" horiz-adv-x="1572" 
d="M1482 566q-4 -7 9 -11.5t30 -10t19 -13.5v-6q-202 0 -276 4q-75 5 -91 5q-16 -75 -39 -160.5t-53.5 -193t-41.5 -147.5q-4 -13 -7 -32q-6 1 -39 1q-5 30 -9 94v14t-1 14q-6 -19 -17.5 -56.5t-16.5 -55.5q-14 4 -29.5 13t-23.5 12q-10 4 -42 4.5t-47 22.5q-13 18 -18 21
q-10 7 -34 -3.5t-38 -7.5q-2 0 -5.5 1t-5.5 2q28 103 47 144q29 62 28 96q3 65 42 206q-132 2 -193 5q-16 -74 -37 -153.5t-55.5 -202.5t-39.5 -140q-7 -24 -8 -32q-13 2 -38 2q-5 30 -9 94q-1 5 -1 14t-1 13q-6 -19 -17 -56.5t-16 -55.5q-14 4 -30 13.5t-24 12.5
q-10 4 -42 4.5t-47 22.5q-12 16 -18 20q-10 7 -34 -3.5t-38 -7.5q-2 1 -5.5 2t-5.5 2q28 103 47 144q30 64 29 95q3 62 43 213q-13 0 -40 -0.5t-40 -0.5h-42q-19 0 -56 0.5t-56 0.5q-1 3 -7 12.5t1 14.5q6 15 5 17.5t-11 16.5l132 -3q-80 20 -136 32q1 7 8 11.5t23 8.5l16 4
q22 9 -11 19h-2q-4 2 -5 2q-21 8 -25.5 12.5t-3.5 21.5v7q191 0 286 -1h17q5 15 13.5 42t9.5 30q-26 0 -78 -1t-78 -1h-42q-19 0 -56 0.5t-56 0.5q-1 3 -7 12.5t1 14.5q6 15 5.5 18t-10.5 16q22 0 65.5 -1t65.5 -2q-80 20 -136 32q1 6 6.5 10.5t11.5 6.5t16 4.5t13 3.5
q22 9 -11 19h-2q-4 2 -5 2q-17 6 -20.5 8t-6.5 7.5t-2 17.5v7h90h106h90q32 0 92 -6q4 16 10 48l9 48q8 38 26.5 113t27.5 112q4 19 14 55q6 25 20 74t20 74q8 -1 17 2t17 2.5t18 -8.5q19 -14 30.5 -14.5t33.5 6.5q-21 -75 -50 -175q50 76 105 167q10 -4 16 -13t7.5 -17
t3 -23.5t2.5 -21.5q2 -6 4 -10t4 -5t4.5 -1.5t5.5 1.5t5.5 4t5.5 6t5.5 6.5t5.5 7t5 6.5q23 26 32.5 29t39.5 -6q2 0 6 -1t6 -1q-84 -332 -97 -379q-14 -43 -30 -84q92 4 214 4q1 4 7.5 38.5t10.5 52.5q9 37 27.5 111.5t26.5 112.5q7 34 13 55q6 25 20.5 74.5t20.5 74.5
q8 -1 17.5 1.5t17 2t17.5 -8.5q19 -14 30 -14.5t33 6.5q-16 -58 -50 -174q64 97 106 167q10 -4 16 -13t7.5 -17t3 -23.5t2.5 -21.5q3 -11 8 -14.5t9.5 -1t10.5 9t11 12.5q2 3 3.5 4.5t2.5 3.5q23 26 32.5 29t39.5 -5l12 -3q-84 -332 -97 -379q-15 -50 -29 -83q118 -2 169 -2
q11 0 33 0.5t33 0.5q3 -5 18 -20q-33 -4 -92.5 -9.5t-78.5 -7.5q-7 -1 -22 -2.5t-23 -2.5q74 -1 220 -1q0 -8 -9.5 -17t-11.5 -14q-3 -7 3.5 -14t13 -11.5t2 -10.5t-25.5 -13q-22 -5 -30 -12q-4 -6 8.5 -11t30 -10.5t20.5 -13.5v-6q-202 0 -276 4q-8 1 -23.5 2t-23.5 1
q-12 -42 -16 -75q12 0 108 -1.5t142 -1.5q11 0 33 0.5t33 0.5q3 -5 18 -20q-33 -4 -92.5 -9.5t-78.5 -7.5q-7 -1 -22 -2.5t-23 -2.5q148 -2 221 -2q0 -8 -10 -16.5t-12 -13.5q-3 -7 3.5 -14t13 -11.5t2 -10.5t-25.5 -13q-26 -9 -30 -12zM878 704q12 38 21 65q-128 0 -225 4
q-9 -31 -14 -76q92 5 218 7z" />
    <glyph glyph-name="dollar" unicode="$" horiz-adv-x="1105" 
d="M1007 603q45 -92 46 -199q0 -38 -7 -73q-13 -64 -43 -120q-47 -81 -123 -139q-73 -51 -161 -75q-2 -1 -7 -2t-7 -1q-17 -32 -14 -46q2 -7 6 -14q7 -12 11.5 -28t6 -37t2 -34t0 -38.5t-0.5 -30.5q0 -1 0.5 -4.5t0.5 -5.5q-6 0 -18.5 -1t-18.5 -2q-5 4 -34 27q-2 1 -5 4
l-4 4q-1 -6 -1 -17.5t-1 -17.5q-9 0 -18.5 0.5t-21.5 1.5t-19 1q-8 0 -46.5 -2.5t-46.5 3.5q-17 4 -23 5q-13 1 -33.5 -4t-32.5 -5h-12q0 32 8 45q1 1 3.5 5t3 5.5t1 4.5t-1 5.5t-4.5 4.5q-16 20 -13 65t13 70q2 11 1.5 17t-3 19.5t-3.5 17.5q0 1 -0.5 3t-0.5 3q-5 2 -26 11
q-93 44 -163 115l-3 2q-43 46 -71 95q-20 36 -40 88q-31 89 -38 194q8 3 17 12t13.5 10.5t20.5 -5.5q10 -7 16.5 -10t13 -1t8.5 3t11.5 10.5l13.5 13.5q2 -104 30 -188q17 -46 42 -86q-18 48 -26 92q-10 87 10 192q13 -1 22 -15.5t18 -38.5t14 -32q19 -27 28 5q1 5 3 16
q3 11 4 15q12 37 21 44.5t41 6.5h12q2 -71 20 -121q16 -41 43 -71q23 -24 59 -42q25 -11 54 -17q3 0 8.5 -1t8.5 -2q34 -4 73 -1q35 3 61 15q24 11 36 27q13 19 12 44q-2 31 -17 52l-6 6q-21 25 -43 41q-52 36 -190 89q-174 66 -260 122q-77 53 -122 123q-52 87 -53 191
q3 106 64 192q54 68 141 111q61 28 120 43q-7 27 -4.5 64t10.5 54q2 8 1.5 12.5t-3.5 13.5t-4 13q-1 7 -2 15t-2 18t-2 15q-1 4 -1 12q0 5 1 16.5t1 17.5q5 0 22 2t30 1q34 -2 64 2q-1 -15 -5 -40q40 28 60 43q10 0 16 -1t9 -2t9.5 -4.5t12.5 -6.5q15 -7 40 6q21 10 64 10
h12q1 -28 1 -83q0 -9 -16.5 -34t-2.5 -38q15 -15 20 -75q106 0 249 -10q36 -3 71 -3q1 -7 5 -20t5 -18q-15 -5 -49 -9t-64 -6t-72 -3.5t-50 -2.5q-66 -4 -92 -7q62 -1 173 -8t156 -9q0 -14 -2.5 -22t-6.5 -17.5t-7 -18.5q-2 -17 7 -35t8 -30.5t-25 -27.5q-3 -1 -11.5 -5
t-14 -8t-9.5 -8q-7 -14 25 -32t36 -36v-13q-67 1 -212.5 10t-225.5 10h-12q-207 -3 -204 -45q3 -40 225 -130q173 -70 270 -149q74 -63 116 -143z" />
    <glyph glyph-name="percent" unicode="%" horiz-adv-x="2289" 
d="M890 784q-30 -41 -53.5 -61.5t-67.5 -45.5q-125 -64 -281 -43q-142 25 -249 111q-60 52 -94 113q-38 71 -42 152q-2 112 29 180l6 12q42 88 103 144q61 51 136 79q61 23 126 27h8q170 5 205 5h68v-12v-12.5v-12t-1 -10t-3 -10.5t-6 -9t-10 -10q-4 -3 -11 -7.5t-10.5 -7.5
t-6.5 -7t0 -8.5t10 -9.5q4 -2 14 -7.5t13 -8.5l-6 9q35 11 59 26q9 6 15.5 8.5t15.5 5t16 5.5q2 -5 10 -21t12 -25q3 -6 7 -18q14 -46 19 -84q1 -6 1.5 -36t5.5 -44q12 -39 14 -99q0 -61 -15 -114l24 -24q-9 -38 -31 -81q-12 -23 -30 -49zM626 1100q7 10 6 19h-20
q-60 0 -88 1q-18 0 -52 -2l-21 -2q-21 0 -25 -4l2 -1q2 -1 2 -8q-1 -37 1 -70q3 -7 4 -9q5 -8 18 -19q20 -17 36 -27.5t29 -18.5t23.5 -7.5t17.5 0t14.5 10t11.5 15.5t10 24.5t8.5 29.5t9.5 36q7 25 13 33zM783 1293l9 -3q-2 3 -5 8.5t-4 8.5q1 -4 1 -13zM2157 606
q31 -68 29 -179q-4 -80 -43 -153q-35 -63 -93 -113q-107 -86 -249 -111q-156 -21 -281 43q-44 25 -67.5 45.5t-53.5 61.5q-18 26 -30 49q-21 43 -31 81q4 3 8 7t8.5 9t7.5 8q-15 53 -15 114q2 61 14 99q5 14 5.5 44t1.5 36q3 24 19 84q1 3 3 9.5t3 9.5q4 9 12 23.5t11 21.5
q124 -49 132 -45q3 3 -13 29q-30 47 -30 83v12q12 0 34.5 -0.5t33.5 -0.5q35 0 205 -5h8q64 -4 125 -27q77 -28 137 -79q61 -56 103 -144zM1858 448q2 25 2 40t-1.5 26.5t-9 16.5t-15 8t-24.5 2.5t-32.5 -1.5t-44.5 -3t-56 -2h-20q-1 -9 6 -19q13 -18 21 -50.5t13.5 -54.5
t18.5 -37.5t42.5 -4.5t77.5 51q12 10 18 20q2 2 4 8zM1489 1410q-80 -315 -97 -378q-10 -34 -57 -150.5t-54 -188.5q-8 -68 -29 -164.5t-37.5 -159t-51.5 -186t-43 -151.5q-4 -13 -7 -32q-7 1 -39 1q-5 30 -9 95q-1 5 -1 14v13q-6 -18 -17.5 -55.5t-16.5 -56.5q-14 4 -30 13
t-24 12q-9 4 -41 5t-47 23q-11 15 -19 20q-10 7 -33.5 -3.5t-37.5 -7.5l-12 3q28 100 48 145q29 62 28 95q3 76 52.5 246t92.5 288q10 28 17.5 57.5t16.5 76t12 58.5q9 37 27 111.5t26 112.5q4 19 14 55q6 25 20 74.5t20 74.5q8 -1 17.5 1.5t17 2t17.5 -8.5
q19 -14 30.5 -14.5t33.5 6.5q-16 -58 -50 -174q50 76 105 167q10 -4 16 -13t7.5 -17t3 -23.5t2.5 -21.5q3 -11 8 -14.5t9.5 -1t10.5 9t11 12.5q2 3 3.5 4.5t2.5 3.5q23 26 33 29t40 -5q2 -1 5.5 -2t5.5 -1z" />
    <glyph glyph-name="ampersand" unicode="&#x26;" horiz-adv-x="1478" 
d="M1242 520q31 -48 52 -96q33 -82 42 -155t-2 -161l-1 -5q-1 -5 -1 -6q-5 -38 -19 -84q-30 -102 -100 -219q-12 4 -20 0.5t-16.5 -1t-14.5 15.5q-12 24 -23 26.5t-38 -3.5q76 118 108 227q-60 -104 -160 -206q-8 6 -9 19.5t1.5 26t6.5 30t5 25.5q1 25 -11 21q-7 -1 -36 -28
q-2 -1 -3 -2q-33 -26 -43 -27.5t-39 16.5q-1 1 -4.5 3.5t-5.5 3.5q74 121 90 217q7 60 -4 107q-19 -25 -107 -120l-6.5 -6.5t-6.5 -7.5q-93 -96 -278 -124q-183 -18 -332 70q-38 24 -62 47t-29 34t-15 17.5t-23.5 5.5t-50.5 -9q-2 0 -6 -1t-6 -1q-17 86 -10 266
q10 117 77 219q32 47 60 71q15 12 37 40.5t31 37.5q-73 44 -118 86q-47 44 -73 95q-34 71 -26 146q7 50 32 96q23 40 54 71q54 51 130 87q142 61 307 62q62 -2 113 -10q0 2 0.5 5t1.5 5q2 16 1.5 23.5t-3 24.5t-3.5 24l-6 75q-1 0 0 8v9q0 7 1 21.5t1 21.5q5 0 21.5 2
t29.5 1q29 -3 64 3q-1 -17 -5 -51q9 8 27.5 24.5t27.5 24.5l5 4q10 0 16.5 -1t9.5 -2.5t9.5 -6t11.5 -7.5q4 -6 14.5 -3.5t13 3.5t13.5 7q22 13 64 13h12q1 -39 1 -118q0 -14 -17 -59.5t-3 -73.5q17 -33 19 -190q1 -3 4.5 -9t5.5 -9t2 -4q31 -67 36 -148q-8 -6 -21.5 -23
t-15.5 -19q-3 45 -11 76v-23q0 -3 0.5 -10t0.5 -10q-10 -1 -35 -5q0 -22 -1 -34q-10 0 -17.5 5.5t-16 15t-13.5 13.5v-2q-17 0 -34 3q-7 -4 -16 -12.5t-13.5 -12t-14 1.5t-21.5 23q-29 -5 -52 6q-1 1 -3.5 2t-3.5 1q-19 -30 -35 -29q-2 0 -6 0.5t-6 0.5q0 22 -1 27
q-23 -10 -34 -11h-12q0 50 1 59q-17 9 -55 19q-28 6 -54 9q-75 5 -127 -20q-2 -1 -6.5 -3.5t-6.5 -3.5q-123 -61 109 -109q214 -44 586 -63q30 -2 40.5 -2t41 3.5t40.5 4.5q12 1 51 2t60 3q7 1 22 1q9 0 25 -1t24 -1q0 -5 2 -22t1 -30q-3 -25 4 -63q-21 2 -59 4
q31 -27 61 -60q0 -10 -1.5 -16.5t-2.5 -9t-6 -9.5t-8 -12q-2 -4 -3 -8t-1 -6.5t1.5 -7t2.5 -6t4 -6.5t4 -6q4 -7 7 -12.5t4 -13t1 -10.5v-14v-14q0 -2 0.5 -6t0.5 -6q-51 -1 -152 -1q-32 2 -76.5 12.5t-62.5 12.5q53 -54 88 -106zM738 460q0 17 1.5 39.5t1.5 31t-1 21
t-6.5 18t-14.5 12.5t-25 14q-10 3 -11 4q-61 0 -97.5 -3t-72 -13.5t-55 -32t-35.5 -57t-25 -90.5l4 -7q1 -3 4 -9.5t5 -9.5q11 -21 25 -29q7 -3 15 -3q15 0 51.5 -3.5t64.5 -1.5q72 9 129 42q4 2 10.5 6.5t9.5 6.5q12 8 18 23q2 7 4 27v14z" />
    <glyph glyph-name="quotesingle" unicode="'" horiz-adv-x="428" 
d="M383 1393q0 -32 -1 -48q0 -6 -17.5 -32.5t-3.5 -45.5q20 -26 20 -160v-8v-10q-2 -179 -161 -272q27 64 27 130q0 37 -10 80q-10 0 -28 -1.5t-32.5 -1.5t-28.5 4q-17 4 -23 5q-13 1 -33.5 -4t-32.5 -5h-13q0 34 8 52q11 26 2 37q-15 23 -13 86.5t13 90.5q2 10 1.5 14.5
t-3 15t-3.5 14.5q-1 6 -2.5 19t-2.5 19v7q0 3 1 8t1 7h26q26 1 26 0q32 -1 64 0l-6 -18q31 11 61 18q17 0 47 -6q10 -2 40 2q17 3 65 3h12z" />
    <glyph glyph-name="quotesingle" unicode="&#x2019;" horiz-adv-x="428" 
d="M383 1393q0 -32 -1 -48q0 -6 -17.5 -32.5t-3.5 -45.5q20 -26 20 -160v-8v-10q-2 -179 -161 -272q27 64 27 130q0 37 -10 80q-10 0 -28 -1.5t-32.5 -1.5t-28.5 4q-17 4 -23 5q-13 1 -33.5 -4t-32.5 -5h-13q0 34 8 52q11 26 2 37q-15 23 -13 86.5t13 90.5q2 10 1.5 14.5
t-3 15t-3.5 14.5q-1 6 -2.5 19t-2.5 19v7q0 3 1 8t1 7h26q26 1 26 0q32 -1 64 0l-6 -18q31 11 61 18q17 0 47 -6q10 -2 40 2q17 3 65 3h12z" />
    <glyph glyph-name="quotesingle" unicode="&#x2018;" horiz-adv-x="428" 
d="M383 1393q0 -32 -1 -48q0 -6 -17.5 -32.5t-3.5 -45.5q20 -26 20 -160v-8v-10q-2 -179 -161 -272q27 64 27 130q0 37 -10 80q-10 0 -28 -1.5t-32.5 -1.5t-28.5 4q-17 4 -23 5q-13 1 -33.5 -4t-32.5 -5h-13q0 34 8 52q11 26 2 37q-15 23 -13 86.5t13 90.5q2 10 1.5 14.5
t-3 15t-3.5 14.5q-1 6 -2.5 19t-2.5 19v7q0 3 1 8t1 7h26q26 1 26 0q32 -1 64 0l-6 -18q31 11 61 18q17 0 47 -6q10 -2 40 2q17 3 65 3h12z" />
    <glyph glyph-name="parenleft" unicode="(" horiz-adv-x="524" 
d="M632 -340q4 -4 6.5 -7t4.5 -6.5t3 -5t1.5 -6t0.5 -6t0.5 -8t0.5 -8.5v-9q-92 -6 -138 -7q-17 0 -45.5 7t-45.5 10t-45 -5q-132 -41 -217 190q-90 247 -100 696q-9 447 66 807q77 366 208 448q34 21 70 21q3 0 72 6q14 1 41.5 3t40.5 4q6 1 20 1q34 0 51 1q1 -5 3.5 -16
t1.5 -23q-3 -20 5 -48q-10 0 -30.5 0.5t-30.5 0.5l66 -42q0 -10 -1.5 -15t-9 -12t-9.5 -10q-3 -3 -3.5 -6t-0.5 -5t2 -5.5t3 -4.5l4.5 -4.5l4.5 -4.5l6.5 -6.5t4.5 -6.5t3 -5.5t1.5 -6t0.5 -6t0.5 -8t0.5 -8.5v-9q-92 -6 -138 -7q-60 -1 -101.5 -294.5t-45.5 -659.5
q2 -129 17.5 -239t38.5 -181.5t51 -128.5t55.5 -88t50 -51t36.5 -26l14 -6q0 -4 3 -15t2 -23q-2 -18 6 -48q-10 0 -31 0.5t-31 0.5q11 -7 33 -21.5t33 -21.5q0 -10 -2 -15t-8.5 -11t-9.5 -10q-3 -3 -3.5 -6t-0.5 -5t2 -5.5t3 -4.5l4.5 -4.5zM505 -152q15 10 -9 69
q-7 17 -24.5 45.5t-44.5 69.5t-45 71q29 -265 93 -258z" />
    <glyph glyph-name="parenright" unicode=")" horiz-adv-x="522" 
d="M119 1770q132 0 224 -267q97 -284 116 -743q19 -451 -48 -782q-66 -324 -190 -369q-36 -14 -76 -1q-28 8 -45 5t-45.5 -10t-45.5 -7q-46 1 -138 7q0 2 0.5 5t0.5 4v10t0.5 9t1 7t2.5 7.5t5 6.5t7 8q1 1 5.5 5t5.5 5.5t2.5 5t0.5 6.5t-4 7q-2 3 -9.5 10t-9 12t-1.5 15
l66 42h-61q8 28 5 47q-1 12 -0.5 15.5t2.5 10.5t3 13q5 2 14.5 6.5t36 26t50.5 51t54 87t52 129t38 181.5t18 239q-4 366 -45.5 659.5t-101.5 294.5q-69 2 -138 6q0 1 0.5 4t0.5 5v10t0.5 9t1 7t2.5 7.5t5 6.5t7 8q1 1 4 3.5t4 4t3 4t2.5 4t1 4t-1 5t-3.5 5.5q-3 4 -9.5 10
t-8.5 11t-2 15q11 7 33 21.5t33 21.5q-10 0 -30.5 -0.5t-30.5 -0.5q8 28 5 48q-1 12 -0.5 15t2.5 10t3 13q17 -1 52 -1q13 0 19 -1q13 -1 40.5 -3t41.5 -4q69 -6 73 -6zM46 -155q64 -7 93 258q-18 -29 -45 -71t-44.5 -69.5t-24.5 -45.5q-24 -59 -9 -69z" />
    <glyph glyph-name="asterisk" unicode="*" horiz-adv-x="630" 
d="M539 1097q1 -1 4 -2t5.5 -2.5t4.5 -2.5l33 -21q-2 -4 -3 -8.5t-3 -8t-6 -8.5q-8 -9 -14 -30q-7 4 -20 13t-20 13q5 -9 13.5 -26.5t12.5 -25.5q-3 -6 -6 -8t-10.5 -3.5t-9.5 -1.5q-10 -2 -5 -21q1 -4 1.5 -7.5t0.5 -6t-1 -5.5t-2 -4.5t-3.5 -5.5t-3.5 -6q-1 -1 -2 -2.5
t-1 -2.5q-72 41 -89 51l-12 9q-2 -68 -2 -86q0 -4 0.5 -11.5t0.5 -11.5q-4 -1 -10.5 -3.5t-9.5 -3.5q-4 11 -9.5 32.5t-7.5 28.5q-1 2 -2.5 7.5t-2.5 8.5q-2 -52 -2 -78q-8 0 -16.5 3.5t-13.5 4.5q-8 1 -18 -3t-14.5 -4.5t-16.5 9.5q-10 10 -12 11q-6 3 -17 -9t-18 -12h-6
q0 73 4 99q2 14 3 22q-12 -7 -41 -22.5t-40 -22.5q-4 -2 -10.5 -6t-9.5 -6q-2 3 -7.5 7.5t-7.5 6.5q7 8 44 45q2 2 5.5 6t5.5 6q-12 -6 -34.5 -18.5t-34.5 -19.5q-4 7 -5.5 17t-2.5 14q-2 6 -15.5 17t-7.5 26q5 12 4 16q-1 7 -16.5 10.5t-19.5 9.5q0 1 -1 2.5t-2 2.5
q60 35 88 46q4 1 11 4t10 4q-14 8 -28.5 17t-30 18t-21.5 13q-4 2 -10 6t-10 6q2 8 4 20q4 -1 61 -15q2 0 8.5 -2t8.5 -2q-11 7 -34 20t-34 20q5 7 12.5 13t10.5 10q4 5 5.5 12.5t2 12.5t4.5 9.5t14 6.5q11 2 15 5q6 2 1.5 18.5t-1.5 22.5q0 1 1 2.5t2 2.5q63 -37 83 -53
q4 -2 11 -8t10 -9v4q-1 10 -1 30.5t-1 31.5v15q0 6 0.5 20t0.5 20q26 2 27 2q15 -3 33 2q0 -8 -1 -23.5t-1 -23.5q4 6 31 49q7 0 10.5 -1.5t8 -7.5t6.5 -8q3 -3 5 -3.5t4.5 0.5t4 2t4 4t3.5 4q4 4 7 6t6.5 3t5 1h7h8.5h6v-32v-38.5v-32.5q0 -6 -2 -18q8 6 24.5 15.5
t24.5 15.5q2 2 13 7q24 12 35 19q2 -3 7.5 -8.5t8.5 -13.5q5 -15 18 -28l-42 -21q10 -1 29 -2t29 -2q3 -6 3.5 -10t-2 -10t-3.5 -9q-3 -11 13 -14q2 -1 3 -1q3 -1 5.5 -2t4.5 -1.5t3.5 -2l2.5 -2.5t2.5 -3.5t2.5 -3.5t2.5 -4l2.5 -5q0 -1 2 -3t2 -3l-90 -51q-9 -5 -17 -8
l26 -13t26 -14z" />
    <glyph glyph-name="plus" unicode="+" horiz-adv-x="618" 
d="M558 692q-3 -6 8.5 -17t11.5 -18v-6q-72 0 -98 4q-38 7 -54 1q-8 -2 -30 -4q0 -31 -1 -83t-1 -67q0 -4 0.5 -11.5t0.5 -11.5q-4 -1 -10.5 -3.5t-9.5 -3.5q-4 11 -9.5 32.5t-7.5 28.5q-1 3 -2.5 8.5t-2.5 7.5q-1 -26 -1 -78q-8 1 -16.5 4t-14.5 4q-8 1 -18 -3t-14.5 -4.5
t-16.5 9.5q-10 10 -12 11q-6 3 -17 -9t-18 -12h-6q0 73 4 99q7 39 2 53q-5 20 -6 35l-1 1q-12 1 -18.5 0.5t-19 -2t-18.5 -1.5q-11 0 -31 -1t-31 -1h-15q-7 0 -20 0.5t-19 0.5q0 3 -2 11t-1 16q3 16 -2 34q8 0 23.5 -1t23.5 -2q-32 22 -48 32q0 7 1.5 10.5t7 7.5t7.5 6
q8 8 -6 22q-3 3 -5 6t-3.5 4.5t-2 5t-0.5 4.5v6.5v6.5v7h103q14 0 41.5 -8t41.5 -8q0 3 0.5 8.5t1.5 7.5q1 5 -2 57q-1 11 -2 30.5t-1 30.5v15q0 6 0.5 20t0.5 20q26 2 27 2q16 -3 34 2q0 -8 -1 -23.5t-2 -23.5q15 22 32 49q7 0 10.5 -1.5t8 -7.5t6.5 -8q3 -3 5 -3.5
t4.5 0.5t4 2t4 4t3.5 4q4 4 6.5 6t6 3t5.5 1h7h8h7v-103q-1 -14 -8 -40t-7 -39q34 0 90.5 -1t72.5 -1q4 0 11.5 0.5t11.5 0.5q1 -4 3.5 -10.5t3.5 -9.5q-11 -4 -32.5 -9.5t-28.5 -7.5q-3 -1 -8.5 -2.5t-7.5 -2.5q52 -2 78 -2q0 -8 -3 -17t-4 -14q-1 -8 3 -17t4 -16t-10 -15
q-9 -9 -10 -12z" />
    <glyph glyph-name="comma" unicode="," horiz-adv-x="436" 
d="M361 236q44 -68 30 -158t-65 -174.5t-107 -117.5q28 66 28 130q0 38 -10 80q-6 0 -45 -2.5t-45 3.5q-18 5 -22 5q-13 1 -34 -4t-33 -5h-12q0 34 8 52q12 25 2 37q-15 23 -13 86.5t13 90.5q2 10 1.5 14.5t-3 15t-3.5 14.5q-1 6 -2.5 19t-2.5 19v7q0 2 1 7t1 8q6 0 24 1
t28 0q32 -1 64 0l-6 -18q31 11 61 18q17 0 47 -6q10 -2 40 2q11 2 64 2h13q0 -32 -1 -48q0 -6 -17.5 -32.5t-3.5 -45.5z" />
    <glyph glyph-name="hyphen" unicode="-" horiz-adv-x="526" 
d="M482 704q-8 -8 -9 -12q-2 -6 7 -17t9 -18v-7q-52 0 -78 5q-30 7 -43 2q-26 -7 -86.5 -5.5t-89.5 7.5q-10 1 -15.5 0.5t-17 -2t-16.5 -1.5q-9 0 -27.5 -1t-27.5 -1h-13q-5 0 -16.5 0.5t-17.5 0.5q-2 26 -2 27q3 15 -2 33q7 -1 20.5 -1t20.5 -1q-18 14 -43 32q0 7 1.5 10.5
t6.5 7.5t7 6q7 8 -6 21q-9 11 -9 34v7q60 0 90 -1q9 0 40.5 -9t50.5 -2q39 11 250 7q3 0 9 0.5t9 0.5q1 -5 5 -20q-8 -3 -24 -8.5t-24 -8.5q-6 -2 -13 -5q10 -1 31 -1t31 -1q0 -8 -2.5 -17.5t-3.5 -12.5q-1 -8 2 -18t3.5 -15t-7.5 -16z" />
    <glyph glyph-name="period" unicode="." horiz-adv-x="425" 
d="M383 370q0 -31 -1 -48q0 -6 -17.5 -32.5t-3.5 -45.5q7 -9 11.5 -30t6 -53t2 -53t0 -56t-0.5 -37t0.5 -5.5t0.5 -5.5q-1 0 -37 -3q-12 9 -33 30q-1 2 -4 5.5t-5 4.5q0 -7 -1 -20t-2 -20q-9 0 -18.5 0.5t-21.5 1.5t-19 1q-6 0 -47 -2.5t-46 3.5q-18 5 -22 5q-13 1 -34 -4
t-33 -5h-12q0 34 8 52q12 25 2 37q-15 23 -13 86.5t13 90.5q2 10 1.5 14.5t-3 15t-3.5 14.5q-1 6 -2.5 19t-2.5 19v7q2 10 2 16h52q32 -1 64 0l-6 -18q31 11 61 18q17 0 47 -6q10 -2 40 2q11 2 64 2h13z" />
    <glyph glyph-name="slash" unicode="/" horiz-adv-x="907" 
d="M794 1413q2 -1 5.5 -2t5.5 -1q-80 -315 -97 -378q-10 -34 -57 -150.5t-54 -188.5q-8 -68 -29 -164.5t-37.5 -159t-51.5 -186t-43 -151.5q-4 -13 -7 -32q-7 1 -39 1q-5 30 -9 95q-1 5 -1 14v13q-6 -18 -17.5 -55.5t-16.5 -56.5q-14 4 -30 13t-24 12q-9 4 -41 5t-47 23
q-12 16 -18 20q-10 7 -34 -3.5t-38 -7.5q-2 1 -5.5 2t-5.5 1q29 106 47 145q29 62 28 95q3 75 52.5 244.5t93.5 289.5q10 28 17.5 58.5t15.5 74t12 59.5q8 38 26.5 112.5t26.5 111.5q4 19 14 55q6 25 19.5 74.5t20.5 74.5q8 -1 17.5 1.5t17 2t17.5 -8.5q19 -14 30.5 -14.5
t33.5 6.5q-16 -58 -50 -174q50 76 105 167q10 -4 16 -13t7.5 -17t3.5 -24t3 -21q3 -11 8 -14.5t9.5 -1t10.5 9t11 12.5q2 3 3.5 4.5t2.5 3.5q23 26 32.5 29t39.5 -5z" />
    <glyph glyph-name="zero" unicode="0" horiz-adv-x="1138" 
d="M1055 1009q19 -118 27.5 -244.5t-1 -268.5t-41.5 -235q-10 -34 -23 -62l-1 -2q-11 -24 -25 -46q-34 -50 -81 -82q-42 -28 -94 -42q-28 -8 -42 -10q-42 -7 -121 -7q-148 3 -274 62q-110 55 -192 154q-32 41 -63 94q-27 47 -46 111q-30 103 -33 230q0 149 30 266.5
t105 234.5q63 92 155 160q93 65 191 87q108 22 209 -4q106 -32 186 -110q76 -83 114 -199q13 -43 20 -87zM433 400q2 -2 5.5 -3.5t12 -4t10.5 3.5q1 2 -7 31t-20 74t-22 105t-13 124t7 131q-27 -85 -30 -200q0 -91 13 -152q14 -60 39 -101q1 -1 2.5 -4t2.5 -4zM706 381
q39 39 58.5 109t19.5 147t-14 158.5t-38 146.5t-56.5 108t-65.5 46q-100 -21 -144 -170q-42 -144 -14 -317q27 -166 101 -229q68 -58 153 1z" />
    <glyph glyph-name="one" unicode="1" horiz-adv-x="708" 
d="M309 6q0 95 9 146q12 67 3 97q-11 49 -12 159.5t3.5 206.5t10.5 167q1 48 1 63.5t-3 63t-4 63.5q-1 17 -1.5 36t-1 42t-0.5 36q-42 3 -60 10q-11 2 -16.5 1.5t-17.5 -3t-16 -3.5q-8 -1 -25.5 -2.5t-26.5 -2.5q-4 -1 -13 -1q-30 3 -31 3q-2 45 -2 51q2 33 -1 64
q6 -1 18 -2.5t18 -2.5q-6 10 -19 30t-19 30q0 10 1 16t2 9t4.5 9.5t5.5 12.5q6 16 -5 41q-8 19 -8 64v12h83q9 0 40 -17t49 -3q11 8 41 13t55.5 6.5t65 2.5t45.5 1t10 1q0 -1 0.5 -3t0.5 -3q9 -4 14.5 -13.5t11.5 -25t9 -21.5q4 -7 7.5 -10t7 -2.5t6 2.5t5.5 7t5 8.5t5 10
t4 9.5q16 31 24 36t39 5h12q5 -315 5 -378q-1 -33 -16.5 -154.5t-3.5 -190.5q10 -65 14.5 -158.5t4.5 -160t-2 -183t-2 -153.5q0 -6 0.5 -16t0.5 -15q-8 -1 -21 -4.5t-16 -4.5q-12 24 -33 86q-1 4 -4 12.5t-5 12.5q-1 -19 -2 -56.5t-1 -56.5q-14 1 -32.5 5t-26.5 5
q-14 1 -31.5 -4t-31.5 -5t-29 13q-16 12 -23 14q-14 3 -31.5 -12t-34.5 -16h-13z" />
    <glyph glyph-name="two" unicode="2" horiz-adv-x="1105" 
d="M1057 6q-73 0 -106 8q-45 11 -62 2q-46 -15 -155 -11.5t-162 13.5q-24 2 -36 1.5t-39 -3t-37 -3.5q-22 -1 -89 -2t-89 -2q-11 -1 -34 -1q-62 2 -92 2q-1 8 -3.5 18t-3 14.5t1.5 19.5q4 28 3.5 32.5t-9.5 31.5q40 -1 110 -5q-44 25 -114 60q0 13 5 20t18 15.5t17 11.5
q3 3 5 5.5t2.5 5t0.5 5t-2 5t-3 4t-4 4.5t-4.5 4t-5 3.5t-4.5 3.5q-6 5 -10.5 8.5t-7 8.5t-4.5 7t-2.5 8t-0.5 8v11.5v12.5v12q72 0 170.5 58.5t184.5 142.5t147.5 184t65.5 178q1 41 -12 76q-12 29 -37 54q-56 53 -143 67q-27 3 -51 -5q-22 -8 -40 -27q-27 -31 -40 -71
q-7 -20 -12 -54q-5 -32 -6 -62q-6 -1 -12 -4.5t-14 -8.5t-11 -7q-15 81 -8 157q1 3 2 9.5t2 10.5q5 25 12 46q-16 -29 -28 -62q-24 -73 -26 -165q-16 0 -33 12.5t-25 15.5q-15 3 -29.5 -6t-22 -17t-18 -1t-22.5 37q-14 38 -20 45q-10 6 -18.5 -4.5t-14.5 -27.5t-16 -33.5
t-21 -20.5h-12q2 137 37 245q39 111 115 188l5 5q70 65 172 102q54 18 128 28q34 4 72 1q103 -10 184 -48.5t157 -111.5q70 -74 108 -173q37 -107 27 -218q-11 -94 -47 -178t-77.5 -141.5t-113.5 -141.5q-50 -58 -70 -80q80 5 295 2h23q1 -8 3.5 -21t3.5 -16
q-9 -5 -19.5 -10.5t-23.5 -12t-20 -10.5q-3 -2 -8.5 -5t-8.5 -4q13 -1 41 -2t41 -1q0 -13 -3.5 -31.5t-4.5 -26.5q-1 -15 3 -32.5t3.5 -30.5t-9.5 -30q-9 -15 -11 -23q-2 -14 9 -32t12 -34q0 -2 0.5 -6t0.5 -6z" />
    <glyph glyph-name="three" unicode="3" horiz-adv-x="1099" 
d="M29 1068q22 109 81 189q49 61 117 99q16 9 32 16q23 9 48 17.5t56.5 17.5t48.5 15q76 24 183 12q91 -13 164.5 -45t144.5 -90q70 -61 109 -141q43 -94 36 -188q-1 -3 -1 -4q-11 -92 -38 -157q-25 -57 -67 -103q33 -44 57 -101q26 -65 38 -145v-6.5t1 -7.5q8 -81 -31 -170
q-38 -80 -107 -141q-127 -107 -306 -138q-190 -26 -342 50q-88 48 -147 125q-27 38 -45 76q-21 48 -30 84q7 5 17.5 17t14.5 15q36 -93 96 -153q7 -7 21 -19q21 -17 47 -33q-36 31 -57 61q-48 68 -64 157q14 3 33.5 -3.5t28.5 -6.5q15 2 26.5 10t17.5 14.5t18 6t30 -13.5
q18 -12 27 -12q11 0 25.5 22.5t30.5 25.5q2 0 6 1t6 1q6 -30 19 -51q8 -13 28 -33l2 -2q47 -40 154 -1q94 35 147 96q58 67 4 108q-43 32 -153 38h-14h-11q-22 1 -105.5 2.5t-105.5 1.5q-1 13 -1.5 29.5t-1.5 29t-4 25.5q15 -3 73 -1t62 2q-15 7 -48 17t-57 19.5t-31 17.5
q0 8 1.5 13.5t3 9t6 7.5t6.5 5.5t10.5 5.5t12.5 6q8 5 11 9.5t0 9t-6.5 7t-12.5 7.5t-12 7q-6 5 -10.5 10t-6.5 8.5t-3 10.5t-1 10v12.5v13.5v12q187 0 187 1q211 3 240 71q19 44 -42 91q-68 54 -165 60q-68 4 -121 -22q-18 -9 -33 -27q-6 -10 -10 -18q-6 -14 -7 -22
q-8 1 -38 -1q-9 42 1 82q1 1 1 2.5t1 2.5l2.5 7.5t3 8.5t3.5 8q-12 -11 -21 -22q-25 -34 -36 -83q-12 3 -20 7t-17 10t-17 10q-25 8 -39.5 0t-27 -4t-22.5 32q-7 29 -13 36q-14 11 -39 -18t-41 -30q-2 0 -6 1t-6 1z" />
    <glyph glyph-name="four" unicode="4" horiz-adv-x="1236" 
d="M766 6q0 91 9 131q11 53 3 73q-15 34 -13 148q-14 -2 -22 -4q-60 -10 -133.5 -14.5t-109 -5.5t-138.5 0.5t-118 1.5q-2 0 -5.5 -0.5t-5.5 -0.5q-1 21 16 45q8 11 -5 18q-15 9 -130 47q-2 0 -6 1.5t-6 2.5q21 53 39 77q23 29 19 48q-3 38 29.5 141.5t61.5 178.5
q8 20 13 43.5t11 60.5t8 45q8 39 23.5 110t18.5 86q2 8 5.5 26t5.5 26q32 126 36 146q8 -1 17.5 2t17.5 2.5t18 -8.5q19 -14 30.5 -14t33.5 8q-7 -29 -22.5 -86.5t-23.5 -85.5q57 88 101 165q10 -3 16 -12t8 -17t4 -23.5t3 -21.5q10 -32 40 9q3 4 5 6q22 27 31.5 30t39.5 -5
l12 -3q-42 -185 -84 -356q-7 -27 -46.5 -120.5t-40.5 -144.5q-3 -71 -28 -171q145 3 275 -5q0 2 0.5 4.5t0.5 3.5q2 37 2 50.5t-3.5 51.5t-4.5 51q-1 29 -2 61.5t-2 72.5t-2 62q-1 17 -1 51l1 72q0 72 -1 72q8 1 17 5.5t14 5.5t20 -3q29 -7 33.5 -6t30.5 15q0 -29 -1 -85.5
t-2 -84.5q28 79 58 177q13 -1 21 -8.5t17 -29.5t10 -24q4 -6 7.5 -9.5t7 -3t6 2.5t5.5 6.5t5 8t5 10t4 9.5q15 30 23.5 35t39.5 5h12q4 -236 4 -352q-1 -38 -12.5 -107t-12.5 -101q3 0 8 0.5t8 0.5q8 0 22 0.5t25.5 1t21.5 1.5q1 -7 3 -13t3 -11t0 -14q-1 -22 -0.5 -24.5
t8.5 -23.5q-14 0 -41.5 -1t-41.5 -1q80 -35 89 -39q1 -7 -1.5 -13t-5 -9t-9 -8.5t-9.5 -7.5q-3 -3 -4.5 -5.5t-1 -5t1.5 -4.5t3.5 -4t4 -3.5t5 -3.5t4.5 -3q4 -3 7 -5.5t5.5 -4.5t4 -5.5t2 -4.5t1.5 -5.5t1 -6t0.5 -7.5t0.5 -8q0 -1 0.5 -4t0.5 -5q-31 -3 -93 -7
q1 -40 -2 -305q0 -5 0.5 -15t0.5 -15q-7 -1 -37 -8q-7 15 -19 44t-14 35l-9 21l-3 -102q-14 1 -32.5 5t-26.5 5q-14 1 -31.5 -4.5t-32 -5.5t-29.5 13q-16 12 -22 14q-12 4 -32.5 -11.5t-34.5 -15.5h-12z" />
    <glyph glyph-name="five" unicode="5" horiz-adv-x="1161" 
d="M426 422q6 -29 20 -53q12 -20 28 -33l2 -2q38 -33 78 -20q10 3 29.5 7t22.5 5q84 22 140 65q22 17 38 41q10 14 14 35q4 45 4 96q0 20 -9 33q-6 9 -22 17q-8 4 -13 6q-34 12 -92 16q-6 1 -19.5 1t-20.5 1q-12 1 -18.5 0t-9 -5.5t-2.5 -8t1.5 -16t2.5 -20.5q-16 -1 -38 -5
q-11 12 -33 49q-1 2 -3 5t-3 5h-3q0 -10 -1 -29.5t-2 -29.5q-12 0 -30.5 2.5t-27.5 2.5q-14 0 -31.5 -2.5t-31.5 -2t-30 6.5q-11 6 -23 7q-13 1 -32 -6.5t-34 -7.5h-12q0 55 7 85q12 44 2 66q-16 53 -14 184t12 192q2 26 1.5 37.5t-4 38.5t-4.5 38q-1 19 -2.5 58t-3.5 58
q-1 8 -1 25q0 10 1 31t1 32q8 1 18 2.5t14 2t19 -0.5q25 -3 33 -2v12q95 0 143 -1q123 -2 525 -4q4 0 12 0.5t12 0.5q0 -2 6 -37q-9 -6 -19.5 -11.5t-23.5 -11.5t-20 -10q-3 -1 -9 -4.5t-9 -5.5q14 -1 41.5 -1.5t41.5 -0.5q0 -14 -3.5 -32.5t-4.5 -26.5q-1 -16 3 -33t4 -30
t-9 -30q-9 -15 -11 -23q-2 -14 9 -32t12 -34v-12q-72 0 -105 8q-47 12 -63 3q-38 -15 -137.5 -12.5t-142.5 13.5q-14 3 -27 2q-1 -26 8 -56q8 -32 13 -85q172 -2 275 -41q11 -4 31 -14q64 -34 103.5 -78.5t67.5 -111.5q22 -66 45 -225q4 -27 4 -59q-1 -90 -47 -178
q-42 -74 -110 -135q-128 -105 -303 -136q-91 -14 -173.5 -2t-164.5 54q-89 51 -143 125q-24 33 -41 71q-21 45 -32 87q5 4 10.5 9.5t12 12.5t9.5 10q37 -93 93 -152q18 -18 28 -26q19 -16 49 -34q-37 31 -64 69q-47 69 -63 156q14 3 33.5 -4t28.5 -7q15 2 26.5 10.5t17 15.5
t17.5 6t31 -15q17 -13 28 -13q12 0 25.5 23.5t29.5 26.5q4 0 12 2z" />
    <glyph glyph-name="six" unicode="6" horiz-adv-x="1097" 
d="M1022 667q36 -82 32 -222q-5 -92 -51 -179q-44 -76 -112 -134q-131 -105 -304 -135q-111 -15 -201.5 2.5t-152 61t-105 107t-63 140t-23.5 162t9.5 172.5t41.5 170.5t68 156.5q80 133 184 216q5 4 56 45.5t80 61.5q12 8 36 22q97 56 211 85q18 4 54 10q65 10 143 8
q1 -8 5 -17.5t4.5 -14t-3.5 -20.5q-3 -8 -4.5 -14t-2.5 -9.5t0.5 -9.5l2 -8t4 -10.5t5.5 -12.5q-76 5 -146 -4q70 -15 149 -51q-1 -13 -7 -20t-20.5 -15t-19.5 -12t-7 -7t-1.5 -6.5t1.5 -6t5 -6t6.5 -5.5t7 -5t6.5 -4q20 -15 23 -28t0 -36v-12q-71 2 -196.5 -32t-180.5 -77
l7 -1h11q75 -4 156 -31q95 -34 164 -91q74 -68 121 -170q1 -3 3.5 -7t3.5 -7zM397 424l12 -22q9 -11 11 4q0 4 -5.5 51.5t-8 96t14.5 105.5t56 88q-92 -21 -93 -214q2 -60 13 -109zM714 432q9 16 12 35q5 70 -30.5 139.5t-91.5 109.5t-107 35q-74 -96 -68 -223
q5 -101 42 -158t77 -48q1 0 3.5 1t3.5 2q2 1 5 1q65 23 117 65q26 23 37 41z" />
    <glyph glyph-name="seven" unicode="7" horiz-adv-x="1263" 
d="M721 1084q-168 -2 -287 14q-27 2 -40 1.5t-41.5 -3t-40.5 -3.5q-20 -1 -59 -2t-58 -2q-4 0 -12.5 -0.5t-12.5 -0.5q-7 0 -19 1t-21.5 1.5t-18.5 0.5q-4 44 -3 52q4 29 -3 63q12 -1 35 -2.5t35 -2.5q-27 21 -72 61q0 8 1 13.5t3 10t4 6.5t7 7.5t8 9.5q2 3 3.5 6t2 5
t-0.5 5.5t-1 4.5t-2.5 5t-3 4.5l-4.5 4.5l-3 5q-5 7 -8 12.5t-4.5 13t-2 10.5t0 13.5t0.5 14.5v12q112 0 169 -1q22 -1 94 -17t126 -4q38 8 92 12.5t122.5 6t117.5 1t125.5 -1.5t99.5 -1q5 0 13 0.5t13 0.5q1 -8 3.5 -21t3.5 -16q-16 -10 -71 -33q-4 -1 -11 -4t-11 -5
q16 0 47.5 -1t46.5 -2q0 -14 -2 -31.5t-3 -26t2 -21t11.5 -22t25.5 -22.5t44 -28q-25 -46 -77 -138t-77 -138q-18 -30 -52 -72.5t-58 -79.5t-34 -77q-5 -23 -15 -53t-25 -68.5t-20 -52.5q-43 -119 -62 -215t-22 -217q0 -31 1 -47q-8 -2 -37 -14q-12 39 -31 126
q-1 5 -3.5 16.5t-3.5 17.5q-7 -76 -7 -164q-16 0 -33 7t-26 9q-13 2 -26.5 -3.5t-22 -11t-20.5 -2t-24 20.5q-16 20 -23 24q-15 4 -31.5 -21t-33.5 -28h-12q-4 147 17 237q24 102 23 132q1 95 66 258q26 63 63 136.5t93 177t73 136.5z" />
    <glyph glyph-name="eight" unicode="8" horiz-adv-x="1110" 
d="M1058 582q7 -60 -7 -136q-5 -24 -10 -43.5t-13 -39.5t-12.5 -31t-17.5 -33t-18 -29.5t-24 -36.5t-26 -39q-15 -22 -42 -49q-116 -107 -297 -132q-96 -8 -174.5 8t-158.5 63q-82 53 -137 131q-18 28 -20 32q-10 -57 -23 -66q-2 -1 -6 -1t-6 -1q-16 89 -17 140t10 128
q21 117 83 218q37 56 81 100q15 14 43 38q-5 3 -15 11t-15 11q-75 55 -118 118q-28 45 -40 89q-12 51 -7 103q7 45 28 86q20 35 48 65q39 39 90 72q20 12 30 17q125 65 298 71q96 0 171 -19.5t150 -67.5q44 -31 72.5 -64t53.5 -80q45 -94 42 -203q-3 -58 -33 -111
q-24 -39 -60 -72l-15 -12q39 -38 67 -88q33 -64 45 -147zM401 384q13 -6 17.5 -1t9.5 26.5t9 44t15.5 53.5t28.5 54q-30 -27 -56 -67q-43 -73 -24 -110zM697 402q11 46 6 77q-5 30 -25 57q-34 44 -106 89q-11 -6 -23 -14q-39 -32 -66.5 -94t-20 -115t60.5 -55q6 0 8 -1
q5 0 14 1t13 1q75 11 127 45zM582 964q1 0 19 7.5t42.5 20.5t48.5 28t34 31t3.5 30t-48.5 23.5t-118 12.5q-189 1 -174 -43q12 -39 153 -95q23 -9 40 -15z" />
    <glyph glyph-name="nine" unicode="9" horiz-adv-x="1099" 
d="M1009 1100l6 -33q16 -103 21 -167.5t0.5 -143.5t-29.5 -154t-72 -160q-80 -133 -184 -216q-5 -4 -56 -45.5t-80 -61.5q-12 -8 -36 -22q-93 -54 -211 -84q-39 -9 -53 -11q-66 -10 -144 -8q-1 8 -5 17.5t-4.5 14t3.5 20.5q3 8 4.5 14t2.5 9.5t-0.5 9.5l-2 8t-4 10.5
t-5.5 12.5q70 -4 146 5q-75 16 -149 50q1 13 7 20t20.5 15t19.5 12t7 7t1.5 6.5t-1.5 6t-5 6t-6.5 5.5t-7 5t-6.5 4q-20 15 -23 28.5t0 36.5v12q113 -5 217 39q14 5 39.5 13.5t30.5 10.5q63 23 90 45l-7 1h-11q-75 4 -156 31q-95 34 -164 91q-74 68 -121 170q-1 3 -3.5 7
t-3.5 7q-37 84 -33 222q5 92 51 179q44 76 112 134q70 57 141.5 88.5t163.5 47.5q91 14 173.5 2t164.5 -54q57 -32 79 -51t64 -75q14 -20 34 -57q23 -44 37 -96q-7 -5 -17 -19t-13 -17q-11 30 -22 52zM703 770q9 51 9 108q-4 118 -52 213q-48 22 -120.5 -4.5t-121.5 -66.5
q-24 -21 -36 -41q-11 -18 -13 -35q-3 -41 1 -71t12.5 -49.5t27 -32t35.5 -18t47 -7t53 -0.5t62.5 2.5t67.5 1.5h28z" />
    <glyph glyph-name="colon" unicode=":" horiz-adv-x="442" 
d="M65 866q-15 23 -13.5 87t12.5 91q2 10 1.5 14.5t-3 14.5l-3.5 14q-1 6 -2 19t-2 19q-1 2 -1 7q3 15 3 16h51q32 -1 64 0q-1 -3 -2.5 -9t-2.5 -9q33 12 60 18q17 0 47 -6q10 -2 40 2q16 3 65 3q2 0 6 -0.5t6 -0.5q0 -31 -1 -47q0 -6 -17.5 -33t-3.5 -46q6 -8 10 -26t6 -37
t3 -47t1 -45v-43.5v-30.5q0 -2 0.5 -5t0.5 -5q-2 0 -38 -3q-12 9 -33 30l-9 9q0 -7 -1 -20t-2 -20q-11 0 -31.5 2t-27.5 2q-6 0 -46 -2.5t-46 3.5q-17 4 -23 5q-13 1 -33.5 -4.5t-32.5 -5.5h-12q0 37 7 53q11 26 3 36zM315 692q16 3 64 3h12q0 -32 -1 -48q0 -6 -17.5 -32.5
t-3.5 -45.5q6 -8 10 -26t6 -37t3 -47t1 -45v-43.5v-30.5q0 -2 0.5 -5.5t0.5 -5.5q-6 -1 -19 -2t-19 -1q-12 9 -33 30l-9 9q0 -6 -1 -20t-2 -20q-11 0 -31 2t-27 2q-6 0 -47 -2.5t-46 3.5q-17 4 -23 5q-13 1 -33.5 -4.5t-32.5 -5.5h-12q0 35 8 53q11 26 2 37
q-15 23 -13.5 86.5t12.5 90.5q2 10 1.5 14.5t-3 14.5l-3.5 14q-1 6 -2 19t-2 19q-1 2 -1 7q3 15 3 16h51q32 -1 64 0q-1 -3 -2.5 -9t-2.5 -9q31 11 61 18q16 0 46 -6q10 -2 41 2z" />
    <glyph glyph-name="semicolon" unicode=";" horiz-adv-x="444" 
d="M65 866q-15 23 -13 87t13 91q2 10 1.5 14.5t-3 14.5l-3.5 14q-1 6 -2.5 19t-2.5 19q-1 2 -1 7q0 2 1.5 8t1.5 8h51q32 -1 64 0q-1 -3 -2.5 -9t-2.5 -9q31 11 61 18q17 0 47 -6q10 -2 40 2q16 3 64 3q2 0 6 -0.5t6 -0.5v-47q0 -6 -17.5 -33t-3.5 -46q7 -9 11.5 -30t6 -53
t2 -53t0 -56t-0.5 -37t0.5 -5t0.5 -5q-2 0 -38 -3q-10 7 -33 30l-9 9q0 -7 -1 -20t-2 -20q-11 0 -31 2t-27 2q-6 0 -47 -2.5t-46 3.5q-17 4 -23 5q-13 1 -33.5 -4.5t-32.5 -5.5h-12q0 37 7 53q12 25 3 36zM314 692q17 3 65 3h12q0 -32 -1 -48q0 -6 -17.5 -32.5t-3.5 -45.5
q20 -26 20 -160q4 -192 -161 -290q27 64 27 130q0 37 -10 80q-10 0 -28 -1.5t-32.5 -1.5t-28.5 4q-17 4 -23 5q-13 1 -33.5 -4.5t-32.5 -5.5h-12q0 37 7 53q13 25 3 37q-15 23 -13.5 86.5t12.5 90.5q2 10 1.5 14.5t-3 14.5l-3.5 14q-1 6 -2 19t-2 19q-1 2 -1 7q0 2 1.5 8
t1.5 8h51q32 -1 64 0q-1 -3 -2.5 -9t-2.5 -9q33 12 60 18q17 0 47 -6q10 -2 40 2z" />
    <glyph glyph-name="less" unicode="&#x3c;" horiz-adv-x="688" 
d="M392 680q19 -20 64 -34t56 -20q17 -9 136 -78q0 -1 -2 -3t-2 -3q-1 -3 -3.5 -6.5t-3.5 -5.5t-2.5 -4.5t-3 -3.5t-3.5 -2.5t-4.5 -2t-6 -1t-8.5 -1.5q-5 0 -6 -0.5t-6 -1t-5.5 -1.5t-4 -3.5t-2 -5t1.5 -6.5q2 -4 5.5 -10t5 -9.5t1.5 -9t-3 -10.5q-59 4 -86 5
q22 -11 66 -35q-2 -2 -6.5 -5.5t-5 -4.5t-3.5 -3.5t-3.5 -5t-2 -6t-2.5 -8.5q-2 -9 -9.5 -16.5t-9.5 -10.5q-18 10 -56 30q-7 4 -19 12q-13 8 -38 23t-38 23q-6 4 -18.5 13t-23.5 16t-20 10q-34 11 -99.5 46.5t-79.5 55.5q-9 12 -39 21q-21 6 -72 36q0 1 1.5 3t2.5 3
q12 20 24 38t16 21t4 12.5t-4 12.5t-16 21t-24 38q0 1 -1.5 3.5t-2.5 3.5q51 30 72 36q31 9 39 20q14 20 80.5 56t99.5 47q9 3 19.5 9.5t23 15.5t18.5 13q13 8 38 23.5t38 23.5q6 4 20 12q19 10 55 30q2 -3 10 -10.5t10 -16.5q3 -14 6.5 -18.5t16.5 -15.5q-11 -6 -67 -34
q29 1 87 5q3 -5 3 -10.5t-1.5 -9.5t-5.5 -10.5t-5 -9.5q-4 -10 1.5 -13t16.5 -4h3q5 -1 8.5 -1.5t6 -1t5 -2.5t3.5 -2.5t3 -3.5t3 -4t3.5 -5.5t3.5 -6.5q0 -1 1.5 -3.5t2.5 -3.5q-74 -43 -137 -77q-11 -6 -56 -20.5t-64 -33.5q-23 -23 -70 -52q47 -29 70 -52z" />
    <glyph glyph-name="equal" unicode="=" horiz-adv-x="702" 
d="M634 814q-3 -6 10.5 -17t13.5 -18v-6q-82 0 -112 4q-46 7 -61 2q-47 -8 -118 -6.5t-119 8.5q-6 1 -65 -2q-12 -1 -35.5 -1t-35.5 -1q-3 0 -8 -0.5t-8 -0.5q-8 0 -23 1t-23 1q0 2 -2.5 13.5t0.5 13.5q3 14 -3 33q9 0 27 -1t27 -1q-18 11 -56 31q0 7 2.5 11t9 8t8.5 6t3 4
t1 4t-1.5 4t-3 3t-4 3t-3.5 3l-5 5t-3.5 4.5t-2 3.5t-1 4.5t-0.5 4.5v5.5v6.5v6h118q12 0 52.5 -9.5t64.5 -2.5q26 6 76.5 8t88 2t104.5 -1.5t76 -1.5q5 0 13 0.5t13 0.5q0 -2 8 -20q-13 -4 -37.5 -9.5t-32.5 -7.5q-3 -1 -9 -2.5t-9 -2.5q30 -1 89 -1q0 -8 -4 -17t-5 -14
q-2 -8 3 -18t5.5 -14.5t-10.5 -16.5q-10 -6 -13 -12zM634 568q-3 -6 10.5 -17t13.5 -18v-6q-82 0 -112 4q-46 7 -61 2q-47 -8 -118 -6.5t-119 8.5q-6 1 -65 -2q-12 -1 -35.5 -1t-35.5 -1q-3 0 -8 -0.5t-8 -0.5q-8 0 -23 0.5t-23 0.5q0 1 -2.5 13.5t0.5 14.5q3 14 -3 33
l54 -3q-30 18 -56 32q0 7 2.5 11t9 8t8.5 6t3 4t1 4t-1.5 4t-3 3t-4 3t-3.5 3l-5 5t-3.5 4t-2 3.5t-1 4.5t-0.5 4v5.5v6.5v7h118q12 0 52.5 -9.5t64.5 -2.5q33 7 93.5 9t151 0t100.5 -2q5 0 13 0.5t13 0.5q0 -2 8 -20q-13 -4 -37.5 -9.5t-32.5 -7.5q-3 -1 -9 -2.5t-9 -2.5
q60 -2 89 -2q0 -8 -4 -17t-5 -14q-2 -8 3 -17.5t5.5 -14t-10.5 -16.5q-10 -6 -13 -12z" />
    <glyph glyph-name="greater" unicode="&#x3e;" horiz-adv-x="690" 
d="M653 803q-12 -20 -24 -38t-16 -20.5t-4 -12.5t4 -12.5t16 -20.5t24 -38q0 -1 1.5 -3.5t2.5 -3.5q-48 -28 -72 -35q-32 -9 -40 -21q-14 -20 -80 -56t-99 -47q-9 -3 -19.5 -9.5t-23 -15.5t-18.5 -13q-12 -8 -38 -23.5t-38 -23.5q-6 -4 -20 -12q-38 -20 -56 -30
q-2 3 -9.5 10.5t-9.5 16.5q-3 14 -6.5 18.5t-16.5 15.5q22 12 66 34q-27 -1 -86 -5q-3 5 -3 10.5t1.5 9.5t5.5 10.5t5 9.5q4 10 -2 13t-17 4h-3q-6 1 -10.5 2t-7 2t-5.5 4t-3.5 4t-4 7t-4.5 8q-1 1 -2.5 3.5t-1.5 3.5q90 52 136 77q12 6 57 20.5t64 33.5q24 24 69 52
q-48 31 -69 52q-19 20 -64.5 34t-56.5 20q-17 9 -136 78q1 1 2 3t2 3q1 3 3.5 6.5t3.5 5.5t2.5 4.5t3 3.5t3.5 2.5t4.5 2t6 1t8.5 1.5q23 2 24 10q0 3 -2 7q-1 3 -5 9.5t-5.5 10.5t-1.5 9.5t3 10.5q59 -4 86 -5q-44 22 -66 34q17 15 20 24q1 4 3 10q2 9 9.5 16.5t9.5 10.5
q18 -10 56 -30q14 -8 20 -12q12 -8 38 -23.5t38 -23.5q6 -4 18.5 -13t23 -15.5t19.5 -9.5q33 -11 99 -47t80 -56q7 -11 40 -20q21 -6 72 -36q-1 -1 -2.5 -3.5t-1.5 -3.5z" />
    <glyph glyph-name="question" unicode="?" horiz-adv-x="1120" 
d="M688 368q11 2 64 2h13q0 -32 -1 -48q0 -6 -17.5 -32.5t-3.5 -45.5q7 -9 11.5 -30t6 -53t2 -53t0 -56t-0.5 -37t0.5 -5.5t0.5 -5.5q-1 0 -37 -3q-12 9 -33 30q-2 2 -5 5.5t-4 4.5q0 -6 -1 -19.5t-2 -20.5q-9 0 -18.5 0.5t-21.5 1.5t-19 1q-6 0 -47 -2.5t-46 3.5
q-18 5 -22 5q-13 1 -34 -4t-33 -5h-12q0 34 8 52q11 26 2 37q-15 23 -13 86.5t13 90.5q2 10 1.5 14.5t-3 15t-3.5 14.5q-1 6 -2 19t-2 19q0 1 -0.5 3.5t-0.5 3.5q3 15 3 16h51q32 -1 64 0q-1 -3 -2.5 -9t-2.5 -9q33 12 60 18q17 0 47 -6q10 -2 40 2zM1043 1196
q41 -85 44 -187q0 -53 -7 -102q-2 -12 -6 -34t-6 -34q-17 -80 -51 -141q-27 -46 -60 -77q-44 -41 -111 -78q-64 -34 -77 -45l-4 -4l-2 -2q-3 -3 -4 -5q-6 -10 -8 -28q-5 0 -25.5 -2.5t-26.5 3.5q-23 8 -32 8t-32 -8q5 41 20 72q11 22 24 35q-24 -9 -43 -26q-32 -26 -56 -83
q-9 1 -15 5.5t-9.5 13.5t-5.5 15t-4 18.5t-3 16.5q-10 34 -38 -6q-1 -2 -3.5 -5.5t-3.5 -5.5q-3 -4 -7.5 -11.5l-6 -10t-5 -7t-5 -5.5t-4.5 -4t-5.5 -3t-5.5 -1t-8 -0.5t-9.5 0.5t-12.5 1q-2 0 -6 0.5t-6 0.5q6 82 35 151q30 66 81 117q25 24 53.5 43t44.5 27.5t61 30.5
q2 1 14 8q7 4 22.5 10t21.5 10q16 9 25 33q15 36 4 96l-3 9q-9 26 -20 39q-4 5 -22 16q-48 26 -147 38q-28 3 -52 -5q-20 -7 -39 -28q-24 -28 -40 -71q-12 -37 -16 -73q-2 -16 -2 -49q-3 0 -38 -15q-16 65 -16 138v23q0 9 1 13q-1 -2 -2 -6t-2 -6q-24 -73 -26 -166
q-15 0 -32.5 10t-25.5 12q-13 3 -27 -3.5t-23 -13t-20.5 -1.5t-22.5 28q-17 31 -21 34q-10 4 -18.5 -4t-14 -20.5t-15 -25.5t-21.5 -16h-11q2 142 38 245q18 48 46 93q28 44 73 91q27 28 91 80q29 23 76 43q96 37 206 25q91 -11 157.5 -32.5t133.5 -65.5q74 -54 119 -136z
" />
    <glyph glyph-name="at" unicode="@" horiz-adv-x="2447" 
d="M2337 1032q51 -148 63 -272.5t-16 -278.5q-34 -136 -108 -236q-48 -60 -98 -96.5t-120 -60.5q-127 -40 -237 -39q-114 4 -207 57q-77 47 -129 124q-67 -48 -141 -82q-53 -23 -111 -36q-25 -5 -66 -9q-89 -4 -167 22q-77 29 -131 71t-108 111q-41 54 -81 129
q-29 58 -43 132q-25 155 32 305q37 86 88 145.5t132 114.5q92 56 182 81t207 32q184 6 404 -42q8 -2 97 -24q1 -5 17 -43q-158 21 -251 22h-63q142 -18 308 -67q-4 -15 -23 -28t-24 -20q-6 -13 -2 -27t11.5 -25.5t-1.5 -21t-42 -13.5q-36 -5 -45 -12q-15 -12 18 -200
t52 -260q12 -40 27 -66q13 -20 24 -27q16 -10 45 -12q48 -2 126 20q3 1 8.5 3t8.5 3q26 12 47 36q34 41 52 111q22 97 1 210q-19 87 -46 155q-47 112 -109.5 193t-160.5 156q-123 85 -246 120t-285 40q-191 -1 -363 -73q-89 -40 -156 -87t-133 -116q-61 -68 -101 -132.5
t-72 -148.5q-4 -10 -8 -23q-74 -243 -20.5 -432.5t210.5 -316.5t393 -177q4 0 10 -1.5l10 -2.5q64 -12 156 -21q143 -11 265 -3q79 7 132 19q1 0 4 1t5 1q4 -6 13 -12.5t13 -13t3 -19.5q-9 -30 -6 -34q3 -2 35 -17q1 0 7 -3q-1 -1 -2.5 -1t-2.5 -1q-19 -7 -41 -12
q-65 -14 -151 -21q-162 -10 -321 7q157 -31 324 -40q97 0 160 7q31 6 50 11q12 4 17 7q4 2 9 6q7 -7 -1 -19q-2 -3 -16 -15q-18 -15 -50 -27q-44 -19 -114 -37q-43 -12 -48 -15q-3 -3 0 -6q17 -11 135 -6q14 0 42 2l69 9q18 4 37 12q30 16 52 30q6 2 6 1q-1 -12 7 -23
q2 -1 5 -3.5t4 -3.5q-20 -24 -46 -42q-19 -12 -42 -23q-25 -11 -75 -24q-78 -19 -186 -29q-257 -18 -511 27q-344 70 -566.5 255.5t-291 462t33.5 631.5q66 199 187 369q31 42 45 58q85 98 176 165.5t214 126.5q126 55 240.5 79.5t256.5 26.5q221 -5 389 -54t339 -168
q139 -107 227.5 -224.5t153.5 -281.5zM1507 762q13 -6 25 15q8 26 10 39q1 17 1.5 22t3.5 11t9 -0.5t17 -23.5q7 -12 17 -39q8 -24 11 -36l15 -63q6 -20 16 -39q11 -15 18 19q1 6 3 23q-6 46 -10 74.5t-11 53.5t-12.5 37.5t-17.5 24t-22 14.5t-31 7t-39.5 4.5t-51.5 4
t-64 8.5q-62 9 -101 8q-32 -1 -67 -12q-5 -2 -24 -8t-24.5 -8t-21 -7.5t-23 -9t-20 -9t-23 -11.5t-22.5 -14q-34 -24 -55 -47t-37 -58q-25 -59 -19 -130q9 -70 40 -123l2 -2q29 -45 83 -55q20 -2 29 -2t25 2q35 5 73 22q26 12 54 31q9 6 38 28q42 31 80 68q-6 62 -8 89
q0 1 -2 30t-4 43l4 4l4.5 4.5l3.5 3.5q10 15 15 16q7 1 8 -0.5t3 -11.5q8 -31 14 -86q11 -82 27 -91.5t9 94.5q0 4 -2 19q-16 103 8 103q4 0 9 -3q5 -2 8.5 -5.5t8.5 -9.5t6 -8q4 -4 14 -10zM1823 127q3 0 10 0.5t11 0.5h-21q-95 4 -168 46q-64 40 -107 106q-2 -2 -5.5 -5
t-5.5 -5q40 -55 91 -90q7 -5 23 -13q77 -40 172 -40z" />
    <glyph glyph-name="A" unicode="A" horiz-adv-x="1150" 
d="M1118 26q-12 14 -45 66q-2 3 -6.5 10t-6.5 11q10 -64 14 -96q-13 -2 -33 -2h-26q-13 -1 -31.5 -8t-28 -9t-32.5 4q-13 6 -25 7q-14 -1 -30 -14t-32 -17q-2 0 -5.5 -1t-5.5 -1q-13 85 -14 121q-2 68 -16 94q-14 31 -30 90q-29 5 -54 -5q-68 -21 -321 -19
q-39 -116 -42 -127q-2 -6 -6 -17.5t-6 -16.5q-3 -9 -9.5 -26.5t-11.5 -31.5t-9 -26q-8 2 -17.5 2.5t-16 2t-17.5 7.5q-6 3 -10 5.5t-9 4t-7 2.5t-7.5 1.5t-7 0.5t-10 0.5t-11.5 0.5q26 68 40 101q-16 -14 -47.5 -43.5t-46.5 -43.5q-12 4 -17.5 9.5t-9.5 22t-5 18.5
q-2 5 -4.5 8.5t-6 4t-5.5 0.5t-7 -2t-7 -3t-7 -5t-6 -4q-8 -5 -14 -7.5t-10 -4.5t-10.5 -1t-9 1.5t-12 4t-13.5 4.5q-2 1 -5.5 2t-5.5 1q21 68 48 142q22 74 58 191t129 370t163 377q49 136 78 232q10 34 14 51q1 0 40 3q0 -48 -8 -144q-2 -26 -3 -40q26 76 55 176
q15 -5 29 -16.5t23 -16.5q19 -9 33 -3t28.5 3.5t23.5 -23.5l2 17q8 1 14.5 -0.5t12.5 -7t9 -9t10 -13t9 -12.5q22 18 35 16q1 1 2 4.5t1 5.5q7 22 13 30t13 11t29 7l12 3q12 -59 38 -176.5t38 -176.5q8 -37 18 -165.5t38 -193.5q76 -206 159 -679q1 -5 3.5 -14.5t2.5 -11.5
q-7 -2 -19.5 -7t-16.5 -6zM196 619q20 92 65 226q-54 -114 -81 -222q-15 -61 -38.5 -116.5t-28.5 -74.5q4 6 14 23t14.5 24.5t13 23t13 26.5t10.5 26.5t10.5 31t7.5 32.5zM486 507q39 6 113 6.5t115 -3.5q-27 145 -41 253q-5 48 -31 137q-57 -180 -156 -393z" />
    <glyph glyph-name="A" unicode="&#xc5;" horiz-adv-x="1150" 
d="M1118 26q-12 14 -45 66q-2 3 -6.5 10t-6.5 11q10 -64 14 -96q-13 -2 -33 -2h-26q-13 -1 -31.5 -8t-28 -9t-32.5 4q-13 6 -25 7q-14 -1 -30 -14t-32 -17q-2 0 -5.5 -1t-5.5 -1q-13 85 -14 121q-2 68 -16 94q-14 31 -30 90q-29 5 -54 -5q-68 -21 -321 -19
q-39 -116 -42 -127q-2 -6 -6 -17.5t-6 -16.5q-3 -9 -9.5 -26.5t-11.5 -31.5t-9 -26q-8 2 -17.5 2.5t-16 2t-17.5 7.5q-6 3 -10 5.5t-9 4t-7 2.5t-7.5 1.5t-7 0.5t-10 0.5t-11.5 0.5q26 68 40 101q-16 -14 -47.5 -43.5t-46.5 -43.5q-12 4 -17.5 9.5t-9.5 22t-5 18.5
q-2 5 -4.5 8.5t-6 4t-5.5 0.5t-7 -2t-7 -3t-7 -5t-6 -4q-8 -5 -14 -7.5t-10 -4.5t-10.5 -1t-9 1.5t-12 4t-13.5 4.5q-2 1 -5.5 2t-5.5 1q21 68 48 142q22 74 58 191t129 370t163 377q49 136 78 232q10 34 14 51q1 0 40 3q0 -48 -8 -144q-2 -26 -3 -40q26 76 55 176
q15 -5 29 -16.5t23 -16.5q19 -9 33 -3t28.5 3.5t23.5 -23.5l2 17q8 1 14.5 -0.5t12.5 -7t9 -9t10 -13t9 -12.5q22 18 35 16q1 1 2 4.5t1 5.5q7 22 13 30t13 11t29 7l12 3q12 -59 38 -176.5t38 -176.5q8 -37 18 -165.5t38 -193.5q76 -206 159 -679q1 -5 3.5 -14.5t2.5 -11.5
q-7 -2 -19.5 -7t-16.5 -6zM196 619q20 92 65 226q-54 -114 -81 -222q-15 -61 -38.5 -116.5t-28.5 -74.5q4 6 14 23t14.5 24.5t13 23t13 26.5t10.5 26.5t10.5 31t7.5 32.5zM486 507q39 6 113 6.5t115 -3.5q-27 145 -41 253q-5 48 -31 137q-57 -180 -156 -393z" />
    <glyph glyph-name="A" unicode="&#xc4;" horiz-adv-x="1150" 
d="M1118 26q-12 14 -45 66q-2 3 -6.5 10t-6.5 11q10 -64 14 -96q-13 -2 -33 -2h-26q-13 -1 -31.5 -8t-28 -9t-32.5 4q-13 6 -25 7q-14 -1 -30 -14t-32 -17q-2 0 -5.5 -1t-5.5 -1q-13 85 -14 121q-2 68 -16 94q-14 31 -30 90q-29 5 -54 -5q-68 -21 -321 -19
q-39 -116 -42 -127q-2 -6 -6 -17.5t-6 -16.5q-3 -9 -9.5 -26.5t-11.5 -31.5t-9 -26q-8 2 -17.5 2.5t-16 2t-17.5 7.5q-6 3 -10 5.5t-9 4t-7 2.5t-7.5 1.5t-7 0.5t-10 0.5t-11.5 0.5q26 68 40 101q-16 -14 -47.5 -43.5t-46.5 -43.5q-12 4 -17.5 9.5t-9.5 22t-5 18.5
q-2 5 -4.5 8.5t-6 4t-5.5 0.5t-7 -2t-7 -3t-7 -5t-6 -4q-8 -5 -14 -7.5t-10 -4.5t-10.5 -1t-9 1.5t-12 4t-13.5 4.5q-2 1 -5.5 2t-5.5 1q21 68 48 142q22 74 58 191t129 370t163 377q49 136 78 232q10 34 14 51q1 0 40 3q0 -48 -8 -144q-2 -26 -3 -40q26 76 55 176
q15 -5 29 -16.5t23 -16.5q19 -9 33 -3t28.5 3.5t23.5 -23.5l2 17q8 1 14.5 -0.5t12.5 -7t9 -9t10 -13t9 -12.5q22 18 35 16q1 1 2 4.5t1 5.5q7 22 13 30t13 11t29 7l12 3q12 -59 38 -176.5t38 -176.5q8 -37 18 -165.5t38 -193.5q76 -206 159 -679q1 -5 3.5 -14.5t2.5 -11.5
q-7 -2 -19.5 -7t-16.5 -6zM196 619q20 92 65 226q-54 -114 -81 -222q-15 -61 -38.5 -116.5t-28.5 -74.5q4 6 14 23t14.5 24.5t13 23t13 26.5t10.5 26.5t10.5 31t7.5 32.5zM486 507q39 6 113 6.5t115 -3.5q-27 145 -41 253q-5 48 -31 137q-57 -180 -156 -393z" />
    <glyph glyph-name="A" unicode="&#xc3;" horiz-adv-x="1150" 
d="M1118 26q-12 14 -45 66q-2 3 -6.5 10t-6.5 11q10 -64 14 -96q-13 -2 -33 -2h-26q-13 -1 -31.5 -8t-28 -9t-32.5 4q-13 6 -25 7q-14 -1 -30 -14t-32 -17q-2 0 -5.5 -1t-5.5 -1q-13 85 -14 121q-2 68 -16 94q-14 31 -30 90q-29 5 -54 -5q-68 -21 -321 -19
q-39 -116 -42 -127q-2 -6 -6 -17.5t-6 -16.5q-3 -9 -9.5 -26.5t-11.5 -31.5t-9 -26q-8 2 -17.5 2.5t-16 2t-17.5 7.5q-6 3 -10 5.5t-9 4t-7 2.5t-7.5 1.5t-7 0.5t-10 0.5t-11.5 0.5q26 68 40 101q-16 -14 -47.5 -43.5t-46.5 -43.5q-12 4 -17.5 9.5t-9.5 22t-5 18.5
q-2 5 -4.5 8.5t-6 4t-5.5 0.5t-7 -2t-7 -3t-7 -5t-6 -4q-8 -5 -14 -7.5t-10 -4.5t-10.5 -1t-9 1.5t-12 4t-13.5 4.5q-2 1 -5.5 2t-5.5 1q21 68 48 142q22 74 58 191t129 370t163 377q49 136 78 232q10 34 14 51q1 0 40 3q0 -48 -8 -144q-2 -26 -3 -40q26 76 55 176
q15 -5 29 -16.5t23 -16.5q19 -9 33 -3t28.5 3.5t23.5 -23.5l2 17q8 1 14.5 -0.5t12.5 -7t9 -9t10 -13t9 -12.5q22 18 35 16q1 1 2 4.5t1 5.5q7 22 13 30t13 11t29 7l12 3q12 -59 38 -176.5t38 -176.5q8 -37 18 -165.5t38 -193.5q76 -206 159 -679q1 -5 3.5 -14.5t2.5 -11.5
q-7 -2 -19.5 -7t-16.5 -6zM196 619q20 92 65 226q-54 -114 -81 -222q-15 -61 -38.5 -116.5t-28.5 -74.5q4 6 14 23t14.5 24.5t13 23t13 26.5t10.5 26.5t10.5 31t7.5 32.5zM486 507q39 6 113 6.5t115 -3.5q-27 145 -41 253q-5 48 -31 137q-57 -180 -156 -393z" />
    <glyph glyph-name="A" unicode="&#xc2;" horiz-adv-x="1150" 
d="M1118 26q-12 14 -45 66q-2 3 -6.5 10t-6.5 11q10 -64 14 -96q-13 -2 -33 -2h-26q-13 -1 -31.5 -8t-28 -9t-32.5 4q-13 6 -25 7q-14 -1 -30 -14t-32 -17q-2 0 -5.5 -1t-5.5 -1q-13 85 -14 121q-2 68 -16 94q-14 31 -30 90q-29 5 -54 -5q-68 -21 -321 -19
q-39 -116 -42 -127q-2 -6 -6 -17.5t-6 -16.5q-3 -9 -9.5 -26.5t-11.5 -31.5t-9 -26q-8 2 -17.5 2.5t-16 2t-17.5 7.5q-6 3 -10 5.5t-9 4t-7 2.5t-7.5 1.5t-7 0.5t-10 0.5t-11.5 0.5q26 68 40 101q-16 -14 -47.5 -43.5t-46.5 -43.5q-12 4 -17.5 9.5t-9.5 22t-5 18.5
q-2 5 -4.5 8.5t-6 4t-5.5 0.5t-7 -2t-7 -3t-7 -5t-6 -4q-8 -5 -14 -7.5t-10 -4.5t-10.5 -1t-9 1.5t-12 4t-13.5 4.5q-2 1 -5.5 2t-5.5 1q21 68 48 142q22 74 58 191t129 370t163 377q49 136 78 232q10 34 14 51q1 0 40 3q0 -48 -8 -144q-2 -26 -3 -40q26 76 55 176
q15 -5 29 -16.5t23 -16.5q19 -9 33 -3t28.5 3.5t23.5 -23.5l2 17q8 1 14.5 -0.5t12.5 -7t9 -9t10 -13t9 -12.5q22 18 35 16q1 1 2 4.5t1 5.5q7 22 13 30t13 11t29 7l12 3q12 -59 38 -176.5t38 -176.5q8 -37 18 -165.5t38 -193.5q76 -206 159 -679q1 -5 3.5 -14.5t2.5 -11.5
q-7 -2 -19.5 -7t-16.5 -6zM196 619q20 92 65 226q-54 -114 -81 -222q-15 -61 -38.5 -116.5t-28.5 -74.5q4 6 14 23t14.5 24.5t13 23t13 26.5t10.5 26.5t10.5 31t7.5 32.5zM486 507q39 6 113 6.5t115 -3.5q-27 145 -41 253q-5 48 -31 137q-57 -180 -156 -393z" />
    <glyph glyph-name="A" unicode="&#xc1;" horiz-adv-x="1150" 
d="M1118 26q-12 14 -45 66q-2 3 -6.5 10t-6.5 11q10 -64 14 -96q-13 -2 -33 -2h-26q-13 -1 -31.5 -8t-28 -9t-32.5 4q-13 6 -25 7q-14 -1 -30 -14t-32 -17q-2 0 -5.5 -1t-5.5 -1q-13 85 -14 121q-2 68 -16 94q-14 31 -30 90q-29 5 -54 -5q-68 -21 -321 -19
q-39 -116 -42 -127q-2 -6 -6 -17.5t-6 -16.5q-3 -9 -9.5 -26.5t-11.5 -31.5t-9 -26q-8 2 -17.5 2.5t-16 2t-17.5 7.5q-6 3 -10 5.5t-9 4t-7 2.5t-7.5 1.5t-7 0.5t-10 0.5t-11.5 0.5q26 68 40 101q-16 -14 -47.5 -43.5t-46.5 -43.5q-12 4 -17.5 9.5t-9.5 22t-5 18.5
q-2 5 -4.5 8.5t-6 4t-5.5 0.5t-7 -2t-7 -3t-7 -5t-6 -4q-8 -5 -14 -7.5t-10 -4.5t-10.5 -1t-9 1.5t-12 4t-13.5 4.5q-2 1 -5.5 2t-5.5 1q21 68 48 142q22 74 58 191t129 370t163 377q49 136 78 232q10 34 14 51q1 0 40 3q0 -48 -8 -144q-2 -26 -3 -40q26 76 55 176
q15 -5 29 -16.5t23 -16.5q19 -9 33 -3t28.5 3.5t23.5 -23.5l2 17q8 1 14.5 -0.5t12.5 -7t9 -9t10 -13t9 -12.5q22 18 35 16q1 1 2 4.5t1 5.5q7 22 13 30t13 11t29 7l12 3q12 -59 38 -176.5t38 -176.5q8 -37 18 -165.5t38 -193.5q76 -206 159 -679q1 -5 3.5 -14.5t2.5 -11.5
q-7 -2 -19.5 -7t-16.5 -6zM196 619q20 92 65 226q-54 -114 -81 -222q-15 -61 -38.5 -116.5t-28.5 -74.5q4 6 14 23t14.5 24.5t13 23t13 26.5t10.5 26.5t10.5 31t7.5 32.5zM486 507q39 6 113 6.5t115 -3.5q-27 145 -41 253q-5 48 -31 137q-57 -180 -156 -393z" />
    <glyph glyph-name="A" unicode="&#xc0;" horiz-adv-x="1150" 
d="M1118 26q-12 14 -45 66q-2 3 -6.5 10t-6.5 11q10 -64 14 -96q-13 -2 -33 -2h-26q-13 -1 -31.5 -8t-28 -9t-32.5 4q-13 6 -25 7q-14 -1 -30 -14t-32 -17q-2 0 -5.5 -1t-5.5 -1q-13 85 -14 121q-2 68 -16 94q-14 31 -30 90q-29 5 -54 -5q-68 -21 -321 -19
q-39 -116 -42 -127q-2 -6 -6 -17.5t-6 -16.5q-3 -9 -9.5 -26.5t-11.5 -31.5t-9 -26q-8 2 -17.5 2.5t-16 2t-17.5 7.5q-6 3 -10 5.5t-9 4t-7 2.5t-7.5 1.5t-7 0.5t-10 0.5t-11.5 0.5q26 68 40 101q-16 -14 -47.5 -43.5t-46.5 -43.5q-12 4 -17.5 9.5t-9.5 22t-5 18.5
q-2 5 -4.5 8.5t-6 4t-5.5 0.5t-7 -2t-7 -3t-7 -5t-6 -4q-8 -5 -14 -7.5t-10 -4.5t-10.5 -1t-9 1.5t-12 4t-13.5 4.5q-2 1 -5.5 2t-5.5 1q21 68 48 142q22 74 58 191t129 370t163 377q49 136 78 232q10 34 14 51q1 0 40 3q0 -48 -8 -144q-2 -26 -3 -40q26 76 55 176
q15 -5 29 -16.5t23 -16.5q19 -9 33 -3t28.5 3.5t23.5 -23.5l2 17q8 1 14.5 -0.5t12.5 -7t9 -9t10 -13t9 -12.5q22 18 35 16q1 1 2 4.5t1 5.5q7 22 13 30t13 11t29 7l12 3q12 -59 38 -176.5t38 -176.5q8 -37 18 -165.5t38 -193.5q76 -206 159 -679q1 -5 3.5 -14.5t2.5 -11.5
q-7 -2 -19.5 -7t-16.5 -6zM196 619q20 92 65 226q-54 -114 -81 -222q-15 -61 -38.5 -116.5t-28.5 -74.5q4 6 14 23t14.5 24.5t13 23t13 26.5t10.5 26.5t10.5 31t7.5 32.5zM486 507q39 6 113 6.5t115 -3.5q-27 145 -41 253q-5 48 -31 137q-57 -180 -156 -393z" />
    <glyph glyph-name="B" unicode="B" horiz-adv-x="1157" 
d="M1070 670q75 -99 78 -222q-3 -113 -61 -207q-58 -88 -162 -147q-94 -47 -186 -66t-211 -21q-92 0 -101 -2q-13 27 -33 85q-1 4 -4 12.5t-5 12.5q-2 -74 -3 -112q-14 1 -32.5 5t-26.5 5q-14 1 -31.5 -4.5t-32 -5.5t-29.5 13q-19 14 -22 15q-14 3 -32 -12t-35 -16h-12
q0 95 9 146q12 66 3 96q-11 49 -12.5 159t3.5 208.5t11 166.5q5 52 -2 168t-7 129q-7 -1 -21 -4.5t-21 -5.5q-3 6 -7 11.5t-9 11.5t-8 10q48 23 146 61q7 3 19 6.5t19 6.5q-100 -9 -198 -30q-3 15 2.5 33.5t5.5 27.5q0 13 -9 25t-17 19t-6 19.5t20 28.5q22 19 25 29
q4 11 -12 18t-36.5 14.5t-23.5 19.5l-3 12q176 38 279 36q11 0 35 -1t38.5 -1.5t35 0.5t36.5 5q99 18 245 -19q128 -36 221 -109q95 -80 130 -174l2 -4q1 -4 1 -5q33 -100 29 -191q-3 -41 -16 -82q-20 -58 -48 -100q42 -27 82 -74zM467 1101q0 -9 0.5 -28t0.5 -28
q-1 -40 -14 -139q91 3 176 -7q31 0 55 12q97 49 41 106q-43 43 -143 68q-54 11 -116 16zM616 82q19 5 44 14q-85 -10 -196 -7q0 -7 -0.5 -20.5t-0.5 -19.5q80 13 153 33zM665 347q41 2 78 21t53 46.5t13.5 56.5t-44.5 54t-118 36q-89 12 -149 10q-24 -2 -37 -2q6 -86 6 -227
q53 -2 198 5z" />
    <glyph glyph-name="C" unicode="C" horiz-adv-x="1069" 
d="M1023 640q2 0 5.5 0.5t5.5 0.5q6 -177 -5 -277q-8 -65 -22.5 -112.5t-44.5 -96.5q-35 -51 -80 -82q-41 -27 -95 -42q-21 -6 -42 -9q-48 -8 -121 -8q-148 3 -274 62q-110 55 -192 154q-32 41 -63 94q-27 48 -46 112q-30 103 -33 229q0 149 30 266.5t105 234.5
q65 94 155 161q90 63 191 87q108 22 209 -4q105 -31 186 -111q106 -114 134 -286q10 -68 10 -123q-8 -4 -21.5 -18t-16.5 -16q-11 130 -52 226q-15 36 -35 70q-27 42 -55 70q46 -59 74 -145q29 -104 23 -227q-15 1 -32 18t-26 21q-15 3 -29 -7t-21 -19.5t-18 -2.5t-25 39
q-15 32 -24 38q-10 7 -19.5 -11.5t-21 -41t-24.5 -22.5h-12q3 77 -14 141q-12 39 -31 66q-12 15 -15 17q-4 4 -20 12q-27 11 -55 3q-8 -3 -23 -12q-28 -20 -44 -32q-40 -35 -70 -80q-76 -124 -82 -312q0 -91 13 -152q14 -60 39 -101q10 -16 16 -23q19 -22 51 -34
q48 -16 85 -21t62 1.5t42.5 22t26.5 39.5t14.5 54.5t5.5 67v77.5q8 2 17 9t13.5 8.5t20.5 -4.5q7 -4 12 -6.5t10 -3t7.5 -0.5t7.5 3t7 4.5t9 8t10 9.5q2 -146 -9 -227q40 83 64 238q8 -1 15.5 -8t12.5 -19.5t8.5 -23.5t7 -26t5.5 -20q17 -42 34 15q1 4 3 11q2 8 3 11
q2 6 5 15.5t4 13t3.5 10t4 8.5t4 6t5 5t6 3t8 2.5t10.5 1t13 0.5z" />
    <glyph glyph-name="C" unicode="&#xc7;" horiz-adv-x="1069" 
d="M1023 640q2 0 5.5 0.5t5.5 0.5q6 -177 -5 -277q-8 -65 -22.5 -112.5t-44.5 -96.5q-35 -51 -80 -82q-41 -27 -95 -42q-21 -6 -42 -9q-48 -8 -121 -8q-148 3 -274 62q-110 55 -192 154q-32 41 -63 94q-27 48 -46 112q-30 103 -33 229q0 149 30 266.5t105 234.5
q65 94 155 161q90 63 191 87q108 22 209 -4q105 -31 186 -111q106 -114 134 -286q10 -68 10 -123q-8 -4 -21.5 -18t-16.5 -16q-11 130 -52 226q-15 36 -35 70q-27 42 -55 70q46 -59 74 -145q29 -104 23 -227q-15 1 -32 18t-26 21q-15 3 -29 -7t-21 -19.5t-18 -2.5t-25 39
q-15 32 -24 38q-10 7 -19.5 -11.5t-21 -41t-24.5 -22.5h-12q3 77 -14 141q-12 39 -31 66q-12 15 -15 17q-4 4 -20 12q-27 11 -55 3q-8 -3 -23 -12q-28 -20 -44 -32q-40 -35 -70 -80q-76 -124 -82 -312q0 -91 13 -152q14 -60 39 -101q10 -16 16 -23q19 -22 51 -34
q48 -16 85 -21t62 1.5t42.5 22t26.5 39.5t14.5 54.5t5.5 67v77.5q8 2 17 9t13.5 8.5t20.5 -4.5q7 -4 12 -6.5t10 -3t7.5 -0.5t7.5 3t7 4.5t9 8t10 9.5q2 -146 -9 -227q40 83 64 238q8 -1 15.5 -8t12.5 -19.5t8.5 -23.5t7 -26t5.5 -20q17 -42 34 15q1 4 3 11q2 8 3 11
q2 6 5 15.5t4 13t3.5 10t4 8.5t4 6t5 5t6 3t8 2.5t10.5 1t13 0.5z" />
    <glyph glyph-name="D" unicode="D" 
d="M1076 771q7 -141 -43 -280q-30 -76 -67 -133t-93 -116q-62 -60 -124 -100.5t-145 -75.5q-110 -43 -235 -64q-12 24 -34 89q-1 4 -4 12.5t-5 12.5q-1 -37 -3 -113q-14 1 -31.5 5t-26.5 5q-14 1 -31.5 -4.5t-32 -5.5t-29.5 13q-18 14 -23 15q-14 3 -31.5 -12t-34.5 -16h-12
q0 101 8 146q12 66 3 96q-11 49 -12.5 159t3.5 208.5t11 166.5q2 46 2 63t-3.5 63.5t-4.5 63.5q-2 48 -4 144h-15q-1 8 -6.5 17.5t-6.5 14.5t4 20q4 8 5.5 14l2.5 10t-1 9t-3.5 7.5l-6 10l-7.5 12.5q98 -1 196 -12q-90 38 -204 68q1 10 10 18.5t18 12t26 8.5t22 7
q33 16 -7 33q-4 1 -11 4t-10 4q-37 16 -43.5 24t-5.5 40v12q212 0 356 -24h6h12v-3q15 -3 72 -14q1 0 3 -1t3 -1q91 -24 158.5 -58.5t147.5 -95.5q87 -66 159 -144q26 -29 49 -67q67 -116 79 -268zM470 94q18 8 52 26q-46 -16 -117 -30v-21q44 16 65 25zM720 612
q25 72 24 146q-3 74 -29 132q-22 44 -63 88q-12 12 -30 25q-47 30 -134 56q-46 14 -79 21v-35q-1 -33 -16.5 -154.5t-3.5 -190.5q19 -119 19 -350q14 3 71 19q2 1 6 2t6 2q96 31 129 77q9 14 19 25q56 72 81 137z" />
    <glyph glyph-name="E" unicode="E" horiz-adv-x="1056" 
d="M1018 104q-9 -15 -11 -23q-2 -14 9 -32.5t12 -34.5v-12q-68 0 -104 9q-45 11 -63 2q-46 -15 -155 -11.5t-162 13.5q-24 2 -36 1.5t-39 -3t-37 -3.5q-4 0 -11 -0.5t-11 -0.5q-3 -1 -8.5 -2t-8.5 -2l-1 1q0 2 -1 2q-7 0 -22 -0.5t-22 -0.5v-4q-16 0 -28 3h-21
q-11 -1 -34 -1q-4 0 -11 0.5t-11 0.5q-19 -4 -30 0q-7 0 -20.5 0.5t-20.5 0.5q-1 10 -5 24q-10 0 -26 -13t-33 -15h-12q0 101 8 146q12 66 3 96q-21 92 -9 361h-59h-11q0 10 -2 28q8 12 33 25q2 1 6.5 3.5t6.5 3.5q-8 0 -23.5 1t-23.5 1q0 14 2 44q0 5 -2 35t3 35q5 13 5 17
q1 9 -4 24t-5 26v9q35 0 66 -6q4 0 10.5 -2t9.5 -2q-1 23 -3.5 65.5t-3.5 55.5q-1 37 -2.5 111.5t-3.5 111.5q-1 18 -1 55v149q8 1 17 6t14 6t20 -3q1 -1 4.5 -2.5t5.5 -1.5v17v12h233q22 -1 92 -17t111 -4q28 7 67 11.5t89 5.5t85 1t92 -1t72 -1q4 0 11.5 0.5t11.5 0.5
q1 -8 3.5 -21t3.5 -16q-9 -6 -19.5 -11.5t-23.5 -11.5t-20 -10q-3 -2 -8.5 -5t-8.5 -4l81 -3q0 -14 -3.5 -32.5t-4.5 -26.5q-1 -16 3 -33t4 -30t-9 -30q-10 -16 -11 -22q-2 -14 9 -32.5t12 -34.5v-12q-73 0 -105 8q-2 0 -12 3t-13.5 3.5t-11.5 1t-13.5 -0.5t-11.5 -4
q-46 -15 -155 -11.5t-162 13.5q-24 2 -36 1.5t-38 -3t-37 -3.5v-54q0 -29 -3.5 -59.5t-9 -69t-7.5 -55.5q85 -2 137 -5q29 -1 42 -0.5t42.5 4t41.5 4.5q84 6 126 10q18 2 28 2q1 0 27.5 1t39.5 2q1 -5 4.5 -16t2.5 -23q-3 -21 7 -47q-13 -1 -40 -1t-41 -1q15 -7 44 -20
t44 -19q1 -7 -1.5 -13t-5 -9t-9 -8.5t-9.5 -7.5q-3 -3 -4.5 -5.5t-1 -5t1.5 -4.5t3.5 -4t4 -3.5t5 -3.5t4.5 -3q4 -3 7 -5.5t5.5 -4.5t4 -5.5t2 -4.5t1.5 -5.5t1 -6t0.5 -7.5t0.5 -8t0.5 -5t0.5 -4q-115 -11 -198 -13q-31 -1 -78 5.5t-76 9.5t-79 -6q-27 -5 -75 -10
q9 -111 9 -279q13 -3 39.5 -9.5t41.5 -9t37 -3t42 5.5q63 17 198.5 19t206.5 -2q4 0 11.5 0.5t11.5 0.5q1 -8 3.5 -21t3.5 -16q-13 -8 -63 -34q-3 -2 -8.5 -5t-8.5 -4l81 -3q0 -14 -3 -32.5t-4 -25.5q-1 -15 3 -32.5t3.5 -30.5t-9.5 -30z" />
    <glyph glyph-name="E" unicode="&#xcb;" horiz-adv-x="1056" 
d="M1018 104q-9 -15 -11 -23q-2 -14 9 -32.5t12 -34.5v-12q-68 0 -104 9q-45 11 -63 2q-46 -15 -155 -11.5t-162 13.5q-24 2 -36 1.5t-39 -3t-37 -3.5q-4 0 -11 -0.5t-11 -0.5q-3 -1 -8.5 -2t-8.5 -2l-1 1q0 2 -1 2q-7 0 -22 -0.5t-22 -0.5v-4q-16 0 -28 3h-21
q-11 -1 -34 -1q-4 0 -11 0.5t-11 0.5q-19 -4 -30 0q-7 0 -20.5 0.5t-20.5 0.5q-1 10 -5 24q-10 0 -26 -13t-33 -15h-12q0 101 8 146q12 66 3 96q-21 92 -9 361h-59h-11q0 10 -2 28q8 12 33 25q2 1 6.5 3.5t6.5 3.5q-8 0 -23.5 1t-23.5 1q0 14 2 44q0 5 -2 35t3 35q5 13 5 17
q1 9 -4 24t-5 26v9q35 0 66 -6q4 0 10.5 -2t9.5 -2q-1 23 -3.5 65.5t-3.5 55.5q-1 37 -2.5 111.5t-3.5 111.5q-1 18 -1 55v149q8 1 17 6t14 6t20 -3q1 -1 4.5 -2.5t5.5 -1.5v17v12h233q22 -1 92 -17t111 -4q28 7 67 11.5t89 5.5t85 1t92 -1t72 -1q4 0 11.5 0.5t11.5 0.5
q1 -8 3.5 -21t3.5 -16q-9 -6 -19.5 -11.5t-23.5 -11.5t-20 -10q-3 -2 -8.5 -5t-8.5 -4l81 -3q0 -14 -3.5 -32.5t-4.5 -26.5q-1 -16 3 -33t4 -30t-9 -30q-10 -16 -11 -22q-2 -14 9 -32.5t12 -34.5v-12q-73 0 -105 8q-2 0 -12 3t-13.5 3.5t-11.5 1t-13.5 -0.5t-11.5 -4
q-46 -15 -155 -11.5t-162 13.5q-24 2 -36 1.5t-38 -3t-37 -3.5v-54q0 -29 -3.5 -59.5t-9 -69t-7.5 -55.5q85 -2 137 -5q29 -1 42 -0.5t42.5 4t41.5 4.5q84 6 126 10q18 2 28 2q1 0 27.5 1t39.5 2q1 -5 4.5 -16t2.5 -23q-3 -21 7 -47q-13 -1 -40 -1t-41 -1q15 -7 44 -20
t44 -19q1 -7 -1.5 -13t-5 -9t-9 -8.5t-9.5 -7.5q-3 -3 -4.5 -5.5t-1 -5t1.5 -4.5t3.5 -4t4 -3.5t5 -3.5t4.5 -3q4 -3 7 -5.5t5.5 -4.5t4 -5.5t2 -4.5t1.5 -5.5t1 -6t0.5 -7.5t0.5 -8t0.5 -5t0.5 -4q-115 -11 -198 -13q-31 -1 -78 5.5t-76 9.5t-79 -6q-27 -5 -75 -10
q9 -111 9 -279q13 -3 39.5 -9.5t41.5 -9t37 -3t42 5.5q63 17 198.5 19t206.5 -2q4 0 11.5 0.5t11.5 0.5q1 -8 3.5 -21t3.5 -16q-13 -8 -63 -34q-3 -2 -8.5 -5t-8.5 -4l81 -3q0 -14 -3 -32.5t-4 -25.5q-1 -15 3 -32.5t3.5 -30.5t-9.5 -30z" />
    <glyph glyph-name="E" unicode="&#xca;" horiz-adv-x="1056" 
d="M1018 104q-9 -15 -11 -23q-2 -14 9 -32.5t12 -34.5v-12q-68 0 -104 9q-45 11 -63 2q-46 -15 -155 -11.5t-162 13.5q-24 2 -36 1.5t-39 -3t-37 -3.5q-4 0 -11 -0.5t-11 -0.5q-3 -1 -8.5 -2t-8.5 -2l-1 1q0 2 -1 2q-7 0 -22 -0.5t-22 -0.5v-4q-16 0 -28 3h-21
q-11 -1 -34 -1q-4 0 -11 0.5t-11 0.5q-19 -4 -30 0q-7 0 -20.5 0.5t-20.5 0.5q-1 10 -5 24q-10 0 -26 -13t-33 -15h-12q0 101 8 146q12 66 3 96q-21 92 -9 361h-59h-11q0 10 -2 28q8 12 33 25q2 1 6.5 3.5t6.5 3.5q-8 0 -23.5 1t-23.5 1q0 14 2 44q0 5 -2 35t3 35q5 13 5 17
q1 9 -4 24t-5 26v9q35 0 66 -6q4 0 10.5 -2t9.5 -2q-1 23 -3.5 65.5t-3.5 55.5q-1 37 -2.5 111.5t-3.5 111.5q-1 18 -1 55v149q8 1 17 6t14 6t20 -3q1 -1 4.5 -2.5t5.5 -1.5v17v12h233q22 -1 92 -17t111 -4q28 7 67 11.5t89 5.5t85 1t92 -1t72 -1q4 0 11.5 0.5t11.5 0.5
q1 -8 3.5 -21t3.5 -16q-9 -6 -19.5 -11.5t-23.5 -11.5t-20 -10q-3 -2 -8.5 -5t-8.5 -4l81 -3q0 -14 -3.5 -32.5t-4.5 -26.5q-1 -16 3 -33t4 -30t-9 -30q-10 -16 -11 -22q-2 -14 9 -32.5t12 -34.5v-12q-73 0 -105 8q-2 0 -12 3t-13.5 3.5t-11.5 1t-13.5 -0.5t-11.5 -4
q-46 -15 -155 -11.5t-162 13.5q-24 2 -36 1.5t-38 -3t-37 -3.5v-54q0 -29 -3.5 -59.5t-9 -69t-7.5 -55.5q85 -2 137 -5q29 -1 42 -0.5t42.5 4t41.5 4.5q84 6 126 10q18 2 28 2q1 0 27.5 1t39.5 2q1 -5 4.5 -16t2.5 -23q-3 -21 7 -47q-13 -1 -40 -1t-41 -1q15 -7 44 -20
t44 -19q1 -7 -1.5 -13t-5 -9t-9 -8.5t-9.5 -7.5q-3 -3 -4.5 -5.5t-1 -5t1.5 -4.5t3.5 -4t4 -3.5t5 -3.5t4.5 -3q4 -3 7 -5.5t5.5 -4.5t4 -5.5t2 -4.5t1.5 -5.5t1 -6t0.5 -7.5t0.5 -8t0.5 -5t0.5 -4q-115 -11 -198 -13q-31 -1 -78 5.5t-76 9.5t-79 -6q-27 -5 -75 -10
q9 -111 9 -279q13 -3 39.5 -9.5t41.5 -9t37 -3t42 5.5q63 17 198.5 19t206.5 -2q4 0 11.5 0.5t11.5 0.5q1 -8 3.5 -21t3.5 -16q-13 -8 -63 -34q-3 -2 -8.5 -5t-8.5 -4l81 -3q0 -14 -3 -32.5t-4 -25.5q-1 -15 3 -32.5t3.5 -30.5t-9.5 -30z" />
    <glyph glyph-name="E" unicode="&#xc9;" horiz-adv-x="1056" 
d="M1018 104q-9 -15 -11 -23q-2 -14 9 -32.5t12 -34.5v-12q-68 0 -104 9q-45 11 -63 2q-46 -15 -155 -11.5t-162 13.5q-24 2 -36 1.5t-39 -3t-37 -3.5q-4 0 -11 -0.5t-11 -0.5q-3 -1 -8.5 -2t-8.5 -2l-1 1q0 2 -1 2q-7 0 -22 -0.5t-22 -0.5v-4q-16 0 -28 3h-21
q-11 -1 -34 -1q-4 0 -11 0.5t-11 0.5q-19 -4 -30 0q-7 0 -20.5 0.5t-20.5 0.5q-1 10 -5 24q-10 0 -26 -13t-33 -15h-12q0 101 8 146q12 66 3 96q-21 92 -9 361h-59h-11q0 10 -2 28q8 12 33 25q2 1 6.5 3.5t6.5 3.5q-8 0 -23.5 1t-23.5 1q0 14 2 44q0 5 -2 35t3 35q5 13 5 17
q1 9 -4 24t-5 26v9q35 0 66 -6q4 0 10.5 -2t9.5 -2q-1 23 -3.5 65.5t-3.5 55.5q-1 37 -2.5 111.5t-3.5 111.5q-1 18 -1 55v149q8 1 17 6t14 6t20 -3q1 -1 4.5 -2.5t5.5 -1.5v17v12h233q22 -1 92 -17t111 -4q28 7 67 11.5t89 5.5t85 1t92 -1t72 -1q4 0 11.5 0.5t11.5 0.5
q1 -8 3.5 -21t3.5 -16q-9 -6 -19.5 -11.5t-23.5 -11.5t-20 -10q-3 -2 -8.5 -5t-8.5 -4l81 -3q0 -14 -3.5 -32.5t-4.5 -26.5q-1 -16 3 -33t4 -30t-9 -30q-10 -16 -11 -22q-2 -14 9 -32.5t12 -34.5v-12q-73 0 -105 8q-2 0 -12 3t-13.5 3.5t-11.5 1t-13.5 -0.5t-11.5 -4
q-46 -15 -155 -11.5t-162 13.5q-24 2 -36 1.5t-38 -3t-37 -3.5v-54q0 -29 -3.5 -59.5t-9 -69t-7.5 -55.5q85 -2 137 -5q29 -1 42 -0.5t42.5 4t41.5 4.5q84 6 126 10q18 2 28 2q1 0 27.5 1t39.5 2q1 -5 4.5 -16t2.5 -23q-3 -21 7 -47q-13 -1 -40 -1t-41 -1q15 -7 44 -20
t44 -19q1 -7 -1.5 -13t-5 -9t-9 -8.5t-9.5 -7.5q-3 -3 -4.5 -5.5t-1 -5t1.5 -4.5t3.5 -4t4 -3.5t5 -3.5t4.5 -3q4 -3 7 -5.5t5.5 -4.5t4 -5.5t2 -4.5t1.5 -5.5t1 -6t0.5 -7.5t0.5 -8t0.5 -5t0.5 -4q-115 -11 -198 -13q-31 -1 -78 5.5t-76 9.5t-79 -6q-27 -5 -75 -10
q9 -111 9 -279q13 -3 39.5 -9.5t41.5 -9t37 -3t42 5.5q63 17 198.5 19t206.5 -2q4 0 11.5 0.5t11.5 0.5q1 -8 3.5 -21t3.5 -16q-13 -8 -63 -34q-3 -2 -8.5 -5t-8.5 -4l81 -3q0 -14 -3 -32.5t-4 -25.5q-1 -15 3 -32.5t3.5 -30.5t-9.5 -30z" />
    <glyph glyph-name="E" unicode="&#xc8;" horiz-adv-x="1056" 
d="M1018 104q-9 -15 -11 -23q-2 -14 9 -32.5t12 -34.5v-12q-68 0 -104 9q-45 11 -63 2q-46 -15 -155 -11.5t-162 13.5q-24 2 -36 1.5t-39 -3t-37 -3.5q-4 0 -11 -0.5t-11 -0.5q-3 -1 -8.5 -2t-8.5 -2l-1 1q0 2 -1 2q-7 0 -22 -0.5t-22 -0.5v-4q-16 0 -28 3h-21
q-11 -1 -34 -1q-4 0 -11 0.5t-11 0.5q-19 -4 -30 0q-7 0 -20.5 0.5t-20.5 0.5q-1 10 -5 24q-10 0 -26 -13t-33 -15h-12q0 101 8 146q12 66 3 96q-21 92 -9 361h-59h-11q0 10 -2 28q8 12 33 25q2 1 6.5 3.5t6.5 3.5q-8 0 -23.5 1t-23.5 1q0 14 2 44q0 5 -2 35t3 35q5 13 5 17
q1 9 -4 24t-5 26v9q35 0 66 -6q4 0 10.5 -2t9.5 -2q-1 23 -3.5 65.5t-3.5 55.5q-1 37 -2.5 111.5t-3.5 111.5q-1 18 -1 55v149q8 1 17 6t14 6t20 -3q1 -1 4.5 -2.5t5.5 -1.5v17v12h233q22 -1 92 -17t111 -4q28 7 67 11.5t89 5.5t85 1t92 -1t72 -1q4 0 11.5 0.5t11.5 0.5
q1 -8 3.5 -21t3.5 -16q-9 -6 -19.5 -11.5t-23.5 -11.5t-20 -10q-3 -2 -8.5 -5t-8.5 -4l81 -3q0 -14 -3.5 -32.5t-4.5 -26.5q-1 -16 3 -33t4 -30t-9 -30q-10 -16 -11 -22q-2 -14 9 -32.5t12 -34.5v-12q-73 0 -105 8q-2 0 -12 3t-13.5 3.5t-11.5 1t-13.5 -0.5t-11.5 -4
q-46 -15 -155 -11.5t-162 13.5q-24 2 -36 1.5t-38 -3t-37 -3.5v-54q0 -29 -3.5 -59.5t-9 -69t-7.5 -55.5q85 -2 137 -5q29 -1 42 -0.5t42.5 4t41.5 4.5q84 6 126 10q18 2 28 2q1 0 27.5 1t39.5 2q1 -5 4.5 -16t2.5 -23q-3 -21 7 -47q-13 -1 -40 -1t-41 -1q15 -7 44 -20
t44 -19q1 -7 -1.5 -13t-5 -9t-9 -8.5t-9.5 -7.5q-3 -3 -4.5 -5.5t-1 -5t1.5 -4.5t3.5 -4t4 -3.5t5 -3.5t4.5 -3q4 -3 7 -5.5t5.5 -4.5t4 -5.5t2 -4.5t1.5 -5.5t1 -6t0.5 -7.5t0.5 -8t0.5 -5t0.5 -4q-115 -11 -198 -13q-31 -1 -78 5.5t-76 9.5t-79 -6q-27 -5 -75 -10
q9 -111 9 -279q13 -3 39.5 -9.5t41.5 -9t37 -3t42 5.5q63 17 198.5 19t206.5 -2q4 0 11.5 0.5t11.5 0.5q1 -8 3.5 -21t3.5 -16q-13 -8 -63 -34q-3 -2 -8.5 -5t-8.5 -4l81 -3q0 -14 -3 -32.5t-4 -25.5q-1 -15 3 -32.5t3.5 -30.5t-9.5 -30z" />
    <glyph glyph-name="F" unicode="F" horiz-adv-x="1024" 
d="M541 1104q-24 2 -36 1.5t-38.5 -3t-36.5 -3.5q0 -9 0.5 -27.5t0.5 -27.5q-1 -29 -4 -59t-8.5 -69t-7.5 -55q66 -1 139 -6q29 -1 42 -0.5t42.5 4t41.5 4.5q88 6 127 10q18 2 27 2q48 2 68 4q1 -6 3 -12.5t3 -12t0 -14.5q-1 -7 -1.5 -11.5t0.5 -9.5t1.5 -6.5t3.5 -8.5
t4 -11q-13 -1 -40.5 -2t-41.5 -1q15 -7 44 -20t44 -19q1 -7 -1.5 -13t-5 -8.5t-9 -7.5t-9.5 -8q-2 -2 -3.5 -4.5t-1.5 -4.5v-3.5t1.5 -3.5t2.5 -3l3 -3t3.5 -3t4 -2.5t3.5 -2.5q4 -3 7 -5.5t5.5 -4.5t4 -5t2 -4.5t1.5 -5.5t1 -5t0.5 -7.5t0.5 -8.5t0.5 -5t0.5 -4
q-115 -11 -198 -13q-31 -1 -78 5.5t-76 9t-79 -6.5q-29 -5 -77 -10q5 -62 7 -143.5t1.5 -141.5t-2 -152.5t-1.5 -131.5q0 -5 0.5 -16t0.5 -16q-7 -1 -37 -8q-13 27 -33 85q-2 4 -5 12.5t-4 12.5q-2 -74 -3 -112q-14 1 -32.5 5t-26.5 5q-14 1 -31.5 -4.5t-32 -5.5t-29.5 13
q-18 14 -23 15q-14 3 -31.5 -12t-34.5 -16h-12q0 95 9 146q12 64 2 96q-20 89 -8 361h-57q-2 0 -5.5 -0.5t-5.5 -0.5q0 10 -2 28q10 13 33 26q2 1 6.5 3t6.5 3q-8 1 -23.5 1t-23.5 1q0 15 2 45q0 5 -2 35t3 35q5 13 5 17q1 9 -4 24t-5 26v9q35 0 66 -6q3 0 9 -2t9 -2
q-1 23 -3.5 65.5t-3.5 55.5q-2 37 -3.5 111.5t-3.5 111.5q-1 18 -1 55v149q8 1 17.5 5.5t14.5 5.5t20 -3l9 -3v17v12h117q116 1 116 0q22 -1 92 -17t111 -4q28 7 67 11.5t89 5.5t85 1t92 -1t72 -1q4 0 12 0.5t12 0.5q0 -2 6 -37q-9 -6 -19.5 -11.5t-23.5 -11.5t-20 -10
q-3 -2 -8.5 -5t-8.5 -4q14 -1 41.5 -2t40.5 -1q0 -14 -3.5 -32.5t-4.5 -26.5q-1 -15 3 -32.5t3.5 -30.5t-9.5 -30q-10 -16 -11 -22q-2 -14 9.5 -32.5t12.5 -34.5v-12q-74 0 -106 8q-2 0 -12 3t-13.5 3.5t-11.5 1t-13.5 -0.5t-11.5 -4q-46 -15 -155 -11.5t-162 13.5z" />
    <glyph glyph-name="G" unicode="G" horiz-adv-x="1120" 
d="M1110 629l-72 -6q0 -7 0.5 -19t0.5 -19q2 -159 -11 -250q-10 -62 -25.5 -106.5t-48.5 -89.5q-3 -2 -3 -3q-66 -80 -170 -104q-58 -10 -154 -7q-148 6 -272 56q-81 35 -151 91q-27 22 -52 51q-69 86 -106 211q-27 102 -30 231q1 133 25 239t84 216q57 96 122.5 158
t160.5 106q89 37 180 40q100 0 183 -37q89 -43 153 -121q5 -6 13 -18q40 -57 64 -120q-6 -7 -14 -25t-10 -22q-39 91 -97 151q-56 58 -130 87l-4 2t-4 1q-36 12 -83 17q43 -9 79 -25q72 -35 123 -98q48 -63 74 -155q-14 -4 -34.5 7t-31.5 11q-15 -3 -24.5 -16t-13.5 -23
t-16.5 -8.5t-36.5 23.5q-19 19 -34 20q-11 0 -15 -17t-8.5 -36.5t-17.5 -23.5q-2 0 -5.5 -1t-5.5 -2q-11 38 -30 63q-14 17 -29 26q-17 9 -38 12h-14q-23 0 -45 -7q-43 -15 -70 -52q-34 -50 -52 -83q-60 -125 -63 -289q0 -85 14 -151q15 -60 40 -99q25 -36 65 -58q5 -3 6 -3
q45 -22 138 -16q25 2 42.5 11t27.5 25.5t15 34.5t6 45t0.5 48.5t-1.5 54t-1 53.5q-31 -3 -185 -3q-2 0 -4 -0.5t-4 -0.5q0 5 -1 14.5t-2 13.5q3 5 26 25q1 1 4 3.5t4 3.5q-6 0 -17.5 1t-17.5 1q0 7 0.5 14.5t1.5 16t1 13.5q0 6 -3 35t3 35q5 13 5 17q1 9 -4 24.5t-5 25.5v9
q30 0 48 -6q25 -8 36 -1q32 11 109 10.5t116 -5.5q18 -1 26.5 -0.5t29 4t27.5 4.5q16 2 48 5t48 5t23 2t20 0.5t23.5 1t19.5 1.5q1 -5 4.5 -16t2.5 -23q-3 -21 7 -47q-12 -1 -37 -1t-38 -1q40 -21 81 -39q1 -10 -1.5 -15.5t-11.5 -12.5t-11 -10q-3 -3 -4 -5.5t-0.5 -5
t1 -4.5t3 -4.5t4 -3.5t5 -3.5t4.5 -2.5q5 -4 9 -7.5t6 -6t3 -7.5t1.5 -6.5t1 -9t0.5 -10.5q0 -2 0.5 -5t0.5 -4zM835 581q9 19 15 48q-21 2 -32 1q0 -33 -1 -50q0 -30 -2 -90q9 33 20 91z" />
    <glyph glyph-name="H" unicode="H" horiz-adv-x="1128" 
d="M1052 670q10 -72 14.5 -164t5 -153t-1.5 -178.5t-2 -157.5q0 -5 0.5 -16t0.5 -16q-3 0 -37 -9q-10 22 -33 88q-1 4 -4 12.5t-5 13.5q0 -19 -1 -58t-2 -58q-14 1 -32.5 5t-26.5 5q-14 1 -31.5 -4t-32 -5t-29.5 13q-17 13 -23 14q-14 3 -31.5 -12t-34.5 -16h-12
q0 103 8 152q12 66 3 103q-22 95 -6 395q-68 12 -103 0q-70 -18 -250 -18q5 -61 7 -142t1.5 -140t-2 -150t-1.5 -129q0 -5 0.5 -16t0.5 -16q-16 -2 -38 -8q-13 27 -33 85q-2 4 -5 12.5t-4 12.5q-2 -74 -3 -112q-14 1 -31.5 5t-26.5 5q-14 1 -31.5 -4.5t-32 -5.5t-29.5 13
q-18 14 -23 15q-14 3 -31.5 -12t-34.5 -16h-12q0 101 8 146q12 66 3 96q-11 49 -12.5 159t3.5 208.5t11 166.5q1 48 1 63.5t-3 63t-4 63.5q-2 37 -3.5 111.5t-2.5 111.5q-1 18 -1 55v149q8 1 17 5.5t14 5.5t20 -3q29 -7 33.5 -6t30.5 15q0 -29 -1 -88t-2 -88q20 61 58 183
q14 -1 21.5 -9t16 -29.5t10.5 -24.5q4 -7 7.5 -10t7 -2.5t6 2.5t5.5 7t5 8.5t5 10t4 9.5q16 30 24.5 35.5t39.5 5.5h12q4 -252 4 -379q-1 -31 -4.5 -64t-9.5 -71.5t-8 -60.5q17 -4 27 2q39 12 130.5 11.5t138.5 -5.5q22 -3 78 6q-1 11 -2.5 30.5t-2.5 35t-1 29.5
q-1 39 -2.5 116.5t-3.5 115.5q-1 19 -1 57v150q8 1 17 6t14 6t20 -3q8 -3 14.5 -4.5t10 -2.5t9.5 1l7.5 2.5t10.5 5t12 6.5l-3 -177q25 75 58 184q14 -1 21.5 -9t16 -29.5t10.5 -24.5q4 -7 7.5 -10t7 -2.5t6 2.5t5.5 7t5 8.5t5 10t4 9.5q16 30 24.5 35.5t39.5 5.5h12
q4 -258 4 -387q-1 -36 -16.5 -163.5t-3.5 -202.5z" />
    <glyph glyph-name="I" unicode="I" horiz-adv-x="714" 
d="M682 1192q-11 -18 -12 -22q-2 -14 9 -31.5t12 -34.5v-12q-74 0 -107 8q-40 10 -57 5v-60q-1 -33 -16.5 -154.5t-3.5 -190.5q20 -132 20 -347q28 0 73.5 -1t59.5 -1q4 0 12 0.5t12 0.5q1 -8 3.5 -21t2.5 -16q-4 -2 -64 -34l-18 -9q14 0 42 -1t42 -1q0 -14 -3.5 -32.5
t-4.5 -26.5q-1 -15 3 -32.5t3.5 -30.5t-9.5 -30q-9 -15 -11 -23q-2 -14 9.5 -31.5t12.5 -34.5v-12q-75 0 -108 8q-44 11 -61 4q0 -3 0.5 -8t0.5 -7q-8 -1 -21 -4.5t-16 -4.5q-1 2 -3 6.5t-3 6.5q-6 -1 -19 -1.5t-20 -0.5v-13q-14 1 -32.5 5t-26.5 5q-14 1 -31.5 -4t-32 -5
t-29.5 13q-1 1 -3 2t-3 2q-24 3 -38 6q-3 -2 -10.5 -8.5t-15.5 -10.5t-19 -5h-12v25q-5 -1 -13.5 -2.5t-12.5 -1.5q-13 -1 -38 -2t-37 -2q-3 0 -8.5 -0.5t-8.5 -0.5q-1 0 -17 1.5t-24 1.5q-2 48 -2 51q2 24 -3 64q8 -1 24.5 -2.5t25.5 -2.5q-8 10 -25.5 30t-26.5 30
q0 10 1.5 16.5t3 9t6 9.5t7.5 12t3.5 9t-0.5 8.5t-2 7t-4 8t-4 7.5q-4 7 -6.5 13t-3.5 13t-1 10v13.5v14.5v12h116q21 0 51 -13q-9 183 13 437q2 46 2 63t-3.5 63.5t-4.5 63.5q-2 46 -4 134q-19 -4 -30 -5q-13 -1 -38 -2t-37 -2q-3 0 -8 -0.5t-8 -0.5q-5 0 -13.5 1
t-15.5 1.5t-13 0.5q-2 48 -2 51q2 24 -3 64q9 -1 25 -2.5t25 -2.5q-8 10 -26 30.5t-26 30.5q0 10 1.5 16.5t3 9.5t6 9.5t7.5 11.5t3.5 9t-0.5 8.5t-2 7t-4 8t-4 7.5q-4 7 -6.5 13t-3.5 13t-1 10v13.5v14.5v12h116q12 0 25 -4t28.5 -10.5t23.5 -9.5q13 4 25 -1l9 -3
q17 2 26 6q50 17 186.5 19.5t197.5 -1.5h24q0 -2 6 -37q-12 -8 -36.5 -19.5t-27.5 -13.5l-18 -9l84 -3q0 -14 -3.5 -32.5t-4.5 -26.5q-1 -16 3 -33t4 -30t-9 -30z" />
    <glyph glyph-name="I" unicode="&#xcf;" horiz-adv-x="714" 
d="M682 1192q-11 -18 -12 -22q-2 -14 9 -31.5t12 -34.5v-12q-74 0 -107 8q-40 10 -57 5v-60q-1 -33 -16.5 -154.5t-3.5 -190.5q20 -132 20 -347q28 0 73.5 -1t59.5 -1q4 0 12 0.5t12 0.5q1 -8 3.5 -21t2.5 -16q-4 -2 -64 -34l-18 -9q14 0 42 -1t42 -1q0 -14 -3.5 -32.5
t-4.5 -26.5q-1 -15 3 -32.5t3.5 -30.5t-9.5 -30q-9 -15 -11 -23q-2 -14 9.5 -31.5t12.5 -34.5v-12q-75 0 -108 8q-44 11 -61 4q0 -3 0.5 -8t0.5 -7q-8 -1 -21 -4.5t-16 -4.5q-1 2 -3 6.5t-3 6.5q-6 -1 -19 -1.5t-20 -0.5v-13q-14 1 -32.5 5t-26.5 5q-14 1 -31.5 -4t-32 -5
t-29.5 13q-1 1 -3 2t-3 2q-24 3 -38 6q-3 -2 -10.5 -8.5t-15.5 -10.5t-19 -5h-12v25q-5 -1 -13.5 -2.5t-12.5 -1.5q-13 -1 -38 -2t-37 -2q-3 0 -8.5 -0.5t-8.5 -0.5q-1 0 -17 1.5t-24 1.5q-2 48 -2 51q2 24 -3 64q8 -1 24.5 -2.5t25.5 -2.5q-8 10 -25.5 30t-26.5 30
q0 10 1.5 16.5t3 9t6 9.5t7.5 12t3.5 9t-0.5 8.5t-2 7t-4 8t-4 7.5q-4 7 -6.5 13t-3.5 13t-1 10v13.5v14.5v12h116q21 0 51 -13q-9 183 13 437q2 46 2 63t-3.5 63.5t-4.5 63.5q-2 46 -4 134q-19 -4 -30 -5q-13 -1 -38 -2t-37 -2q-3 0 -8 -0.5t-8 -0.5q-5 0 -13.5 1
t-15.5 1.5t-13 0.5q-2 48 -2 51q2 24 -3 64q9 -1 25 -2.5t25 -2.5q-8 10 -26 30.5t-26 30.5q0 10 1.5 16.5t3 9.5t6 9.5t7.5 11.5t3.5 9t-0.5 8.5t-2 7t-4 8t-4 7.5q-4 7 -6.5 13t-3.5 13t-1 10v13.5v14.5v12h116q12 0 25 -4t28.5 -10.5t23.5 -9.5q13 4 25 -1l9 -3
q17 2 26 6q50 17 186.5 19.5t197.5 -1.5h24q0 -2 6 -37q-12 -8 -36.5 -19.5t-27.5 -13.5l-18 -9l84 -3q0 -14 -3.5 -32.5t-4.5 -26.5q-1 -16 3 -33t4 -30t-9 -30z" />
    <glyph glyph-name="I" unicode="&#xce;" horiz-adv-x="714" 
d="M682 1192q-11 -18 -12 -22q-2 -14 9 -31.5t12 -34.5v-12q-74 0 -107 8q-40 10 -57 5v-60q-1 -33 -16.5 -154.5t-3.5 -190.5q20 -132 20 -347q28 0 73.5 -1t59.5 -1q4 0 12 0.5t12 0.5q1 -8 3.5 -21t2.5 -16q-4 -2 -64 -34l-18 -9q14 0 42 -1t42 -1q0 -14 -3.5 -32.5
t-4.5 -26.5q-1 -15 3 -32.5t3.5 -30.5t-9.5 -30q-9 -15 -11 -23q-2 -14 9.5 -31.5t12.5 -34.5v-12q-75 0 -108 8q-44 11 -61 4q0 -3 0.5 -8t0.5 -7q-8 -1 -21 -4.5t-16 -4.5q-1 2 -3 6.5t-3 6.5q-6 -1 -19 -1.5t-20 -0.5v-13q-14 1 -32.5 5t-26.5 5q-14 1 -31.5 -4t-32 -5
t-29.5 13q-1 1 -3 2t-3 2q-24 3 -38 6q-3 -2 -10.5 -8.5t-15.5 -10.5t-19 -5h-12v25q-5 -1 -13.5 -2.5t-12.5 -1.5q-13 -1 -38 -2t-37 -2q-3 0 -8.5 -0.5t-8.5 -0.5q-1 0 -17 1.5t-24 1.5q-2 48 -2 51q2 24 -3 64q8 -1 24.5 -2.5t25.5 -2.5q-8 10 -25.5 30t-26.5 30
q0 10 1.5 16.5t3 9t6 9.5t7.5 12t3.5 9t-0.5 8.5t-2 7t-4 8t-4 7.5q-4 7 -6.5 13t-3.5 13t-1 10v13.5v14.5v12h116q21 0 51 -13q-9 183 13 437q2 46 2 63t-3.5 63.5t-4.5 63.5q-2 46 -4 134q-19 -4 -30 -5q-13 -1 -38 -2t-37 -2q-3 0 -8 -0.5t-8 -0.5q-5 0 -13.5 1
t-15.5 1.5t-13 0.5q-2 48 -2 51q2 24 -3 64q9 -1 25 -2.5t25 -2.5q-8 10 -26 30.5t-26 30.5q0 10 1.5 16.5t3 9.5t6 9.5t7.5 11.5t3.5 9t-0.5 8.5t-2 7t-4 8t-4 7.5q-4 7 -6.5 13t-3.5 13t-1 10v13.5v14.5v12h116q12 0 25 -4t28.5 -10.5t23.5 -9.5q13 4 25 -1l9 -3
q17 2 26 6q50 17 186.5 19.5t197.5 -1.5h24q0 -2 6 -37q-12 -8 -36.5 -19.5t-27.5 -13.5l-18 -9l84 -3q0 -14 -3.5 -32.5t-4.5 -26.5q-1 -16 3 -33t4 -30t-9 -30z" />
    <glyph glyph-name="I" unicode="&#xcd;" horiz-adv-x="714" 
d="M682 1192q-11 -18 -12 -22q-2 -14 9 -31.5t12 -34.5v-12q-74 0 -107 8q-40 10 -57 5v-60q-1 -33 -16.5 -154.5t-3.5 -190.5q20 -132 20 -347q28 0 73.5 -1t59.5 -1q4 0 12 0.5t12 0.5q1 -8 3.5 -21t2.5 -16q-4 -2 -64 -34l-18 -9q14 0 42 -1t42 -1q0 -14 -3.5 -32.5
t-4.5 -26.5q-1 -15 3 -32.5t3.5 -30.5t-9.5 -30q-9 -15 -11 -23q-2 -14 9.5 -31.5t12.5 -34.5v-12q-75 0 -108 8q-44 11 -61 4q0 -3 0.5 -8t0.5 -7q-8 -1 -21 -4.5t-16 -4.5q-1 2 -3 6.5t-3 6.5q-6 -1 -19 -1.5t-20 -0.5v-13q-14 1 -32.5 5t-26.5 5q-14 1 -31.5 -4t-32 -5
t-29.5 13q-1 1 -3 2t-3 2q-24 3 -38 6q-3 -2 -10.5 -8.5t-15.5 -10.5t-19 -5h-12v25q-5 -1 -13.5 -2.5t-12.5 -1.5q-13 -1 -38 -2t-37 -2q-3 0 -8.5 -0.5t-8.5 -0.5q-1 0 -17 1.5t-24 1.5q-2 48 -2 51q2 24 -3 64q8 -1 24.5 -2.5t25.5 -2.5q-8 10 -25.5 30t-26.5 30
q0 10 1.5 16.5t3 9t6 9.5t7.5 12t3.5 9t-0.5 8.5t-2 7t-4 8t-4 7.5q-4 7 -6.5 13t-3.5 13t-1 10v13.5v14.5v12h116q21 0 51 -13q-9 183 13 437q2 46 2 63t-3.5 63.5t-4.5 63.5q-2 46 -4 134q-19 -4 -30 -5q-13 -1 -38 -2t-37 -2q-3 0 -8 -0.5t-8 -0.5q-5 0 -13.5 1
t-15.5 1.5t-13 0.5q-2 48 -2 51q2 24 -3 64q9 -1 25 -2.5t25 -2.5q-8 10 -26 30.5t-26 30.5q0 10 1.5 16.5t3 9.5t6 9.5t7.5 11.5t3.5 9t-0.5 8.5t-2 7t-4 8t-4 7.5q-4 7 -6.5 13t-3.5 13t-1 10v13.5v14.5v12h116q12 0 25 -4t28.5 -10.5t23.5 -9.5q13 4 25 -1l9 -3
q17 2 26 6q50 17 186.5 19.5t197.5 -1.5h24q0 -2 6 -37q-12 -8 -36.5 -19.5t-27.5 -13.5l-18 -9l84 -3q0 -14 -3.5 -32.5t-4.5 -26.5q-1 -16 3 -33t4 -30t-9 -30z" />
    <glyph glyph-name="I" unicode="&#xcc;" horiz-adv-x="714" 
d="M682 1192q-11 -18 -12 -22q-2 -14 9 -31.5t12 -34.5v-12q-74 0 -107 8q-40 10 -57 5v-60q-1 -33 -16.5 -154.5t-3.5 -190.5q20 -132 20 -347q28 0 73.5 -1t59.5 -1q4 0 12 0.5t12 0.5q1 -8 3.5 -21t2.5 -16q-4 -2 -64 -34l-18 -9q14 0 42 -1t42 -1q0 -14 -3.5 -32.5
t-4.5 -26.5q-1 -15 3 -32.5t3.5 -30.5t-9.5 -30q-9 -15 -11 -23q-2 -14 9.5 -31.5t12.5 -34.5v-12q-75 0 -108 8q-44 11 -61 4q0 -3 0.5 -8t0.5 -7q-8 -1 -21 -4.5t-16 -4.5q-1 2 -3 6.5t-3 6.5q-6 -1 -19 -1.5t-20 -0.5v-13q-14 1 -32.5 5t-26.5 5q-14 1 -31.5 -4t-32 -5
t-29.5 13q-1 1 -3 2t-3 2q-24 3 -38 6q-3 -2 -10.5 -8.5t-15.5 -10.5t-19 -5h-12v25q-5 -1 -13.5 -2.5t-12.5 -1.5q-13 -1 -38 -2t-37 -2q-3 0 -8.5 -0.5t-8.5 -0.5q-1 0 -17 1.5t-24 1.5q-2 48 -2 51q2 24 -3 64q8 -1 24.5 -2.5t25.5 -2.5q-8 10 -25.5 30t-26.5 30
q0 10 1.5 16.5t3 9t6 9.5t7.5 12t3.5 9t-0.5 8.5t-2 7t-4 8t-4 7.5q-4 7 -6.5 13t-3.5 13t-1 10v13.5v14.5v12h116q21 0 51 -13q-9 183 13 437q2 46 2 63t-3.5 63.5t-4.5 63.5q-2 46 -4 134q-19 -4 -30 -5q-13 -1 -38 -2t-37 -2q-3 0 -8 -0.5t-8 -0.5q-5 0 -13.5 1
t-15.5 1.5t-13 0.5q-2 48 -2 51q2 24 -3 64q9 -1 25 -2.5t25 -2.5q-8 10 -26 30.5t-26 30.5q0 10 1.5 16.5t3 9.5t6 9.5t7.5 11.5t3.5 9t-0.5 8.5t-2 7t-4 8t-4 7.5q-4 7 -6.5 13t-3.5 13t-1 10v13.5v14.5v12h116q12 0 25 -4t28.5 -10.5t23.5 -9.5q13 4 25 -1l9 -3
q17 2 26 6q50 17 186.5 19.5t197.5 -1.5h24q0 -2 6 -37q-12 -8 -36.5 -19.5t-27.5 -13.5l-18 -9l84 -3q0 -14 -3.5 -32.5t-4.5 -26.5q-1 -16 3 -33t4 -30t-9 -30z" />
    <glyph glyph-name="J" unicode="J" horiz-adv-x="1069" 
d="M1025 786q14 -106 -6 -245q-18 -119 -54.5 -206.5t-109.5 -168.5q-84 -84 -192 -122q-78 -26 -160 -27h-84q-111 4 -165 16q-36 9 -72 28q-61 35 -101 91q-54 81 -73 209q-4 20 -5 31q-2 20 -4 56q-3 69 1 166q8 1 17.5 6.5t14.5 6.5t20 -5q8 -4 14 -6t10 -3.5t9.5 1
t7.5 3t10.5 6t12.5 7.5q-6 -124 -4 -187l60 192q13 -2 20.5 -12t15 -32.5t9.5 -27.5q4 -7 7.5 -10.5t7 -3t6.5 2.5t6 7t5 9t5 10.5t4 9.5q16 33 24.5 38.5t40.5 3.5h12q-4 -144 6 -227q7 -54 41 -78t76.5 -18.5t85.5 28t70 55.5q51 67 73 204q10 79 12 174.5t0 148.5t-8 173
q-91 3 -128 13q-17 2 -25 1.5t-25.5 -3l-24.5 -3.5q-13 -1 -38 -2t-37 -2q-3 0 -8.5 -0.5t-8.5 -0.5q-1 0 -17 1.5t-24 1.5q0 5 -2 21.5t-1 29.5q3 29 -2 64q9 -1 25 -2.5t25 -2.5q-9 10 -26 30.5t-26 30.5q0 10 1.5 16.5t2.5 9t5.5 9.5t7.5 12q8 14 -7 40q-4 7 -6.5 13
t-3.5 13t-1 10v13.5v14.5v12h59q58 1 58 0q14 0 60.5 -18t75.5 -4q50 17 186.5 19.5t197.5 -1.5h24q1 -8 3.5 -21t3.5 -16q-12 -8 -36.5 -19.5t-27.5 -13.5l-18 -9q14 -1 41.5 -2t41.5 -1q-1 -57 4 -174t3 -186q0 -11 -1.5 -47.5t-2 -54t0.5 -45.5t5 -51z" />
    <glyph glyph-name="K" unicode="K" horiz-adv-x="1089" 
d="M57 3q0 101 8 146q12 66 3 96q-11 49 -12.5 159t3.5 208.5t11 166.5q2 46 2 63t-3.5 63.5t-4.5 63.5q-2 37 -3.5 111.5t-2.5 111.5q-1 18 -1 55v149q8 1 17.5 6t14.5 6t20 -3q28 -7 33 -6t30 14q0 -29 -1 -87.5t-2 -87.5q26 80 58 182q14 -1 21.5 -9t16 -29t10.5 -24
q4 -7 7.5 -10t7 -2.5t6 2t5.5 6.5t5 8.5t5 10t4 9.5q16 30 24.5 35.5t39.5 5.5h12q4 -252 4 -378q-1 -35 -18 -169q16 5 25 11q23 13 73 37t76 39q61 38 101.5 72t86.5 88q1 1 4 3q15 19 36 80q17 49 25 105q0 5 1.5 13t2.5 13q6 38 6 76q5 0 18.5 5t20.5 0q20 -5 25 -4
t23 8q-2 -53 -10 -101q30 48 52 105q8 0 13.5 -4.5t8 -8.5t7 -13.5t6.5 -13.5q5 -10 11 -8.5t10 6.5t8 13q1 3 2 4q12 20 18.5 23.5t29.5 3.5h9q2 -143 -38 -265q-8 -24 -20.5 -46.5t-21 -35.5t-27.5 -38.5t-28 -38.5q-25 -37 -41 -65q-55 -92 -177 -173q9 -10 34.5 -39.5
t46 -50.5t45.5 -39l2 -2t2 -1q96 -71 168 -253q47 -130 59 -350q0 -7 1 -21t1 -21q-8 -1 -21 -6t-16 -6q-27 80 -38 104l-12 27q6 -71 5 -134q-15 1 -32.5 6.5t-26.5 6.5q-12 2 -25.5 -2t-22 -7.5t-20.5 -1.5t-25 13q-14 12 -23 15q-12 4 -32 -13t-34 -17h-12q0 9 -1.5 65
t0.5 65q2 51 -12 67q-12 14 -29 55q-9 20 -25.5 64.5t-32 79.5t-31.5 60q-5 6 -14 18.5t-13 18.5q-5 7 -11.5 13.5t-15 12.5t-14.5 9.5t-17.5 10t-15.5 8.5q-24 14 -67.5 36t-49.5 25q5 -78 6 -164t-1 -219t-2 -154q0 -5 0.5 -16t0.5 -16q-5 -1 -38 -9q-12 24 -33 86
q-2 4 -5 12.5t-4 12.5q0 -19 -1 -56.5t-2 -56.5q-14 1 -31.5 5.5t-26.5 5.5q-14 1 -31.5 -4.5t-32 -5.5t-29.5 13q-16 12 -23 14q-14 3 -31.5 -12t-34.5 -16q-4 1 -12 1z" />
    <glyph glyph-name="L" unicode="L" 
d="M1042 81q-2 -14 9 -32.5t12 -34.5v-11q-73 0 -105 8q-45 11 -63 2q-46 -15 -154.5 -11.5t-161.5 13.5q-24 2 -36 1.5t-39 -3t-37 -3.5l-105 -3q-2 -1 -4 -1t-4 -1v1h-22q-4 0 -11.5 -0.5t-11.5 -0.5v-2q-9 0 -23 2q-50 2 -76 2q-31 -9 -52 9q-18 14 -23 15
q-14 3 -31.5 -12t-34.5 -16h-12q0 101 8 146q12 66 3 96q-11 49 -12 160t3.5 207t10.5 167q1 48 1 63.5t-3 63t-4 63.5q-2 37 -3.5 111.5t-2.5 111.5q-1 18 -1 55v149q8 1 17 5.5t14 5.5t20 -3q27 -7 33 -6t31 15q0 -29 -1 -88t-2 -88q20 61 58 183q14 -1 21.5 -9t16 -29.5
t10.5 -24.5q4 -7 7.5 -10t7 -2.5t6 2.5t5.5 7t5 8.5t5 10t4 9.5q16 31 24 36t39 5h12q5 -315 5 -378q-1 -33 -16.5 -154.5t-3.5 -190.5q19 -121 19 -358h29q23 -1 92.5 -17.5t110.5 -4.5q63 17 198.5 19t206.5 -2q4 0 12 0.5t12 0.5q1 -8 4 -21.5t3 -16.5l-63 -33l-18 -9
q13 0 41 -1t41 -2q0 -13 -3.5 -31.5t-4.5 -26.5q-1 -16 3 -33t4 -30t-9 -30q-9 -15 -11 -23z" />
    <glyph glyph-name="M" unicode="M" horiz-adv-x="1464" 
d="M1388 700q10 -65 14.5 -159.5t5 -158.5t-1.5 -184.5t-2 -152.5q0 -5 0.5 -16t0.5 -16q-10 -2 -38 -8q-12 24 -33 86q-1 4 -4 12.5t-5 12.5q-1 -37 -3 -113q-14 1 -31.5 5t-26.5 5q-14 1 -31.5 -4.5t-32 -5.5t-29.5 13q-18 14 -23 15q-14 3 -31.5 -12t-34.5 -16h-12
q0 101 8 146q12 66 3 96q-11 49 -12 160t3.5 207t10.5 167q3 38 -1 115q-42 -71 -89 -141q-13 -18 -25.5 -40.5t-27 -51t-21.5 -42.5q-26 -48 -82 -142q-8 -16 -20 -32q-17 -27 -53 -79q-5 3 -12 4.5t-12 4t-11 9.5q-26 33 -53 15q-71 107 -134 208q-16 26 -53 111t-72 123
q-19 24 -38 50q-16 -121 -4 -191q10 -65 14.5 -159.5t5 -158.5t-1.5 -184.5t-2 -152.5q0 -5 0.5 -15t0.5 -16q-6 -1 -12 -2.5t-13.5 -3.5t-12.5 -3q-12 24 -33 86q-2 4 -5 12.5t-4 12.5q-1 -37 -3 -113q-14 1 -31.5 5.5t-26.5 5.5q-14 1 -31.5 -4.5t-32 -5.5t-29.5 13
q-16 12 -23 14q-14 3 -31.5 -12t-34.5 -16h-12q0 102 8 147q12 66 3 96q-11 49 -12.5 159t3.5 208t11 166q1 48 1 63.5t-3 63t-4 63.5q-2 37 -3.5 111.5t-2.5 111.5q-1 18 -1 56v148q8 1 17 6t14 6t20 -3q29 -7 33.5 -6t30.5 15q0 -20 -1 -60.5t-1 -60.5q10 -4 15 -7
q15 45 43 135q14 -1 21.5 -9.5t15.5 -29t10 -24.5v-1q12 6 22 7q8 0 11 1q1 2 7 17q16 30 24.5 35.5t39.5 5.5h12q1 -27 1 -80q0 -1 1 -3t1 -3q16 -45 32 -59q37 -40 107 -163t113 -210q9 -19 22 -39t31 -45t26 -37q1 -1 3.5 -4t3.5 -5q75 93 94 150q53 135 240 465
q3 5 7 15q9 -5 11 -5l6 3t6.5 3t6.5 2t8.5 0t10.5 -3q28 -7 33 -6t30 14q0 -12 -0.5 -35.5t-0.5 -35.5q18 -7 28 -14q23 71 29 92q14 -1 21.5 -9t16 -29.5t10.5 -24.5q4 -7 7.5 -10t7 -2.5t6 2.5t5 7l4.5 9t4.5 10t4.5 9q16 30 24.5 35.5t39.5 5.5h12q4 -252 4 -378
q-1 -33 -16.5 -154.5t-3.5 -190.5z" />
    <glyph glyph-name="N" unicode="N" horiz-adv-x="1128" 
d="M1052 705q10 -64 14.5 -157.5t5 -157t-1.5 -183t-2 -150.5q0 -5 0.5 -15t0.5 -16q-5 -1 -38 -9q-9 18 -33 86l-9 24q-1 -19 -2 -56t-1 -56q-14 1 -31.5 5.5t-26.5 5.5q-14 1 -31.5 -4.5t-32 -5.5t-29.5 13q-2 1 -7 5t-8 6l-2 -1l-2 -1q-2 0 -4 -2t-4 -2q-3 8 -4 10
q-9 -1 -25 -14t-33 -15h-12q-35 116 -126 313.5t-164 337.5l-74 140q-3 -56 5 -106q10 -65 14.5 -159.5t5 -158.5t-1.5 -184.5t-2 -152.5q0 -5 0.5 -16t0.5 -16q-7 -1 -37 -8q-17 34 -34 85q-2 4 -5 12.5t-4 12.5q-2 -74 -3 -112q-14 1 -31.5 5t-26.5 5q-14 1 -31.5 -4.5
t-32 -5.5t-29.5 13q-18 14 -23 15q-14 3 -31.5 -12t-34.5 -16h-12q0 101 8 146q12 66 3 96q-11 49 -12.5 159t3.5 208.5t11 166.5q2 46 2 63t-3.5 63.5t-4.5 63.5q-2 37 -3.5 111.5t-2.5 111.5q-1 18 -1 55v149q8 1 17.5 5.5t14.5 5.5t20 -3q27 -7 32.5 -6t30.5 15
q0 -29 -1 -88t-2 -88q1 2 3 7t2 7q0 1 -2 3t-2 3q1 0 3.5 1.5t3.5 2.5q34 106 50 159q14 -1 21.5 -9t16 -29t10.5 -24q4 -7 7.5 -10t7 -2.5t6 2t5.5 6.5t5 8.5t5 10t4 9.5q16 30 24.5 35.5t39.5 5.5h12q2 -118 35 -218t75.5 -163t115 -170.5t122.5 -202.5q7 101 8 113
q2 46 2 63t-3.5 63t-4.5 63l-3 111l-3 111q-1 18 -1 55v148q8 1 17.5 6t14.5 6t20 -3q27 -7 32.5 -6t30.5 15q-1 -29 -2 -88t-1 -88q26 80 58 182q14 -1 21.5 -9t16 -29t10.5 -24q4 -7 7.5 -10t7 -2.5t6 2t5.5 6.5t5 8.5t5 10t4 9.5q16 30 24.5 35.5t39.5 5.5h12
q4 -252 4 -377q-1 -33 -16.5 -153t-3.5 -188zM688 230q3 -1 5 1t2.5 5.5t0.5 6.5v6l-1 3q-50 159 -166 318q21 -44 60.5 -134t66 -147.5t32.5 -58.5z" />
    <glyph glyph-name="N" unicode="&#xd1;" horiz-adv-x="1128" 
d="M1052 705q10 -64 14.5 -157.5t5 -157t-1.5 -183t-2 -150.5q0 -5 0.5 -15t0.5 -16q-5 -1 -38 -9q-9 18 -33 86l-9 24q-1 -19 -2 -56t-1 -56q-14 1 -31.5 5.5t-26.5 5.5q-14 1 -31.5 -4.5t-32 -5.5t-29.5 13q-2 1 -7 5t-8 6l-2 -1l-2 -1q-2 0 -4 -2t-4 -2q-3 8 -4 10
q-9 -1 -25 -14t-33 -15h-12q-35 116 -126 313.5t-164 337.5l-74 140q-3 -56 5 -106q10 -65 14.5 -159.5t5 -158.5t-1.5 -184.5t-2 -152.5q0 -5 0.5 -16t0.5 -16q-7 -1 -37 -8q-17 34 -34 85q-2 4 -5 12.5t-4 12.5q-2 -74 -3 -112q-14 1 -31.5 5t-26.5 5q-14 1 -31.5 -4.5
t-32 -5.5t-29.5 13q-18 14 -23 15q-14 3 -31.5 -12t-34.5 -16h-12q0 101 8 146q12 66 3 96q-11 49 -12.5 159t3.5 208.5t11 166.5q2 46 2 63t-3.5 63.5t-4.5 63.5q-2 37 -3.5 111.5t-2.5 111.5q-1 18 -1 55v149q8 1 17.5 5.5t14.5 5.5t20 -3q27 -7 32.5 -6t30.5 15
q0 -29 -1 -88t-2 -88q1 2 3 7t2 7q0 1 -2 3t-2 3q1 0 3.5 1.5t3.5 2.5q34 106 50 159q14 -1 21.5 -9t16 -29t10.5 -24q4 -7 7.5 -10t7 -2.5t6 2t5.5 6.5t5 8.5t5 10t4 9.5q16 30 24.5 35.5t39.5 5.5h12q2 -118 35 -218t75.5 -163t115 -170.5t122.5 -202.5q7 101 8 113
q2 46 2 63t-3.5 63t-4.5 63l-3 111l-3 111q-1 18 -1 55v148q8 1 17.5 6t14.5 6t20 -3q27 -7 32.5 -6t30.5 15q-1 -29 -2 -88t-1 -88q26 80 58 182q14 -1 21.5 -9t16 -29t10.5 -24q4 -7 7.5 -10t7 -2.5t6 2t5.5 6.5t5 8.5t5 10t4 9.5q16 30 24.5 35.5t39.5 5.5h12
q4 -252 4 -377q-1 -33 -16.5 -153t-3.5 -188zM688 230q3 -1 5 1t2.5 5.5t0.5 6.5v6l-1 3q-50 159 -166 318q21 -44 60.5 -134t66 -147.5t32.5 -58.5z" />
    <glyph glyph-name="O" unicode="O" horiz-adv-x="1095" 
d="M892 1299q54 -57 95 -186t59 -247t23 -220q3 -204 -58 -381q-11 -39 -22 -62l-1 -2q-11 -24 -25 -46q-34 -50 -81 -82q-44 -29 -95 -43q-22 -6 -41 -9q-42 -7 -122 -7q-148 3 -274 62q-110 55 -192 154q-32 41 -63 94q-27 48 -46 112q-30 103 -33 229q0 149 30 266.5
t105 234.5q65 94 155 161q88 61 191 86q108 22 209 -4q106 -32 186 -110zM399 412q8 -12 17 -16.5t15 2.5t4 26q-1 5 -15.5 51t-28.5 100t-23 130.5t3 140.5q-21 -72 -24 -181q0 -91 13 -152q14 -60 39 -101zM679 380q36 46 50 139.5t4 195.5t-32 194.5t-59 147.5t-76 44
q-8 -3 -23 -12q-5 -3 -13 -8.5t-10 -7.5q-125 -108 -120 -313q5 -156 77 -287q58 -106 123 -122q44 -11 79 29z" />
    <glyph glyph-name="O" unicode="&#xd8;" horiz-adv-x="1095" 
d="M892 1299q54 -57 95 -186t59 -247t23 -220q3 -204 -58 -381q-11 -39 -22 -62l-1 -2q-11 -24 -25 -46q-34 -50 -81 -82q-44 -29 -95 -43q-22 -6 -41 -9q-42 -7 -122 -7q-148 3 -274 62q-110 55 -192 154q-32 41 -63 94q-27 48 -46 112q-30 103 -33 229q0 149 30 266.5
t105 234.5q65 94 155 161q88 61 191 86q108 22 209 -4q106 -32 186 -110zM399 412q8 -12 17 -16.5t15 2.5t4 26q-1 5 -15.5 51t-28.5 100t-23 130.5t3 140.5q-21 -72 -24 -181q0 -91 13 -152q14 -60 39 -101zM679 380q36 46 50 139.5t4 195.5t-32 194.5t-59 147.5t-76 44
q-8 -3 -23 -12q-5 -3 -13 -8.5t-10 -7.5q-125 -108 -120 -313q5 -156 77 -287q58 -106 123 -122q44 -11 79 29z" />
    <glyph glyph-name="O" unicode="&#xd6;" horiz-adv-x="1095" 
d="M892 1299q54 -57 95 -186t59 -247t23 -220q3 -204 -58 -381q-11 -39 -22 -62l-1 -2q-11 -24 -25 -46q-34 -50 -81 -82q-44 -29 -95 -43q-22 -6 -41 -9q-42 -7 -122 -7q-148 3 -274 62q-110 55 -192 154q-32 41 -63 94q-27 48 -46 112q-30 103 -33 229q0 149 30 266.5
t105 234.5q65 94 155 161q88 61 191 86q108 22 209 -4q106 -32 186 -110zM399 412q8 -12 17 -16.5t15 2.5t4 26q-1 5 -15.5 51t-28.5 100t-23 130.5t3 140.5q-21 -72 -24 -181q0 -91 13 -152q14 -60 39 -101zM679 380q36 46 50 139.5t4 195.5t-32 194.5t-59 147.5t-76 44
q-8 -3 -23 -12q-5 -3 -13 -8.5t-10 -7.5q-125 -108 -120 -313q5 -156 77 -287q58 -106 123 -122q44 -11 79 29z" />
    <glyph glyph-name="O" unicode="&#xd5;" horiz-adv-x="1095" 
d="M892 1299q54 -57 95 -186t59 -247t23 -220q3 -204 -58 -381q-11 -39 -22 -62l-1 -2q-11 -24 -25 -46q-34 -50 -81 -82q-44 -29 -95 -43q-22 -6 -41 -9q-42 -7 -122 -7q-148 3 -274 62q-110 55 -192 154q-32 41 -63 94q-27 48 -46 112q-30 103 -33 229q0 149 30 266.5
t105 234.5q65 94 155 161q88 61 191 86q108 22 209 -4q106 -32 186 -110zM399 412q8 -12 17 -16.5t15 2.5t4 26q-1 5 -15.5 51t-28.5 100t-23 130.5t3 140.5q-21 -72 -24 -181q0 -91 13 -152q14 -60 39 -101zM679 380q36 46 50 139.5t4 195.5t-32 194.5t-59 147.5t-76 44
q-8 -3 -23 -12q-5 -3 -13 -8.5t-10 -7.5q-125 -108 -120 -313q5 -156 77 -287q58 -106 123 -122q44 -11 79 29z" />
    <glyph glyph-name="O" unicode="&#xd4;" horiz-adv-x="1095" 
d="M892 1299q54 -57 95 -186t59 -247t23 -220q3 -204 -58 -381q-11 -39 -22 -62l-1 -2q-11 -24 -25 -46q-34 -50 -81 -82q-44 -29 -95 -43q-22 -6 -41 -9q-42 -7 -122 -7q-148 3 -274 62q-110 55 -192 154q-32 41 -63 94q-27 48 -46 112q-30 103 -33 229q0 149 30 266.5
t105 234.5q65 94 155 161q88 61 191 86q108 22 209 -4q106 -32 186 -110zM399 412q8 -12 17 -16.5t15 2.5t4 26q-1 5 -15.5 51t-28.5 100t-23 130.5t3 140.5q-21 -72 -24 -181q0 -91 13 -152q14 -60 39 -101zM679 380q36 46 50 139.5t4 195.5t-32 194.5t-59 147.5t-76 44
q-8 -3 -23 -12q-5 -3 -13 -8.5t-10 -7.5q-125 -108 -120 -313q5 -156 77 -287q58 -106 123 -122q44 -11 79 29z" />
    <glyph glyph-name="O" unicode="&#xd3;" horiz-adv-x="1095" 
d="M892 1299q54 -57 95 -186t59 -247t23 -220q3 -204 -58 -381q-11 -39 -22 -62l-1 -2q-11 -24 -25 -46q-34 -50 -81 -82q-44 -29 -95 -43q-22 -6 -41 -9q-42 -7 -122 -7q-148 3 -274 62q-110 55 -192 154q-32 41 -63 94q-27 48 -46 112q-30 103 -33 229q0 149 30 266.5
t105 234.5q65 94 155 161q88 61 191 86q108 22 209 -4q106 -32 186 -110zM399 412q8 -12 17 -16.5t15 2.5t4 26q-1 5 -15.5 51t-28.5 100t-23 130.5t3 140.5q-21 -72 -24 -181q0 -91 13 -152q14 -60 39 -101zM679 380q36 46 50 139.5t4 195.5t-32 194.5t-59 147.5t-76 44
q-8 -3 -23 -12q-5 -3 -13 -8.5t-10 -7.5q-125 -108 -120 -313q5 -156 77 -287q58 -106 123 -122q44 -11 79 29z" />
    <glyph glyph-name="O" unicode="&#xd2;" horiz-adv-x="1095" 
d="M892 1299q54 -57 95 -186t59 -247t23 -220q3 -204 -58 -381q-11 -39 -22 -62l-1 -2q-11 -24 -25 -46q-34 -50 -81 -82q-44 -29 -95 -43q-22 -6 -41 -9q-42 -7 -122 -7q-148 3 -274 62q-110 55 -192 154q-32 41 -63 94q-27 48 -46 112q-30 103 -33 229q0 149 30 266.5
t105 234.5q65 94 155 161q88 61 191 86q108 22 209 -4q106 -32 186 -110zM399 412q8 -12 17 -16.5t15 2.5t4 26q-1 5 -15.5 51t-28.5 100t-23 130.5t3 140.5q-21 -72 -24 -181q0 -91 13 -152q14 -60 39 -101zM679 380q36 46 50 139.5t4 195.5t-32 194.5t-59 147.5t-76 44
q-8 -3 -23 -12q-5 -3 -13 -8.5t-10 -7.5q-125 -108 -120 -313q5 -156 77 -287q58 -106 123 -122q44 -11 79 29z" />
    <glyph glyph-name="P" unicode="P" horiz-adv-x="1140" 
d="M1061 1240q44 -60 62 -118.5t19 -135.5q-1 -107 -45 -193q-24 -43 -58 -79q-29 -30 -66 -57q-72 -50 -155 -73q-38 -11 -83 -17q-39 -4 -84 -4q1 0 -31 -0.5t-74.5 -1t-58.5 -0.5h-33q5 -76 5.5 -159t-1.5 -209.5t-2 -147.5q0 -5 0.5 -15t0.5 -16q-5 -1 -38 -9
q-12 24 -33 86q-1 4 -4 12.5t-5 12.5q-1 -37 -3 -113q-14 1 -31.5 5t-26.5 5q-14 1 -31.5 -4t-32 -5t-29.5 13q-16 12 -23 14q-14 3 -31.5 -12t-34.5 -16h-12q0 101 8 146q12 67 3 97q-11 49 -12.5 159t3.5 208t11 166q2 46 2 63t-3.5 63.5t-4.5 63.5t-2 50.5t-1 50.5
q-7 -1 -22 -3t-22 -3q-3 6 -8 11.5t-12 12.5l-10 10q84 24 228 58q9 2 28 6.5t29 6.5q-127 -6 -297 -27q-2 15 9.5 34t13.5 28q3 13 -8.5 25t-22 19.5t-6 20t34.5 28.5q35 19 41 28q5 7 -2.5 13t-21.5 10t-29.5 8t-27.5 10t-13 14q0 2 -1 6t-1 6q181 25 286 28h1h4
q49 1 98 0q16 -1 62 -3.5t63.5 -2.5t61.5 3q106 11 237 -24q80 -24 136 -58.5t106 -94.5zM825 927q1 8 0 16q-2 11 -4 37q-6 39 -21 54q-23 21 -77 37q-110 26 -263 24v-50q-1 -53 -15 -147q186 -2 209 -2l8 -1q54 -4 82 -4q35 2 56 10q20 9 25 26z" />
    <glyph glyph-name="Q" unicode="Q" horiz-adv-x="1091" 
d="M1027 31q1 -2 3.5 -8.5t3.5 -10.5q3 -8 8 -26.5t8 -26.5q-6 -3 -11 -6.5t-10 -5.5t-14 -3q-18 -2 -44 -19q-3 11 -9 31t-9 31q-3 -13 -10 -38.5t-11 -38.5q-13 -1 -15.5 -2t-11.5 4.5t-13 7.5q-3 1 -5.5 1.5t-5 -0.5t-4 -1.5t-3.5 -3.5t-3 -4t-3 -5t-2 -5q-2 -4 -4 -7.5
t-3.5 -5.5t-4.5 -4l-4.5 -3t-5 -2.5t-5 -2t-7 -2t-7.5 -2.5q-1 -1 -3.5 -2t-4.5 -1q-8 22 -23.5 65t-22.5 65q-5 12 -6 25q-3 0 -9 -1.5l-10 -2.5q-42 -7 -122 -7q-148 3 -274 62q-110 55 -192 154q-32 41 -63 94q-27 48 -46 112q-30 103 -33 229q0 149 30 266.5t105 234.5
q65 94 155 161q88 61 191 86q108 22 209 -4q106 -32 186 -110q77 -84 114 -198q13 -42 20 -88q19 -118 27.5 -244.5t-1 -268t-41.5 -234.5q-11 -37 -23 -63v-2q-12 -24 -19 -36q3 -9 25 -55q7 -15 19 -44t14 -35zM399 412q8 -12 17 -16.5t15 2.5t4 26q-1 5 -15.5 51
t-28.5 100t-23 130.5t3 140.5q-21 -72 -24 -181q0 -91 13 -152q14 -60 39 -101zM696 417q12 128 7 309q-9 389 -118 380q-20 -1 -43 -17q-8 -6 -22 -16q-125 -108 -120 -313q5 -156 77 -287q58 -106 123 -122q44 -11 79 29q10 12 14 16q0 1 0.5 3t0.5 3q0 2 1 7t1 8z" />
    <glyph glyph-name="R" unicode="R" horiz-adv-x="1167" 
d="M1072 381q48 -133 58 -349q0 -7 1 -21.5t1 -21.5q-2 0 -37 -12q-29 85 -38 105q-2 5 -6 13t-6 13q6 -70 5 -133q-15 1 -33 6t-26 6q-12 2 -25.5 -1.5t-22 -7.5t-20.5 -1.5t-25 13.5q-14 12 -23 15q-12 4 -32 -13t-34 -17h-12q0 9 -1.5 65t0.5 65q7 121 -128 325
q-4 6 -13 18.5t-14 18.5q-6 9 -16.5 17.5t-16.5 12.5t-22.5 13t-19.5 11q-52 30 -74 40h-5h-33q5 -76 5.5 -159t-1.5 -209.5t-2 -147.5q0 -5 0.5 -16t0.5 -16q-7 -1 -37 -8q-15 32 -34 86q-1 4 -4 12.5t-5 12.5q-1 -37 -3 -113q-14 1 -31.5 5t-26.5 5q-14 1 -31.5 -4.5
t-32 -5.5t-29.5 13q-18 14 -23 15q-14 3 -31.5 -12t-34.5 -16h-12q0 101 8 146q12 66 3 96q-11 49 -12.5 159t3.5 208.5t11 166.5q2 46 2 63t-3.5 63.5t-4.5 63.5q-1 11 -3 101q-7 -1 -22 -3t-22 -3q-3 6 -8 11.5t-12 11.5t-10 10q96 28 228 59q9 2 28 6.5t29 6.5
q-113 -6 -297 -28q-2 15 9.5 34.5t13.5 28.5q3 13 -8.5 25t-22 19.5t-6 20t34.5 28.5q35 19 41 28q5 7 -2.5 13t-21.5 10t-29.5 8t-27.5 10t-13 14q0 2 -1 6t-1 6q251 33 389 28q16 -1 62 -3.5t63.5 -2.5t61.5 3q106 11 237 -24q80 -24 136 -58.5t106 -94.5
q44 -60 62 -118.5t19 -135.5q-1 -107 -45 -193q-25 -46 -57 -79q-31 -31 -67 -57q-27 -18 -55 -34q87 -74 154 -242zM825 927q1 8 0 16q-1 6 -2 18.5t-2 18.5q-6 39 -21 54q-24 22 -76 37q-110 26 -264 24v-50q-1 -53 -15 -147q38 -1 104.5 -1.5t104.5 -0.5l8 -1
q54 -4 82 -4q35 2 56 10q20 9 25 26z" />
    <glyph glyph-name="S" unicode="S" horiz-adv-x="1054" 
d="M980 632q45 -92 46 -199q0 -38 -7 -73q-13 -64 -43 -120q-46 -79 -123 -138q-75 -52 -161 -76q-5 -1 -46 -9q-69 -10 -132 -5q-95 8 -181 46q-93 44 -163 115q-2 1 -2 2q-41 44 -71 95q-20 35 -41 88q-31 89 -38 194q8 3 17 12t13.5 10.5t20.5 -5.5q9 -6 15 -8t10 -3.5
t9.5 1.5t8 5t10 9.5l11.5 11.5q2 -104 30 -188q13 -39 41 -86q-18 48 -26 92q-10 87 10 192q13 -1 22 -15.5t18 -38.5t14 -32q19 -27 28 5q1 5 3 16q3 11 4 15q12 38 21 45.5t41 6.5h12q2 -72 20 -122q60 -151 246 -134q33 3 60 15q25 12 37 27q21 25 12.5 54.5t-26 50.5
t-41.5 38q-55 38 -190 90q-66 25 -94.5 36.5t-77 35t-88.5 49.5q-75 52 -121 123q-52 87 -53 191q3 106 64 192q56 71 140 112q124 57 311 70q161 8 389 -7q36 -3 72 -3q1 -7 5 -19.5t5 -17.5q-15 -5 -49 -9t-64 -6t-72 -3.5t-50 -2.5q-65 -4 -94 -7q62 -1 173 -8.5
t158 -9.5q0 -14 -2.5 -22t-6.5 -17.5t-7 -18.5q-2 -17 7 -35t8 -30.5t-25 -27.5q-3 -1 -11.5 -5t-14 -8t-9.5 -8q-7 -14 25 -32t36 -36v-12q-67 1 -212.5 10t-225.5 10q-2 0 -6 -0.5t-6 -0.5q-207 -3 -204 -45q3 -40 225 -130q91 -37 151 -68.5t120 -80.5q72 -62 115 -143z
" />
    <glyph glyph-name="T" unicode="T" horiz-adv-x="1036" 
d="M350 3q0 103 8 153q12 72 3 105q-11 56 -12.5 179t3 231t11.5 186q3 45 2 68t-4 69t-4 68q-1 13 -1 40l-42 -3q-24 -1 -73.5 -2.5t-74.5 -2.5h-35q-16 0 -48 1t-47 1q0 4 -5.5 24t0.5 27q4 28 3.5 32.5t-9.5 31.5q41 -1 113 -5q-17 9 -36.5 19t-43.5 22t-37 19q0 13 5 20
t18 15.5t17 11.5q4 4 6.5 7t2 6.5t-1 6t-4.5 6t-5.5 5t-6.5 5t-6 4.5q-6 5 -10.5 9t-7 8.5t-4.5 6.5t-2.5 8.5t-0.5 8.5v11.5v12.5q0 2 -0.5 6t-0.5 6h122q123 1 123 0q33 -1 85 -13v88q8 1 17.5 5.5t14.5 5.5t20 -3q27 -7 32.5 -6t30.5 15q-1 -20 -1 -59.5t-1 -59.5
q7 0 19 2q22 70 38 124q14 -1 21.5 -9t16 -29.5t10.5 -24.5q3 -5 6 -8t5.5 -4t5 -0.5t5 3t4 5t4 6.5t4 7.5t3.5 8t3 7.5q15 31 23.5 36t40.5 5h12v-53t1 -53q66 2 298 -1q4 0 12 0.5t12 0.5q1 -8 3.5 -21t3.5 -16q-9 -6 -20 -11.5t-25 -11.5t-21 -10q-3 -1 -9.5 -4t-9.5 -5
q14 -1 42.5 -2t43.5 -1q0 -14 -3.5 -32.5t-4.5 -26.5q-1 -16 3 -33t4 -30.5t-9 -29.5q-9 -15 -11 -23q-2 -14 9 -31.5t12 -34.5v-12q-76 0 -112 8q-53 11 -73 3q-30 -13 -145 -13q-3 -30 -9 -80t-9.5 -78t-5 -78.5t6.5 -82.5q10 -74 14.5 -178t5 -174t-1.5 -202.5t-2 -169.5
q0 -6 0.5 -16.5t0.5 -16.5q-16 -2 -38 -8q-13 28 -33 88l-9 27l-3 -117q-14 1 -31.5 5t-26.5 5q-14 1 -31.5 -4.5t-32 -5.5t-29.5 13q-14 12 -23 15q-14 3 -31.5 -12t-34.5 -16h-12z" />
    <glyph glyph-name="U" unicode="U" 
d="M428 969q-67 -106 -84 -278q0 -4 -1 -13t-2 -13q-7 -98 15 -155q0 -2 1.5 -4t2.5 -4q30 -61 51 -87q49 -56 98.5 -73t89 2t70 63.5t48.5 107.5q13 52 8 200q-5 161 -22 308q-2 15 -5 43.5t-5 42.5q-15 144 -32 251q8 3 16 13t12.5 12t20.5 -3q9 -5 15.5 -6.5t10.5 -2.5
t9 3t6.5 6t8 11t10.5 14q21 -141 37 -303q14 155 16 322q9 0 17.5 -8t15.5 -22t12 -27t11 -28.5t8 -21.5q24 -48 31 21q1 5 2 16q1 10 1 13q1 8 2.5 23.5t2.5 19.5t3 13t5 11t8.5 6.5t12.5 6t18 2.5q2 1 6 1h6q60 -369 69 -632q1 -101 -23.5 -242t-29.5 -194q-1 -2 -1 -6
t-1 -6q-16 -81 -45 -141.5t-84 -116.5q-52 -48 -117 -74q-58 -21 -122 -25q-158 -6 -282 42q-66 29 -113.5 65t-91.5 92q-69 94 -101 218q-26 109 -27 233q3 200 69 365q23 54 43 91l46 3q-52 -122 -65 -248q-3 -26 -5 -78q24 174 111 307q13 -8 21 -27.5t15 -26.5
q12 -9 27.5 -10t24.5 1t16.5 -7.5t8.5 -35.5q0 -29 6 -38q7 -11 38.5 6t45.5 8q1 -1 4.5 -3t5.5 -3z" />
    <glyph glyph-name="U" unicode="&#xdc;" 
d="M428 969q-67 -106 -84 -278q0 -4 -1 -13t-2 -13q-7 -98 15 -155q0 -2 1.5 -4t2.5 -4q30 -61 51 -87q49 -56 98.5 -73t89 2t70 63.5t48.5 107.5q13 52 8 200q-5 161 -22 308q-2 15 -5 43.5t-5 42.5q-15 144 -32 251q8 3 16 13t12.5 12t20.5 -3q9 -5 15.5 -6.5t10.5 -2.5
t9 3t6.5 6t8 11t10.5 14q21 -141 37 -303q14 155 16 322q9 0 17.5 -8t15.5 -22t12 -27t11 -28.5t8 -21.5q24 -48 31 21q1 5 2 16q1 10 1 13q1 8 2.5 23.5t2.5 19.5t3 13t5 11t8.5 6.5t12.5 6t18 2.5q2 1 6 1h6q60 -369 69 -632q1 -101 -23.5 -242t-29.5 -194q-1 -2 -1 -6
t-1 -6q-16 -81 -45 -141.5t-84 -116.5q-52 -48 -117 -74q-58 -21 -122 -25q-158 -6 -282 42q-66 29 -113.5 65t-91.5 92q-69 94 -101 218q-26 109 -27 233q3 200 69 365q23 54 43 91l46 3q-52 -122 -65 -248q-3 -26 -5 -78q24 174 111 307q13 -8 21 -27.5t15 -26.5
q12 -9 27.5 -10t24.5 1t16.5 -7.5t8.5 -35.5q0 -29 6 -38q7 -11 38.5 6t45.5 8q1 -1 4.5 -3t5.5 -3z" />
    <glyph glyph-name="U" unicode="&#xdb;" 
d="M428 969q-67 -106 -84 -278q0 -4 -1 -13t-2 -13q-7 -98 15 -155q0 -2 1.5 -4t2.5 -4q30 -61 51 -87q49 -56 98.5 -73t89 2t70 63.5t48.5 107.5q13 52 8 200q-5 161 -22 308q-2 15 -5 43.5t-5 42.5q-15 144 -32 251q8 3 16 13t12.5 12t20.5 -3q9 -5 15.5 -6.5t10.5 -2.5
t9 3t6.5 6t8 11t10.5 14q21 -141 37 -303q14 155 16 322q9 0 17.5 -8t15.5 -22t12 -27t11 -28.5t8 -21.5q24 -48 31 21q1 5 2 16q1 10 1 13q1 8 2.5 23.5t2.5 19.5t3 13t5 11t8.5 6.5t12.5 6t18 2.5q2 1 6 1h6q60 -369 69 -632q1 -101 -23.5 -242t-29.5 -194q-1 -2 -1 -6
t-1 -6q-16 -81 -45 -141.5t-84 -116.5q-52 -48 -117 -74q-58 -21 -122 -25q-158 -6 -282 42q-66 29 -113.5 65t-91.5 92q-69 94 -101 218q-26 109 -27 233q3 200 69 365q23 54 43 91l46 3q-52 -122 -65 -248q-3 -26 -5 -78q24 174 111 307q13 -8 21 -27.5t15 -26.5
q12 -9 27.5 -10t24.5 1t16.5 -7.5t8.5 -35.5q0 -29 6 -38q7 -11 38.5 6t45.5 8q1 -1 4.5 -3t5.5 -3z" />
    <glyph glyph-name="U" unicode="&#xda;" 
d="M428 969q-67 -106 -84 -278q0 -4 -1 -13t-2 -13q-7 -98 15 -155q0 -2 1.5 -4t2.5 -4q30 -61 51 -87q49 -56 98.5 -73t89 2t70 63.5t48.5 107.5q13 52 8 200q-5 161 -22 308q-2 15 -5 43.5t-5 42.5q-15 144 -32 251q8 3 16 13t12.5 12t20.5 -3q9 -5 15.5 -6.5t10.5 -2.5
t9 3t6.5 6t8 11t10.5 14q21 -141 37 -303q14 155 16 322q9 0 17.5 -8t15.5 -22t12 -27t11 -28.5t8 -21.5q24 -48 31 21q1 5 2 16q1 10 1 13q1 8 2.5 23.5t2.5 19.5t3 13t5 11t8.5 6.5t12.5 6t18 2.5q2 1 6 1h6q60 -369 69 -632q1 -101 -23.5 -242t-29.5 -194q-1 -2 -1 -6
t-1 -6q-16 -81 -45 -141.5t-84 -116.5q-52 -48 -117 -74q-58 -21 -122 -25q-158 -6 -282 42q-66 29 -113.5 65t-91.5 92q-69 94 -101 218q-26 109 -27 233q3 200 69 365q23 54 43 91l46 3q-52 -122 -65 -248q-3 -26 -5 -78q24 174 111 307q13 -8 21 -27.5t15 -26.5
q12 -9 27.5 -10t24.5 1t16.5 -7.5t8.5 -35.5q0 -29 6 -38q7 -11 38.5 6t45.5 8q1 -1 4.5 -3t5.5 -3z" />
    <glyph glyph-name="U" unicode="&#xd9;" 
d="M428 969q-67 -106 -84 -278q0 -4 -1 -13t-2 -13q-7 -98 15 -155q0 -2 1.5 -4t2.5 -4q30 -61 51 -87q49 -56 98.5 -73t89 2t70 63.5t48.5 107.5q13 52 8 200q-5 161 -22 308q-2 15 -5 43.5t-5 42.5q-15 144 -32 251q8 3 16 13t12.5 12t20.5 -3q9 -5 15.5 -6.5t10.5 -2.5
t9 3t6.5 6t8 11t10.5 14q21 -141 37 -303q14 155 16 322q9 0 17.5 -8t15.5 -22t12 -27t11 -28.5t8 -21.5q24 -48 31 21q1 5 2 16q1 10 1 13q1 8 2.5 23.5t2.5 19.5t3 13t5 11t8.5 6.5t12.5 6t18 2.5q2 1 6 1h6q60 -369 69 -632q1 -101 -23.5 -242t-29.5 -194q-1 -2 -1 -6
t-1 -6q-16 -81 -45 -141.5t-84 -116.5q-52 -48 -117 -74q-58 -21 -122 -25q-158 -6 -282 42q-66 29 -113.5 65t-91.5 92q-69 94 -101 218q-26 109 -27 233q3 200 69 365q23 54 43 91l46 3q-52 -122 -65 -248q-3 -26 -5 -78q24 174 111 307q13 -8 21 -27.5t15 -26.5
q12 -9 27.5 -10t24.5 1t16.5 -7.5t8.5 -35.5q0 -29 6 -38q7 -11 38.5 6t45.5 8q1 -1 4.5 -3t5.5 -3z" />
    <glyph glyph-name="V" unicode="V" horiz-adv-x="1144" 
d="M528 560q59 183 131 340q10 21 18 46t17 58.5t13 48.5q8 27 25 80t25 80l12 36q4 11 16 42.5t18 48.5q8 -2 17 -2t16 -2t17 -8q7 -5 12.5 -7.5t8.5 -4.5t9 -2.5t8 -0.5h11h13l-42 -108l96 93q12 -4 17.5 -11t8.5 -22t5 -20q2 -6 5.5 -9t6.5 -4t8 1t7.5 3.5t8 5.5t7.5 5
q6 4 11 6.5t8.5 4t8 2t6.5 1t7.5 -1t7.5 -2.5t9.5 -3.5l10.5 -3.5q2 -1 6 -2.5t6 -1.5q-35 -105 -86 -248q-10 -28 -59.5 -116.5t-55.5 -149.5q-15 -87 -52.5 -214t-88.5 -280t-71 -221q-2 -7 -5.5 -21.5t-5.5 -21.5q-14 1 -40 -1q-1 27 1 122q0 6 0.5 17.5t0.5 17.5
q-16 -49 -46 -147q-15 5 -30 15t-22 14q-18 8 -32 4.5t-28.5 -1t-24.5 19.5l-2 -14q-7 -1 -13.5 0t-12.5 6.5t-8.5 8.5t-9 12.5t-8.5 11.5q-26 -15 -38 -13q-1 -1 -2 -5t-1 -5q-10 -30 -17.5 -36t-37.5 -12l-12 -3q-12 59 -37.5 176.5t-38.5 176.5q-8 37 -18 165.5
t-38 193.5q-76 206 -159 679q-1 4 -3 12.5t-3 13.5q7 2 19.5 7t16.5 6q16 -19 46 -66q2 -3 6.5 -10t6.5 -11q-10 64 -14 96q13 2 33 2h26q13 1 31.5 8t28 9t32.5 -4q13 -6 24 -7q14 1 30 14t32 17q2 0 6 1t6 1q13 -83 14 -120q0 -64 16 -94q39 -86 62 -210t42.5 -261.5
t43.5 -220.5z" />
    <glyph glyph-name="W" unicode="W" horiz-adv-x="1736" 
d="M812 1187l-4 19l-3 -9q1 -2 3.5 -5t3.5 -5zM484 702q4 -36 22 -108q48 157 90 256q9 20 15.5 44.5t12.5 56t10 46.5l42 162q3 13 11 39q5 17 16 51t16 51q12 -2 18 -1t14.5 -0.5t18.5 -7.5q16 -10 27 -13l-2 13q8 3 30.5 2t29.5 -1q14 1 32 9.5t27 10.5t33 -6
q19 -9 24 -9q14 1 29 17t32 20q2 0 6 1t6 1q15 -82 16 -133q0 -65 15 -91q29 -63 58 -225.5t40 -272.5l3 -24q46 153 91 260q9 20 15.5 44.5t12.5 56t10 46.5q7 31 22.5 87.5t20.5 74.5q3 13 11 39q5 17 15.5 51t15.5 51q12 -2 18 -1t14.5 -0.5t18.5 -7.5q19 -12 30 -13.5
t33 1.5q-7 -20 -20 -60t-20 -60q64 72 95 108q10 -4 15.5 -10t7.5 -11t4.5 -17t4.5 -18q2 -4 4 -7t4.5 -4t4.5 -1.5t5 0.5t5.5 2t6 3.5t5 4t5 4.5t4.5 4q21 17 33 17.5t36 -8.5l12 -3q-54 -190 -77 -265q-8 -28 -52 -115.5t-46 -142.5q-7 -61 -30 -158t-45 -174.5
t-56.5 -192t-45.5 -154.5l-12 -45l-40 -3q0 21 2 128v35q-16 -51 -46 -153q-15 5 -29.5 15.5t-22.5 14.5q-18 8 -32 3.5t-28.5 -2t-24.5 20.5q-1 -3 -1 -7t-1 -7q-8 -1 -14 0.5t-12 6.5t-9.5 8.5t-10 12t-8.5 11.5q-22 -14 -35 -13q-2 -8 -3 -11q-7 -21 -13.5 -29
t-12.5 -10.5t-30 -6.5l-12 -3q-44 206 -67 325q-5 30 -11.5 141t-30.5 173v1l-1 1q-15 -81 -44 -187t-71.5 -246.5t-51.5 -173.5l-12 -45q-6 0 -12.5 -0.5t-14.5 -1.5t-12 -1q-1 43 1 128q0 6 0.5 17.5t0.5 17.5q-8 -25 -23 -77t-23 -77q-15 5 -30 16t-23 15q-19 8 -33 3.5
t-28 -2t-24 21.5q-1 -3 -1 -8v-7q-12 -1 -22 6t-15 13.5t-14 21.5q-27 -19 -42 -15q0 -1 -0.5 -2.5t-0.5 -2.5q-10 -33 -16.5 -39.5t-37.5 -12.5l-12 -3q-43 203 -78 380q-6 34 -15.5 161t-35.5 196q-15 43 -31 101t-26 100.5t-26 121.5t-21 107.5t-21 119t-18 99.5l-6 27
q12 4 36 14q13 -16 46 -69q2 -4 7 -11.5l7 -10.5q-3 16 -8 50.5t-8 50.5q8 3 30 2t29 -1q15 2 33 10t26 9.5t33 -5.5q16 -7 25 -8q14 1 29 16t32 19q2 0 6 1t6 1q14 -74 15 -130q0 -65 15 -92q29 -66 60 -243t45 -301z" />
    <glyph glyph-name="X" unicode="X" horiz-adv-x="1153" 
d="M20 96q80 118 118 161q53 59 61 89q34 91 199 349q-22 41 -41 81q-11 23 -26.5 47.5t-37 54t-31.5 44.5q-18 27 -51.5 81t-51.5 80l-24 39q-10 18 -30 52.5t-30 51.5q6 5 11.5 12.5t11.5 12t18 7.5q7 2 12 3t9.5 3.5t6.5 3.5t5.5 5t4.5 5.5t6 8t7 9.5q12 -20 35 -61.5
t34 -62.5q-1 8 -24 157q7 4 14 4.5t14 -2t12 -5.5t13 -8t13 -8q5 -2 8.5 -2.5t6 0t4.5 2t3 4.5t2 5t1 6.5v7v7.5v7q1 27 6 34.5t25 19.5q5 3 8 5q1 1 4.5 3.5t5.5 3.5l159 -264q20 -33 63 -140q19 37 57.5 111.5t57.5 111.5q18 36 34 64q66 120 98 180q12 -4 19.5 -1t16 1
t15.5 -14q14 -21 24.5 -23.5t36.5 3.5q-78 -142 -118 -212q82 89 171 194q9 -6 11 -20t0.5 -25.5t-6 -31.5t-5.5 -25q-3 -25 9 -23q8 2 39 33q2 1 3 2q33 29 42 32t41 -13q2 -1 5.5 -3t5.5 -3q-187 -352 -235 -440q-16 -29 -37.5 -60.5t-48.5 -69.5t-41 -58
q34 -50 69.5 -107t75.5 -125.5t63.5 -109.5t67.5 -119t53 -95q5 -8 14 -24.5t14 -24.5q-5 -5 -25 -32q-17 17 -102 113q-4 5 -13.5 15.5t-14.5 15.5q45 -82 92 -169q-13 -7 -32.5 -8t-27.5 -4q-12 -4 -21.5 -15.5t-14 -20t-17 -12.5t-31.5 7q-22 11 -32 11q-11 0 -14 -15.5
t-6.5 -34.5t-13.5 -25q-6 -4 -10 -6q-88 158 -111 211q-2 4 -9 20t-9.5 22.5t-9.5 20t-12 21.5t-12 18t-15 18q-30 34 -74 101q-74 -133 -257 -403q-9 -13 -27 -41q-1 1 -38 9q4 14 42 124q2 6 5.5 16t5.5 16q-16 -22 -47 -66.5t-46 -66.5q-13 10 -22.5 24.5t-16.5 21.5
q-11 10 -30 13t-30.5 10t-13.5 33q-2 24 -7 32q-4 12 -35.5 2.5t-43.5 -1.5q-2 1 -5 3.5t-5 3.5z" />
    <glyph glyph-name="Y" unicode="Y" horiz-adv-x="1103" 
d="M383 1279q8 -14 23 -72t44 -79q16 -15 31 -32l20 -8q12 -1 -12 25q-14 14 -32.5 42t-31.5 50t-27 48zM427 1260q33 -67 79.5 -127.5t67.5 -30.5q34 52 38 56q10 13 18.5 30t18 42.5t13.5 33.5q10 20 30 60.5t29 61.5l15 30q7 13 22 38.5t22 38.5q8 -3 16.5 -4.5
t15.5 -4.5t16 -11q4 -4 7 -6.5t6.5 -4.5t5.5 -3.5t5.5 -3t5 -2t6 -1.5t6 -1.5t7.5 -1.5t9 -2q-9 -15 -26.5 -45t-26.5 -45q47 30 104 67q11 -6 15.5 -13t6 -22.5t2.5 -19.5q1 -5 3 -8.5t5.5 -4.5t6 -1.5t7 0.5t7 2t7 3t6.5 3q6 2 11.5 3.5t9.5 2.5t8 0.5t6.5 -0.5t7 -2
t7 -3.5t8.5 -4.5l10 -5q2 -1 5 -3t5 -3q-80 -154 -105 -199q-12 -20 -60 -76.5t-58 -101.5q-25 -99 -178 -369q-2 -20 -12.5 -58.5t-13.5 -58.5t5 -58q16 -60 18.5 -194.5t-1.5 -203.5q0 -3 0.5 -9t0.5 -10q-2 0 -37 -6q-11 14 -33 54q-2 2 -5 7.5t-4 8.5q0 -11 -1 -35
t-2 -36q-13 0 -33 3t-26 4q-14 0 -31.5 -3t-31 -3t-29.5 8q-14 7 -23 9q-13 2 -32 -7.5t-34 -10.5h-13q0 63 8 92q0 1 3 11t3.5 13.5t1 11t-0.5 13t-4 11.5q-15 45 -12 156t13 163q2 23 1.5 34t-3 35.5t-3.5 34.5q-1 19 -2 58.5t-2 59.5v28v4q-5 7 -15 14q-30 19 -87 116.5
t-74 145.5q-4 12 -12.5 24.5t-22 28.5t-17.5 22q-10 13 -28 40.5t-27 41.5q-4 6 -12 20q-20 36 -30 53q7 5 13.5 10.5t12.5 10t17 8.5q25 10 53 36q5 -10 16 -31.5t16 -32.5q2 16 7 47t8 47q9 5 16 6.5t10.5 1.5t12 -2t14.5 -3q5 1 7.5 0t6 1.5t4.5 3.5t3 5t3 5.5t2.5 6
t2.5 6.5q3 7 6 12.5t5 9t7.5 7.5t7 5.5t10.5 6.5t11 6l6 3t5 3q95 -94 124 -153z" />
    <glyph glyph-name="Y" unicode="&#x178;" horiz-adv-x="1103" 
d="M383 1279q8 -14 23 -72t44 -79q16 -15 31 -32l20 -8q12 -1 -12 25q-14 14 -32.5 42t-31.5 50t-27 48zM427 1260q33 -67 79.5 -127.5t67.5 -30.5q34 52 38 56q10 13 18.5 30t18 42.5t13.5 33.5q10 20 30 60.5t29 61.5l15 30q7 13 22 38.5t22 38.5q8 -3 16.5 -4.5
t15.5 -4.5t16 -11q4 -4 7 -6.5t6.5 -4.5t5.5 -3.5t5.5 -3t5 -2t6 -1.5t6 -1.5t7.5 -1.5t9 -2q-9 -15 -26.5 -45t-26.5 -45q47 30 104 67q11 -6 15.5 -13t6 -22.5t2.5 -19.5q1 -5 3 -8.5t5.5 -4.5t6 -1.5t7 0.5t7 2t7 3t6.5 3q6 2 11.5 3.5t9.5 2.5t8 0.5t6.5 -0.5t7 -2
t7 -3.5t8.5 -4.5l10 -5q2 -1 5 -3t5 -3q-80 -154 -105 -199q-12 -20 -60 -76.5t-58 -101.5q-25 -99 -178 -369q-2 -20 -12.5 -58.5t-13.5 -58.5t5 -58q16 -60 18.5 -194.5t-1.5 -203.5q0 -3 0.5 -9t0.5 -10q-2 0 -37 -6q-11 14 -33 54q-2 2 -5 7.5t-4 8.5q0 -11 -1 -35
t-2 -36q-13 0 -33 3t-26 4q-14 0 -31.5 -3t-31 -3t-29.5 8q-14 7 -23 9q-13 2 -32 -7.5t-34 -10.5h-13q0 63 8 92q0 1 3 11t3.5 13.5t1 11t-0.5 13t-4 11.5q-15 45 -12 156t13 163q2 23 1.5 34t-3 35.5t-3.5 34.5q-1 19 -2 58.5t-2 59.5v28v4q-5 7 -15 14q-30 19 -87 116.5
t-74 145.5q-4 12 -12.5 24.5t-22 28.5t-17.5 22q-10 13 -28 40.5t-27 41.5q-4 6 -12 20q-20 36 -30 53q7 5 13.5 10.5t12.5 10t17 8.5q25 10 53 36q5 -10 16 -31.5t16 -32.5q2 16 7 47t8 47q9 5 16 6.5t10.5 1.5t12 -2t14.5 -3q5 1 7.5 0t6 1.5t4.5 3.5t3 5t3 5.5t2.5 6
t2.5 6.5q3 7 6 12.5t5 9t7.5 7.5t7 5.5t10.5 6.5t11 6l6 3t5 3q95 -94 124 -153z" />
    <glyph glyph-name="Y" unicode="&#xdd;" horiz-adv-x="1103" 
d="M383 1279q8 -14 23 -72t44 -79q16 -15 31 -32l20 -8q12 -1 -12 25q-14 14 -32.5 42t-31.5 50t-27 48zM427 1260q33 -67 79.5 -127.5t67.5 -30.5q34 52 38 56q10 13 18.5 30t18 42.5t13.5 33.5q10 20 30 60.5t29 61.5l15 30q7 13 22 38.5t22 38.5q8 -3 16.5 -4.5
t15.5 -4.5t16 -11q4 -4 7 -6.5t6.5 -4.5t5.5 -3.5t5.5 -3t5 -2t6 -1.5t6 -1.5t7.5 -1.5t9 -2q-9 -15 -26.5 -45t-26.5 -45q47 30 104 67q11 -6 15.5 -13t6 -22.5t2.5 -19.5q1 -5 3 -8.5t5.5 -4.5t6 -1.5t7 0.5t7 2t7 3t6.5 3q6 2 11.5 3.5t9.5 2.5t8 0.5t6.5 -0.5t7 -2
t7 -3.5t8.5 -4.5l10 -5q2 -1 5 -3t5 -3q-80 -154 -105 -199q-12 -20 -60 -76.5t-58 -101.5q-25 -99 -178 -369q-2 -20 -12.5 -58.5t-13.5 -58.5t5 -58q16 -60 18.5 -194.5t-1.5 -203.5q0 -3 0.5 -9t0.5 -10q-2 0 -37 -6q-11 14 -33 54q-2 2 -5 7.5t-4 8.5q0 -11 -1 -35
t-2 -36q-13 0 -33 3t-26 4q-14 0 -31.5 -3t-31 -3t-29.5 8q-14 7 -23 9q-13 2 -32 -7.5t-34 -10.5h-13q0 63 8 92q0 1 3 11t3.5 13.5t1 11t-0.5 13t-4 11.5q-15 45 -12 156t13 163q2 23 1.5 34t-3 35.5t-3.5 34.5q-1 19 -2 58.5t-2 59.5v28v4q-5 7 -15 14q-30 19 -87 116.5
t-74 145.5q-4 12 -12.5 24.5t-22 28.5t-17.5 22q-10 13 -28 40.5t-27 41.5q-4 6 -12 20q-20 36 -30 53q7 5 13.5 10.5t12.5 10t17 8.5q25 10 53 36q5 -10 16 -31.5t16 -32.5q2 16 7 47t8 47q9 5 16 6.5t10.5 1.5t12 -2t14.5 -3q5 1 7.5 0t6 1.5t4.5 3.5t3 5t3 5.5t2.5 6
t2.5 6.5q3 7 6 12.5t5 9t7.5 7.5t7 5.5t10.5 6.5t11 6l6 3t5 3q95 -94 124 -153z" />
    <glyph glyph-name="Z" unicode="Z" horiz-adv-x="1132" 
d="M648 339q44 5 108 7.5t105.5 2.5t120 -1.5t93.5 -1.5q4 0 12.5 0.5t12.5 0.5q0 -2 6 -37q-9 -6 -20 -11.5t-25 -11.5t-21 -10q-3 -2 -9.5 -5.5t-9.5 -4.5q14 -1 43 -1t44 -1q0 -14 -3.5 -32.5t-4.5 -26.5q-1 -15 3 -32.5t3.5 -31t-9.5 -29.5q-9 -15 -11 -23
q-2 -14 9.5 -31.5t12.5 -34.5v-12q-78 0 -113 8q-53 11 -73 3q-57 -16 -189 -12.5t-197 14.5q-28 2 -42 1.5t-45 -3t-43 -3.5q-73 -4 -104 -5t-42.5 -0.5t-46 1.5t-85.5 1q0 4 -5.5 24t0.5 27q1 4 3 10q-1 0 -7.5 1.5t-8 2t-7 2.5t-7 3.5l-5 5t-5 7t-3 9t-2.5 12.5
q-2 24 -6 30q-7 11 -34 4.5t-43 0.5q-1 1 -4.5 3.5t-5.5 3.5q118 168 277.5 374t268.5 326q17 18 32 40t34 54.5t26 44.5q10 15 29 45t29 45q-98 5 -148 12q-28 2 -42 1.5t-45 -3t-43 -3.5q-24 -1 -73 -2.5t-74 -2.5h-36q-16 0 -47.5 1t-47.5 1q0 4 -5.5 24t0.5 27
q5 26 4.5 32t-9.5 32q39 -1 112 -5q-13 7 -116 60q0 13 5 20.5t18.5 16t16.5 11.5q4 4 6.5 7t2 6.5t-1.5 6t-4.5 6t-5.5 5t-7 5t-6 4.5q-6 5 -10.5 8.5t-7 8.5t-4.5 7t-2.5 8t-0.5 8v11.5v12.5v12h245q24 -1 104.5 -17t129.5 -4q43 9 115 13.5t116.5 5t144.5 -1t108 -1.5
q4 0 12 0.5t12 0.5q0 -2 6 -37q-4 -3 -65 -33q-3 -2 -10 -5t-10 -4l87 -3q0 -14 -3.5 -32.5t-4.5 -26.5q-1 -16 3 -33t4 -30.5t-9 -29.5q-11 -17 -12 -23q-2 -14 9.5 -31.5t12.5 -34.5v-12q-44 -64 -111 -164t-193 -304t-156 -284zM852 750q5 23 -19 2l-7 -7
q-68 -70 -92 -123q-39 -74 -124 -192q1 -4 4 -8.5t14 -4t24 18.5q30 40 113 167.5t87 146.5z" />
    <glyph glyph-name="bracketleft" unicode="[" horiz-adv-x="462" 
d="M627 -340q4 -4 7 -8t5 -6.5t2.5 -7t1 -6.5t0.5 -9v-10q0 -1 0.5 -4t0.5 -5q-92 -6 -138 -7q-17 0 -45.5 7t-45.5 10t-45 -5q-13 -4 -29 -7t-35.5 -5t-35 -3t-40 -1.5t-36.5 -0.5h-37.5h-31.5q-2 0 -4.5 -0.5t-3.5 -0.5q-2 47 -8 76.5t-13.5 39t-14.5 21.5t-11.5 25.5
t-4.5 49t7 93.5q12 98 3 143q-33 232 2 845q2 65 2 89t-3.5 90t-4.5 89q-1 46 -3 140t-4 141q-1 21 -1 63q0 68 9 106.5t19 49t17.5 38t5.5 76.5v9q26 0 42 -6q23 -8 33 -1q30 12 100.5 10t106.5 -8q15 -1 23.5 -0.5t25.5 3t24 3.5q13 2 40.5 4t41.5 3q12 2 19 2h51
q0 -4 3 -15t2 -23q-2 -18 6 -48q-10 0 -31 0.5t-31 0.5l66 -42q0 -10 -1.5 -15t-9 -12t-9.5 -10q-3 -3 -3.5 -6t-0.5 -5t2 -5.5t3 -4.5l4.5 -4.5l4.5 -4.5l6.5 -6.5t4.5 -6.5t3 -5.5t1.5 -6t0.5 -6t0.5 -8t0.5 -8.5t0.5 -5t0.5 -4q-92 -6 -139 -7q-19 -1 -54 8.5t-52 9.5
q2 -196 2 -295q0 -52 -16 -221t-3 -264q19 -183 20 -457.5t-4 -469.5q15 -1 23 -0.5t24.5 3t23.5 3.5q14 1 41.5 3t40.5 4q6 1 19 1q34 0 51 1q0 -4 3 -15t2 -23q-2 -18 6 -48q-10 0 -31 0.5t-31 0.5q11 -7 33 -21.5t33 -21.5q0 -10 -2 -15t-8.5 -11t-9.5 -10t-4 -7t1 -6.5
t3 -5.5t5.5 -6t5.5 -5z" />
    <glyph glyph-name="backslash" unicode="\" horiz-adv-x="907" 
d="M758 221q23 -51 47 -144q-2 -1 -5.5 -2t-5.5 -2q-14 -3 -38 7.5t-34 3.5q-6 -4 -18 -20q-15 -22 -47 -22.5t-42 -4.5q-9 -4 -24 -13t-29 -13q-6 18 -17.5 55.5t-16.5 56.5v-14t-1 -13q-3 -53 -10 -94q-25 0 -38 -2q-1 8 -8 32q-5 20 -42 150.5t-52.5 188.5t-36.5 156
t-29 166q-7 72 -54 188.5t-57 150.5q-34 126 -98 378l12 3q30 9 39.5 6t32.5 -30q2 -3 6.5 -8t7.5 -8.5t7 -7.5t7 -5.5t6.5 -1t6 4.5t4.5 12q1 5 3 21t3.5 24t7.5 17t16 13q55 -91 105 -167q-34 116 -50 174q22 -7 33.5 -6.5t30.5 14.5q10 8 17.5 8.5t17 -2t17.5 -1.5
q7 -27 21 -77t19 -71q9 -33 14 -56q9 -38 26.5 -112.5t26.5 -111.5q3 -12 12 -58.5t16.5 -76t17.5 -57.5q43 -118 92.5 -288t52.5 -246q-1 -33 28 -95z" />
    <glyph glyph-name="bracketright" unicode="]" horiz-adv-x="462" 
d="M387 39q-9 -45 3 -143q8 -76 7 -105.5t-9 -48.5t-16.5 -26t-17 -38.5t-10.5 -86.5q-2 0 -4 0.5t-4 0.5t-43.5 -0.5t-56.5 0t-48 2t-55.5 5t-40.5 9.5q-28 8 -44.5 5.5t-45.5 -9.5t-46 -7q-69 1 -138 6v10q0 2 0.5 8.5t0.5 8t0.5 6t1.5 6t3 5.5t4.5 6.5l6.5 6.5q1 1 4 3.5
t4 4t3 4t2.5 4t1 4t-1 5t-3.5 5.5q-3 4 -9.5 10t-8.5 11t-2 15q11 7 33 21.5t33 21.5q-10 0 -30.5 -0.5t-30.5 -0.5q8 28 5 48q-1 12 -0.5 15t2.5 10t3 13q17 -1 51 -1q14 0 20 -1q14 -2 41.5 -4t40.5 -3q7 -1 23.5 -3.5t24.5 -3t23 0.5q-5 195 -4 469.5t20 457.5
q13 95 -3.5 263.5t-16.5 221.5q0 99 2 295q-17 0 -52 -9.5t-54 -8.5q-46 1 -138 7v9q0 2 0.5 8.5t0.5 8t0.5 6t1.5 6t3 5.5t4.5 6.5l6.5 6.5q1 1 4 3.5t4 4t3 4t2.5 4t1 4t-1 5t-3.5 5.5q-3 4 -9.5 10t-8.5 11t-2 15q11 7 33 21.5t33 21.5q-10 0 -30.5 -0.5t-30.5 -0.5
q8 28 5 48q-1 12 -0.5 15.5t2.5 10.5t3 13q17 -1 52 -1q7 0 19 -2q13 -1 40.5 -3t41.5 -4q7 -1 24 -3.5t25.5 -3t23.5 0.5q36 6 106.5 8t100.5 -10q10 -7 33 1q16 6 42 6v-9q-2 -49 5.5 -76.5t17.5 -38t18.5 -49t8.5 -106.5q0 -42 -1 -63q-1 -46 -2.5 -140t-3.5 -140
q-1 -22 -4.5 -89t-3.5 -90.5t2 -89.5q35 -613 2 -845z" />
    <glyph glyph-name="asciicircum" unicode="^" horiz-adv-x="782" 
d="M725 986l13 -26t16 -30q-3 -2 -10.5 -9.5t-16.5 -9.5q-5 -1 -8.5 -2.5t-6 -2t-5 -3.5t-3.5 -3.5t-4.5 -5t-5.5 -6.5q-12 22 -34 66q2 -56 4 -86q-5 -3 -10.5 -3t-9 1.5t-9.5 5t-10 5.5q-10 4 -13 -2t-4 -17v-3q-1 -5 -1.5 -8l-1 -6t-2.5 -5t-2.5 -3.5t-3.5 -3t-4 -2.5
t-5.5 -3.5t-6.5 -3.5q-1 -1 -3.5 -2.5t-3.5 -1.5q-69 119 -78 136q-6 12 -20 57t-33 64q-24 24 -52 69q-26 -42 -53 -69q-20 -19 -33.5 -64t-19.5 -57q-9 -17 -78 -136q-1 0 -3.5 1.5t-3.5 2.5q-3 1 -6.5 3.5t-5.5 3.5t-4.5 2.5t-3.5 3t-2.5 3.5t-2 4.5t-1 6t-1.5 8.5
q-2 23 -10 24q-3 0 -7 -2t-9.5 -5.5t-9 -5t-9 -1.5t-11.5 3q2 30 4 86q-22 -44 -34 -66q-2 2 -5.5 6.5t-4.5 5t-3.5 3.5t-5 3.5t-6 2t-8.5 2.5q-9 2 -16.5 9.5t-10.5 9.5q4 6 30 56q4 7 12 19q8 13 23 38.5t23 37.5q4 6 13 18.5t16 23.5t10 20q11 34 46.5 99.5t55.5 79.5
q12 8 21 40q6 19 36 71l6 -3q8 -4 14.5 -19t14.5 -17q6 -2 17 0q15 2 26 -7q11 9 26 7q11 -2 17 0q8 2 14 17t14 19q1 0 3.5 1t3.5 2q30 -52 36 -71q9 -32 21 -40q20 -14 55.5 -79.5t46.5 -99.5q3 -9 10 -20t16 -23.5t13 -18.5q8 -12 23 -37.5t23 -38.5q8 -12 12 -19z" />
    <glyph glyph-name="underscore" unicode="_" horiz-adv-x="526" 
d="M482 54q-7 -7 -9 -12q-2 -6 7 -17t9 -18v-6q-57 0 -78 4q-30 7 -43 2q-26 -7 -86.5 -5.5t-89.5 7.5q-10 1 -15.5 0.5t-17 -2t-16.5 -1.5q-9 0 -27.5 -1t-27.5 -1h-13q-6 0 -17 0.5t-17 0.5q-2 26 -2 27q3 16 -2 34q7 0 20.5 -1t20.5 -2q-18 14 -43 32q0 7 1.5 10.5
t6.5 7.5t7 6q7 8 -6 21q-9 11 -9 34v7q60 0 90 -1q9 0 40.5 -9t50.5 -2q39 11 250 7q3 0 9 0.5t9 0.5q1 -5 5 -20q-8 -3 -24 -8.5t-24 -8.5q-2 -1 -6.5 -2.5t-6.5 -2.5q10 -1 31 -1t31 -1q0 -8 -2.5 -17.5t-3.5 -12.5q-1 -8 2 -18t3.5 -15t-7.5 -16z" />
    <glyph glyph-name="grave" unicode="`" horiz-adv-x="520" 
d="M477 1337q6 -6 18 -16q-2 -3 -5.5 -8.5t-4.5 -7.5q-2 -4 -19 -34.5t-25 -44t-25 -42t-28 -45.5t-25 -36t-25 -30q-19 -19 -33 -64t-20 -57q-9 -17 -78 -136q-1 0 -3.5 1.5t-3.5 2.5q-3 1 -6.5 3.5t-5.5 3.5t-4.5 2.5t-3.5 3t-2.5 3.5t-2 4.5t-1 6t-1.5 8.5q-2 23 -10 24
q-3 0 -7 -2t-10 -5.5t-9.5 -5t-9 -1.5t-10.5 3q2 30 4 86q-22 -44 -34 -66q-2 2 -5.5 6.5t-4.5 5t-3.5 3.5t-5 3.5t-6 2t-8.5 2.5q-9 2 -16.5 9.5t-10.5 9.5q10 18 30 56q1 2 5 9.5t6 10.5q8 13 23.5 38.5t23.5 37.5q4 6 13 18.5t16 23t10 19.5q11 34 46.5 99.5t55.5 79.5
q12 8 21 40q6 21 36 72q1 0 3 -2t3 -2q8 -4 14.5 -19t14.5 -17q6 -2 17 0q16 2 31 -11.5t21 -16.5q5 -2 16.5 -5.5t19.5 -7.5q-5 -10 -15.5 -28.5t-15.5 -27.5q2 1 6 3.5t6 4.5q28 22 43 32z" />
    <glyph glyph-name="a" unicode="a" horiz-adv-x="1150" 
d="M1118 26q-12 14 -45 66q-2 3 -6.5 10t-6.5 11q10 -64 14 -96q-13 -2 -33 -2h-26q-13 -1 -31.5 -8t-28 -9t-32.5 4q-13 6 -25 7q-14 -1 -30 -14t-32 -17q-2 0 -5.5 -1t-5.5 -1q-13 85 -14 121q-2 68 -16 94q-14 31 -30 90q-29 5 -54 -5q-68 -21 -321 -19
q-39 -116 -42 -127q-2 -6 -6 -17.5t-6 -16.5q-3 -9 -9.5 -26.5t-11.5 -31.5t-9 -26q-8 2 -17.5 2.5t-16 2t-17.5 7.5q-6 3 -10 5.5t-9 4t-7 2.5t-7.5 1.5t-7 0.5t-10 0.5t-11.5 0.5q26 68 40 101q-16 -14 -47.5 -43.5t-46.5 -43.5q-12 4 -17.5 9.5t-9.5 22t-5 18.5
q-2 5 -4.5 8.5t-6 4t-5.5 0.5t-7 -2t-7 -3t-7 -5t-6 -4q-8 -5 -14 -7.5t-10 -4.5t-10.5 -1t-9 1.5t-12 4t-13.5 4.5q-2 1 -5.5 2t-5.5 1q21 68 48 142q22 74 58 191t129 370t163 377q49 136 78 232q10 34 14 51q1 0 40 3q0 -48 -8 -144q-2 -26 -3 -40q26 76 55 176
q15 -5 29 -16.5t23 -16.5q19 -9 33 -3t28.5 3.5t23.5 -23.5l2 17q8 1 14.5 -0.5t12.5 -7t9 -9t10 -13t9 -12.5q22 18 35 16q1 1 2 4.5t1 5.5q7 22 13 30t13 11t29 7l12 3q12 -59 38 -176.5t38 -176.5q8 -37 18 -165.5t38 -193.5q76 -206 159 -679q1 -5 3.5 -14.5t2.5 -11.5
q-7 -2 -19.5 -7t-16.5 -6zM196 619q20 92 65 226q-54 -114 -81 -222q-15 -61 -38.5 -116.5t-28.5 -74.5q4 6 14 23t14.5 24.5t13 23t13 26.5t10.5 26.5t10.5 31t7.5 32.5zM486 507q39 6 113 6.5t115 -3.5q-27 145 -41 253q-5 48 -31 137q-57 -180 -156 -393z" />
    <glyph glyph-name="a" unicode="&#xe5;" horiz-adv-x="1150" 
d="M1118 26q-12 14 -45 66q-2 3 -6.5 10t-6.5 11q10 -64 14 -96q-13 -2 -33 -2h-26q-13 -1 -31.5 -8t-28 -9t-32.5 4q-13 6 -25 7q-14 -1 -30 -14t-32 -17q-2 0 -5.5 -1t-5.5 -1q-13 85 -14 121q-2 68 -16 94q-14 31 -30 90q-29 5 -54 -5q-68 -21 -321 -19
q-39 -116 -42 -127q-2 -6 -6 -17.5t-6 -16.5q-3 -9 -9.5 -26.5t-11.5 -31.5t-9 -26q-8 2 -17.5 2.5t-16 2t-17.5 7.5q-6 3 -10 5.5t-9 4t-7 2.5t-7.5 1.5t-7 0.5t-10 0.5t-11.5 0.5q26 68 40 101q-16 -14 -47.5 -43.5t-46.5 -43.5q-12 4 -17.5 9.5t-9.5 22t-5 18.5
q-2 5 -4.5 8.5t-6 4t-5.5 0.5t-7 -2t-7 -3t-7 -5t-6 -4q-8 -5 -14 -7.5t-10 -4.5t-10.5 -1t-9 1.5t-12 4t-13.5 4.5q-2 1 -5.5 2t-5.5 1q21 68 48 142q22 74 58 191t129 370t163 377q49 136 78 232q10 34 14 51q1 0 40 3q0 -48 -8 -144q-2 -26 -3 -40q26 76 55 176
q15 -5 29 -16.5t23 -16.5q19 -9 33 -3t28.5 3.5t23.5 -23.5l2 17q8 1 14.5 -0.5t12.5 -7t9 -9t10 -13t9 -12.5q22 18 35 16q1 1 2 4.5t1 5.5q7 22 13 30t13 11t29 7l12 3q12 -59 38 -176.5t38 -176.5q8 -37 18 -165.5t38 -193.5q76 -206 159 -679q1 -5 3.5 -14.5t2.5 -11.5
q-7 -2 -19.5 -7t-16.5 -6zM196 619q20 92 65 226q-54 -114 -81 -222q-15 -61 -38.5 -116.5t-28.5 -74.5q4 6 14 23t14.5 24.5t13 23t13 26.5t10.5 26.5t10.5 31t7.5 32.5zM486 507q39 6 113 6.5t115 -3.5q-27 145 -41 253q-5 48 -31 137q-57 -180 -156 -393z" />
    <glyph glyph-name="a" unicode="&#xe4;" horiz-adv-x="1150" 
d="M1118 26q-12 14 -45 66q-2 3 -6.5 10t-6.5 11q10 -64 14 -96q-13 -2 -33 -2h-26q-13 -1 -31.5 -8t-28 -9t-32.5 4q-13 6 -25 7q-14 -1 -30 -14t-32 -17q-2 0 -5.5 -1t-5.5 -1q-13 85 -14 121q-2 68 -16 94q-14 31 -30 90q-29 5 -54 -5q-68 -21 -321 -19
q-39 -116 -42 -127q-2 -6 -6 -17.5t-6 -16.5q-3 -9 -9.5 -26.5t-11.5 -31.5t-9 -26q-8 2 -17.5 2.5t-16 2t-17.5 7.5q-6 3 -10 5.5t-9 4t-7 2.5t-7.5 1.5t-7 0.5t-10 0.5t-11.5 0.5q26 68 40 101q-16 -14 -47.5 -43.5t-46.5 -43.5q-12 4 -17.5 9.5t-9.5 22t-5 18.5
q-2 5 -4.5 8.5t-6 4t-5.5 0.5t-7 -2t-7 -3t-7 -5t-6 -4q-8 -5 -14 -7.5t-10 -4.5t-10.5 -1t-9 1.5t-12 4t-13.5 4.5q-2 1 -5.5 2t-5.5 1q21 68 48 142q22 74 58 191t129 370t163 377q49 136 78 232q10 34 14 51q1 0 40 3q0 -48 -8 -144q-2 -26 -3 -40q26 76 55 176
q15 -5 29 -16.5t23 -16.5q19 -9 33 -3t28.5 3.5t23.5 -23.5l2 17q8 1 14.5 -0.5t12.5 -7t9 -9t10 -13t9 -12.5q22 18 35 16q1 1 2 4.5t1 5.5q7 22 13 30t13 11t29 7l12 3q12 -59 38 -176.5t38 -176.5q8 -37 18 -165.5t38 -193.5q76 -206 159 -679q1 -5 3.5 -14.5t2.5 -11.5
q-7 -2 -19.5 -7t-16.5 -6zM196 619q20 92 65 226q-54 -114 -81 -222q-15 -61 -38.5 -116.5t-28.5 -74.5q4 6 14 23t14.5 24.5t13 23t13 26.5t10.5 26.5t10.5 31t7.5 32.5zM486 507q39 6 113 6.5t115 -3.5q-27 145 -41 253q-5 48 -31 137q-57 -180 -156 -393z" />
    <glyph glyph-name="a" unicode="&#xe3;" horiz-adv-x="1150" 
d="M1118 26q-12 14 -45 66q-2 3 -6.5 10t-6.5 11q10 -64 14 -96q-13 -2 -33 -2h-26q-13 -1 -31.5 -8t-28 -9t-32.5 4q-13 6 -25 7q-14 -1 -30 -14t-32 -17q-2 0 -5.5 -1t-5.5 -1q-13 85 -14 121q-2 68 -16 94q-14 31 -30 90q-29 5 -54 -5q-68 -21 -321 -19
q-39 -116 -42 -127q-2 -6 -6 -17.5t-6 -16.5q-3 -9 -9.5 -26.5t-11.5 -31.5t-9 -26q-8 2 -17.5 2.5t-16 2t-17.5 7.5q-6 3 -10 5.5t-9 4t-7 2.5t-7.5 1.5t-7 0.5t-10 0.5t-11.5 0.5q26 68 40 101q-16 -14 -47.5 -43.5t-46.5 -43.5q-12 4 -17.5 9.5t-9.5 22t-5 18.5
q-2 5 -4.5 8.5t-6 4t-5.5 0.5t-7 -2t-7 -3t-7 -5t-6 -4q-8 -5 -14 -7.5t-10 -4.5t-10.5 -1t-9 1.5t-12 4t-13.5 4.5q-2 1 -5.5 2t-5.5 1q21 68 48 142q22 74 58 191t129 370t163 377q49 136 78 232q10 34 14 51q1 0 40 3q0 -48 -8 -144q-2 -26 -3 -40q26 76 55 176
q15 -5 29 -16.5t23 -16.5q19 -9 33 -3t28.5 3.5t23.5 -23.5l2 17q8 1 14.5 -0.5t12.5 -7t9 -9t10 -13t9 -12.5q22 18 35 16q1 1 2 4.5t1 5.5q7 22 13 30t13 11t29 7l12 3q12 -59 38 -176.5t38 -176.5q8 -37 18 -165.5t38 -193.5q76 -206 159 -679q1 -5 3.5 -14.5t2.5 -11.5
q-7 -2 -19.5 -7t-16.5 -6zM196 619q20 92 65 226q-54 -114 -81 -222q-15 -61 -38.5 -116.5t-28.5 -74.5q4 6 14 23t14.5 24.5t13 23t13 26.5t10.5 26.5t10.5 31t7.5 32.5zM486 507q39 6 113 6.5t115 -3.5q-27 145 -41 253q-5 48 -31 137q-57 -180 -156 -393z" />
    <glyph glyph-name="a" unicode="&#xe2;" horiz-adv-x="1150" 
d="M1118 26q-12 14 -45 66q-2 3 -6.5 10t-6.5 11q10 -64 14 -96q-13 -2 -33 -2h-26q-13 -1 -31.5 -8t-28 -9t-32.5 4q-13 6 -25 7q-14 -1 -30 -14t-32 -17q-2 0 -5.5 -1t-5.5 -1q-13 85 -14 121q-2 68 -16 94q-14 31 -30 90q-29 5 -54 -5q-68 -21 -321 -19
q-39 -116 -42 -127q-2 -6 -6 -17.5t-6 -16.5q-3 -9 -9.5 -26.5t-11.5 -31.5t-9 -26q-8 2 -17.5 2.5t-16 2t-17.5 7.5q-6 3 -10 5.5t-9 4t-7 2.5t-7.5 1.5t-7 0.5t-10 0.5t-11.5 0.5q26 68 40 101q-16 -14 -47.5 -43.5t-46.5 -43.5q-12 4 -17.5 9.5t-9.5 22t-5 18.5
q-2 5 -4.5 8.5t-6 4t-5.5 0.5t-7 -2t-7 -3t-7 -5t-6 -4q-8 -5 -14 -7.5t-10 -4.5t-10.5 -1t-9 1.5t-12 4t-13.5 4.5q-2 1 -5.5 2t-5.5 1q21 68 48 142q22 74 58 191t129 370t163 377q49 136 78 232q10 34 14 51q1 0 40 3q0 -48 -8 -144q-2 -26 -3 -40q26 76 55 176
q15 -5 29 -16.5t23 -16.5q19 -9 33 -3t28.5 3.5t23.5 -23.5l2 17q8 1 14.5 -0.5t12.5 -7t9 -9t10 -13t9 -12.5q22 18 35 16q1 1 2 4.5t1 5.5q7 22 13 30t13 11t29 7l12 3q12 -59 38 -176.5t38 -176.5q8 -37 18 -165.5t38 -193.5q76 -206 159 -679q1 -5 3.5 -14.5t2.5 -11.5
q-7 -2 -19.5 -7t-16.5 -6zM196 619q20 92 65 226q-54 -114 -81 -222q-15 -61 -38.5 -116.5t-28.5 -74.5q4 6 14 23t14.5 24.5t13 23t13 26.5t10.5 26.5t10.5 31t7.5 32.5zM486 507q39 6 113 6.5t115 -3.5q-27 145 -41 253q-5 48 -31 137q-57 -180 -156 -393z" />
    <glyph glyph-name="a" unicode="&#xe1;" horiz-adv-x="1150" 
d="M1118 26q-12 14 -45 66q-2 3 -6.5 10t-6.5 11q10 -64 14 -96q-13 -2 -33 -2h-26q-13 -1 -31.5 -8t-28 -9t-32.5 4q-13 6 -25 7q-14 -1 -30 -14t-32 -17q-2 0 -5.5 -1t-5.5 -1q-13 85 -14 121q-2 68 -16 94q-14 31 -30 90q-29 5 -54 -5q-68 -21 -321 -19
q-39 -116 -42 -127q-2 -6 -6 -17.5t-6 -16.5q-3 -9 -9.5 -26.5t-11.5 -31.5t-9 -26q-8 2 -17.5 2.5t-16 2t-17.5 7.5q-6 3 -10 5.5t-9 4t-7 2.5t-7.5 1.5t-7 0.5t-10 0.5t-11.5 0.5q26 68 40 101q-16 -14 -47.5 -43.5t-46.5 -43.5q-12 4 -17.5 9.5t-9.5 22t-5 18.5
q-2 5 -4.5 8.5t-6 4t-5.5 0.5t-7 -2t-7 -3t-7 -5t-6 -4q-8 -5 -14 -7.5t-10 -4.5t-10.5 -1t-9 1.5t-12 4t-13.5 4.5q-2 1 -5.5 2t-5.5 1q21 68 48 142q22 74 58 191t129 370t163 377q49 136 78 232q10 34 14 51q1 0 40 3q0 -48 -8 -144q-2 -26 -3 -40q26 76 55 176
q15 -5 29 -16.5t23 -16.5q19 -9 33 -3t28.5 3.5t23.5 -23.5l2 17q8 1 14.5 -0.5t12.5 -7t9 -9t10 -13t9 -12.5q22 18 35 16q1 1 2 4.5t1 5.5q7 22 13 30t13 11t29 7l12 3q12 -59 38 -176.5t38 -176.5q8 -37 18 -165.5t38 -193.5q76 -206 159 -679q1 -5 3.5 -14.5t2.5 -11.5
q-7 -2 -19.5 -7t-16.5 -6zM196 619q20 92 65 226q-54 -114 -81 -222q-15 -61 -38.5 -116.5t-28.5 -74.5q4 6 14 23t14.5 24.5t13 23t13 26.5t10.5 26.5t10.5 31t7.5 32.5zM486 507q39 6 113 6.5t115 -3.5q-27 145 -41 253q-5 48 -31 137q-57 -180 -156 -393z" />
    <glyph glyph-name="a" unicode="&#xe0;" horiz-adv-x="1150" 
d="M1118 26q-12 14 -45 66q-2 3 -6.5 10t-6.5 11q10 -64 14 -96q-13 -2 -33 -2h-26q-13 -1 -31.5 -8t-28 -9t-32.5 4q-13 6 -25 7q-14 -1 -30 -14t-32 -17q-2 0 -5.5 -1t-5.5 -1q-13 85 -14 121q-2 68 -16 94q-14 31 -30 90q-29 5 -54 -5q-68 -21 -321 -19
q-39 -116 -42 -127q-2 -6 -6 -17.5t-6 -16.5q-3 -9 -9.5 -26.5t-11.5 -31.5t-9 -26q-8 2 -17.5 2.5t-16 2t-17.5 7.5q-6 3 -10 5.5t-9 4t-7 2.5t-7.5 1.5t-7 0.5t-10 0.5t-11.5 0.5q26 68 40 101q-16 -14 -47.5 -43.5t-46.5 -43.5q-12 4 -17.5 9.5t-9.5 22t-5 18.5
q-2 5 -4.5 8.5t-6 4t-5.5 0.5t-7 -2t-7 -3t-7 -5t-6 -4q-8 -5 -14 -7.5t-10 -4.5t-10.5 -1t-9 1.5t-12 4t-13.5 4.5q-2 1 -5.5 2t-5.5 1q21 68 48 142q22 74 58 191t129 370t163 377q49 136 78 232q10 34 14 51q1 0 40 3q0 -48 -8 -144q-2 -26 -3 -40q26 76 55 176
q15 -5 29 -16.5t23 -16.5q19 -9 33 -3t28.5 3.5t23.5 -23.5l2 17q8 1 14.5 -0.5t12.5 -7t9 -9t10 -13t9 -12.5q22 18 35 16q1 1 2 4.5t1 5.5q7 22 13 30t13 11t29 7l12 3q12 -59 38 -176.5t38 -176.5q8 -37 18 -165.5t38 -193.5q76 -206 159 -679q1 -5 3.5 -14.5t2.5 -11.5
q-7 -2 -19.5 -7t-16.5 -6zM196 619q20 92 65 226q-54 -114 -81 -222q-15 -61 -38.5 -116.5t-28.5 -74.5q4 6 14 23t14.5 24.5t13 23t13 26.5t10.5 26.5t10.5 31t7.5 32.5zM486 507q39 6 113 6.5t115 -3.5q-27 145 -41 253q-5 48 -31 137q-57 -180 -156 -393z" />
    <glyph glyph-name="b" unicode="b" horiz-adv-x="1161" 
d="M1072 670q75 -99 78 -222q-3 -113 -61 -207q-58 -88 -162 -147q-94 -47 -186 -66t-211 -21q-92 0 -101 -2q-13 27 -33 85q-2 4 -5 12.5t-4 12.5q-2 -74 -3 -112q-14 1 -32.5 5t-26.5 5q-14 1 -31.5 -4.5t-32 -5.5t-29.5 13q-19 14 -22 15q-14 3 -32 -12t-35 -16h-12
q0 95 9 146q12 66 3 96q-11 49 -12.5 159t3.5 208.5t11 166.5q5 52 -2 168t-7 129q-7 -1 -21 -4.5t-21 -5.5q-3 6 -7 11.5t-9 11.5t-8 10q48 23 146 61q7 3 19 6.5t19 6.5q-100 -9 -198 -30q-3 15 2.5 33.5t5.5 27.5q0 13 -9 25t-17 19t-6 19.5t20 28.5q22 19 25 29
q4 11 -12 18t-36.5 14.5t-23.5 19.5l-3 12q176 38 279 36q11 0 35 -1t38.5 -1.5t35 0.5t36.5 5q100 18 246 -19q127 -35 220 -109q95 -80 130 -174l2 -4q1 -4 1 -5q33 -100 29 -191q-3 -45 -15 -82q-19 -54 -49 -100q42 -27 82 -74zM469 1101q0 -9 0.5 -28t0.5 -28
q-1 -40 -14 -139q92 3 177 -7q30 0 54 12q97 49 41 106q-43 43 -143 68q-54 11 -116 16zM618 82q19 5 44 14q-85 -10 -196 -7v-40q78 12 152 33zM667 347q41 2 78 21t53 46.5t13.5 56.5t-44.5 54t-118 36q-89 12 -149 10q-24 -2 -37 -2q6 -86 6 -227q53 -2 198 5z" />
    <glyph glyph-name="c" unicode="c" horiz-adv-x="1071" 
d="M1023 640q2 0 5.5 0.5t5.5 0.5q6 -177 -5 -277q-8 -65 -22.5 -112.5t-44.5 -96.5q-35 -51 -80 -82q-41 -27 -95 -42q-21 -6 -42 -9q-48 -8 -121 -8q-148 3 -274 62q-110 55 -192 154q-32 41 -63 94q-27 48 -46 112q-30 103 -33 229q0 149 30 266.5t105 234.5
q65 94 155 161q90 63 191 87q108 22 209 -4q105 -31 186 -111q106 -114 134 -286q10 -68 10 -123q-8 -4 -21.5 -18t-16.5 -16q-11 130 -52 226q-15 36 -35 70q-27 42 -55 70q46 -59 74 -145q29 -104 23 -227q-15 1 -32 18t-26 21q-15 3 -29 -7t-21 -19.5t-18 -2.5t-25 39
q-15 32 -24 38q-10 7 -19.5 -11.5t-21 -41t-24.5 -22.5h-12q3 77 -14 141q-12 39 -31 66q-12 15 -15 17q-4 4 -20 12q-27 11 -55 3q-8 -3 -23 -12q-28 -20 -44 -32q-40 -35 -70 -80q-76 -124 -82 -312q0 -91 13 -152q14 -60 39 -101q10 -16 16 -23q19 -22 51 -34
q48 -16 85 -21t62 1.5t42.5 22t26.5 39.5t14.5 54.5t5.5 67v77.5q8 2 17 9t13.5 8.5t20.5 -4.5q7 -4 12 -6.5t10 -3t7.5 -0.5t7.5 3t7 4.5t9 8t10 9.5q2 -146 -9 -227q40 83 64 238q8 -1 15.5 -8t12.5 -19.5t8.5 -23.5t7 -26t5.5 -20q17 -42 34 15q1 4 3 11q2 8 3 11
q2 6 5 15.5t4 13t3.5 10t4 8.5t4 6t5 5t6 3t8 2.5t10.5 1t13 0.5z" />
    <glyph glyph-name="c" unicode="&#xe7;" horiz-adv-x="1071" 
d="M1023 640q2 0 5.5 0.5t5.5 0.5q6 -177 -5 -277q-8 -65 -22.5 -112.5t-44.5 -96.5q-35 -51 -80 -82q-41 -27 -95 -42q-21 -6 -42 -9q-48 -8 -121 -8q-148 3 -274 62q-110 55 -192 154q-32 41 -63 94q-27 48 -46 112q-30 103 -33 229q0 149 30 266.5t105 234.5
q65 94 155 161q90 63 191 87q108 22 209 -4q105 -31 186 -111q106 -114 134 -286q10 -68 10 -123q-8 -4 -21.5 -18t-16.5 -16q-11 130 -52 226q-15 36 -35 70q-27 42 -55 70q46 -59 74 -145q29 -104 23 -227q-15 1 -32 18t-26 21q-15 3 -29 -7t-21 -19.5t-18 -2.5t-25 39
q-15 32 -24 38q-10 7 -19.5 -11.5t-21 -41t-24.5 -22.5h-12q3 77 -14 141q-12 39 -31 66q-12 15 -15 17q-4 4 -20 12q-27 11 -55 3q-8 -3 -23 -12q-28 -20 -44 -32q-40 -35 -70 -80q-76 -124 -82 -312q0 -91 13 -152q14 -60 39 -101q10 -16 16 -23q19 -22 51 -34
q48 -16 85 -21t62 1.5t42.5 22t26.5 39.5t14.5 54.5t5.5 67v77.5q8 2 17 9t13.5 8.5t20.5 -4.5q7 -4 12 -6.5t10 -3t7.5 -0.5t7.5 3t7 4.5t9 8t10 9.5q2 -146 -9 -227q40 83 64 238q8 -1 15.5 -8t12.5 -19.5t8.5 -23.5t7 -26t5.5 -20q17 -42 34 15q1 4 3 11q2 8 3 11
q2 6 5 15.5t4 13t3.5 10t4 8.5t4 6t5 5t6 3t8 2.5t10.5 1t13 0.5z" />
    <glyph glyph-name="d" unicode="d" horiz-adv-x="1087" 
d="M1078 771q7 -141 -43 -280q-30 -76 -67 -133t-93 -116q-62 -60 -124 -100.5t-145 -75.5q-110 -43 -235 -64q-12 24 -34 89q-2 4 -5 12.5t-4 12.5q-1 -37 -3 -113q-14 1 -31.5 5t-26.5 5q-14 1 -31.5 -4.5t-32 -5.5t-29.5 13q-18 14 -23 15q-14 3 -31.5 -12t-34.5 -16h-12
q0 101 8 146q12 66 3 96q-11 49 -12.5 159t3.5 208.5t11 166.5q2 46 2 63t-3.5 63.5t-4.5 63.5q-2 48 -4 144h-15q-1 8 -6.5 17.5t-6.5 14.5t4 20q4 8 5.5 14l2.5 10t-1 9t-3.5 7.5l-6 10l-7.5 12.5q98 -1 196 -12q-90 38 -204 68q1 10 10 18.5t18 12t26 8.5t22 7
q33 16 -7 33q-4 1 -11 4t-10 4q-37 16 -43.5 24t-5.5 40v12q212 0 356 -24h6h12v-3q15 -3 72 -14q1 0 3 -1t3 -1q91 -24 158.5 -58.5t147.5 -95.5q87 -66 159 -144q26 -29 49 -67q67 -116 79 -268zM472 94q18 8 52 26q-46 -16 -117 -30v-21q44 16 65 25zM722 612
q25 72 24 146q-3 74 -29 132q-22 44 -63 88q-12 12 -30 25q-47 30 -134 56q-46 14 -79 21v-35q-1 -33 -16.5 -154.5t-3.5 -190.5q19 -119 19 -350q14 3 71 19q2 1 6 2t6 2q96 31 129 77q9 14 19 25q56 72 81 137z" />
    <glyph glyph-name="e" unicode="e" horiz-adv-x="1058" 
d="M1018 104q-9 -15 -11 -23q-2 -14 9 -32.5t12 -34.5v-12q-68 0 -104 9q-45 11 -63 2q-46 -15 -155 -11.5t-162 13.5q-24 2 -36 1.5t-39 -3t-37 -3.5q-4 0 -11 -0.5t-11 -0.5q-3 -1 -8.5 -2t-8.5 -2l-1 1q0 2 -1 2q-7 0 -22 -0.5t-22 -0.5v-4q-16 0 -28 3h-21
q-11 -1 -34 -1q-4 0 -11 0.5t-11 0.5q-19 -4 -30 0q-7 0 -20.5 0.5t-20.5 0.5q-1 10 -5 24q-10 0 -26 -13t-33 -15h-12q0 101 8 146q12 66 3 96q-21 92 -9 361h-59h-11q0 10 -2 28q8 12 33 25q2 1 6.5 3.5t6.5 3.5q-8 0 -23.5 1t-23.5 1q0 14 2 44q0 5 -2 35t3 35q5 13 5 17
q1 9 -4 24t-5 26v9q35 0 66 -6q4 0 10.5 -2t9.5 -2q-1 23 -3.5 65.5t-3.5 55.5q-1 37 -2.5 111.5t-3.5 111.5q-1 18 -1 55v149q8 1 17 6t14 6t20 -3q1 -1 4.5 -2.5t5.5 -1.5v17v12h233q22 -1 92 -17t111 -4q28 7 67 11.5t89 5.5t85 1t92 -1t72 -1q4 0 11.5 0.5t11.5 0.5
q1 -8 3.5 -21t3.5 -16q-9 -6 -19.5 -11.5t-23.5 -11.5t-20 -10q-3 -2 -8.5 -5t-8.5 -4l81 -3q0 -14 -3.5 -32.5t-4.5 -26.5q-1 -16 3 -33t4 -30t-9 -30q-10 -16 -11 -22q-2 -14 9 -32.5t12 -34.5v-12q-73 0 -105 8q-2 0 -12 3t-13.5 3.5t-11.5 1t-13.5 -0.5t-11.5 -4
q-46 -15 -155 -11.5t-162 13.5q-24 2 -36 1.5t-38 -3t-37 -3.5v-54q0 -29 -3.5 -59.5t-9 -69t-7.5 -55.5q85 -2 137 -5q29 -1 42 -0.5t42.5 4t41.5 4.5q84 6 126 10q18 2 28 2q1 0 27.5 1t39.5 2q1 -5 4.5 -16t2.5 -23q-3 -21 7 -47q-13 -1 -40 -1t-41 -1q15 -7 44 -20
t44 -19q1 -7 -1.5 -13t-5 -9t-9 -8.5t-9.5 -7.5q-3 -3 -4.5 -5.5t-1 -5t1.5 -4.5t3.5 -4t4 -3.5t5 -3.5t4.5 -3q4 -3 7 -5.5t5.5 -4.5t4 -5.5t2 -4.5t1.5 -5.5t1 -6t0.5 -7.5t0.5 -8t0.5 -5t0.5 -4q-115 -11 -198 -13q-31 -1 -78 5.5t-76 9.5t-79 -6q-27 -5 -75 -10
q9 -111 9 -279q13 -3 39.5 -9.5t41.5 -9t37 -3t42 5.5q63 17 198.5 19t206.5 -2q4 0 11.5 0.5t11.5 0.5q1 -8 3.5 -21t3.5 -16q-13 -8 -63 -34q-3 -2 -8.5 -5t-8.5 -4l81 -3q0 -14 -3 -32.5t-4 -25.5q-1 -15 3 -32.5t3.5 -30.5t-9.5 -30z" />
    <glyph glyph-name="e" unicode="&#xeb;" horiz-adv-x="1058" 
d="M1018 104q-9 -15 -11 -23q-2 -14 9 -32.5t12 -34.5v-12q-68 0 -104 9q-45 11 -63 2q-46 -15 -155 -11.5t-162 13.5q-24 2 -36 1.5t-39 -3t-37 -3.5q-4 0 -11 -0.5t-11 -0.5q-3 -1 -8.5 -2t-8.5 -2l-1 1q0 2 -1 2q-7 0 -22 -0.5t-22 -0.5v-4q-16 0 -28 3h-21
q-11 -1 -34 -1q-4 0 -11 0.5t-11 0.5q-19 -4 -30 0q-7 0 -20.5 0.5t-20.5 0.5q-1 10 -5 24q-10 0 -26 -13t-33 -15h-12q0 101 8 146q12 66 3 96q-21 92 -9 361h-59h-11q0 10 -2 28q8 12 33 25q2 1 6.5 3.5t6.5 3.5q-8 0 -23.5 1t-23.5 1q0 14 2 44q0 5 -2 35t3 35q5 13 5 17
q1 9 -4 24t-5 26v9q35 0 66 -6q4 0 10.5 -2t9.5 -2q-1 23 -3.5 65.5t-3.5 55.5q-1 37 -2.5 111.5t-3.5 111.5q-1 18 -1 55v149q8 1 17 6t14 6t20 -3q1 -1 4.5 -2.5t5.5 -1.5v17v12h233q22 -1 92 -17t111 -4q28 7 67 11.5t89 5.5t85 1t92 -1t72 -1q4 0 11.5 0.5t11.5 0.5
q1 -8 3.5 -21t3.5 -16q-9 -6 -19.5 -11.5t-23.5 -11.5t-20 -10q-3 -2 -8.5 -5t-8.5 -4l81 -3q0 -14 -3.5 -32.5t-4.5 -26.5q-1 -16 3 -33t4 -30t-9 -30q-10 -16 -11 -22q-2 -14 9 -32.5t12 -34.5v-12q-73 0 -105 8q-2 0 -12 3t-13.5 3.5t-11.5 1t-13.5 -0.5t-11.5 -4
q-46 -15 -155 -11.5t-162 13.5q-24 2 -36 1.5t-38 -3t-37 -3.5v-54q0 -29 -3.5 -59.5t-9 -69t-7.5 -55.5q85 -2 137 -5q29 -1 42 -0.5t42.5 4t41.5 4.5q84 6 126 10q18 2 28 2q1 0 27.5 1t39.5 2q1 -5 4.5 -16t2.5 -23q-3 -21 7 -47q-13 -1 -40 -1t-41 -1q15 -7 44 -20
t44 -19q1 -7 -1.5 -13t-5 -9t-9 -8.5t-9.5 -7.5q-3 -3 -4.5 -5.5t-1 -5t1.5 -4.5t3.5 -4t4 -3.5t5 -3.5t4.5 -3q4 -3 7 -5.5t5.5 -4.5t4 -5.5t2 -4.5t1.5 -5.5t1 -6t0.5 -7.5t0.5 -8t0.5 -5t0.5 -4q-115 -11 -198 -13q-31 -1 -78 5.5t-76 9.5t-79 -6q-27 -5 -75 -10
q9 -111 9 -279q13 -3 39.5 -9.5t41.5 -9t37 -3t42 5.5q63 17 198.5 19t206.5 -2q4 0 11.5 0.5t11.5 0.5q1 -8 3.5 -21t3.5 -16q-13 -8 -63 -34q-3 -2 -8.5 -5t-8.5 -4l81 -3q0 -14 -3 -32.5t-4 -25.5q-1 -15 3 -32.5t3.5 -30.5t-9.5 -30z" />
    <glyph glyph-name="e" unicode="&#xea;" horiz-adv-x="1058" 
d="M1018 104q-9 -15 -11 -23q-2 -14 9 -32.5t12 -34.5v-12q-68 0 -104 9q-45 11 -63 2q-46 -15 -155 -11.5t-162 13.5q-24 2 -36 1.5t-39 -3t-37 -3.5q-4 0 -11 -0.5t-11 -0.5q-3 -1 -8.5 -2t-8.5 -2l-1 1q0 2 -1 2q-7 0 -22 -0.5t-22 -0.5v-4q-16 0 -28 3h-21
q-11 -1 -34 -1q-4 0 -11 0.5t-11 0.5q-19 -4 -30 0q-7 0 -20.5 0.5t-20.5 0.5q-1 10 -5 24q-10 0 -26 -13t-33 -15h-12q0 101 8 146q12 66 3 96q-21 92 -9 361h-59h-11q0 10 -2 28q8 12 33 25q2 1 6.5 3.5t6.5 3.5q-8 0 -23.5 1t-23.5 1q0 14 2 44q0 5 -2 35t3 35q5 13 5 17
q1 9 -4 24t-5 26v9q35 0 66 -6q4 0 10.5 -2t9.5 -2q-1 23 -3.5 65.5t-3.5 55.5q-1 37 -2.5 111.5t-3.5 111.5q-1 18 -1 55v149q8 1 17 6t14 6t20 -3q1 -1 4.5 -2.5t5.5 -1.5v17v12h233q22 -1 92 -17t111 -4q28 7 67 11.5t89 5.5t85 1t92 -1t72 -1q4 0 11.5 0.5t11.5 0.5
q1 -8 3.5 -21t3.5 -16q-9 -6 -19.5 -11.5t-23.5 -11.5t-20 -10q-3 -2 -8.5 -5t-8.5 -4l81 -3q0 -14 -3.5 -32.5t-4.5 -26.5q-1 -16 3 -33t4 -30t-9 -30q-10 -16 -11 -22q-2 -14 9 -32.5t12 -34.5v-12q-73 0 -105 8q-2 0 -12 3t-13.5 3.5t-11.5 1t-13.5 -0.5t-11.5 -4
q-46 -15 -155 -11.5t-162 13.5q-24 2 -36 1.5t-38 -3t-37 -3.5v-54q0 -29 -3.5 -59.5t-9 -69t-7.5 -55.5q85 -2 137 -5q29 -1 42 -0.5t42.5 4t41.5 4.5q84 6 126 10q18 2 28 2q1 0 27.5 1t39.5 2q1 -5 4.5 -16t2.5 -23q-3 -21 7 -47q-13 -1 -40 -1t-41 -1q15 -7 44 -20
t44 -19q1 -7 -1.5 -13t-5 -9t-9 -8.5t-9.5 -7.5q-3 -3 -4.5 -5.5t-1 -5t1.5 -4.5t3.5 -4t4 -3.5t5 -3.5t4.5 -3q4 -3 7 -5.5t5.5 -4.5t4 -5.5t2 -4.5t1.5 -5.5t1 -6t0.5 -7.5t0.5 -8t0.5 -5t0.5 -4q-115 -11 -198 -13q-31 -1 -78 5.5t-76 9.5t-79 -6q-27 -5 -75 -10
q9 -111 9 -279q13 -3 39.5 -9.5t41.5 -9t37 -3t42 5.5q63 17 198.5 19t206.5 -2q4 0 11.5 0.5t11.5 0.5q1 -8 3.5 -21t3.5 -16q-13 -8 -63 -34q-3 -2 -8.5 -5t-8.5 -4l81 -3q0 -14 -3 -32.5t-4 -25.5q-1 -15 3 -32.5t3.5 -30.5t-9.5 -30z" />
    <glyph glyph-name="e" unicode="&#xe9;" horiz-adv-x="1058" 
d="M1018 104q-9 -15 -11 -23q-2 -14 9 -32.5t12 -34.5v-12q-68 0 -104 9q-45 11 -63 2q-46 -15 -155 -11.5t-162 13.5q-24 2 -36 1.5t-39 -3t-37 -3.5q-4 0 -11 -0.5t-11 -0.5q-3 -1 -8.5 -2t-8.5 -2l-1 1q0 2 -1 2q-7 0 -22 -0.5t-22 -0.5v-4q-16 0 -28 3h-21
q-11 -1 -34 -1q-4 0 -11 0.5t-11 0.5q-19 -4 -30 0q-7 0 -20.5 0.5t-20.5 0.5q-1 10 -5 24q-10 0 -26 -13t-33 -15h-12q0 101 8 146q12 66 3 96q-21 92 -9 361h-59h-11q0 10 -2 28q8 12 33 25q2 1 6.5 3.5t6.5 3.5q-8 0 -23.5 1t-23.5 1q0 14 2 44q0 5 -2 35t3 35q5 13 5 17
q1 9 -4 24t-5 26v9q35 0 66 -6q4 0 10.5 -2t9.5 -2q-1 23 -3.5 65.5t-3.5 55.5q-1 37 -2.5 111.5t-3.5 111.5q-1 18 -1 55v149q8 1 17 6t14 6t20 -3q1 -1 4.5 -2.5t5.5 -1.5v17v12h233q22 -1 92 -17t111 -4q28 7 67 11.5t89 5.5t85 1t92 -1t72 -1q4 0 11.5 0.5t11.5 0.5
q1 -8 3.5 -21t3.5 -16q-9 -6 -19.5 -11.5t-23.5 -11.5t-20 -10q-3 -2 -8.5 -5t-8.5 -4l81 -3q0 -14 -3.5 -32.5t-4.5 -26.5q-1 -16 3 -33t4 -30t-9 -30q-10 -16 -11 -22q-2 -14 9 -32.5t12 -34.5v-12q-73 0 -105 8q-2 0 -12 3t-13.5 3.5t-11.5 1t-13.5 -0.5t-11.5 -4
q-46 -15 -155 -11.5t-162 13.5q-24 2 -36 1.5t-38 -3t-37 -3.5v-54q0 -29 -3.5 -59.5t-9 -69t-7.5 -55.5q85 -2 137 -5q29 -1 42 -0.5t42.5 4t41.5 4.5q84 6 126 10q18 2 28 2q1 0 27.5 1t39.5 2q1 -5 4.5 -16t2.5 -23q-3 -21 7 -47q-13 -1 -40 -1t-41 -1q15 -7 44 -20
t44 -19q1 -7 -1.5 -13t-5 -9t-9 -8.5t-9.5 -7.5q-3 -3 -4.5 -5.5t-1 -5t1.5 -4.5t3.5 -4t4 -3.5t5 -3.5t4.5 -3q4 -3 7 -5.5t5.5 -4.5t4 -5.5t2 -4.5t1.5 -5.5t1 -6t0.5 -7.5t0.5 -8t0.5 -5t0.5 -4q-115 -11 -198 -13q-31 -1 -78 5.5t-76 9.5t-79 -6q-27 -5 -75 -10
q9 -111 9 -279q13 -3 39.5 -9.5t41.5 -9t37 -3t42 5.5q63 17 198.5 19t206.5 -2q4 0 11.5 0.5t11.5 0.5q1 -8 3.5 -21t3.5 -16q-13 -8 -63 -34q-3 -2 -8.5 -5t-8.5 -4l81 -3q0 -14 -3 -32.5t-4 -25.5q-1 -15 3 -32.5t3.5 -30.5t-9.5 -30z" />
    <glyph glyph-name="e" unicode="&#xe8;" horiz-adv-x="1058" 
d="M1018 104q-9 -15 -11 -23q-2 -14 9 -32.5t12 -34.5v-12q-68 0 -104 9q-45 11 -63 2q-46 -15 -155 -11.5t-162 13.5q-24 2 -36 1.5t-39 -3t-37 -3.5q-4 0 -11 -0.5t-11 -0.5q-3 -1 -8.5 -2t-8.5 -2l-1 1q0 2 -1 2q-7 0 -22 -0.5t-22 -0.5v-4q-16 0 -28 3h-21
q-11 -1 -34 -1q-4 0 -11 0.5t-11 0.5q-19 -4 -30 0q-7 0 -20.5 0.5t-20.5 0.5q-1 10 -5 24q-10 0 -26 -13t-33 -15h-12q0 101 8 146q12 66 3 96q-21 92 -9 361h-59h-11q0 10 -2 28q8 12 33 25q2 1 6.5 3.5t6.5 3.5q-8 0 -23.5 1t-23.5 1q0 14 2 44q0 5 -2 35t3 35q5 13 5 17
q1 9 -4 24t-5 26v9q35 0 66 -6q4 0 10.5 -2t9.5 -2q-1 23 -3.5 65.5t-3.5 55.5q-1 37 -2.5 111.5t-3.5 111.5q-1 18 -1 55v149q8 1 17 6t14 6t20 -3q1 -1 4.5 -2.5t5.5 -1.5v17v12h233q22 -1 92 -17t111 -4q28 7 67 11.5t89 5.5t85 1t92 -1t72 -1q4 0 11.5 0.5t11.5 0.5
q1 -8 3.5 -21t3.5 -16q-9 -6 -19.5 -11.5t-23.5 -11.5t-20 -10q-3 -2 -8.5 -5t-8.5 -4l81 -3q0 -14 -3.5 -32.5t-4.5 -26.5q-1 -16 3 -33t4 -30t-9 -30q-10 -16 -11 -22q-2 -14 9 -32.5t12 -34.5v-12q-73 0 -105 8q-2 0 -12 3t-13.5 3.5t-11.5 1t-13.5 -0.5t-11.5 -4
q-46 -15 -155 -11.5t-162 13.5q-24 2 -36 1.5t-38 -3t-37 -3.5v-54q0 -29 -3.5 -59.5t-9 -69t-7.5 -55.5q85 -2 137 -5q29 -1 42 -0.5t42.5 4t41.5 4.5q84 6 126 10q18 2 28 2q1 0 27.5 1t39.5 2q1 -5 4.5 -16t2.5 -23q-3 -21 7 -47q-13 -1 -40 -1t-41 -1q15 -7 44 -20
t44 -19q1 -7 -1.5 -13t-5 -9t-9 -8.5t-9.5 -7.5q-3 -3 -4.5 -5.5t-1 -5t1.5 -4.5t3.5 -4t4 -3.5t5 -3.5t4.5 -3q4 -3 7 -5.5t5.5 -4.5t4 -5.5t2 -4.5t1.5 -5.5t1 -6t0.5 -7.5t0.5 -8t0.5 -5t0.5 -4q-115 -11 -198 -13q-31 -1 -78 5.5t-76 9.5t-79 -6q-27 -5 -75 -10
q9 -111 9 -279q13 -3 39.5 -9.5t41.5 -9t37 -3t42 5.5q63 17 198.5 19t206.5 -2q4 0 11.5 0.5t11.5 0.5q1 -8 3.5 -21t3.5 -16q-13 -8 -63 -34q-3 -2 -8.5 -5t-8.5 -4l81 -3q0 -14 -3 -32.5t-4 -25.5q-1 -15 3 -32.5t3.5 -30.5t-9.5 -30z" />
    <glyph glyph-name="f" unicode="f" horiz-adv-x="1028" 
d="M543 1104q-24 2 -35.5 1.5t-38 -3t-36.5 -3.5v-55q-1 -29 -4 -59t-8.5 -69t-7.5 -55q67 -1 139 -6q29 -1 42 -0.5t42.5 4t41.5 4.5q88 6 127 10q18 2 27 2q48 2 68 4q1 -6 3 -12.5t3 -12t0 -14.5q-1 -7 -1.5 -11.5t0.5 -9.5t1.5 -6.5t3.5 -8.5t4 -11q-14 -1 -41.5 -2
t-40.5 -1q14 -7 44 -20t44 -19q1 -7 -1.5 -13t-5 -8.5t-9 -7.5t-9.5 -8q-2 -2 -3.5 -4.5t-1.5 -4.5v-3.5t1.5 -3.5t2.5 -3l3 -3t3.5 -3t4 -2.5t3.5 -2.5q4 -3 7 -5.5t5.5 -4.5t4 -5t2 -4.5t1.5 -5.5t1 -5t0.5 -7.5t0.5 -8.5t0.5 -5t0.5 -4q-116 -11 -198 -13q-31 -1 -78 5.5
t-76 9t-79 -6.5q-29 -5 -77 -10q5 -62 7 -143.5t1.5 -141.5t-2 -152.5t-1.5 -131.5q0 -5 0.5 -16t0.5 -16q-7 -1 -37 -8q-13 27 -33 85q-1 4 -4 12.5t-5 12.5q-2 -74 -3 -112q-14 1 -32.5 5t-26.5 5q-14 1 -31.5 -4.5t-32 -5.5t-29.5 13q-19 14 -22 15q-14 3 -32 -12
t-35 -16h-12q0 95 9 146q12 64 2 96q-20 89 -8 361h-57q-2 0 -5.5 -0.5t-5.5 -0.5q0 10 -2 28q10 13 33 26q2 1 6.5 3t6.5 3q-8 1 -23.5 1t-23.5 1l3 45q0 6 -2.5 35t2.5 35q5 13 5 17q1 9 -4 24t-5 26v9q35 0 66 -6q3 0 9 -2t9 -2q-1 23 -3.5 65.5t-3.5 55.5
q-1 37 -3.5 111.5t-3.5 111.5q-1 18 -1 55v149q8 1 17.5 5.5t14.5 5.5t20 -3l9 -3v17v12h233q22 -1 92 -17t111 -4q28 7 67 11.5t89 5.5t85 1t92 -1t72 -1q4 0 12 0.5t12 0.5q0 -2 6 -37l-63 -33q-3 -2 -8.5 -5t-8.5 -4q13 -1 41 -2t41 -1q0 -14 -3.5 -32.5t-4.5 -26.5
q-1 -15 3 -32.5t3.5 -30.5t-9.5 -30q-10 -16 -11 -22q-2 -14 9.5 -32.5t12.5 -34.5v-12q-73 0 -105 8l-11 3q-12 3 -15 3.5t-11.5 1t-14 -0.5t-11.5 -4q-46 -15 -155 -11.5t-162 13.5z" />
    <glyph glyph-name="g" unicode="g" horiz-adv-x="1122" 
d="M1112 629l-72 -6q0 -7 0.5 -19t0.5 -19q2 -159 -11 -250q-10 -62 -25.5 -106.5t-48.5 -89.5q-3 -2 -3 -3q-66 -80 -169 -104q-58 -11 -155 -7q-148 6 -272 56q-81 35 -151 91q-27 22 -52 51q-68 84 -105 211q-28 107 -31 231q1 133 25 239t84 216q57 95 122.5 157
t161.5 107q89 37 179 40q101 0 184 -37q88 -43 152 -121q10 -12 14 -18q38 -54 63 -120q-6 -7 -14 -25t-10 -22q-39 91 -97 151q-57 59 -129 87l-9 3q-36 12 -83 17q43 -9 79 -25q72 -35 123 -98q50 -65 75 -155q-14 -4 -35 7t-32 11q-15 -3 -24.5 -16t-13.5 -23t-16.5 -8.5
t-36.5 23.5q-19 19 -34 20q-11 0 -14.5 -17t-8 -36.5t-17.5 -23.5l-12 -3q-11 38 -30 63q-14 17 -29 26q-17 9 -38 12h-13q-23 0 -45 -7q-45 -16 -71 -52q-34 -50 -52 -83q-60 -125 -63 -289q0 -85 14 -151q15 -60 40 -99q25 -36 65 -58q5 -3 6 -3q45 -22 138 -16
q25 2 42.5 11t27.5 25.5t15.5 34.5t6.5 45t0.5 48.5t-1.5 54t-1 53.5q-31 -3 -185 -3q-1 0 -4 -0.5t-5 -0.5q0 5 -1 14.5t-2 13.5q3 5 26 25l3.5 3.5t4.5 3.5q-6 0 -17.5 1t-17.5 1q0 7 0.5 14.5t1.5 16t1 13.5q0 6 -3 35t3 35q5 13 5 17q1 9 -4 24.5t-5 25.5v9q30 0 48 -6
q25 -8 36 -1q32 11 109 10.5t116 -5.5q18 -1 26.5 -0.5t29 4t27.5 4.5q16 2 48 5t48 5t23 2t20 0.5t23.5 1t19.5 1.5q1 -5 4.5 -16t2.5 -23q-3 -21 7 -47q-13 -1 -38 -1t-37 -1q40 -21 81 -39q1 -10 -1.5 -15.5t-11.5 -12.5t-11 -10q-3 -3 -4 -5.5t-0.5 -5t1 -4.5t3 -4.5
t4 -3.5t5 -3.5t4.5 -2.5q5 -4 9 -7.5t6 -6t3 -7.5t1.5 -6.5t1 -9t0.5 -10.5q0 -2 0.5 -5t0.5 -4zM837 581q9 19 15 48q-22 2 -32 1q0 -33 -1 -50q0 -30 -2 -90q9 33 20 91z" />
    <glyph glyph-name="h" unicode="h" horiz-adv-x="1128" 
d="M1052 670q10 -72 14.5 -164t5 -153t-1.5 -178.5t-2 -157.5q0 -5 0.5 -16t0.5 -16q-3 0 -37 -9q-10 22 -33 88q-1 4 -4 12.5t-5 13.5q0 -19 -1 -58t-2 -58q-14 1 -32.5 5t-26.5 5q-14 1 -31.5 -4t-32 -5t-29.5 13q-17 13 -23 14q-14 3 -31.5 -12t-34.5 -16h-12
q0 103 8 152q12 66 3 103q-22 95 -6 395q-68 12 -103 0q-70 -18 -250 -18q5 -61 7 -142t1.5 -140t-2 -150t-1.5 -129q0 -5 0.5 -16t0.5 -16q-16 -2 -38 -8q-13 27 -33 85q-2 4 -5 12.5t-4 12.5q-2 -74 -3 -112q-14 1 -31.5 5t-26.5 5q-14 1 -31.5 -4.5t-32 -5.5t-29.5 13
q-18 14 -23 15q-14 3 -31.5 -12t-34.5 -16h-12q0 101 8 146q12 66 3 96q-11 49 -12.5 159t3.5 208.5t11 166.5q1 48 1 63.5t-3 63t-4 63.5q-2 37 -3.5 111.5t-2.5 111.5q-1 18 -1 55v149q8 1 17 5.5t14 5.5t20 -3q29 -7 33.5 -6t30.5 15q0 -29 -1 -88t-2 -88q20 61 58 183
q14 -1 21.5 -9t16 -29.5t10.5 -24.5q4 -7 7.5 -10t7 -2.5t6 2.5t5.5 7t5 8.5t5 10t4 9.5q16 30 24.5 35.5t39.5 5.5h12q4 -252 4 -379q-1 -31 -4.5 -64t-9.5 -71.5t-8 -60.5q17 -4 27 2q39 12 130.5 11.5t138.5 -5.5q22 -3 78 6q-1 11 -2.5 30.5t-2.5 35t-1 29.5
q-1 39 -2.5 116.5t-3.5 115.5q-1 19 -1 57v150q8 1 17 6t14 6t20 -3q8 -3 14.5 -4.5t10 -2.5t9.5 1l7.5 2.5t10.5 5t12 6.5l-3 -177q25 75 58 184q14 -1 21.5 -9t16 -29.5t10.5 -24.5q4 -7 7.5 -10t7 -2.5t6 2.5t5.5 7t5 8.5t5 10t4 9.5q16 30 24.5 35.5t39.5 5.5h12
q4 -258 4 -387q-1 -36 -16.5 -163.5t-3.5 -202.5z" />
    <glyph glyph-name="i" unicode="i" horiz-adv-x="716" 
d="M684 1192q-11 -18 -12 -22q-2 -14 9.5 -31.5t12.5 -34.5v-12q-75 0 -108 8q-40 10 -57 5v-60q-1 -33 -16.5 -154.5t-3.5 -190.5q20 -132 20 -347q28 0 73.5 -1t59.5 -1q4 0 12 0.5t12 0.5q1 -8 3.5 -21t2.5 -16q-4 -2 -64 -34l-18 -9q14 0 42 -1t42 -1q0 -14 -3.5 -32.5
t-4.5 -26.5q-1 -15 3 -32.5t3.5 -30.5t-9.5 -30q-9 -15 -11 -23q-2 -14 9.5 -31.5t12.5 -34.5v-12q-75 0 -108 8q-44 11 -61 4q0 -3 0.5 -8t0.5 -7q-8 -1 -21 -4.5t-16 -4.5q-1 2 -3 6.5t-3 6.5q-6 -1 -19 -1.5t-20 -0.5v-13q-14 1 -32.5 5t-26.5 5q-14 1 -31.5 -4t-32 -5
t-29.5 13q-1 1 -2.5 2t-2.5 2q-27 4 -39 6q-3 -2 -10.5 -8.5t-15.5 -10.5t-19 -5h-12v25q-5 -1 -13.5 -2.5t-12.5 -1.5q-13 -1 -38 -2t-37 -2q-3 0 -8 -0.5t-8 -0.5q-5 0 -13.5 1t-15.5 1.5t-13 0.5q-2 48 -2 51q2 24 -3 64q9 -1 25.5 -2.5t24.5 -2.5q-9 10 -26.5 30
t-25.5 30q0 10 1.5 16.5t3 9t6 9.5t7.5 12t3.5 9t-0.5 8.5t-2 7t-4 8t-4 7.5q-4 7 -6.5 13t-3.5 13t-1 10v13.5v14.5v12l58 1q58 0 58 -1q21 0 51 -13q-9 183 13 437q2 46 2 63t-3.5 63.5t-4.5 63.5q-2 46 -4 134q-19 -4 -30 -5q-12 -1 -37 -2t-38 -2q-3 0 -8 -0.5t-8 -0.5
q-5 0 -13.5 1t-15.5 1.5t-13 0.5q-2 48 -2 51q2 24 -3 64q9 -1 25 -2.5t25 -2.5q-9 10 -26 30.5t-26 30.5q0 10 1.5 16.5t3 9.5t6 9.5t7.5 11.5t3.5 9t-0.5 8.5t-2 7t-4 8t-4 7.5q-4 7 -6.5 13t-3.5 13t-1 10v13.5v14.5v12h116q12 0 25 -4t28.5 -10.5t23.5 -9.5q13 4 25 -1
l9 -3q17 2 26 6q50 17 186.5 19.5t197.5 -1.5h24q0 -2 6 -37q-12 -8 -36.5 -19.5t-27.5 -13.5l-18 -9l84 -3q0 -14 -3.5 -32.5t-4.5 -26.5q-1 -16 3 -33t4 -30t-9 -30z" />
    <glyph glyph-name="i" unicode="&#xef;" horiz-adv-x="716" 
d="M684 1192q-11 -18 -12 -22q-2 -14 9.5 -31.5t12.5 -34.5v-12q-75 0 -108 8q-40 10 -57 5v-60q-1 -33 -16.5 -154.5t-3.5 -190.5q20 -132 20 -347q28 0 73.5 -1t59.5 -1q4 0 12 0.5t12 0.5q1 -8 3.5 -21t2.5 -16q-4 -2 -64 -34l-18 -9q14 0 42 -1t42 -1q0 -14 -3.5 -32.5
t-4.5 -26.5q-1 -15 3 -32.5t3.5 -30.5t-9.5 -30q-9 -15 -11 -23q-2 -14 9.5 -31.5t12.5 -34.5v-12q-75 0 -108 8q-44 11 -61 4q0 -3 0.5 -8t0.5 -7q-8 -1 -21 -4.5t-16 -4.5q-1 2 -3 6.5t-3 6.5q-6 -1 -19 -1.5t-20 -0.5v-13q-14 1 -32.5 5t-26.5 5q-14 1 -31.5 -4t-32 -5
t-29.5 13q-1 1 -2.5 2t-2.5 2q-27 4 -39 6q-3 -2 -10.5 -8.5t-15.5 -10.5t-19 -5h-12v25q-5 -1 -13.5 -2.5t-12.5 -1.5q-13 -1 -38 -2t-37 -2q-3 0 -8 -0.5t-8 -0.5q-5 0 -13.5 1t-15.5 1.5t-13 0.5q-2 48 -2 51q2 24 -3 64q9 -1 25.5 -2.5t24.5 -2.5q-9 10 -26.5 30
t-25.5 30q0 10 1.5 16.5t3 9t6 9.5t7.5 12t3.5 9t-0.5 8.5t-2 7t-4 8t-4 7.5q-4 7 -6.5 13t-3.5 13t-1 10v13.5v14.5v12l58 1q58 0 58 -1q21 0 51 -13q-9 183 13 437q2 46 2 63t-3.5 63.5t-4.5 63.5q-2 46 -4 134q-19 -4 -30 -5q-12 -1 -37 -2t-38 -2q-3 0 -8 -0.5t-8 -0.5
q-5 0 -13.5 1t-15.5 1.5t-13 0.5q-2 48 -2 51q2 24 -3 64q9 -1 25 -2.5t25 -2.5q-9 10 -26 30.5t-26 30.5q0 10 1.5 16.5t3 9.5t6 9.5t7.5 11.5t3.5 9t-0.5 8.5t-2 7t-4 8t-4 7.5q-4 7 -6.5 13t-3.5 13t-1 10v13.5v14.5v12h116q12 0 25 -4t28.5 -10.5t23.5 -9.5q13 4 25 -1
l9 -3q17 2 26 6q50 17 186.5 19.5t197.5 -1.5h24q0 -2 6 -37q-12 -8 -36.5 -19.5t-27.5 -13.5l-18 -9l84 -3q0 -14 -3.5 -32.5t-4.5 -26.5q-1 -16 3 -33t4 -30t-9 -30z" />
    <glyph glyph-name="i" unicode="&#xee;" horiz-adv-x="716" 
d="M684 1192q-11 -18 -12 -22q-2 -14 9.5 -31.5t12.5 -34.5v-12q-75 0 -108 8q-40 10 -57 5v-60q-1 -33 -16.5 -154.5t-3.5 -190.5q20 -132 20 -347q28 0 73.5 -1t59.5 -1q4 0 12 0.5t12 0.5q1 -8 3.5 -21t2.5 -16q-4 -2 -64 -34l-18 -9q14 0 42 -1t42 -1q0 -14 -3.5 -32.5
t-4.5 -26.5q-1 -15 3 -32.5t3.5 -30.5t-9.5 -30q-9 -15 -11 -23q-2 -14 9.5 -31.5t12.5 -34.5v-12q-75 0 -108 8q-44 11 -61 4q0 -3 0.5 -8t0.5 -7q-8 -1 -21 -4.5t-16 -4.5q-1 2 -3 6.5t-3 6.5q-6 -1 -19 -1.5t-20 -0.5v-13q-14 1 -32.5 5t-26.5 5q-14 1 -31.5 -4t-32 -5
t-29.5 13q-1 1 -2.5 2t-2.5 2q-27 4 -39 6q-3 -2 -10.5 -8.5t-15.5 -10.5t-19 -5h-12v25q-5 -1 -13.5 -2.5t-12.5 -1.5q-13 -1 -38 -2t-37 -2q-3 0 -8 -0.5t-8 -0.5q-5 0 -13.5 1t-15.5 1.5t-13 0.5q-2 48 -2 51q2 24 -3 64q9 -1 25.5 -2.5t24.5 -2.5q-9 10 -26.5 30
t-25.5 30q0 10 1.5 16.5t3 9t6 9.5t7.5 12t3.5 9t-0.5 8.5t-2 7t-4 8t-4 7.5q-4 7 -6.5 13t-3.5 13t-1 10v13.5v14.5v12l58 1q58 0 58 -1q21 0 51 -13q-9 183 13 437q2 46 2 63t-3.5 63.5t-4.5 63.5q-2 46 -4 134q-19 -4 -30 -5q-12 -1 -37 -2t-38 -2q-3 0 -8 -0.5t-8 -0.5
q-5 0 -13.5 1t-15.5 1.5t-13 0.5q-2 48 -2 51q2 24 -3 64q9 -1 25 -2.5t25 -2.5q-9 10 -26 30.5t-26 30.5q0 10 1.5 16.5t3 9.5t6 9.5t7.5 11.5t3.5 9t-0.5 8.5t-2 7t-4 8t-4 7.5q-4 7 -6.5 13t-3.5 13t-1 10v13.5v14.5v12h116q12 0 25 -4t28.5 -10.5t23.5 -9.5q13 4 25 -1
l9 -3q17 2 26 6q50 17 186.5 19.5t197.5 -1.5h24q0 -2 6 -37q-12 -8 -36.5 -19.5t-27.5 -13.5l-18 -9l84 -3q0 -14 -3.5 -32.5t-4.5 -26.5q-1 -16 3 -33t4 -30t-9 -30z" />
    <glyph glyph-name="i" unicode="&#xed;" horiz-adv-x="716" 
d="M684 1192q-11 -18 -12 -22q-2 -14 9.5 -31.5t12.5 -34.5v-12q-75 0 -108 8q-40 10 -57 5v-60q-1 -33 -16.5 -154.5t-3.5 -190.5q20 -132 20 -347q28 0 73.5 -1t59.5 -1q4 0 12 0.5t12 0.5q1 -8 3.5 -21t2.5 -16q-4 -2 -64 -34l-18 -9q14 0 42 -1t42 -1q0 -14 -3.5 -32.5
t-4.5 -26.5q-1 -15 3 -32.5t3.5 -30.5t-9.5 -30q-9 -15 -11 -23q-2 -14 9.5 -31.5t12.5 -34.5v-12q-75 0 -108 8q-44 11 -61 4q0 -3 0.5 -8t0.5 -7q-8 -1 -21 -4.5t-16 -4.5q-1 2 -3 6.5t-3 6.5q-6 -1 -19 -1.5t-20 -0.5v-13q-14 1 -32.5 5t-26.5 5q-14 1 -31.5 -4t-32 -5
t-29.5 13q-1 1 -2.5 2t-2.5 2q-27 4 -39 6q-3 -2 -10.5 -8.5t-15.5 -10.5t-19 -5h-12v25q-5 -1 -13.5 -2.5t-12.5 -1.5q-13 -1 -38 -2t-37 -2q-3 0 -8 -0.5t-8 -0.5q-5 0 -13.5 1t-15.5 1.5t-13 0.5q-2 48 -2 51q2 24 -3 64q9 -1 25.5 -2.5t24.5 -2.5q-9 10 -26.5 30
t-25.5 30q0 10 1.5 16.5t3 9t6 9.5t7.5 12t3.5 9t-0.5 8.5t-2 7t-4 8t-4 7.5q-4 7 -6.5 13t-3.5 13t-1 10v13.5v14.5v12l58 1q58 0 58 -1q21 0 51 -13q-9 183 13 437q2 46 2 63t-3.5 63.5t-4.5 63.5q-2 46 -4 134q-19 -4 -30 -5q-12 -1 -37 -2t-38 -2q-3 0 -8 -0.5t-8 -0.5
q-5 0 -13.5 1t-15.5 1.5t-13 0.5q-2 48 -2 51q2 24 -3 64q9 -1 25 -2.5t25 -2.5q-9 10 -26 30.5t-26 30.5q0 10 1.5 16.5t3 9.5t6 9.5t7.5 11.5t3.5 9t-0.5 8.5t-2 7t-4 8t-4 7.5q-4 7 -6.5 13t-3.5 13t-1 10v13.5v14.5v12h116q12 0 25 -4t28.5 -10.5t23.5 -9.5q13 4 25 -1
l9 -3q17 2 26 6q50 17 186.5 19.5t197.5 -1.5h24q0 -2 6 -37q-12 -8 -36.5 -19.5t-27.5 -13.5l-18 -9l84 -3q0 -14 -3.5 -32.5t-4.5 -26.5q-1 -16 3 -33t4 -30t-9 -30z" />
    <glyph glyph-name="i" unicode="&#xec;" horiz-adv-x="716" 
d="M684 1192q-11 -18 -12 -22q-2 -14 9.5 -31.5t12.5 -34.5v-12q-75 0 -108 8q-40 10 -57 5v-60q-1 -33 -16.5 -154.5t-3.5 -190.5q20 -132 20 -347q28 0 73.5 -1t59.5 -1q4 0 12 0.5t12 0.5q1 -8 3.5 -21t2.5 -16q-4 -2 -64 -34l-18 -9q14 0 42 -1t42 -1q0 -14 -3.5 -32.5
t-4.5 -26.5q-1 -15 3 -32.5t3.5 -30.5t-9.5 -30q-9 -15 -11 -23q-2 -14 9.5 -31.5t12.5 -34.5v-12q-75 0 -108 8q-44 11 -61 4q0 -3 0.5 -8t0.5 -7q-8 -1 -21 -4.5t-16 -4.5q-1 2 -3 6.5t-3 6.5q-6 -1 -19 -1.5t-20 -0.5v-13q-14 1 -32.5 5t-26.5 5q-14 1 -31.5 -4t-32 -5
t-29.5 13q-1 1 -2.5 2t-2.5 2q-27 4 -39 6q-3 -2 -10.5 -8.5t-15.5 -10.5t-19 -5h-12v25q-5 -1 -13.5 -2.5t-12.5 -1.5q-13 -1 -38 -2t-37 -2q-3 0 -8 -0.5t-8 -0.5q-5 0 -13.5 1t-15.5 1.5t-13 0.5q-2 48 -2 51q2 24 -3 64q9 -1 25.5 -2.5t24.5 -2.5q-9 10 -26.5 30
t-25.5 30q0 10 1.5 16.5t3 9t6 9.5t7.5 12t3.5 9t-0.5 8.5t-2 7t-4 8t-4 7.5q-4 7 -6.5 13t-3.5 13t-1 10v13.5v14.5v12l58 1q58 0 58 -1q21 0 51 -13q-9 183 13 437q2 46 2 63t-3.5 63.5t-4.5 63.5q-2 46 -4 134q-19 -4 -30 -5q-12 -1 -37 -2t-38 -2q-3 0 -8 -0.5t-8 -0.5
q-5 0 -13.5 1t-15.5 1.5t-13 0.5q-2 48 -2 51q2 24 -3 64q9 -1 25 -2.5t25 -2.5q-9 10 -26 30.5t-26 30.5q0 10 1.5 16.5t3 9.5t6 9.5t7.5 11.5t3.5 9t-0.5 8.5t-2 7t-4 8t-4 7.5q-4 7 -6.5 13t-3.5 13t-1 10v13.5v14.5v12h116q12 0 25 -4t28.5 -10.5t23.5 -9.5q13 4 25 -1
l9 -3q17 2 26 6q50 17 186.5 19.5t197.5 -1.5h24q0 -2 6 -37q-12 -8 -36.5 -19.5t-27.5 -13.5l-18 -9l84 -3q0 -14 -3.5 -32.5t-4.5 -26.5q-1 -16 3 -33t4 -30t-9 -30z" />
    <glyph glyph-name="j" unicode="j" horiz-adv-x="1071" 
d="M1027 786q14 -106 -6 -245q-18 -119 -54.5 -206.5t-109.5 -168.5q-84 -84 -192 -122q-78 -26 -160 -27h-84q-111 4 -165 16q-36 9 -72 28q-61 35 -101 91q-54 81 -73 209q-4 20 -5 31q-2 20 -4 56q-3 69 1 166q8 1 17.5 6.5t14.5 6.5t20 -5q8 -4 14 -6t10 -3.5t9.5 1
t7.5 3t10.5 6t12.5 7.5q-6 -124 -4 -187l60 192q13 -2 20.5 -12t15 -32.5t9.5 -27.5q4 -7 7.5 -10.5t7 -3t6.5 2.5t6 7t5 9t5 10.5t4 9.5q16 33 24.5 38.5t40.5 3.5h12q-4 -144 6 -227q7 -54 41 -78t76.5 -18.5t85.5 28t70 55.5q51 67 73 204q10 79 12 174.5t0 148.5t-8 173
q-91 3 -128 13q-17 2 -25 1.5t-25.5 -3l-24.5 -3.5q-12 -1 -37 -2t-38 -2q-3 0 -8.5 -0.5t-8.5 -0.5q-1 0 -17 1.5t-24 1.5q0 5 -2 21.5t-1 29.5q3 29 -2 64q9 -1 25 -2.5t25 -2.5q-8 10 -26 30.5t-26 30.5q0 10 1.5 16.5t2.5 9t5.5 9.5t7.5 12q5 16 3.5 21t-9.5 19
q-4 7 -6.5 13t-3.5 13t-1 10v13.5v14.5q0 2 -0.5 6t-0.5 6h59q58 1 58 0q14 0 60.5 -18t75.5 -4q50 17 186.5 19.5t197.5 -1.5h24q1 -8 3.5 -21t3.5 -16q-12 -8 -36.5 -19.5t-27.5 -13.5l-18 -9q14 -1 41.5 -2t41.5 -1q-1 -57 4 -174t3 -186q0 -11 -1.5 -47.5t-2 -54
t0.5 -45.5t5 -51z" />
    <glyph glyph-name="k" unicode="k" horiz-adv-x="1089" 
d="M57 3q0 101 8 146q12 66 3 96q-11 49 -12.5 159t3.5 208.5t11 166.5q2 46 2 63t-3.5 63.5t-4.5 63.5q-2 37 -3.5 111.5t-2.5 111.5q-1 18 -1 55v149q8 1 17.5 6t14.5 6t20 -3q28 -7 33 -6t30 14q0 -29 -1 -87.5t-2 -87.5q26 80 58 182q14 -1 21.5 -9t16 -29t10.5 -24
q4 -7 7.5 -10t7 -2.5t6 2t5.5 6.5t5 8.5t5 10t4 9.5q16 30 24.5 35.5t39.5 5.5h12q4 -252 4 -378q-1 -35 -18 -169q16 5 25 11q23 13 73 37t76 39q61 38 101.5 72t86.5 88q1 1 4 3q15 19 36 80q17 49 25 105q0 5 1.5 13t2.5 13q6 38 6 76q5 0 18.5 5t20.5 0q20 -5 25 -4
t23 8q-2 -53 -10 -101q30 48 52 105q8 0 13.5 -4.5t8 -8.5t7 -13.5t6.5 -13.5q5 -10 11 -8.5t10 6.5t8 13q1 3 2 4q12 20 18.5 23.5t29.5 3.5h9q2 -143 -38 -265q-8 -24 -20.5 -46.5t-21 -35.5t-27.5 -38.5t-28 -38.5q-25 -37 -41 -65q-55 -92 -177 -173q9 -10 34.5 -39.5
t46 -50.5t45.5 -39l2 -2t2 -1q96 -71 168 -253q47 -130 59 -350q0 -7 1 -21t1 -21q-8 -1 -21 -6t-16 -6q-27 80 -38 104l-12 27q6 -71 5 -134q-15 1 -32.5 6.5t-26.5 6.5q-12 2 -25.5 -2t-22 -7.5t-20.5 -1.5t-25 13q-14 12 -23 15q-12 4 -32 -13t-34 -17h-12q0 9 -1.5 65
t0.5 65q2 51 -12 67q-12 14 -29 55q-9 20 -25.5 64.5t-32 79.5t-31.5 60q-5 6 -14 18.5t-13 18.5q-5 7 -11.5 13.5t-15 12.5t-14.5 9.5t-17.5 10t-15.5 8.5q-24 14 -67.5 36t-49.5 25q5 -78 6 -164t-1 -219t-2 -154q0 -5 0.5 -16t0.5 -16q-5 -1 -38 -9q-12 24 -33 86
q-2 4 -5 12.5t-4 12.5q0 -19 -1 -56.5t-2 -56.5q-14 1 -31.5 5.5t-26.5 5.5q-14 1 -31.5 -4.5t-32 -5.5t-29.5 13q-16 12 -23 14q-14 3 -31.5 -12t-34.5 -16q-4 1 -12 1z" />
    <glyph glyph-name="l" unicode="l" 
d="M1042 81q-2 -14 9 -32.5t12 -34.5v-11q-73 0 -105 8q-45 11 -63 2q-46 -15 -154.5 -11.5t-161.5 13.5q-24 2 -36 1.5t-39 -3t-37 -3.5l-105 -3q-2 -1 -4 -1t-4 -1v1h-22q-4 0 -11.5 -0.5t-11.5 -0.5v-2q-9 0 -23 2q-50 2 -76 2q-31 -9 -52 9q-18 14 -23 15
q-14 3 -31.5 -12t-34.5 -16h-12q0 101 8 146q12 66 3 96q-11 49 -12 160t3.5 207t10.5 167q1 48 1 63.5t-3 63t-4 63.5q-2 37 -3.5 111.5t-2.5 111.5q-1 18 -1 55v149q8 1 17 5.5t14 5.5t20 -3q27 -7 33 -6t31 15q0 -29 -1 -88t-2 -88q20 61 58 183q14 -1 21.5 -9t16 -29.5
t10.5 -24.5q4 -7 7.5 -10t7 -2.5t6 2.5t5.5 7t5 8.5t5 10t4 9.5q16 31 24 36t39 5h12q5 -315 5 -378q-1 -33 -16.5 -154.5t-3.5 -190.5q19 -121 19 -358h29q23 -1 92.5 -17.5t110.5 -4.5q63 17 198.5 19t206.5 -2q4 0 12 0.5t12 0.5q1 -8 4 -21.5t3 -16.5l-63 -33l-18 -9
q13 0 41 -1t41 -2q0 -13 -3.5 -31.5t-4.5 -26.5q-1 -16 3 -33t4 -30t-9 -30q-9 -15 -11 -23z" />
    <glyph glyph-name="m" unicode="m" horiz-adv-x="1464" 
d="M1388 700q10 -65 14.5 -159.5t5 -158.5t-1.5 -184.5t-2 -152.5q0 -5 0.5 -16t0.5 -16q-10 -2 -38 -8q-12 24 -33 86q-1 4 -4 12.5t-5 12.5q-1 -37 -3 -113q-14 1 -31.5 5t-26.5 5q-14 1 -31.5 -4.5t-32 -5.5t-29.5 13q-18 14 -23 15q-14 3 -31.5 -12t-34.5 -16h-12
q0 101 8 146q12 66 3 96q-11 49 -12 160t3.5 207t10.5 167q3 38 -1 115q-42 -71 -89 -141q-13 -18 -25.5 -40.5t-27 -51t-21.5 -42.5q-26 -48 -82 -142q-8 -16 -20 -32q-17 -27 -53 -79q-5 3 -12 4.5t-12 4t-11 9.5q-26 33 -53 15q-71 107 -134 208q-16 26 -53 111t-72 123
q-19 24 -38 50q-16 -121 -4 -191q10 -65 14.5 -159.5t5 -158.5t-1.5 -184.5t-2 -152.5q0 -5 0.5 -15t0.5 -16q-6 -1 -12 -2.5t-13.5 -3.5t-12.5 -3q-12 24 -33 86q-2 4 -5 12.5t-4 12.5q-1 -37 -3 -113q-14 1 -31.5 5.5t-26.5 5.5q-14 1 -31.5 -4.5t-32 -5.5t-29.5 13
q-16 12 -23 14q-14 3 -31.5 -12t-34.5 -16h-12q0 102 8 147q12 66 3 96q-11 49 -12.5 159t3.5 208t11 166q1 48 1 63.5t-3 63t-4 63.5q-2 37 -3.5 111.5t-2.5 111.5q-1 18 -1 56v148q8 1 17 6t14 6t20 -3q29 -7 33.5 -6t30.5 15q0 -20 -1 -60.5t-1 -60.5q10 -4 15 -7
q15 45 43 135q14 -1 21.5 -9.5t15.5 -29t10 -24.5v-1q12 6 22 7q8 0 11 1q1 2 7 17q16 30 24.5 35.5t39.5 5.5h12q1 -27 1 -80q0 -1 1 -3t1 -3q16 -45 32 -59q37 -40 107 -163t113 -210q9 -19 22 -39t31 -45t26 -37q1 -1 3.5 -4t3.5 -5q75 93 94 150q53 135 240 465
q3 5 7 15q9 -5 11 -5l6 3t6.5 3t6.5 2t8.5 0t10.5 -3q28 -7 33 -6t30 14q0 -12 -0.5 -35.5t-0.5 -35.5q18 -7 28 -14q23 71 29 92q14 -1 21.5 -9t16 -29.5t10.5 -24.5q4 -7 7.5 -10t7 -2.5t6 2.5t5 7l4.5 9t4.5 10t4.5 9q16 30 24.5 35.5t39.5 5.5h12q4 -252 4 -378
q-1 -33 -16.5 -154.5t-3.5 -190.5z" />
    <glyph glyph-name="n" unicode="n" horiz-adv-x="1128" 
d="M1052 705q10 -64 14.5 -157.5t5 -157t-1.5 -183t-2 -150.5q0 -5 0.5 -15t0.5 -16q-5 -1 -38 -9q-9 18 -33 86l-9 24q-1 -19 -2 -56t-1 -56q-14 1 -31.5 5.5t-26.5 5.5q-14 1 -31.5 -4.5t-32 -5.5t-29.5 13q-2 1 -7 5t-8 6l-2 -1l-2 -1q-2 0 -4 -2t-4 -2q-3 8 -4 10
q-9 -1 -25 -14t-33 -15h-12q-35 116 -126 313.5t-164 337.5l-74 140q-3 -56 5 -106q10 -65 14.5 -159.5t5 -158.5t-1.5 -184.5t-2 -152.5q0 -5 0.5 -16t0.5 -16q-7 -1 -37 -8q-17 34 -34 85q-2 4 -5 12.5t-4 12.5q-2 -74 -3 -112q-14 1 -31.5 5t-26.5 5q-14 1 -31.5 -4.5
t-32 -5.5t-29.5 13q-18 14 -23 15q-14 3 -31.5 -12t-34.5 -16h-12q0 101 8 146q12 66 3 96q-11 49 -12.5 159t3.5 208.5t11 166.5q2 46 2 63t-3.5 63.5t-4.5 63.5q-2 37 -3.5 111.5t-2.5 111.5q-1 18 -1 55v149q8 1 17.5 5.5t14.5 5.5t20 -3q27 -7 32.5 -6t30.5 15
q0 -29 -1 -88t-2 -88q1 2 3 7t2 7q0 1 -2 3t-2 3q1 0 3.5 1.5t3.5 2.5q34 106 50 159q14 -1 21.5 -9t16 -29t10.5 -24q4 -7 7.5 -10t7 -2.5t6 2t5.5 6.5t5 8.5t5 10t4 9.5q16 30 24.5 35.5t39.5 5.5h12q2 -118 35 -218t75.5 -163t115 -170.5t122.5 -202.5q7 101 8 113
q2 46 2 63t-3.5 63t-4.5 63l-3 111l-3 111q-1 18 -1 55v148q8 1 17.5 6t14.5 6t20 -3q27 -7 32.5 -6t30.5 15q-1 -29 -2 -88t-1 -88q26 80 58 182q14 -1 21.5 -9t16 -29t10.5 -24q4 -7 7.5 -10t7 -2.5t6 2t5.5 6.5t5 8.5t5 10t4 9.5q16 30 24.5 35.5t39.5 5.5h12
q4 -252 4 -377q-1 -33 -16.5 -153t-3.5 -188zM688 230q3 -1 5 1t2.5 5.5t0.5 6.5v6l-1 3q-50 159 -166 318q21 -44 60.5 -134t66 -147.5t32.5 -58.5z" />
    <glyph glyph-name="n" unicode="&#xf1;" horiz-adv-x="1128" 
d="M1052 705q10 -64 14.5 -157.5t5 -157t-1.5 -183t-2 -150.5q0 -5 0.5 -15t0.5 -16q-5 -1 -38 -9q-9 18 -33 86l-9 24q-1 -19 -2 -56t-1 -56q-14 1 -31.5 5.5t-26.5 5.5q-14 1 -31.5 -4.5t-32 -5.5t-29.5 13q-2 1 -7 5t-8 6l-2 -1l-2 -1q-2 0 -4 -2t-4 -2q-3 8 -4 10
q-9 -1 -25 -14t-33 -15h-12q-35 116 -126 313.5t-164 337.5l-74 140q-3 -56 5 -106q10 -65 14.5 -159.5t5 -158.5t-1.5 -184.5t-2 -152.5q0 -5 0.5 -16t0.5 -16q-7 -1 -37 -8q-17 34 -34 85q-2 4 -5 12.5t-4 12.5q-2 -74 -3 -112q-14 1 -31.5 5t-26.5 5q-14 1 -31.5 -4.5
t-32 -5.5t-29.5 13q-18 14 -23 15q-14 3 -31.5 -12t-34.5 -16h-12q0 101 8 146q12 66 3 96q-11 49 -12.5 159t3.5 208.5t11 166.5q2 46 2 63t-3.5 63.5t-4.5 63.5q-2 37 -3.5 111.5t-2.5 111.5q-1 18 -1 55v149q8 1 17.5 5.5t14.5 5.5t20 -3q27 -7 32.5 -6t30.5 15
q0 -29 -1 -88t-2 -88q1 2 3 7t2 7q0 1 -2 3t-2 3q1 0 3.5 1.5t3.5 2.5q34 106 50 159q14 -1 21.5 -9t16 -29t10.5 -24q4 -7 7.5 -10t7 -2.5t6 2t5.5 6.5t5 8.5t5 10t4 9.5q16 30 24.5 35.5t39.5 5.5h12q2 -118 35 -218t75.5 -163t115 -170.5t122.5 -202.5q7 101 8 113
q2 46 2 63t-3.5 63t-4.5 63l-3 111l-3 111q-1 18 -1 55v148q8 1 17.5 6t14.5 6t20 -3q27 -7 32.5 -6t30.5 15q-1 -29 -2 -88t-1 -88q26 80 58 182q14 -1 21.5 -9t16 -29t10.5 -24q4 -7 7.5 -10t7 -2.5t6 2t5.5 6.5t5 8.5t5 10t4 9.5q16 30 24.5 35.5t39.5 5.5h12
q4 -252 4 -377q-1 -33 -16.5 -153t-3.5 -188zM688 230q3 -1 5 1t2.5 5.5t0.5 6.5v6l-1 3q-50 159 -166 318q21 -44 60.5 -134t66 -147.5t32.5 -58.5z" />
    <glyph glyph-name="o" unicode="o" horiz-adv-x="1095" 
d="M892 1299q54 -57 95 -186t59 -247t23 -220q3 -204 -58 -381q-11 -39 -22 -62l-1 -2q-11 -24 -25 -46q-34 -50 -81 -82q-44 -29 -95 -43q-22 -6 -41 -9q-42 -7 -122 -7q-148 3 -274 62q-110 55 -192 154q-32 41 -63 94q-27 48 -46 112q-30 103 -33 229q0 149 30 266.5
t105 234.5q65 94 155 161q88 61 191 86q108 22 209 -4q106 -32 186 -110zM399 412q8 -12 17 -16.5t15 2.5t4 26q-1 5 -15.5 51t-28.5 100t-23 130.5t3 140.5q-21 -72 -24 -181q0 -91 13 -152q14 -60 39 -101zM679 380q36 46 50 139.5t4 195.5t-32 194.5t-59 147.5t-76 44
q-8 -3 -23 -12q-5 -3 -13 -8.5t-10 -7.5q-125 -108 -120 -313q5 -156 77 -287q58 -106 123 -122q44 -11 79 29z" />
    <glyph glyph-name="o" unicode="&#xf8;" horiz-adv-x="1095" 
d="M892 1299q54 -57 95 -186t59 -247t23 -220q3 -204 -58 -381q-11 -39 -22 -62l-1 -2q-11 -24 -25 -46q-34 -50 -81 -82q-44 -29 -95 -43q-22 -6 -41 -9q-42 -7 -122 -7q-148 3 -274 62q-110 55 -192 154q-32 41 -63 94q-27 48 -46 112q-30 103 -33 229q0 149 30 266.5
t105 234.5q65 94 155 161q88 61 191 86q108 22 209 -4q106 -32 186 -110zM399 412q8 -12 17 -16.5t15 2.5t4 26q-1 5 -15.5 51t-28.5 100t-23 130.5t3 140.5q-21 -72 -24 -181q0 -91 13 -152q14 -60 39 -101zM679 380q36 46 50 139.5t4 195.5t-32 194.5t-59 147.5t-76 44
q-8 -3 -23 -12q-5 -3 -13 -8.5t-10 -7.5q-125 -108 -120 -313q5 -156 77 -287q58 -106 123 -122q44 -11 79 29z" />
    <glyph glyph-name="o" unicode="&#xf6;" horiz-adv-x="1095" 
d="M892 1299q54 -57 95 -186t59 -247t23 -220q3 -204 -58 -381q-11 -39 -22 -62l-1 -2q-11 -24 -25 -46q-34 -50 -81 -82q-44 -29 -95 -43q-22 -6 -41 -9q-42 -7 -122 -7q-148 3 -274 62q-110 55 -192 154q-32 41 -63 94q-27 48 -46 112q-30 103 -33 229q0 149 30 266.5
t105 234.5q65 94 155 161q88 61 191 86q108 22 209 -4q106 -32 186 -110zM399 412q8 -12 17 -16.5t15 2.5t4 26q-1 5 -15.5 51t-28.5 100t-23 130.5t3 140.5q-21 -72 -24 -181q0 -91 13 -152q14 -60 39 -101zM679 380q36 46 50 139.5t4 195.5t-32 194.5t-59 147.5t-76 44
q-8 -3 -23 -12q-5 -3 -13 -8.5t-10 -7.5q-125 -108 -120 -313q5 -156 77 -287q58 -106 123 -122q44 -11 79 29z" />
    <glyph glyph-name="o" unicode="&#xf5;" horiz-adv-x="1095" 
d="M892 1299q54 -57 95 -186t59 -247t23 -220q3 -204 -58 -381q-11 -39 -22 -62l-1 -2q-11 -24 -25 -46q-34 -50 -81 -82q-44 -29 -95 -43q-22 -6 -41 -9q-42 -7 -122 -7q-148 3 -274 62q-110 55 -192 154q-32 41 -63 94q-27 48 -46 112q-30 103 -33 229q0 149 30 266.5
t105 234.5q65 94 155 161q88 61 191 86q108 22 209 -4q106 -32 186 -110zM399 412q8 -12 17 -16.5t15 2.5t4 26q-1 5 -15.5 51t-28.5 100t-23 130.5t3 140.5q-21 -72 -24 -181q0 -91 13 -152q14 -60 39 -101zM679 380q36 46 50 139.5t4 195.5t-32 194.5t-59 147.5t-76 44
q-8 -3 -23 -12q-5 -3 -13 -8.5t-10 -7.5q-125 -108 -120 -313q5 -156 77 -287q58 -106 123 -122q44 -11 79 29z" />
    <glyph glyph-name="o" unicode="&#xf4;" horiz-adv-x="1095" 
d="M892 1299q54 -57 95 -186t59 -247t23 -220q3 -204 -58 -381q-11 -39 -22 -62l-1 -2q-11 -24 -25 -46q-34 -50 -81 -82q-44 -29 -95 -43q-22 -6 -41 -9q-42 -7 -122 -7q-148 3 -274 62q-110 55 -192 154q-32 41 -63 94q-27 48 -46 112q-30 103 -33 229q0 149 30 266.5
t105 234.5q65 94 155 161q88 61 191 86q108 22 209 -4q106 -32 186 -110zM399 412q8 -12 17 -16.5t15 2.5t4 26q-1 5 -15.5 51t-28.5 100t-23 130.5t3 140.5q-21 -72 -24 -181q0 -91 13 -152q14 -60 39 -101zM679 380q36 46 50 139.5t4 195.5t-32 194.5t-59 147.5t-76 44
q-8 -3 -23 -12q-5 -3 -13 -8.5t-10 -7.5q-125 -108 -120 -313q5 -156 77 -287q58 -106 123 -122q44 -11 79 29z" />
    <glyph glyph-name="o" unicode="&#xf3;" horiz-adv-x="1095" 
d="M892 1299q54 -57 95 -186t59 -247t23 -220q3 -204 -58 -381q-11 -39 -22 -62l-1 -2q-11 -24 -25 -46q-34 -50 -81 -82q-44 -29 -95 -43q-22 -6 -41 -9q-42 -7 -122 -7q-148 3 -274 62q-110 55 -192 154q-32 41 -63 94q-27 48 -46 112q-30 103 -33 229q0 149 30 266.5
t105 234.5q65 94 155 161q88 61 191 86q108 22 209 -4q106 -32 186 -110zM399 412q8 -12 17 -16.5t15 2.5t4 26q-1 5 -15.5 51t-28.5 100t-23 130.5t3 140.5q-21 -72 -24 -181q0 -91 13 -152q14 -60 39 -101zM679 380q36 46 50 139.5t4 195.5t-32 194.5t-59 147.5t-76 44
q-8 -3 -23 -12q-5 -3 -13 -8.5t-10 -7.5q-125 -108 -120 -313q5 -156 77 -287q58 -106 123 -122q44 -11 79 29z" />
    <glyph glyph-name="o" unicode="&#xf2;" horiz-adv-x="1095" 
d="M892 1299q54 -57 95 -186t59 -247t23 -220q3 -204 -58 -381q-11 -39 -22 -62l-1 -2q-11 -24 -25 -46q-34 -50 -81 -82q-44 -29 -95 -43q-22 -6 -41 -9q-42 -7 -122 -7q-148 3 -274 62q-110 55 -192 154q-32 41 -63 94q-27 48 -46 112q-30 103 -33 229q0 149 30 266.5
t105 234.5q65 94 155 161q88 61 191 86q108 22 209 -4q106 -32 186 -110zM399 412q8 -12 17 -16.5t15 2.5t4 26q-1 5 -15.5 51t-28.5 100t-23 130.5t3 140.5q-21 -72 -24 -181q0 -91 13 -152q14 -60 39 -101zM679 380q36 46 50 139.5t4 195.5t-32 194.5t-59 147.5t-76 44
q-8 -3 -23 -12q-5 -3 -13 -8.5t-10 -7.5q-125 -108 -120 -313q5 -156 77 -287q58 -106 123 -122q44 -11 79 29z" />
    <glyph glyph-name="p" unicode="p" horiz-adv-x="1140" 
d="M1061 1240q44 -60 62 -118.5t19 -135.5q-1 -107 -45 -193q-24 -43 -58 -79q-29 -30 -66 -57q-72 -50 -155 -73q-38 -11 -83 -17q-39 -4 -84 -4q1 0 -31 -0.5t-74.5 -1t-58.5 -0.5h-33q5 -76 5.5 -159t-1.5 -209.5t-2 -147.5q0 -5 0.5 -15t0.5 -16q-5 -1 -38 -9
q-12 24 -33 86q-1 4 -4 12.5t-5 12.5q-1 -37 -3 -113q-14 1 -31.5 5t-26.5 5q-14 1 -31.5 -4t-32 -5t-29.5 13q-16 12 -23 14q-14 3 -31.5 -12t-34.5 -16h-12q0 101 8 146q12 67 3 97q-11 49 -12.5 159t3.5 208t11 166q2 46 2 63t-3.5 63.5t-4.5 63.5t-2 50.5t-1 50.5
q-7 -1 -22 -3t-22 -3q-3 6 -8 11.5t-12 12.5l-10 10q84 24 228 58q9 2 28 6.5t29 6.5q-127 -6 -297 -27q-2 15 9.5 34t13.5 28q3 13 -8.5 25t-22 19.5t-6 20t34.5 28.5q35 19 41 28q5 7 -2.5 13t-21.5 10t-29.5 8t-27.5 10t-13 14q0 2 -1 6t-1 6q181 25 286 28h1h4
q49 1 98 0q16 -1 62 -3.5t63.5 -2.5t61.5 3q106 11 237 -24q80 -24 136 -58.5t106 -94.5zM825 927q1 8 0 16q-2 11 -4 37q-6 39 -21 54q-23 21 -77 37q-110 26 -263 24v-50q-1 -53 -15 -147q186 -2 209 -2l8 -1q54 -4 82 -4q35 2 56 10q20 9 25 26z" />
    <glyph glyph-name="q" unicode="q" horiz-adv-x="1093" 
d="M1027 31q1 -2 3.5 -8.5t3.5 -10.5q3 -8 8 -26.5t8 -26.5q-6 -3 -11 -6.5t-10 -5.5t-14 -3q-18 -2 -44 -19q-3 11 -9 31t-9 31q-3 -13 -10 -38.5t-11 -38.5q-13 -1 -15.5 -2t-11.5 4.5t-13 7.5q-3 1 -5.5 1.5t-5 -0.5t-4 -1.5t-3.5 -3.5t-3 -4t-3 -5t-2 -5q-2 -4 -4 -7.5
t-3.5 -5.5t-4.5 -4l-4.5 -3t-5 -2.5t-5 -2t-7 -2t-7.5 -2.5q-1 -1 -3.5 -2t-4.5 -1q-8 22 -23.5 65t-22.5 65q-5 12 -6 25q-3 0 -9 -1.5l-10 -2.5q-42 -7 -122 -7q-148 3 -274 62q-110 55 -192 154q-32 41 -63 94q-27 48 -46 112q-30 103 -33 229q0 149 30 266.5t105 234.5
q65 94 155 161q88 61 191 86q108 22 209 -4q106 -32 186 -110q77 -84 114 -198q13 -42 20 -88q19 -118 27.5 -244.5t-1 -268t-41.5 -234.5q-11 -37 -23 -63v-2q-12 -24 -19 -36q3 -9 25 -55q7 -15 19 -44t14 -35zM399 412q8 -12 17 -16.5t15 2.5t4 26q-1 5 -15.5 51
t-28.5 100t-23 130.5t3 140.5q-21 -72 -24 -181q0 -91 13 -152q14 -60 39 -101zM696 417q12 128 7 309q-9 389 -118 380q-20 -1 -43 -17q-8 -6 -22 -16q-125 -108 -120 -313q5 -156 77 -287q58 -106 123 -122q44 -11 79 29q10 12 14 16q0 1 0.5 3t0.5 3q0 2 1 7t1 8z" />
    <glyph glyph-name="r" unicode="r" horiz-adv-x="1169" 
d="M1072 381q48 -133 58 -349q0 -7 1 -21.5t1 -21.5q-2 0 -37 -12q-29 85 -38 105q-2 5 -6 13t-6 13q6 -70 5 -133q-15 1 -33 6t-26 6q-12 2 -25.5 -1.5t-22 -7.5t-20.5 -1.5t-25 13.5q-14 12 -23 15q-12 4 -32 -13t-34 -17h-12q0 9 -1.5 65t0.5 65q7 121 -128 325
q-4 6 -13 18.5t-14 18.5q-6 9 -16.5 17.5t-16.5 12.5t-22.5 13t-19.5 11q-52 30 -74 40h-5h-33q5 -76 5.5 -159t-1.5 -209.5t-2 -147.5q0 -5 0.5 -16t0.5 -16q-7 -1 -37 -8q-15 32 -34 86q-1 4 -4 12.5t-5 12.5q-1 -37 -3 -113q-14 1 -31.5 5t-26.5 5q-14 1 -31.5 -4.5
t-32 -5.5t-29.5 13q-18 14 -23 15q-14 3 -31.5 -12t-34.5 -16h-12q0 101 8 146q12 66 3 96q-11 49 -12.5 159t3.5 208.5t11 166.5q2 46 2 63t-3.5 63.5t-4.5 63.5q-1 11 -3 101q-7 -1 -22 -3t-22 -3q-3 6 -8 11.5t-12 11.5t-10 10q96 28 228 59q9 2 28 6.5t29 6.5
q-113 -6 -297 -28q-2 15 9.5 34.5t13.5 28.5q3 13 -8.5 25t-22 19.5t-6 20t34.5 28.5q35 19 41 28q5 7 -2.5 13t-21.5 10t-29.5 8t-27.5 10t-13 14q0 2 -1 6t-1 6q251 33 389 28q16 -1 62 -3.5t63.5 -2.5t61.5 3q106 11 237 -24q80 -24 136 -58.5t106 -94.5
q44 -60 62 -118.5t19 -135.5q-1 -107 -45 -193q-25 -46 -57 -79q-31 -31 -67 -57q-27 -18 -55 -34q87 -74 154 -242zM825 927q1 8 0 16q-1 6 -2 18.5t-2 18.5q-6 39 -21 54q-24 22 -76 37q-110 26 -264 24v-50q-1 -53 -15 -147q38 -1 104.5 -1.5t104.5 -0.5l8 -1
q54 -4 82 -4q35 2 56 10q20 9 25 26z" />
    <glyph glyph-name="s" unicode="s" horiz-adv-x="1056" 
d="M980 632q45 -92 46 -199q0 -38 -7 -73q-13 -64 -43 -120q-46 -79 -123 -138q-75 -52 -161 -76q-5 -1 -46 -9q-69 -10 -132 -5q-95 8 -181 46q-93 44 -163 115q-2 1 -2 2q-41 44 -71 95q-20 35 -41 88q-31 89 -38 194q8 3 17 12t13.5 10.5t20.5 -5.5q9 -6 15 -8t10 -3.5
t9.5 1.5t8 5t10 9.5l11.5 11.5q2 -104 30 -188q13 -39 41 -86q-18 48 -26 92q-10 87 10 192q13 -1 22 -15.5t18 -38.5t14 -32q19 -27 28 5q1 5 3 16q3 11 4 15q12 38 21 45.5t41 6.5h12q2 -72 20 -122q60 -151 246 -134q33 3 60 15q25 12 37 27q21 25 12.5 54.5t-26 50.5
t-41.5 38q-55 38 -190 90q-66 25 -94.5 36.5t-77 35t-88.5 49.5q-75 52 -121 123q-52 87 -53 191q3 106 64 192q56 71 140 112q124 57 311 70q161 8 389 -7q36 -3 72 -3q1 -7 5 -19.5t5 -17.5q-15 -5 -49 -9t-64 -6t-72 -3.5t-50 -2.5q-65 -4 -94 -7q62 -1 173 -8.5
t158 -9.5q0 -14 -2.5 -22t-6.5 -17.5t-7 -18.5q-2 -17 7 -35t8 -30.5t-25 -27.5q-3 -1 -11.5 -5t-14 -8t-9.5 -8q-7 -14 25 -32t36 -36v-12q-67 1 -212.5 10t-225.5 10q-2 0 -6 -0.5t-6 -0.5q-207 -3 -204 -45q3 -40 225 -130q91 -37 151 -68.5t120 -80.5q72 -62 115 -143z
" />
    <glyph glyph-name="t" unicode="t" horiz-adv-x="1036" 
d="M350 3q0 103 8 153q12 72 3 105q-11 56 -12.5 179t3 231t11.5 186q3 45 2 68t-4 69t-4 68q-1 13 -1 40l-42 -3q-24 -1 -73.5 -2.5t-74.5 -2.5h-35q-16 0 -48 1t-47 1q0 4 -5.5 24t0.5 27q4 28 3.5 32.5t-9.5 31.5q41 -1 113 -5q-17 9 -36.5 19t-43.5 22t-37 19q0 13 5 20
t18 15.5t17 11.5q4 4 6.5 7t2 6.5t-1 6t-4.5 6t-5.5 5t-6.5 5t-6 4.5q-6 5 -10.5 9t-7 8.5t-4.5 6.5t-2.5 8.5t-0.5 8.5v11.5v12.5q0 2 -0.5 6t-0.5 6h122q123 1 123 0q33 -1 85 -13v88q8 1 17.5 5.5t14.5 5.5t20 -3q27 -7 32.5 -6t30.5 15q-1 -20 -1 -59.5t-1 -59.5
q7 0 19 2q22 70 38 124q14 -1 21.5 -9t16 -29.5t10.5 -24.5q3 -5 6 -8t5.5 -4t5 -0.5t5 3t4 5t4 6.5t4 7.5t3.5 8t3 7.5q15 31 23.5 36t40.5 5h12v-53t1 -53q66 2 298 -1q4 0 12 0.5t12 0.5q1 -8 3.5 -21t3.5 -16q-9 -6 -20 -11.5t-25 -11.5t-21 -10q-3 -1 -9.5 -4t-9.5 -5
q14 -1 42.5 -2t43.5 -1q0 -14 -3.5 -32.5t-4.5 -26.5q-1 -16 3 -33t4 -30.5t-9 -29.5q-9 -15 -11 -23q-2 -14 9 -31.5t12 -34.5v-12q-76 0 -112 8q-53 11 -73 3q-30 -13 -145 -13q-3 -30 -9 -80t-9.5 -78t-5 -78.5t6.5 -82.5q10 -74 14.5 -178t5 -174t-1.5 -202.5t-2 -169.5
q0 -6 0.5 -16.5t0.5 -16.5q-16 -2 -38 -8q-13 28 -33 88l-9 27l-3 -117q-14 1 -31.5 5t-26.5 5q-14 1 -31.5 -4.5t-32 -5.5t-29.5 13q-14 12 -23 15q-14 3 -31.5 -12t-34.5 -16h-12z" />
    <glyph glyph-name="u" unicode="u" horiz-adv-x="1087" 
d="M428 969q-67 -106 -84 -278q0 -4 -1 -13t-2 -13q-7 -98 15 -155q0 -2 1.5 -4t2.5 -4q30 -61 51 -87q49 -56 98.5 -73t89 2t70 63.5t48.5 107.5q13 52 8 200q-5 161 -22 308q-2 15 -5 43.5t-5 42.5q-15 144 -32 251q8 3 16 13t12.5 12t20.5 -3q9 -5 15.5 -6.5t10.5 -2.5
t9 3t6.5 6t8 11t10.5 14q21 -141 37 -303q14 155 16 322q9 0 17.5 -8t15.5 -22t12 -27t11 -28.5t8 -21.5q24 -48 31 21q1 5 2 16q1 10 1 13q1 8 2.5 23.5t2.5 19.5t3 13t5 11t8.5 6.5t12.5 6t18 2.5q2 1 6 1h6q60 -369 69 -632q1 -101 -23.5 -242t-29.5 -194q-1 -2 -1 -6
t-1 -6q-16 -81 -45 -141.5t-84 -116.5q-52 -48 -117 -74q-58 -21 -122 -25q-158 -6 -282 42q-66 29 -113.5 65t-91.5 92q-69 94 -101 218q-26 109 -27 233q3 200 69 365q23 54 43 91l46 3q-52 -122 -65 -248q-3 -26 -5 -78q24 174 111 307q13 -8 21 -27.5t15 -26.5
q12 -9 27.5 -10t24.5 1t16.5 -7.5t8.5 -35.5q0 -29 6 -38q7 -11 38.5 6t45.5 8q1 -1 4.5 -3t5.5 -3z" />
    <glyph glyph-name="u" unicode="&#xfc;" horiz-adv-x="1087" 
d="M428 969q-67 -106 -84 -278q0 -4 -1 -13t-2 -13q-7 -98 15 -155q0 -2 1.5 -4t2.5 -4q30 -61 51 -87q49 -56 98.5 -73t89 2t70 63.5t48.5 107.5q13 52 8 200q-5 161 -22 308q-2 15 -5 43.5t-5 42.5q-15 144 -32 251q8 3 16 13t12.5 12t20.5 -3q9 -5 15.5 -6.5t10.5 -2.5
t9 3t6.5 6t8 11t10.5 14q21 -141 37 -303q14 155 16 322q9 0 17.5 -8t15.5 -22t12 -27t11 -28.5t8 -21.5q24 -48 31 21q1 5 2 16q1 10 1 13q1 8 2.5 23.5t2.5 19.5t3 13t5 11t8.5 6.5t12.5 6t18 2.5q2 1 6 1h6q60 -369 69 -632q1 -101 -23.5 -242t-29.5 -194q-1 -2 -1 -6
t-1 -6q-16 -81 -45 -141.5t-84 -116.5q-52 -48 -117 -74q-58 -21 -122 -25q-158 -6 -282 42q-66 29 -113.5 65t-91.5 92q-69 94 -101 218q-26 109 -27 233q3 200 69 365q23 54 43 91l46 3q-52 -122 -65 -248q-3 -26 -5 -78q24 174 111 307q13 -8 21 -27.5t15 -26.5
q12 -9 27.5 -10t24.5 1t16.5 -7.5t8.5 -35.5q0 -29 6 -38q7 -11 38.5 6t45.5 8q1 -1 4.5 -3t5.5 -3z" />
    <glyph glyph-name="u" unicode="&#xfb;" horiz-adv-x="1087" 
d="M428 969q-67 -106 -84 -278q0 -4 -1 -13t-2 -13q-7 -98 15 -155q0 -2 1.5 -4t2.5 -4q30 -61 51 -87q49 -56 98.5 -73t89 2t70 63.5t48.5 107.5q13 52 8 200q-5 161 -22 308q-2 15 -5 43.5t-5 42.5q-15 144 -32 251q8 3 16 13t12.5 12t20.5 -3q9 -5 15.5 -6.5t10.5 -2.5
t9 3t6.5 6t8 11t10.5 14q21 -141 37 -303q14 155 16 322q9 0 17.5 -8t15.5 -22t12 -27t11 -28.5t8 -21.5q24 -48 31 21q1 5 2 16q1 10 1 13q1 8 2.5 23.5t2.5 19.5t3 13t5 11t8.5 6.5t12.5 6t18 2.5q2 1 6 1h6q60 -369 69 -632q1 -101 -23.5 -242t-29.5 -194q-1 -2 -1 -6
t-1 -6q-16 -81 -45 -141.5t-84 -116.5q-52 -48 -117 -74q-58 -21 -122 -25q-158 -6 -282 42q-66 29 -113.5 65t-91.5 92q-69 94 -101 218q-26 109 -27 233q3 200 69 365q23 54 43 91l46 3q-52 -122 -65 -248q-3 -26 -5 -78q24 174 111 307q13 -8 21 -27.5t15 -26.5
q12 -9 27.5 -10t24.5 1t16.5 -7.5t8.5 -35.5q0 -29 6 -38q7 -11 38.5 6t45.5 8q1 -1 4.5 -3t5.5 -3z" />
    <glyph glyph-name="u" unicode="&#xfa;" horiz-adv-x="1087" 
d="M428 969q-67 -106 -84 -278q0 -4 -1 -13t-2 -13q-7 -98 15 -155q0 -2 1.5 -4t2.5 -4q30 -61 51 -87q49 -56 98.5 -73t89 2t70 63.5t48.5 107.5q13 52 8 200q-5 161 -22 308q-2 15 -5 43.5t-5 42.5q-15 144 -32 251q8 3 16 13t12.5 12t20.5 -3q9 -5 15.5 -6.5t10.5 -2.5
t9 3t6.5 6t8 11t10.5 14q21 -141 37 -303q14 155 16 322q9 0 17.5 -8t15.5 -22t12 -27t11 -28.5t8 -21.5q24 -48 31 21q1 5 2 16q1 10 1 13q1 8 2.5 23.5t2.5 19.5t3 13t5 11t8.5 6.5t12.5 6t18 2.5q2 1 6 1h6q60 -369 69 -632q1 -101 -23.5 -242t-29.5 -194q-1 -2 -1 -6
t-1 -6q-16 -81 -45 -141.5t-84 -116.5q-52 -48 -117 -74q-58 -21 -122 -25q-158 -6 -282 42q-66 29 -113.5 65t-91.5 92q-69 94 -101 218q-26 109 -27 233q3 200 69 365q23 54 43 91l46 3q-52 -122 -65 -248q-3 -26 -5 -78q24 174 111 307q13 -8 21 -27.5t15 -26.5
q12 -9 27.5 -10t24.5 1t16.5 -7.5t8.5 -35.5q0 -29 6 -38q7 -11 38.5 6t45.5 8q1 -1 4.5 -3t5.5 -3z" />
    <glyph glyph-name="u" unicode="&#xf9;" horiz-adv-x="1087" 
d="M428 969q-67 -106 -84 -278q0 -4 -1 -13t-2 -13q-7 -98 15 -155q0 -2 1.5 -4t2.5 -4q30 -61 51 -87q49 -56 98.5 -73t89 2t70 63.5t48.5 107.5q13 52 8 200q-5 161 -22 308q-2 15 -5 43.5t-5 42.5q-15 144 -32 251q8 3 16 13t12.5 12t20.5 -3q9 -5 15.5 -6.5t10.5 -2.5
t9 3t6.5 6t8 11t10.5 14q21 -141 37 -303q14 155 16 322q9 0 17.5 -8t15.5 -22t12 -27t11 -28.5t8 -21.5q24 -48 31 21q1 5 2 16q1 10 1 13q1 8 2.5 23.5t2.5 19.5t3 13t5 11t8.5 6.5t12.5 6t18 2.5q2 1 6 1h6q60 -369 69 -632q1 -101 -23.5 -242t-29.5 -194q-1 -2 -1 -6
t-1 -6q-16 -81 -45 -141.5t-84 -116.5q-52 -48 -117 -74q-58 -21 -122 -25q-158 -6 -282 42q-66 29 -113.5 65t-91.5 92q-69 94 -101 218q-26 109 -27 233q3 200 69 365q23 54 43 91l46 3q-52 -122 -65 -248q-3 -26 -5 -78q24 174 111 307q13 -8 21 -27.5t15 -26.5
q12 -9 27.5 -10t24.5 1t16.5 -7.5t8.5 -35.5q0 -29 6 -38q7 -11 38.5 6t45.5 8q1 -1 4.5 -3t5.5 -3z" />
    <glyph glyph-name="v" unicode="v" horiz-adv-x="1144" 
d="M528 560q59 183 131 340q10 21 18 46t17 58.5t13 48.5q8 27 25 80t25 80l12 36q4 11 16 42.5t18 48.5q8 -2 17 -2t16 -2t17 -8q7 -5 12.5 -7.5t8.5 -4.5t9 -2.5t8 -0.5h11h13l-42 -108l96 93q12 -4 17.5 -11t8.5 -22t5 -20q2 -6 5.5 -9t6.5 -4t8 1t7.5 3.5t8 5.5t7.5 5
q6 4 11 6.5t8.5 4t8 2t6.5 1t7.5 -1t7.5 -2.5t9.5 -3.5l10.5 -3.5q2 -1 6 -2.5t6 -1.5q-35 -105 -86 -248q-10 -28 -59.5 -116.5t-55.5 -149.5q-15 -87 -52.5 -214t-88.5 -280t-71 -221q-2 -7 -5.5 -21.5t-5.5 -21.5q-14 1 -40 -1q-1 27 1 122q0 6 0.5 17.5t0.5 17.5
q-16 -49 -46 -147q-15 5 -30 15t-22 14q-18 8 -32 4.5t-28.5 -1t-24.5 19.5l-2 -14q-7 -1 -13.5 0t-12.5 6.5t-8.5 8.5t-9 12.5t-8.5 11.5q-26 -15 -38 -13q-1 -1 -2 -5t-1 -5q-10 -30 -17.5 -36t-37.5 -12l-12 -3q-12 59 -37.5 176.5t-38.5 176.5q-8 37 -18 165.5
t-38 193.5q-76 206 -159 679q-1 4 -3 12.5t-3 13.5q7 2 19.5 7t16.5 6q16 -19 46 -66q2 -3 6.5 -10t6.5 -11q-10 64 -14 96q13 2 33 2h26q13 1 31.5 8t28 9t32.5 -4q13 -6 24 -7q14 1 30 14t32 17q2 0 6 1t6 1q13 -83 14 -120q0 -64 16 -94q39 -86 62 -210t42.5 -261.5
t43.5 -220.5z" />
    <glyph glyph-name="w" unicode="w" horiz-adv-x="1736" 
d="M812 1187l-4 19l-3 -9q1 -2 3.5 -5t3.5 -5zM484 702q4 -36 22 -108q48 157 90 256q9 20 15.5 44.5t12.5 56t10 46.5l42 162q3 13 11 39q5 17 16 51t16 51q12 -2 18 -1t14.5 -0.5t18.5 -7.5q16 -10 27 -13l-2 13q8 3 30.5 2t29.5 -1q14 1 32 9.5t27 10.5t33 -6
q19 -9 24 -9q14 1 29 17t32 20q2 0 6 1t6 1q15 -82 16 -133q0 -65 15 -91q29 -63 58 -225.5t40 -272.5l3 -24q46 153 91 260q9 20 15.5 44.5t12.5 56t10 46.5q7 31 22.5 87.5t20.5 74.5q3 13 11 39q5 17 15.5 51t15.5 51q12 -2 18 -1t14.5 -0.5t18.5 -7.5q19 -12 30 -13.5
t33 1.5q-7 -20 -20 -60t-20 -60q64 72 95 108q10 -4 15.5 -10t7.5 -11t4.5 -17t4.5 -18q2 -4 4 -7t4.5 -4t4.5 -1.5t5 0.5t5.5 2t6 3.5t5 4t5 4.5t4.5 4q21 17 33 17.5t36 -8.5l12 -3q-54 -190 -77 -265q-8 -28 -52 -115.5t-46 -142.5q-7 -61 -30 -158t-45 -174.5
t-56.5 -192t-45.5 -154.5l-12 -45l-40 -3q0 21 2 128v35q-16 -51 -46 -153q-15 5 -29.5 15.5t-22.5 14.5q-18 8 -32 3.5t-28.5 -2t-24.5 20.5q-1 -3 -1 -7t-1 -7q-8 -1 -14 0.5t-12 6.5t-9.5 8.5t-10 12t-8.5 11.5q-22 -14 -35 -13q-2 -8 -3 -11q-7 -21 -13.5 -29
t-12.5 -10.5t-30 -6.5l-12 -3q-44 206 -67 325q-5 30 -11.5 141t-30.5 173v1l-1 1q-15 -81 -44 -187t-71.5 -246.5t-51.5 -173.5l-12 -45q-6 0 -12.5 -0.5t-14.5 -1.5t-12 -1q-1 43 1 128q0 6 0.5 17.5t0.5 17.5q-8 -25 -23 -77t-23 -77q-15 5 -30 16t-23 15q-19 8 -33 3.5
t-28 -2t-24 21.5q-1 -3 -1 -8v-7q-12 -1 -22 6t-15 13.5t-14 21.5q-27 -19 -42 -15q0 -1 -0.5 -2.5t-0.5 -2.5q-10 -33 -16.5 -39.5t-37.5 -12.5l-12 -3q-43 203 -78 380q-6 34 -15.5 161t-35.5 196q-15 43 -31 101t-26 100.5t-26 121.5t-21 107.5t-21 119t-18 99.5l-6 27
q12 4 36 14q13 -16 46 -69q2 -4 7 -11.5l7 -10.5q-3 16 -8 50.5t-8 50.5q8 3 30 2t29 -1q15 2 33 10t26 9.5t33 -5.5q16 -7 25 -8q14 1 29 16t32 19q2 0 6 1t6 1q14 -74 15 -130q0 -65 15 -92q29 -66 60 -243t45 -301z" />
    <glyph glyph-name="x" unicode="x" horiz-adv-x="1153" 
d="M20 96q80 118 118 161q53 59 61 89q34 91 199 349q-22 41 -41 81q-11 23 -26.5 47.5t-37 54t-31.5 44.5q-18 27 -51.5 81t-51.5 80l-24 39q-10 18 -30 52.5t-30 51.5q6 5 11.5 12.5t11.5 12t18 7.5q7 2 12 3t9.5 3.5t6.5 3.5t5.5 5t4.5 5.5t6 8t7 9.5q12 -20 35 -61.5
t34 -62.5q-1 8 -24 157q7 4 14 4.5t14 -2t12 -5.5t13 -8t13 -8q5 -2 8.5 -2.5t6 0t4.5 2t3 4.5t2 5t1 6.5v7v7.5v7q1 27 6 34.5t25 19.5q5 3 8 5q1 1 4.5 3.5t5.5 3.5l159 -264q20 -33 63 -140q19 37 57.5 111.5t57.5 111.5q18 36 34 64q66 120 98 180q12 -4 19.5 -1t16 1
t15.5 -14q14 -21 24.5 -23.5t36.5 3.5q-78 -142 -118 -212q82 89 171 194q9 -6 11 -20t0.5 -25.5t-6 -31.5t-5.5 -25q-3 -25 9 -23q8 2 39 33q2 1 3 2q33 29 42 32t41 -13q2 -1 5.5 -3t5.5 -3q-187 -352 -235 -440q-16 -29 -37.5 -60.5t-48.5 -69.5t-41 -58
q34 -50 69.5 -107t75.5 -125.5t63.5 -109.5t67.5 -119t53 -95q5 -8 14 -24.5t14 -24.5q-5 -5 -25 -32q-17 17 -102 113q-4 5 -13.5 15.5t-14.5 15.5q45 -82 92 -169q-13 -7 -32.5 -8t-27.5 -4q-12 -4 -21.5 -15.5t-14 -20t-17 -12.5t-31.5 7q-22 11 -32 11q-11 0 -14 -15.5
t-6.5 -34.5t-13.5 -25q-6 -4 -10 -6q-88 158 -111 211q-2 4 -9 20t-9.5 22.5t-9.5 20t-12 21.5t-12 18t-15 18q-30 34 -74 101q-74 -133 -257 -403q-9 -13 -27 -41q-1 1 -38 9q4 14 42 124q2 6 5.5 16t5.5 16q-16 -22 -47 -66.5t-46 -66.5q-13 10 -22.5 24.5t-16.5 21.5
q-11 10 -30 13t-30.5 10t-13.5 33q-2 24 -7 32q-4 12 -35.5 2.5t-43.5 -1.5q-2 1 -5 3.5t-5 3.5z" />
    <glyph glyph-name="y" unicode="y" horiz-adv-x="1103" 
d="M383 1279q8 -14 23 -72t44 -79q16 -15 31 -32l20 -8q12 -1 -12 25q-14 14 -32.5 42t-31.5 50t-27 48zM427 1260q33 -67 79.5 -127.5t67.5 -30.5q34 52 38 56q10 13 18.5 30t18 42.5t13.5 33.5q10 20 30 60.5t29 61.5l15 30q7 13 22 38.5t22 38.5q8 -3 16.5 -4.5
t15.5 -4.5t16 -11q4 -4 7 -6.5t6.5 -4.5t5.5 -3.5t5.5 -3t5 -2t6 -1.5t6 -1.5t7.5 -1.5t9 -2q-9 -15 -26.5 -45t-26.5 -45q47 30 104 67q11 -6 15.5 -13t6 -22.5t2.5 -19.5q1 -5 3 -8.5t5.5 -4.5t6 -1.5t7 0.5t7 2t7 3t6.5 3q6 2 11.5 3.5t9.5 2.5t8 0.5t6.5 -0.5t7 -2
t7 -3.5t8.5 -4.5l10 -5q2 -1 5 -3t5 -3q-80 -154 -105 -199q-12 -20 -60 -76.5t-58 -101.5q-25 -99 -178 -369q-2 -20 -12.5 -58.5t-13.5 -58.5t5 -58q16 -60 18.5 -194.5t-1.5 -203.5q0 -3 0.5 -9t0.5 -10q-2 0 -37 -6q-11 14 -33 54q-2 2 -5 7.5t-4 8.5q0 -11 -1 -35
t-2 -36q-13 0 -33 3t-26 4q-14 0 -31.5 -3t-31 -3t-29.5 8q-14 7 -23 9q-13 2 -32 -7.5t-34 -10.5h-13q0 63 8 92q0 1 3 11t3.5 13.5t1 11t-0.5 13t-4 11.5q-15 45 -12 156t13 163q2 23 1.5 34t-3 35.5t-3.5 34.5q-1 19 -2 58.5t-2 59.5v28v4q-5 7 -15 14q-30 19 -87 116.5
t-74 145.5q-4 12 -12.5 24.5t-22 28.5t-17.5 22q-10 13 -28 40.5t-27 41.5q-4 6 -12 20q-20 36 -30 53q7 5 13.5 10.5t12.5 10t17 8.5q25 10 53 36q5 -10 16 -31.5t16 -32.5q2 16 7 47t8 47q9 5 16 6.5t10.5 1.5t12 -2t14.5 -3q5 1 7.5 0t6 1.5t4.5 3.5t3 5t3 5.5t2.5 6
t2.5 6.5q3 7 6 12.5t5 9t7.5 7.5t7 5.5t10.5 6.5t11 6l6 3t5 3q95 -94 124 -153z" />
    <glyph glyph-name="y" unicode="&#xff;" horiz-adv-x="1103" 
d="M383 1279q8 -14 23 -72t44 -79q16 -15 31 -32l20 -8q12 -1 -12 25q-14 14 -32.5 42t-31.5 50t-27 48zM427 1260q33 -67 79.5 -127.5t67.5 -30.5q34 52 38 56q10 13 18.5 30t18 42.5t13.5 33.5q10 20 30 60.5t29 61.5l15 30q7 13 22 38.5t22 38.5q8 -3 16.5 -4.5
t15.5 -4.5t16 -11q4 -4 7 -6.5t6.5 -4.5t5.5 -3.5t5.5 -3t5 -2t6 -1.5t6 -1.5t7.5 -1.5t9 -2q-9 -15 -26.5 -45t-26.5 -45q47 30 104 67q11 -6 15.5 -13t6 -22.5t2.5 -19.5q1 -5 3 -8.5t5.5 -4.5t6 -1.5t7 0.5t7 2t7 3t6.5 3q6 2 11.5 3.5t9.5 2.5t8 0.5t6.5 -0.5t7 -2
t7 -3.5t8.5 -4.5l10 -5q2 -1 5 -3t5 -3q-80 -154 -105 -199q-12 -20 -60 -76.5t-58 -101.5q-25 -99 -178 -369q-2 -20 -12.5 -58.5t-13.5 -58.5t5 -58q16 -60 18.5 -194.5t-1.5 -203.5q0 -3 0.5 -9t0.5 -10q-2 0 -37 -6q-11 14 -33 54q-2 2 -5 7.5t-4 8.5q0 -11 -1 -35
t-2 -36q-13 0 -33 3t-26 4q-14 0 -31.5 -3t-31 -3t-29.5 8q-14 7 -23 9q-13 2 -32 -7.5t-34 -10.5h-13q0 63 8 92q0 1 3 11t3.5 13.5t1 11t-0.5 13t-4 11.5q-15 45 -12 156t13 163q2 23 1.5 34t-3 35.5t-3.5 34.5q-1 19 -2 58.5t-2 59.5v28v4q-5 7 -15 14q-30 19 -87 116.5
t-74 145.5q-4 12 -12.5 24.5t-22 28.5t-17.5 22q-10 13 -28 40.5t-27 41.5q-4 6 -12 20q-20 36 -30 53q7 5 13.5 10.5t12.5 10t17 8.5q25 10 53 36q5 -10 16 -31.5t16 -32.5q2 16 7 47t8 47q9 5 16 6.5t10.5 1.5t12 -2t14.5 -3q5 1 7.5 0t6 1.5t4.5 3.5t3 5t3 5.5t2.5 6
t2.5 6.5q3 7 6 12.5t5 9t7.5 7.5t7 5.5t10.5 6.5t11 6l6 3t5 3q95 -94 124 -153z" />
    <glyph glyph-name="y" unicode="&#xfd;" horiz-adv-x="1103" 
d="M383 1279q8 -14 23 -72t44 -79q16 -15 31 -32l20 -8q12 -1 -12 25q-14 14 -32.5 42t-31.5 50t-27 48zM427 1260q33 -67 79.5 -127.5t67.5 -30.5q34 52 38 56q10 13 18.5 30t18 42.5t13.5 33.5q10 20 30 60.5t29 61.5l15 30q7 13 22 38.5t22 38.5q8 -3 16.5 -4.5
t15.5 -4.5t16 -11q4 -4 7 -6.5t6.5 -4.5t5.5 -3.5t5.5 -3t5 -2t6 -1.5t6 -1.5t7.5 -1.5t9 -2q-9 -15 -26.5 -45t-26.5 -45q47 30 104 67q11 -6 15.5 -13t6 -22.5t2.5 -19.5q1 -5 3 -8.5t5.5 -4.5t6 -1.5t7 0.5t7 2t7 3t6.5 3q6 2 11.5 3.5t9.5 2.5t8 0.5t6.5 -0.5t7 -2
t7 -3.5t8.5 -4.5l10 -5q2 -1 5 -3t5 -3q-80 -154 -105 -199q-12 -20 -60 -76.5t-58 -101.5q-25 -99 -178 -369q-2 -20 -12.5 -58.5t-13.5 -58.5t5 -58q16 -60 18.5 -194.5t-1.5 -203.5q0 -3 0.5 -9t0.5 -10q-2 0 -37 -6q-11 14 -33 54q-2 2 -5 7.5t-4 8.5q0 -11 -1 -35
t-2 -36q-13 0 -33 3t-26 4q-14 0 -31.5 -3t-31 -3t-29.5 8q-14 7 -23 9q-13 2 -32 -7.5t-34 -10.5h-13q0 63 8 92q0 1 3 11t3.5 13.5t1 11t-0.5 13t-4 11.5q-15 45 -12 156t13 163q2 23 1.5 34t-3 35.5t-3.5 34.5q-1 19 -2 58.5t-2 59.5v28v4q-5 7 -15 14q-30 19 -87 116.5
t-74 145.5q-4 12 -12.5 24.5t-22 28.5t-17.5 22q-10 13 -28 40.5t-27 41.5q-4 6 -12 20q-20 36 -30 53q7 5 13.5 10.5t12.5 10t17 8.5q25 10 53 36q5 -10 16 -31.5t16 -32.5q2 16 7 47t8 47q9 5 16 6.5t10.5 1.5t12 -2t14.5 -3q5 1 7.5 0t6 1.5t4.5 3.5t3 5t3 5.5t2.5 6
t2.5 6.5q3 7 6 12.5t5 9t7.5 7.5t7 5.5t10.5 6.5t11 6l6 3t5 3q95 -94 124 -153z" />
    <glyph glyph-name="z" unicode="z" horiz-adv-x="1132" 
d="M648 339q44 5 108 7.5t105.5 2.5t120 -1.5t93.5 -1.5q4 0 12.5 0.5t12.5 0.5q0 -2 6 -37q-9 -6 -20 -11.5t-25 -11.5t-21 -10q-3 -2 -9.5 -5.5t-9.5 -4.5q14 -1 43 -1t44 -1q0 -14 -3.5 -32.5t-4.5 -26.5q-1 -15 3 -32.5t3.5 -31t-9.5 -29.5q-9 -15 -11 -23
q-2 -14 9.5 -31.5t12.5 -34.5v-12q-78 0 -113 8q-53 11 -73 3q-57 -16 -189 -12.5t-197 14.5q-28 2 -42 1.5t-45 -3t-43 -3.5q-73 -4 -104 -5t-42.5 -0.5t-46 1.5t-85.5 1q0 4 -5.5 24t0.5 27q1 4 3 10q-1 0 -7.5 1.5t-8 2t-7 2.5t-7 3.5l-5 5t-5 7t-3 9t-2.5 12.5
q-2 24 -6 30q-7 11 -34 4.5t-43 0.5q-1 1 -4.5 3.5t-5.5 3.5q118 168 277.5 374t268.5 326q17 18 32 40t34 54.5t26 44.5q10 15 29 45t29 45q-98 5 -148 12q-28 2 -42 1.5t-45 -3t-43 -3.5q-24 -1 -73 -2.5t-74 -2.5h-36q-16 0 -47.5 1t-47.5 1q0 4 -5.5 24t0.5 27
q5 26 4.5 32t-9.5 32q39 -1 112 -5q-13 7 -116 60q0 13 5 20.5t18.5 16t16.5 11.5q4 4 6.5 7t2 6.5t-1.5 6t-4.5 6t-5.5 5t-7 5t-6 4.5q-6 5 -10.5 8.5t-7 8.5t-4.5 7t-2.5 8t-0.5 8v11.5v12.5v12h245q24 -1 104.5 -17t129.5 -4q43 9 115 13.5t116.5 5t144.5 -1t108 -1.5
q4 0 12 0.5t12 0.5q0 -2 6 -37q-4 -3 -65 -33q-3 -2 -10 -5t-10 -4l87 -3q0 -14 -3.5 -32.5t-4.5 -26.5q-1 -16 3 -33t4 -30.5t-9 -29.5q-11 -17 -12 -23q-2 -14 9.5 -31.5t12.5 -34.5v-12q-44 -64 -111 -164t-193 -304t-156 -284zM852 750q5 23 -19 2l-7 -7
q-68 -70 -92 -123q-39 -74 -124 -192q1 -4 4 -8.5t14 -4t24 18.5q30 40 113 167.5t87 146.5z" />
    <glyph glyph-name="braceleft" unicode="{" horiz-adv-x="557" 
d="M724 -340l6.5 -6.5t4.5 -6.5t3 -5.5t1.5 -6t0.5 -6t0.5 -8t0.5 -8.5v-9q-92 -6 -138 -7q-17 0 -45.5 7t-45.5 10t-45 -5q-69 -22 -118.5 -25t-79 8t-48 37.5t-24.5 59t-8.5 77.5t-2 87t-3 93.5t-11.5 92.5q-18 121 -14 408q2 78 -65 121q-66 43 -64 124q2 79 71 120l5 3
q69 39 72 119q3 107 -15 321q-16 122 -13 226.5t26 178t102.5 104.5t216.5 6q15 -1 23 -0.5t25 3t24 3.5q14 2 41.5 4t40.5 3q12 2 20 2h51q1 -6 3 -13t2.5 -10.5t-0.5 -14.5q-3 -20 5 -48q-10 0 -30.5 0.5t-30.5 0.5l66 -42q0 -10 -1.5 -15t-9 -12t-9.5 -10q-3 -3 -3.5 -6
t-0.5 -5t2 -5.5t3 -4.5l4.5 -4.5l4.5 -4.5l6.5 -6.5t4.5 -6.5t3 -5.5t1.5 -6t0.5 -6t0.5 -8t0.5 -8.5v-9q-92 -6 -138 -7q-19 -1 -54 8.5t-52 9.5q2 -196 2 -295q0 -65 -13.5 -190.5t-13.5 -186.5q0 -83 -73 -126l-103 -60l127 -73q70 -40 73 -122q5 -150 0 -654
q15 -1 23 -0.5t24 3t23 3.5q14 1 41.5 3t40.5 4q6 1 20 1q34 0 51 1q0 -4 3 -15t2 -23q-3 -20 5 -48q-10 0 -30.5 0.5t-30.5 0.5q11 -7 33 -21.5t33 -21.5q0 -10 -2 -15t-8.5 -11t-9.5 -10q-3 -3 -3.5 -6t-0.5 -5t2 -5.5t3 -4.5l4.5 -4.5z" />
    <glyph glyph-name="verticalbar" unicode="|" horiz-adv-x="462" 
d="M383 785q11 -126 16 -291.5t5 -271.5t-2.5 -318t-2.5 -273q0 -6 0.5 -18.5t0.5 -18.5q-16 -2 -38 -8q-12 26 -33 105l-9 36q0 -24 -1 -71.5t-2 -71.5q-15 1 -32.5 5t-25.5 5q-14 1 -32 -4t-32 -5t-29 13q-13 13 -23 16q-14 3 -31 -12.5t-35 -17.5h-12q0 115 8 194
q12 112 3 163q-34 274 2 979q2 74 2 100.5t-3.5 100.5t-4.5 100q-1 51 -2.5 152.5t-3.5 152.5q-2 44 -2 67q0 19 1 75.5t0 87.5q8 1 17 6t14 6t20 -3q8 -3 14.5 -4.5t10 -2.5t9.5 1l7.5 2.5t10.5 5.5t12 7q0 -32 -1 -96.5t-2 -96.5q32 114 58 200q11 -1 19 -8t11.5 -14.5
t9.5 -22.5l8 -20q3 -6 6 -9t5.5 -4t5 -0.5t5 3.5t4 5.5t4 7t4 8t3.5 8t3 7.5q15 31 23.5 36t39.5 5q2 0 6 0.5t6 0.5q4 -304 4 -455q-1 -50 -16 -239.5t-3 -304.5z" />
    <glyph glyph-name="braceright" unicode="}" horiz-adv-x="559" 
d="M457 812q69 -41 71 -120q2 -81 -64 -124q-67 -43 -65 -121q4 -287 -14 -408q-8 -41 -11.5 -92.5t-3 -93.5t-2 -87t-8.5 -77.5t-24.5 -59t-48 -38t-79 -8.5t-118.5 25q-28 8 -44.5 5.5t-45.5 -9.5t-46 -7q-69 1 -138 6v10q0 2 0.5 8.5t0.5 8t0.5 6t1.5 6t3 5.5t4.5 6.5
l6.5 6.5q1 1 4 3.5t4 4t3 4t2.5 4t1 4t-1 5t-3.5 5.5q-3 4 -9.5 10t-8.5 11t-2 15q11 7 33 21.5t33 21.5q-10 0 -30.5 -0.5t-30.5 -0.5q8 28 5 48q-1 12 -0.5 15t2.5 10t3 13q17 -1 51 -1q14 0 20 -1q13 -2 40.5 -4t41.5 -3q7 -1 23.5 -3.5t24.5 -3t23 0.5q0 45 -1.5 155
t-2.5 173.5t0 156.5t3 169q3 82 73 122l127 73l-103 60q-73 42 -73 126q0 61 -13.5 186t-13.5 190q0 99 2 295q-17 0 -52 -9t-54 -8q-69 2 -138 6v10q0 2 0.5 8.5t0.5 8t0.5 6t1.5 6t3 5.5t4.5 6.5l6.5 6.5q1 1 4 3.5t4 4t3 4t2.5 4t1 4t-1 5t-3.5 5.5q-3 4 -9.5 10t-8.5 11
t-2 15q11 7 33 21.5t33 21.5q-10 0 -30.5 -0.5t-30.5 -0.5q8 28 5 48q-1 12 -0.5 15.5t2.5 10.5t3 13q9 0 26 -1t26 -1q13 0 19 -1q14 -1 41 -3t41 -4q7 -1 24 -3.5t25.5 -3t23.5 0.5q56 10 102.5 11t81 -7t61 -23.5t44 -38.5t29.5 -52.5t17.5 -63.5t7.5 -74t0.5 -82.5
t-5 -89t-7.5 -94.5q-18 -214 -15 -322q3 -80 72 -119z" />
    <glyph glyph-name="asciitilde" unicode="~" horiz-adv-x="1013" 
d="M971 589q-6 2 -40 14q-2 1 -5.5 3t-5.5 2q5 -6 17 -18.5t17 -18.5q-5 -5 -13.5 -10.5t-11.5 -7.5q-4 -3 -13.5 -17t-22.5 -16q-9 -2 -13 -4q-6 -5 -8 -15.5t-8 -17.5q-2 -3 -5 -5q-33 35 -41 48q-16 25 -27 29q-19 7 -65 55.5t-62 72.5q-7 10 -19 20q-12 -10 -19 -20
q-17 -25 -62 -73t-64 -55q-11 -4 -27 -29q-10 -16 -42 -48q-1 2 -4 5q-6 7 -8 17.5t-8 15.5q-3 2 -13 4q-9 1 -16 8q-7 -7 -16 -8q-11 -2 -14 -4q-6 -5 -8 -15.5t-8 -17.5q-2 -4 -4 -5q-36 38 -42 48q-16 25 -26 29q-19 7 -65 55.5t-62 72.5q-4 6 -10.5 12t-15 12.5
t-12.5 10.5l-39 36l-8 8q-14 16 -21 23q17 20 18 20q12 9 23 25q4 -5 11.5 -14.5t11.5 -13.5q-2 34 -3 50q5 5 8 6t9 1t9 1q10 1 12 18q1 5 1.5 8t2.5 6l3 4.5t5 5t6 5.5q1 1 2.5 3t2.5 2q9 -10 29 -29.5t29 -29.5q7 -7 23 -36t34 -38q34 -20 114 -100q80 80 114 100
q18 9 34 38t23 36q9 10 29 29.5t29 29.5q1 0 2.5 -2t2.5 -3q2 -2 6 -5.5t5 -5l3 -4.5t2.5 -6t1.5 -8q2 -17 12 -18q9 1 11 18q1 5 1.5 8t3 6.5t3.5 4.5l5.5 5.5l5.5 5.5l4 4q9 -10 29.5 -29.5t29.5 -29.5q7 -7 23 -36t34 -38q13 -8 31 -22.5t39.5 -35.5t37 -36.5t38.5 -39.5
t29 -30l5 -5t6 -5q-2 -3 -11 -16z" />
    <glyph glyph-name="nonbreakingspace" unicode="&#xa0;" horiz-adv-x="643" 
 />
    <glyph glyph-name="softhyphen" unicode="&#xad;" horiz-adv-x="0" 
 />
    </font>
</defs>
</svg>
