<svg xmlns="http://www.w3.org/2000/svg" width="160" height="160" viewBox="0 0 160 160" fill="none"><path d="M67.4367 3.29785C67.1025 3.5875 66.5677 3.98856 66.3672 4.34506C66.8574 4.21137 67.2362 3.92172 67.4367 3.29785Z" fill="#FDB809"></path><path d="M150.23 44.8738L150.52 45.2971C150.52 45.1857 150.565 45.0743 150.587 44.9629L150.23 44.8738Z" fill="#FDB809"></path><path d="M150.594 44.9632L151.886 45.2974C150.928 44.2502 150.705 44.473 150.594 44.9632Z" fill="#FDB809"></path><path d="M3.60838 70.4973C3.45241 71.0766 3.38556 71.5891 3.36328 72.1015L3.5638 72.2129C3.89802 71.9679 3.6975 70.9875 3.60838 70.4973Z" fill="#FDB809"></path><path d="M2.26562 61.2953C2.37703 61.7632 2.59985 62.2311 2.84494 62.6767C2.71125 61.986 2.8895 60.9165 2.26562 61.2953Z" fill="#FDB809"></path><path d="M67.5829 2.80713C67.5606 3.00766 67.4938 3.14134 67.4492 3.29731C67.672 3.09678 67.7611 2.91853 67.5829 2.80713Z" fill="#FDB809"></path><path d="M159.543 80.5684C159.61 81.5042 159.632 82.44 159.766 83.398C160.189 81.2368 159.989 80.5684 159.543 80.5684Z" fill="#FDB809"></path><path d="M94.952 7.48632C94.5955 7.35264 94.2167 7.19667 93.7266 7.06299C94.1722 7.2858 94.5955 7.41948 94.952 7.48632Z" fill="#FDB809"></path><path d="M30.8633 29.9457C30.8856 29.8343 30.9301 29.7006 30.9524 29.5669C30.9078 29.6783 30.8856 29.812 30.8633 29.9457Z" fill="#FDB809"></path><path d="M157.522 62.3423C157.233 60.8271 156.944 59.312 156.632 57.7969C156.21 56.3041 155.675 54.8558 155.141 53.4076C154.14 50.4665 152.427 47.7927 150.535 45.3196C150.446 45.8766 150.379 46.545 149.801 46.5005C149.801 45.7652 149.4 44.8962 149.089 44.2278C148.777 43.5594 148.666 43.0246 149.378 42.8464L149.779 43.136C148.688 41.9106 148.444 40.2618 148.332 38.6798C148.266 37.8777 148.243 37.1202 148.154 36.4294C148.043 35.7833 147.843 35.204 147.553 34.8252C145.351 34.8252 144.015 28.8539 142.524 31.9287C142.613 30.926 142.569 30.0348 142.591 29.0544C141.256 29.255 140.388 30.4804 139.075 29.9011C137.785 28.1186 138.608 27.2274 140.366 28.0295C135.493 20.7882 126.815 14.4604 118.515 11.2965C119.449 11.2296 120.384 11.1405 121.296 11.1628C119.716 9.42486 113.174 9.98189 116.401 7.44186C114.131 7.0408 111.394 5.83762 109.035 4.99094C106.676 4.0997 104.651 3.94374 103.984 5.7485C103.094 3.67637 100.602 2.45091 97.5531 2.04985C94.4823 1.7602 90.9887 1.67107 87.9401 1.91616C88.7412 5.23603 82.9779 2.45091 81.398 4.12199C80.9752 2.94109 82.1991 2.09441 83.5788 1.67108C84.9584 1.20317 86.4938 0.824397 86.605 0C84.9584 0.935802 83.1115 0.980361 81.131 1.18089C79.1728 1.2923 77.1034 1.13633 75.123 1.04721C71.2066 1.11405 67.6685 1.67108 67.0454 5.01323C66.2889 4.94638 66.2221 4.70129 66.4224 4.38936C65.2875 4.65673 63.4851 3.9883 62.2613 4.01058C61.8607 5.25832 64.4642 5.12463 61.8385 6.23868C59.6133 6.57289 60.3253 4.54532 59.1905 3.9883C57.299 5.36972 54.8291 6.86255 52.8931 8.28853C50.9794 9.78136 49.6666 11.4079 49.9114 12.7002C48.5095 12.611 46.6181 11.8981 47.6639 10.8286C46.3288 12.0095 45.3274 12.7893 44.5041 13.4354C43.6585 14.037 42.9242 14.3935 42.1676 14.75C40.788 15.3739 39.2971 15.9532 37.2277 18.1145C38.0288 16.8222 36.4711 15.5076 39.5864 14.5941C37.3612 13.7251 35.2917 15.6413 33.0443 17.7357C31.8872 18.7606 30.8858 20.0752 29.751 21.1892C28.6384 22.3256 27.4368 23.2836 26.0571 23.9075C26.0794 25.0216 26.1461 26.1133 26.1906 27.1828C24.2547 29.9234 22.4078 28.6311 23.4314 26.2693C22.1853 27.116 21.1617 27.9627 20.3161 28.8093C19.515 29.7006 18.9142 30.6141 18.3357 31.5053C17.2676 33.3324 16.2662 34.9589 15.1536 36.9196C14.7753 36.9865 14.486 36.5631 14.9978 35.9838L11.5265 41.5541C11.6823 42.4007 11.7491 45.0522 13.2844 45.2973C12.8617 44.6511 12.6169 43.9159 12.7726 43.0023C12.9507 42.1111 13.6182 41.0862 14.9088 39.8162C18.0909 40.5514 13.1287 43.0246 15.8657 44.2278C16.244 42.3339 16.5555 40.8634 18.3579 40.997C19.0477 43.1583 16.2217 44.1387 18.1577 46.0103C18.2689 45.0745 18.4914 44.1609 18.6472 43.2251C19.4705 42.8909 20.0491 43.2251 20.4941 43.6262C19.0477 46.0326 17.7571 48.5503 16.6 51.1349C16.8225 48.5057 14.6641 47.1689 13.4625 45.5646C12.5501 47.8819 11.4153 50.0877 10.7922 52.5163C9.92438 52.1375 9.87988 50.8452 10.2137 49.5084C10.592 48.1938 11.1927 46.7901 11.2818 46.0325C10.1914 42.9355 7.98845 49.0628 6.67558 47.5922C7.54341 49.2187 6.09702 51.9593 6.03026 54.0314H4.93992C4.38362 54.8113 4.02758 55.5688 3.89407 56.3264C3.78281 57.0839 3.82731 57.8415 3.89407 58.5768C4.02758 60.0696 4.33911 61.4956 3.89407 63.0775C3.53803 63.3003 3.31551 63.3003 3.15974 63.2112C3.96082 64.5704 5.2737 65.9963 5.36271 67.9793L5.47396 66.4865C6.47531 68.0462 7.14287 70.4748 7.9662 71.9899C8.36674 72.7475 8.83403 73.2822 9.41259 73.3713C9.79087 73.4382 10.2359 73.2822 10.7477 72.8812C10.5697 74.53 10.4584 76.201 10.3917 77.8721C10.3249 78.3177 10.2582 78.7634 10.1692 79.209C7.52115 78.3846 3.38226 76.7135 3.38226 72.1682L2.31417 71.522C1.29058 73.1263 1.80237 75.6217 2.69245 77.3374C3.62704 79.0753 5.07343 80.0111 6.27504 78.9861C9.34583 80.6795 9.70186 83.3087 9.39033 86.3612C9.19006 87.8763 9.12331 89.4805 9.25683 91.0179C9.39034 92.5553 9.72412 94.0258 10.5919 95.1844C8.90079 95.9197 7.76592 93.1123 6.34179 91.9537C5.89675 90.3495 5.67423 89.1463 7.14287 88.8566C6.3863 85.4254 5.05118 85.8264 3.84957 86.1829C2.67021 86.5394 1.66887 86.7622 1.78013 82.5511C2.49219 78.5183 4.87316 87.3638 4.82865 81.4816C3.09299 80.1225 1.62436 78.6519 0.0222116 77.1146C-0.178057 80.9692 1.02354 84.4227 1.71336 87.3861C4.11658 95.6078 5.91902 102.314 7.43216 107.127C8.18873 109.511 8.54475 111.516 8.98979 112.809C9.39033 114.123 9.5461 114.881 9.5461 114.881C15.0646 125.888 22.9196 135.714 32.666 143.066C42.3679 150.441 53.6942 155.588 65.5323 157.972C69.2929 158.44 71.8742 158.552 73.8991 158.24C75.924 157.839 77.4372 156.658 78.9503 154.318C78.2383 153.783 76.8364 153.583 75.7905 153.293C75.1897 153.137 74.7224 152.915 74.5889 152.603C77.2369 152.892 79.9072 153.048 82.6219 153.048C92.3016 153.048 101.536 151.132 109.992 147.656C110.17 147.634 110.348 147.612 110.526 147.589V147.456C111.194 147.166 111.883 146.854 112.551 146.542C112.64 146.542 112.707 146.564 112.818 146.564C112.751 146.564 112.729 146.498 112.684 146.475C116.601 144.693 120.317 142.554 123.811 140.125L127.371 138.855C127.148 138.476 127.104 138.075 127.104 137.674C127.883 137.073 128.639 136.449 129.396 135.825C129.552 136.493 130.019 136.939 130.82 136.961C132.022 135.09 133.245 133.33 134.313 131.458C133.69 132.126 132.978 132.862 132.355 133.174C133.735 131.859 135.07 130.522 136.338 129.096C137.295 128.829 138.074 128.249 138.141 127.024C139.142 125.821 140.099 124.573 141.034 123.325C140.922 123.994 140.811 124.685 140.7 125.286C141.39 123.437 142.235 122.3 143.125 121.498C143.926 120.629 144.816 120.072 145.618 119.515C146.396 118.958 147.108 118.401 147.509 117.488C147.954 116.619 147.998 115.349 147.464 113.477C147.197 113.834 146.864 114.168 146.552 114.524C147.331 113.054 148.043 111.561 148.711 110.046C149.423 111.138 149.756 112.608 149.712 114.056L150.09 109.712C151.247 109.556 152.271 109.333 153.383 109.11C153.294 107.439 153.473 106.124 153.851 104.899C154.029 104.275 154.274 103.696 154.541 103.072C154.763 102.448 155.008 101.802 155.253 101.111L155.319 101.579C157.344 100.265 157.344 98.3929 157.122 96.499C156.81 94.5829 156.098 92.5998 157.122 90.6837C157.233 91.1516 157.567 90.8619 157.812 91.7755L157.99 88.2551L158.724 88.1659C156.81 88.1659 156.187 84.6455 154.808 83.0859C154.83 82.2615 154.874 81.4594 154.874 80.6127C154.874 80.0334 154.852 79.4541 154.83 78.8748C155.141 80.0779 157.233 80.8355 155.965 82.9967C156.744 82.9967 158.635 80.6127 159.525 80.5904C158.947 77.5379 158.924 74.5077 158.613 71.4775C158.19 68.4695 158.19 65.3725 157.5 62.3645L157.522 62.3423ZM138.119 26.5812C139.031 29.4555 136.427 27.4725 135.604 27.9627L138.586 30.8815C136.539 31.3716 135.337 29.9902 134.113 29.812C133.401 29.099 132.689 28.386 131.955 27.7176C132.6 27.6284 133.156 27.3165 133.69 26.9823C134.892 26.2025 136.116 25.1107 138.096 26.6035L138.119 26.5812ZM121.185 18.2927L121.385 19.0503C122.809 18.8497 124.3 18.6269 125.702 18.5824C127.104 20.4762 128.617 22.7266 128.795 24.8879C127.304 23.6401 125.746 22.4593 124.144 21.3452C124.367 21.1224 124.589 20.8996 124.834 20.699C123.365 19.3399 123.232 19.8969 122.987 20.5208C122.119 19.9415 121.229 19.3622 120.339 18.8274C120.45 18.4932 120.651 18.2259 121.185 18.2927ZM105.497 9.91504C108.368 11.4079 111.349 12.9675 114.62 13.3463C114.598 14.4604 113.241 13.324 112.328 13.3018C113.975 16.3097 114.887 14.0816 116.779 14.1484C118.047 14.8614 119.227 15.9978 119.805 17.0004C120.139 17.5797 120.206 18.1145 119.983 18.5824C113.797 14.8391 107.01 12.0095 99.8005 10.2493C99.9785 9.80364 100.201 9.42486 100.557 9.2689L97.4418 9.09065C99.7337 7.73151 102.627 8.55591 105.519 9.89277L105.497 9.91504ZM78.9948 7.73151C80.9085 7.21904 82.8889 6.5729 83.6232 7.95432L82.5774 6.32781C85.5814 6.99624 88.3407 6.3278 91.2335 5.83762C92.6799 5.61481 94.1485 5.36972 95.6616 5.16919C96.4182 5.08007 97.197 4.99094 97.9759 4.94638C98.7547 4.94638 99.5335 5.0355 100.335 5.12463C98.2874 5.43656 97.4195 7.95432 94.9051 7.48641C96.4404 8.11028 96.6629 8.80099 96.4849 9.53627C91.9678 8.64503 87.3171 8.17713 82.5551 8.17713C79.7514 8.17713 76.9699 8.35537 74.2551 8.66731C74.6557 8.11028 74.8337 7.64239 74.3664 7.28589C75.212 8.62275 77.0589 8.26625 78.9726 7.68694L78.9948 7.73151ZM67.6463 8.19941C68.1803 7.48642 68.8701 6.92939 70.1385 6.99623C70.0717 7.55326 69.3152 8.71187 69.1149 9.46943C68.1803 9.64767 67.268 9.8482 66.3556 10.0487C66.8452 9.49171 67.2235 8.82328 67.6685 8.19941H67.6463ZM66.0441 9.95961V10.1379C65.7326 10.2047 65.4433 10.2715 65.1318 10.3384C65.4655 10.227 65.7771 10.0933 66.0441 9.95961ZM57.5438 10.4275C56.4534 12.7225 59.9025 11.1182 61.0596 11.4747C58.7899 12.1877 56.5647 13.0121 54.384 13.9256C54.6288 12.2323 54.5398 10.7394 57.5438 10.4275ZM50.3564 15.7972C49.5331 16.2206 48.6875 16.6439 47.8864 17.0895C48.0422 16.5771 48.2425 16.0423 48.5985 15.5299C49.4218 15.3739 49.9559 15.5299 50.3564 15.7972ZM27.6593 33.0204C26.8137 31.7059 27.5925 30.2576 28.6384 28.7648C29.6397 27.2051 31.1974 25.8905 31.5756 24.3086C32.7105 24.0858 33.7118 23.5956 34.6019 22.9494C35.5143 22.3256 36.4266 21.6126 37.2499 20.7659C38.0955 19.9415 38.8966 19.028 39.6977 18.1145C40.4987 17.2009 41.4111 16.4657 42.3012 15.775C43.1912 17.0227 42.7907 18.8497 43.1022 19.9638C42.4347 20.4094 41.7671 20.855 41.0995 21.3229C40.699 21.5457 40.343 21.7908 40.0537 22.0805C39.1414 22.7489 38.2513 23.4173 37.3834 24.1303C37.1609 24.264 36.9384 24.42 36.7159 24.5759C35.9148 25.1553 35.1805 25.8014 34.5129 26.4698C34.4017 26.6035 34.2904 26.7149 34.1791 26.8486C33.0443 27.8735 31.9317 28.943 30.8636 30.0571C30.8636 30.0348 30.8636 30.0125 30.8636 29.9902C30.8636 30.0125 30.8636 30.0571 30.8413 30.0794C30.3963 30.525 29.9512 30.9929 29.5285 31.4608C28.7496 31.5499 27.9041 31.2825 27.6593 33.0427V33.0204ZM11.4375 55.1678C13.0842 55.3237 13.9075 55.3683 14.6863 55.6579C13.9743 57.5964 13.3512 59.5794 12.8172 61.5847C12.2831 59.3789 11.7713 57.1508 11.4375 55.1678ZM12.1273 96.811C12.3276 97.6353 12.5056 98.4597 12.7281 99.2841C12.0161 98.2592 10.681 97.0783 10.8145 95.5409C11.1927 96.2985 11.6378 96.655 12.1051 96.811H12.1273ZM11.9938 101.646C12.6614 101.289 12.9952 100.933 13.0842 100.576C13.4179 101.735 13.774 102.871 14.1523 104.008C13.418 103.696 12.6836 103.005 11.9938 101.646ZM29.1057 130.277C28.1266 129.631 26.9917 129.364 25.8346 129.185C23.4314 128.896 21.0504 128.784 18.9365 127.18L20.4719 126.467C17.7349 123.414 17.2676 122.3 14.6196 119.716C13.9075 112.608 18.0241 124.395 20.4496 120.696L18.9587 119.515C19.7153 119.538 20.6499 119.493 21.6067 119.471C24.4995 123.994 27.8373 128.183 31.6201 131.948C31.3976 132.349 31.3531 132.839 31.7759 133.508C30.8858 131.97 30.1293 130.856 29.1057 130.232V130.277ZM57.4993 148.547C57.4993 148.547 57.5883 148.592 57.6328 148.592C57.6328 148.592 57.5883 148.592 57.5661 148.614C57.5438 148.592 57.5216 148.57 57.4993 148.547ZM67.4905 153.316C67.4905 151.555 70.9618 152.981 70.1162 152.447L69.4487 152.224C69.5377 152.09 69.6267 151.979 69.7157 151.867C71.2066 152.135 72.6975 152.357 74.2106 152.536C72.9423 153.628 70.5168 153.962 67.4905 153.316ZM123.922 140.014C124.144 139.858 124.345 139.702 124.567 139.546C124.411 139.702 124.167 139.858 123.922 140.014ZM153.161 101.624C152.56 103.05 151.359 104.721 152.048 105.857C151.225 107.238 150.179 108.219 149.267 108.709C150.557 105.657 151.626 102.493 152.493 99.2396C152.493 99.4178 152.471 99.5961 152.449 99.7966C154.207 99.195 153.829 100.198 153.183 101.624H153.161ZM154.808 89.28C154.741 90.3272 154.496 90.6837 154.185 90.8174C154.274 90.1712 154.363 89.5474 154.429 88.9012C154.563 89.0349 154.696 89.1686 154.808 89.3023V89.28ZM155.052 97.6131C153.673 98.8162 153.139 97.8359 152.849 97.7913C153.272 96.0757 153.628 94.3155 153.918 92.5553C154.229 92.9786 154.563 93.3574 154.852 93.7807C155.497 94.7165 155.92 95.8083 155.052 97.6131ZM154.719 87.7203C154.719 87.7203 154.607 87.6312 154.563 87.6089C154.63 86.8959 154.674 86.1829 154.719 85.4476C155.319 85.8933 155.965 86.2275 154.719 87.7203ZM156.432 80.1225L155.408 77.3596C155.075 77.7384 154.919 78.0726 154.852 78.3623C154.318 61.0054 147.709 45.1859 137.05 32.9759C137.829 33.7334 138.808 34.5355 140.477 35.4936L140.522 35.0926C141.99 35.2485 143.17 36.5408 144.193 38.0114C145.217 39.5042 145.862 41.309 146.775 42.3562C145.039 42.1111 143.526 39.5711 141.857 38.3456C142.836 41.309 147.375 47.1243 150.958 48.4612C151.136 49.3524 151.403 50.7561 151.292 51.7142C151.136 52.6946 150.691 53.1848 149.734 52.2267C151.359 58.0866 154.452 53.1848 155.386 58.6213L153.294 59.0447C152.916 60.6712 153.072 62.0972 153.495 63.4563C153.94 64.8154 154.63 66.0855 155.141 67.4223C156.254 70.0738 157.589 72.8366 156.232 75.6886L158.835 75.8668C157.812 77.1591 157.411 79.6323 156.432 80.1002V80.1225Z" fill="#FDB809"></path><path d="M13.2215 45.2749L13.3997 45.5423L13.4889 45.3195C13.3775 45.3195 13.2883 45.2749 13.1992 45.2749H13.2215Z" fill="#FDB809"></path><path d="M149.716 113.99L149.582 115.393C149.671 114.948 149.693 114.48 149.716 113.99Z" fill="#FDB809"></path><path d="M3.27359 105.701C4.81099 104.765 3.8529 101.913 3.05078 101.378C3.63009 102.247 3.54096 104.186 3.27359 105.701Z" fill="#FDB809"></path><path d="M79.099 158.752C78.1867 160.535 81.5913 159.532 82.5926 160C82.7706 159.554 80.6789 157.126 79.099 158.752Z" fill="#FDB809"></path><path d="M110 79.8618C109.974 96.4018 97.0805 109.676 80.5833 109.994C63.7269 110.318 50.2787 96.9975 50.0041 80.3779C49.7397 64.5004 62.3487 50.1865 79.8699 50.0016C96.2028 49.8321 109.877 63.1473 110 79.8593V79.8618ZM100.168 98.1451C100.214 98.1528 100.26 98.158 100.307 98.1657C100.378 98.1066 100.458 98.0578 100.52 97.9911C101.736 96.6277 102.814 95.1591 103.702 93.5621C105.683 89.9958 106.9 86.1959 107.197 82.1135C107.416 79.1019 107.172 76.1338 106.397 73.2145C106.374 73.1247 106.214 73.0117 106.117 73.0117C104.839 73.0014 103.558 73.0297 102.28 73.004C101.787 72.9937 101.279 72.9244 100.807 72.7883C100.042 72.5701 99.2902 72.2954 98.5459 72.0129C97.717 71.6997 96.888 71.5867 96.0154 71.8178C94.7091 72.1618 93.3925 72.4648 92.0887 72.8114C91.714 72.9116 91.3291 73.0502 91.0031 73.2582C90.0715 73.8564 89.163 74.4906 88.2622 75.1325C87.6334 75.5818 87.2074 76.216 87.1843 76.9785C87.1329 78.6192 86.925 80.2855 87.677 81.8517C87.7591 82.0237 87.8156 82.2085 87.8721 82.3908C88.4906 84.3601 90.7183 84.9096 92.1888 84.0854C92.4763 83.9236 92.7663 83.767 93.0666 83.6309C93.5568 83.4076 94.07 83.2741 94.6167 83.3716C96.1925 83.6489 97.1575 84.7812 97.1267 86.3808C97.1139 87.0894 97.2832 87.7184 97.604 88.3372C98.2688 89.6235 98.9052 90.9227 99.5571 92.2142C99.8343 92.7662 99.9857 93.3413 99.9754 93.9652C99.96 94.8613 99.9421 95.7573 99.9729 96.6508C99.9908 97.1515 100.101 97.6496 100.173 98.1477L100.168 98.1451ZM78.5661 62.5824C78.5456 62.4361 78.5327 62.1999 78.4789 61.9739C78.2017 60.834 77.1725 60.0303 75.9201 59.9969C75.0372 59.9738 74.1518 59.9738 73.2664 59.9969C71.9986 60.0278 71.0798 59.4911 70.5767 58.3306C70.202 57.4628 69.6118 56.8132 68.8367 56.3049C68.5518 56.1174 68.2875 55.8992 67.9923 55.7297C67.8871 55.6681 67.6998 55.6553 67.5945 55.7092C64.0939 57.5193 61.0732 59.9097 58.653 63.0446C56.7769 65.4735 55.2679 68.1 54.2362 70.9911C54.1848 71.1323 54.154 71.3146 54.1977 71.4481C54.5339 72.4674 54.9111 73.4739 55.2345 74.4957C55.5091 75.3635 56.0121 76.0183 56.8206 76.4445C57.2055 76.6473 57.5828 76.8681 57.9575 77.094C58.9867 77.7154 60.0055 78.3573 61.045 78.9632C62.1229 79.5922 63.3702 79.4536 64.2427 78.6474C65.0999 77.854 65.3617 76.7372 64.9434 75.6434C64.756 75.1556 64.502 74.6626 64.6098 74.1363C64.8664 72.8936 65.3309 71.7433 66.4294 70.9885C67.5175 70.2413 68.5929 69.4685 69.7324 68.8061C71.1131 68.0076 72.5504 67.3118 73.9696 66.5801C75.0193 66.0409 76.0844 65.5274 77.134 64.9856C78.0682 64.5029 78.5507 63.7301 78.5661 62.5824ZM70.8591 80.0107C70.4638 80.0107 70.0712 80.0185 69.6759 80.0107C68.8983 79.9953 68.3593 80.3599 68.0206 81.0455C67.8306 81.428 67.6382 81.8054 67.4585 82.1906C67.2558 82.6194 66.9606 82.9531 66.5269 83.1611C66.1137 83.3588 65.7108 83.577 65.2976 83.7722C64.6226 84.088 64.271 84.6143 64.2453 85.3538C64.2325 85.726 64.2556 86.1009 64.2427 86.4732C64.2248 86.9739 64.3788 87.4129 64.6534 87.8237C65.3797 88.9021 66.0855 89.9933 66.8297 91.0588C67.0119 91.3181 67.2891 91.5338 67.5637 91.7007C67.9718 91.9497 68.4132 92.1423 68.8444 92.3502C69.6323 92.7302 69.9813 93.3618 69.9736 94.2245C69.9634 95.9294 69.9736 97.6368 69.9557 99.3416C69.9505 99.8012 70.0378 100.227 70.2457 100.633C70.546 101.221 70.8154 101.824 71.1362 102.4C71.3262 102.738 71.5648 103.062 71.8317 103.347C72.3194 103.868 72.8404 104.356 73.3562 104.851C73.89 105.362 74.5214 105.506 75.2143 105.262C75.5839 105.131 75.9278 104.934 76.282 104.764C76.8748 104.482 77.1956 104.009 77.3188 103.362C77.6217 101.763 77.9758 100.173 78.2607 98.5713C78.4275 97.6419 78.7689 96.846 79.5208 96.2477C79.7287 96.0834 79.8904 95.86 80.0931 95.6906C81.0556 94.8895 81.7408 93.919 81.9538 92.6583C81.9641 92.5967 81.9898 92.5351 82.0129 92.476C82.5826 91.105 82.983 89.7057 82.8059 88.196C82.7931 88.0805 82.7879 87.9624 82.7648 87.8494C82.6365 87.2075 82.2105 86.8147 81.651 86.5374C80.6039 86.0162 79.567 85.4667 78.5045 84.9789C77.6319 84.5784 77.1648 83.9673 77.1032 82.9942C77.057 82.2625 76.6207 81.7515 75.9124 81.5256C75.684 81.4537 75.4299 81.4332 75.1887 81.4383C74.624 81.4511 74.1441 81.2817 73.7412 80.8837C73.5898 80.7348 73.4229 80.6013 73.2664 80.4575C72.9353 80.1571 72.5504 80.0082 72.1038 80.0107C71.688 80.0133 71.2723 80.0107 70.8565 80.0107H70.8591ZM104.054 67.1321C103.984 66.9883 103.935 66.8728 103.874 66.7649C102.175 63.6711 99.919 61.0471 97.1985 58.8108C96.9573 58.6131 96.7443 58.5617 96.4799 58.6926C95.4303 59.2087 94.3831 59.7248 93.3386 60.2486C93.218 60.3102 93.1102 60.4078 93.0127 60.5053C92.1349 61.3911 91.2469 62.2666 90.3949 63.1755C89.8585 63.7507 89.7122 64.4721 89.8893 65.2321C90.187 66.5133 91.2341 67.2656 92.6303 67.1552C93.1051 67.1167 93.5824 66.9524 94.029 66.7726C94.4909 66.5903 94.9375 66.3516 95.3584 66.082C96.6031 65.2912 97.9787 65.3733 99.3544 65.4478C99.919 65.4786 100.391 65.7379 100.792 66.1359C100.935 66.2797 101.087 66.4106 101.238 66.5493C101.613 66.8907 102.054 67.0987 102.56 67.1244C103.037 67.1501 103.515 67.1295 104.056 67.1295L104.054 67.1321Z" fill="black"></path></svg>