<svg width="30" height="30" viewBox="0 0 30 30" fill="none" xmlns="http://www.w3.org/2000/svg">
                  <path d="M12.6458 0.618286C12.5832 0.672596 12.4829 0.747794 12.4453 0.814637C12.5372 0.789571 12.6082 0.735261 12.6458 0.618286Z" fill="#FDB809" />
                  <path d="M28.168 8.41388L28.2223 8.49325C28.2223 8.47237 28.2306 8.45148 28.2348 8.43059L28.168 8.41388Z" fill="#FDB809" />
                  <path d="M28.2344 8.43058L28.4767 8.49324C28.297 8.29689 28.2553 8.33867 28.2344 8.43058Z" fill="#FDB809" />
                  <path d="M0.678767 13.2182C0.649524 13.3269 0.63699 13.4229 0.632812 13.519L0.67041 13.5399C0.733076 13.494 0.695478 13.3101 0.678767 13.2182Z" fill="#FDB809" />
                  <path d="M0.425781 11.4928C0.44667 11.5806 0.488447 11.6683 0.534402 11.7519C0.509336 11.6223 0.542757 11.4218 0.425781 11.4928Z" fill="#FDB809" />
                  <path d="M12.6735 0.526398C12.6693 0.563997 12.6568 0.589063 12.6484 0.618307C12.6902 0.580707 12.7069 0.547286 12.6735 0.526398Z" fill="#FDB809" />
                  <path d="M29.9141 15.1065C29.9266 15.282 29.9308 15.4575 29.9558 15.6371C30.0352 15.2319 29.9976 15.1065 29.9141 15.1065Z" fill="#FDB809" />
                  <path d="M17.804 1.40372C17.7371 1.37865 17.6661 1.34941 17.5742 1.32434C17.6578 1.36612 17.7371 1.39118 17.804 1.40372Z" fill="#FDB809" />
                  <path d="M5.78906 5.61481C5.79324 5.59393 5.80159 5.56886 5.80577 5.54379C5.79742 5.56468 5.79324 5.58975 5.78906 5.61481Z" fill="#FDB809" />
                  <path
                    d="M29.5353 11.6892C29.481 11.4051 29.4268 11.121 29.3684 10.8369C29.2891 10.557 29.189 10.2855 29.0888 10.0139C28.9011 9.46247 28.5798 8.96114 28.2252 8.49742C28.2085 8.60186 28.196 8.72719 28.0875 8.71884C28.0875 8.58097 28.0124 8.41805 27.954 8.29271C27.8956 8.16738 27.8747 8.06712 28.0082 8.0337L28.0833 8.08801C27.8789 7.85823 27.833 7.54908 27.8121 7.25247C27.7996 7.10207 27.7954 6.96003 27.7787 6.83052C27.7579 6.70937 27.7203 6.60075 27.6661 6.52973C27.253 6.52973 27.0027 5.41011 26.7232 5.98663C26.7399 5.79863 26.7315 5.63153 26.7357 5.44771C26.4853 5.48531 26.3226 5.71508 26.0765 5.60646C25.8345 5.27224 25.9888 5.10514 26.3185 5.25553C25.4047 3.89778 23.7776 2.71132 22.2213 2.11809C22.3966 2.10556 22.5718 2.08884 22.7429 2.09302C22.4466 1.76716 21.22 1.8716 21.825 1.39535C21.3994 1.32015 20.8862 1.09455 20.444 0.935802C20.0017 0.768695 19.622 0.739451 19.4969 1.07784C19.33 0.689319 18.8627 0.459546 18.2911 0.384347C17.7153 0.330038 17.0603 0.313326 16.4887 0.359281C16.6389 0.981757 15.5583 0.459546 15.262 0.772873C15.1828 0.551455 15.4122 0.392703 15.6709 0.313327C15.9296 0.225595 16.2175 0.154575 16.2383 0C15.9296 0.175463 15.5833 0.183818 15.212 0.221417C14.8448 0.242305 14.4568 0.213062 14.0855 0.196351C13.3511 0.208884 12.6878 0.313327 12.5709 0.93998C12.4291 0.927447 12.4166 0.881492 12.4541 0.823005C12.2413 0.873137 11.9034 0.747806 11.6739 0.751984C11.5988 0.985934 12.087 0.960868 11.5946 1.16975C11.1774 1.23242 11.3109 0.852248 11.0981 0.747806C10.7435 1.00682 10.2804 1.28673 9.9174 1.5541C9.55858 1.83401 9.31242 2.13898 9.35832 2.38128C9.09547 2.36457 8.74083 2.23089 8.93692 2.03036C8.68659 2.25177 8.49884 2.39799 8.34447 2.51915C8.18592 2.63194 8.04824 2.69879 7.90638 2.76563C7.6477 2.88261 7.36816 2.99123 6.98014 3.39646C7.13034 3.15416 6.83829 2.90767 7.4224 2.73639C7.00518 2.57346 6.61716 2.93274 6.19576 3.32544C5.97881 3.51761 5.79106 3.7641 5.57827 3.97298C5.36966 4.18605 5.14436 4.36569 4.88568 4.48266C4.88985 4.69155 4.90237 4.89625 4.91071 5.09678C4.54773 5.61064 4.20143 5.36833 4.39336 4.9255C4.15971 5.08425 3.96779 5.243 3.80924 5.40175C3.65904 5.56886 3.54639 5.74015 3.43791 5.90725C3.23765 6.24982 3.0499 6.55479 2.84128 6.92243C2.77036 6.93496 2.71612 6.85559 2.81208 6.74697L2.16121 7.79139C2.19042 7.95014 2.20293 8.44729 2.49082 8.49324C2.41154 8.37209 2.36565 8.23423 2.39485 8.06294C2.42823 7.89583 2.5534 7.70366 2.79539 7.46553C3.39202 7.6034 2.46161 8.06712 2.97479 8.29271C3.04572 7.93761 3.10414 7.66188 3.44209 7.68695C3.57143 8.09218 3.04155 8.276 3.40454 8.62693C3.4254 8.45147 3.46712 8.28018 3.49632 8.10472C3.6507 8.04205 3.75918 8.10472 3.84262 8.17992C3.57143 8.63111 3.32944 9.10318 3.11248 9.5878C3.1542 9.09483 2.7495 8.84417 2.5242 8.54338C2.35313 8.97785 2.14035 9.39145 2.02353 9.84681C1.86081 9.77579 1.85247 9.53349 1.91505 9.28283C1.98598 9.03634 2.09863 8.77315 2.11532 8.63111C1.91088 8.05041 1.49782 9.19927 1.25166 8.92354C1.41438 9.22852 1.14318 9.74237 1.13067 10.1309H0.926229C0.821923 10.2771 0.755166 10.4192 0.730133 10.5612C0.709272 10.7032 0.717616 10.8453 0.730133 10.9831C0.755166 11.2631 0.813578 11.5304 0.730133 11.827C0.663377 11.8688 0.621654 11.8688 0.592448 11.8521C0.742649 12.1069 0.988813 12.3743 1.0055 12.7461L1.02636 12.4662C1.21411 12.7587 1.33928 13.214 1.49365 13.4981C1.56875 13.6402 1.65637 13.7404 1.76485 13.7571C1.83578 13.7697 1.91922 13.7404 2.01518 13.6652C1.9818 13.9744 1.96094 14.2877 1.94843 14.601C1.93591 14.6846 1.92339 14.7681 1.9067 14.8517C1.41021 14.6971 0.63417 14.3838 0.63417 13.5315L0.433904 13.4104C0.241982 13.7112 0.337942 14.1791 0.504832 14.5008C0.680066 14.8266 0.951261 15.0021 1.17656 14.8099C1.75233 15.1274 1.81909 15.6204 1.76068 16.1927C1.72313 16.4768 1.71061 16.7776 1.73564 17.0659C1.76068 17.3541 1.82326 17.6299 1.98598 17.8471C1.66889 17.985 1.4561 17.4586 1.18908 17.2413C1.10563 16.9405 1.06391 16.7149 1.33928 16.6606C1.19742 16.0173 0.947091 16.0925 0.72179 16.1593C0.500661 16.2261 0.312911 16.2679 0.333772 15.4783C0.467283 14.7222 0.913711 16.3807 0.905366 15.2778C0.579932 15.023 0.304566 14.7472 0.00416464 14.459C-0.0333855 15.1817 0.191913 15.8293 0.321252 16.3849C0.771854 17.9265 1.10981 19.184 1.39352 20.0863C1.53538 20.5333 1.60213 20.9093 1.68558 21.1516C1.76068 21.3981 1.78988 21.5402 1.78988 21.5402C2.8246 23.6039 4.2974 25.4463 6.12483 26.8249C7.94393 28.2078 10.0676 29.1728 12.2872 29.6198C12.9923 29.7076 13.4763 29.7284 13.856 29.67C14.2357 29.5948 14.5194 29.3733 14.8031 28.9347C14.6696 28.8344 14.4067 28.7968 14.2106 28.7425C14.098 28.7133 14.0104 28.6715 13.9853 28.613C14.4818 28.6673 14.9825 28.6966 15.4915 28.6966C17.3064 28.6966 19.0379 28.3373 20.6234 27.6856C20.6567 27.6814 20.6901 27.6772 20.7235 27.673V27.6479C20.8487 27.5936 20.978 27.5352 21.1032 27.4767C21.1199 27.4767 21.1324 27.4808 21.1532 27.4808C21.1407 27.4808 21.1365 27.4683 21.1282 27.4641C21.8625 27.1299 22.5593 26.7289 23.2143 26.2735L23.8819 26.0354C23.8401 25.9643 23.8318 25.8891 23.8318 25.8139C23.9778 25.7011 24.1197 25.5842 24.2615 25.4672C24.2908 25.5925 24.3784 25.6761 24.5286 25.6803C24.7539 25.3293 24.9833 24.9993 25.1836 24.6484C25.0668 24.7737 24.9333 24.9116 24.8165 24.9701C25.0751 24.7236 25.3255 24.4729 25.5633 24.2055C25.7427 24.1554 25.8887 24.0468 25.9012 23.817C26.089 23.5914 26.2684 23.3575 26.4436 23.1235C26.4228 23.2488 26.4019 23.3784 26.381 23.4911C26.5104 23.1444 26.6689 22.9313 26.8358 22.7809C26.986 22.618 27.1529 22.5136 27.3031 22.4091C27.4491 22.3047 27.5826 22.2002 27.6577 22.029C27.7412 21.866 27.7495 21.6279 27.6494 21.277C27.5993 21.3438 27.5367 21.4065 27.4783 21.4733C27.6244 21.1976 27.7579 20.9177 27.883 20.6336C28.0166 20.8383 28.0791 21.114 28.0708 21.3856L28.1417 20.5709C28.3587 20.5417 28.5506 20.4999 28.7592 20.4581C28.7425 20.1448 28.7759 19.8983 28.8468 19.6686C28.8802 19.5516 28.9261 19.443 28.9762 19.326C29.0179 19.209 29.0638 19.0879 29.1097 18.9584L29.1222 19.0461C29.5019 18.7996 29.5019 18.4487 29.4601 18.0936C29.4017 17.7343 29.2682 17.3625 29.4601 17.0032C29.481 17.0909 29.5436 17.0366 29.5895 17.2079L29.6229 16.5478L29.7605 16.5311C29.4017 16.5311 29.2849 15.871 29.0262 15.5786C29.0304 15.424 29.0388 15.2736 29.0388 15.1149C29.0388 15.0063 29.0346 14.8976 29.0304 14.789C29.0888 15.0146 29.481 15.1567 29.2432 15.5619C29.3892 15.5619 29.7439 15.1149 29.9108 15.1107C29.8023 14.5384 29.7981 13.9702 29.7397 13.402C29.6604 12.838 29.6604 12.2573 29.5311 11.6934L29.5353 11.6892ZM25.8971 4.98398C26.0681 5.52291 25.58 5.15109 25.4256 5.243L25.9847 5.79028C25.6008 5.88219 25.3755 5.62317 25.1461 5.58975C25.0125 5.45606 24.879 5.32238 24.7414 5.19705C24.8623 5.18034 24.9667 5.12185 25.0668 5.05918C25.2921 4.91296 25.5216 4.70826 25.8929 4.98816L25.8971 4.98398ZM22.722 3.42988L22.7595 3.57192C23.0266 3.53433 23.3061 3.49255 23.569 3.48419C23.8318 3.8393 24.1155 4.26124 24.1489 4.66648C23.8694 4.43253 23.5773 4.21111 23.2769 4.00223C23.3186 3.96045 23.3603 3.91867 23.4062 3.88107C23.1309 3.62623 23.1058 3.73068 23.0599 3.84765C22.8972 3.73903 22.7303 3.63041 22.5634 3.53015C22.5843 3.46748 22.6219 3.41735 22.722 3.42988ZM19.7806 1.85907C20.3188 2.13898 20.8779 2.43142 21.4912 2.50244C21.487 2.71132 21.2325 2.49826 21.0614 2.49408C21.3702 3.05807 21.5413 2.6403 21.8959 2.65283C22.1337 2.78652 22.3548 2.99958 22.4633 3.18758C22.5259 3.2962 22.5384 3.39646 22.4967 3.48419C21.3368 2.78234 20.0643 2.25177 18.7125 1.92174C18.7458 1.83818 18.7876 1.76716 18.8543 1.73792L18.2702 1.7045C18.7 1.44966 19.2423 1.60423 19.7847 1.85489L19.7806 1.85907ZM14.8114 1.44966C15.1702 1.35357 15.5416 1.23242 15.6793 1.49144L15.4832 1.18646C16.0464 1.31179 16.5638 1.18646 17.1062 1.09455C17.3774 1.05278 17.6527 1.00682 17.9364 0.969224C18.0783 0.952513 18.2243 0.935802 18.3704 0.927447C18.5164 0.927447 18.6624 0.944158 18.8126 0.960868C18.4288 1.01936 18.266 1.49143 17.7946 1.4037C18.0825 1.52068 18.1242 1.65019 18.0908 1.78805C17.2438 1.62094 16.3718 1.53321 15.479 1.53321C14.9533 1.53321 14.4318 1.56663 13.9227 1.62512C13.9978 1.52068 14.0312 1.43295 13.9436 1.3661C14.1022 1.61677 14.4484 1.54992 14.8073 1.4413L14.8114 1.44966ZM12.6836 1.53739C12.7837 1.4037 12.9131 1.29926 13.1509 1.31179C13.1384 1.41624 12.9965 1.63348 12.959 1.77552C12.7837 1.80894 12.6127 1.84654 12.4416 1.88414C12.5334 1.7797 12.6043 1.65437 12.6878 1.53739H12.6836ZM12.3832 1.86743V1.90085C12.3248 1.91338 12.2705 1.92591 12.2121 1.93845C12.2747 1.91756 12.3331 1.89249 12.3832 1.86743ZM10.7894 1.95516C10.585 2.38546 11.2316 2.08467 11.4486 2.15151C11.023 2.2852 10.6058 2.43977 10.1969 2.61106C10.2428 2.29355 10.2261 2.01365 10.7894 1.95516ZM9.44176 2.96198C9.28739 3.04136 9.12884 3.12073 8.97864 3.20429C9.00785 3.1082 9.0454 3.00794 9.11216 2.91185C9.26653 2.88261 9.36666 2.91185 9.44176 2.96198ZM5.18608 6.19134C5.02754 5.94485 5.17357 5.6733 5.36966 5.3934C5.55741 5.10096 5.84946 4.85448 5.92039 4.55786C6.13318 4.51608 6.32093 4.42417 6.48782 4.30302C6.65888 4.18604 6.82994 4.05236 6.98431 3.89361C7.14286 3.73903 7.29306 3.56775 7.44326 3.39646C7.59346 3.22518 7.76452 3.08731 7.93141 2.9578C8.0983 3.19175 8.0232 3.53432 8.08161 3.74321C7.95645 3.82676 7.83128 3.91032 7.70611 3.99805C7.63101 4.03983 7.56426 4.08578 7.51002 4.14009C7.33896 4.26542 7.17206 4.39075 7.00935 4.52444C6.96762 4.5495 6.92591 4.57875 6.88418 4.60799C6.73398 4.71661 6.5963 4.83776 6.47113 4.96309C6.45027 4.98816 6.4294 5.00905 6.40854 5.03412C6.19576 5.22629 5.98715 5.42682 5.78688 5.6357C5.78688 5.63153 5.78688 5.62735 5.78688 5.62317C5.78688 5.62735 5.78688 5.6357 5.78271 5.63988C5.69926 5.72343 5.61582 5.81117 5.53655 5.8989C5.39052 5.91561 5.23198 5.86548 5.18608 6.19551V6.19134ZM2.14452 10.344C2.45327 10.3732 2.60764 10.3816 2.75367 10.4359C2.62016 10.7993 2.50333 11.1711 2.4032 11.5471C2.30307 11.1335 2.2071 10.7158 2.14452 10.344ZM2.27386 18.1521C2.31141 18.3066 2.34479 18.4612 2.38651 18.6158C2.253 18.4236 2.00267 18.2022 2.0277 17.9139C2.09863 18.056 2.18207 18.1228 2.26969 18.1521H2.27386ZM2.24883 19.0586C2.37399 18.9918 2.43658 18.9249 2.45327 18.8581C2.51585 19.0753 2.58261 19.2884 2.65353 19.5015C2.51585 19.443 2.37817 19.3135 2.24883 19.0586ZM5.45728 24.427C5.2737 24.3058 5.06091 24.2557 4.84396 24.2222C4.39336 24.1679 3.94693 24.147 3.55057 23.8463L3.83845 23.7126C3.32526 23.1402 3.23765 22.9313 2.74115 22.4467C2.60764 21.114 3.3795 23.324 3.83428 22.6305L3.55474 22.4091C3.69659 22.4133 3.87183 22.405 4.05123 22.4008C4.59362 23.2488 5.21946 24.0342 5.92874 24.7403C5.88702 24.8155 5.87868 24.9074 5.95795 25.0327C5.79106 24.7445 5.6492 24.5356 5.45728 24.4186V24.427ZM10.7811 27.8527C10.7811 27.8527 10.7977 27.861 10.8061 27.861C10.8061 27.861 10.7977 27.861 10.7936 27.8652C10.7894 27.861 10.7852 27.8568 10.7811 27.8527ZM12.6544 28.7467C12.6544 28.4166 13.3053 28.684 13.1467 28.5838L13.0215 28.542C13.0382 28.5169 13.0549 28.496 13.0716 28.4751C13.3511 28.5253 13.6307 28.567 13.9144 28.6005C13.6766 28.8052 13.2218 28.8678 12.6544 28.7467ZM23.2352 26.2526C23.2769 26.2234 23.3144 26.1941 23.3562 26.1649C23.327 26.1941 23.2811 26.2234 23.2352 26.2526ZM28.7175 19.0544C28.6048 19.3218 28.3795 19.6351 28.5089 19.8482C28.3545 20.1072 28.1584 20.291 27.9873 20.3829C28.2293 19.8106 28.4296 19.2174 28.5923 18.6074C28.5923 18.6409 28.5882 18.6743 28.584 18.7119C28.9136 18.5991 28.8427 18.7871 28.7217 19.0544H28.7175ZM29.0262 16.74C29.0137 16.9364 28.9678 17.0032 28.9094 17.0283C28.9261 16.9071 28.9428 16.7901 28.9553 16.669C28.9803 16.694 29.0054 16.7191 29.0262 16.7442V16.74ZM29.0721 18.3025C28.8135 18.5281 28.7133 18.3442 28.6591 18.3359C28.7384 18.0142 28.8051 17.6842 28.8594 17.3541C28.9178 17.4335 28.9803 17.5045 29.0346 17.5839C29.1556 17.7594 29.2348 17.9641 29.0721 18.3025ZM29.0096 16.4476C29.0096 16.4476 28.9887 16.4309 28.9803 16.4267C28.9929 16.293 29.0012 16.1593 29.0096 16.0214C29.1222 16.105 29.2432 16.1677 29.0096 16.4476ZM29.3308 15.023L29.1389 14.5049C29.0763 14.576 29.0471 14.6386 29.0346 14.6929C28.9345 11.4385 27.6953 8.47235 25.6968 6.18298C25.8428 6.32502 26.0264 6.47542 26.3393 6.65506L26.3477 6.57986C26.623 6.60911 26.8442 6.85141 27.0361 7.12714C27.228 7.40704 27.349 7.74544 27.5201 7.94179C27.1946 7.89583 26.9109 7.41958 26.598 7.1898C26.7816 7.74544 27.6327 8.83581 28.3044 9.08647C28.3378 9.25358 28.3879 9.51678 28.367 9.69642C28.3378 9.88024 28.2544 9.97215 28.075 9.7925C28.3795 10.8912 28.9595 9.97215 29.1347 10.9915L28.7425 11.0709C28.6716 11.3758 28.7008 11.6432 28.7801 11.8981C28.8635 12.1529 28.9929 12.391 29.0888 12.6417C29.2974 13.1388 29.5478 13.6569 29.2933 14.1916L29.7814 14.225C29.5895 14.4673 29.5144 14.9311 29.3308 15.0188V15.023Z"
                    fill="#FDB809"
                  />
                  <path d="M2.47683 8.48907L2.51025 8.53921L2.52697 8.49743C2.50608 8.49743 2.48937 8.48907 2.47266 8.48907H2.47683Z" fill="#FDB809" />
                  <path d="M28.0719 21.3731L28.0469 21.6363C28.0636 21.5527 28.0678 21.465 28.0719 21.3731Z" fill="#FDB809" />
                  <path d="M0.615995 19.819C0.904256 19.6435 0.724616 19.1087 0.574219 19.0085C0.682839 19.1714 0.666127 19.5349 0.615995 19.819Z" fill="#FDB809" />
                  <path d="M14.8296 29.7661C14.6585 30.1003 15.2969 29.9123 15.4846 30C15.518 29.9165 15.1258 29.4611 14.8296 29.7661Z" fill="#FDB809" />
                  <path d="M21 11.7597L12.6923 20L8 15.3458L9.77408 13.5863L12.6923 16.4806L19.2262 10L21 11.7597Z" fill="black" />
                </svg>