<svg xmlns="http://www.w3.org/2000/svg" width="160" height="160" viewBox="0 0 160 160" fill="none"><path d="M67.4367 3.29773C67.1025 3.58738 66.5677 3.98844 66.3672 4.34494C66.8574 4.21125 67.2362 3.9216 67.4367 3.29773Z" fill="#FDB809"></path><path d="M150.23 44.8738L150.52 45.2971C150.52 45.1857 150.565 45.0743 150.587 44.9629L150.23 44.8738Z" fill="#FDB809"></path><path d="M150.594 44.9632L151.886 45.2974C150.928 44.2502 150.705 44.473 150.594 44.9632Z" fill="#FDB809"></path><path d="M3.60838 70.4973C3.45241 71.0766 3.38556 71.5891 3.36328 72.1015L3.5638 72.2129C3.89802 71.9679 3.6975 70.9875 3.60838 70.4973Z" fill="#FDB809"></path><path d="M2.26562 61.2953C2.37703 61.7632 2.59985 62.2311 2.84494 62.6767C2.71125 61.986 2.8895 60.9165 2.26562 61.2953Z" fill="#FDB809"></path><path d="M67.5829 2.80713C67.5606 3.00766 67.4938 3.14134 67.4492 3.29731C67.672 3.09678 67.7611 2.91853 67.5829 2.80713Z" fill="#FDB809"></path><path d="M159.543 80.5682C159.61 81.504 159.632 82.4398 159.766 83.3979C160.189 81.2367 159.989 80.5682 159.543 80.5682Z" fill="#FDB809"></path><path d="M94.952 7.48632C94.5955 7.35264 94.2167 7.19667 93.7266 7.06299C94.1722 7.2858 94.5955 7.41948 94.952 7.48632Z" fill="#FDB809"></path><path d="M30.8633 29.9457C30.8856 29.8343 30.9301 29.7006 30.9524 29.5669C30.9078 29.6783 30.8856 29.812 30.8633 29.9457Z" fill="#FDB809"></path><path d="M157.522 62.3423C157.233 60.8271 156.944 59.312 156.632 57.7969C156.21 56.3041 155.675 54.8558 155.141 53.4076C154.14 50.4665 152.427 47.7927 150.535 45.3196C150.446 45.8766 150.379 46.545 149.801 46.5005C149.801 45.7652 149.4 44.8962 149.089 44.2278C148.777 43.5594 148.666 43.0246 149.378 42.8464L149.779 43.136C148.688 41.9106 148.444 40.2618 148.332 38.6798C148.266 37.8777 148.243 37.1202 148.154 36.4294C148.043 35.7833 147.843 35.204 147.553 34.8252C145.351 34.8252 144.015 28.8539 142.524 31.9287C142.613 30.926 142.569 30.0348 142.591 29.0544C141.256 29.255 140.388 30.4804 139.075 29.9011C137.785 28.1186 138.608 27.2274 140.366 28.0295C135.493 20.7882 126.815 14.4604 118.515 11.2965C119.449 11.2296 120.384 11.1405 121.296 11.1628C119.716 9.42486 113.174 9.98189 116.401 7.44186C114.131 7.0408 111.394 5.83762 109.035 4.99094C106.676 4.0997 104.651 3.94374 103.984 5.7485C103.094 3.67637 100.602 2.45091 97.5531 2.04985C94.4823 1.7602 90.9887 1.67107 87.9401 1.91616C88.7412 5.23603 82.9779 2.45091 81.398 4.12199C80.9752 2.94109 82.1991 2.09441 83.5788 1.67108C84.9584 1.20317 86.4938 0.824397 86.605 0C84.9584 0.935802 83.1115 0.980361 81.131 1.18089C79.1728 1.2923 77.1034 1.13633 75.123 1.04721C71.2066 1.11405 67.6685 1.67108 67.0454 5.01323C66.2889 4.94638 66.2221 4.70129 66.4224 4.38936C65.2875 4.65673 63.4851 3.9883 62.2613 4.01058C61.8607 5.25832 64.4642 5.12463 61.8385 6.23868C59.6133 6.57289 60.3253 4.54532 59.1905 3.9883C57.299 5.36972 54.8291 6.86255 52.8931 8.28853C50.9794 9.78136 49.6666 11.4079 49.9114 12.7002C48.5095 12.611 46.6181 11.8981 47.6639 10.8286C46.3288 12.0095 45.3274 12.7893 44.5041 13.4354C43.6585 14.037 42.9242 14.3935 42.1676 14.75C40.788 15.3739 39.2971 15.9532 37.2277 18.1145C38.0288 16.8222 36.4711 15.5076 39.5864 14.5941C37.3612 13.7251 35.2917 15.6413 33.0443 17.7357C31.8872 18.7606 30.8858 20.0752 29.751 21.1892C28.6384 22.3256 27.4368 23.2836 26.0571 23.9075C26.0794 25.0216 26.1461 26.1133 26.1906 27.1828C24.2547 29.9234 22.4078 28.6311 23.4314 26.2693C22.1853 27.116 21.1617 27.9627 20.3161 28.8093C19.515 29.7006 18.9142 30.6141 18.3357 31.5053C17.2676 33.3324 16.2662 34.9589 15.1536 36.9196C14.7753 36.9865 14.486 36.5631 14.9978 35.9838L11.5265 41.5541C11.6823 42.4007 11.7491 45.0522 13.2844 45.2973C12.8617 44.6511 12.6169 43.9159 12.7726 43.0023C12.9507 42.1111 13.6182 41.0862 14.9088 39.8162C18.0909 40.5514 13.1287 43.0246 15.8657 44.2278C16.244 42.3339 16.5555 40.8634 18.3579 40.997C19.0477 43.1583 16.2217 44.1387 18.1577 46.0103C18.2689 45.0745 18.4914 44.1609 18.6472 43.2251C19.4705 42.8909 20.0491 43.2251 20.4941 43.6262C19.0477 46.0326 17.7571 48.5503 16.6 51.1349C16.8225 48.5057 14.6641 47.1689 13.4625 45.5646C12.5501 47.8819 11.4153 50.0877 10.7922 52.5163C9.92438 52.1375 9.87988 50.8452 10.2137 49.5084C10.592 48.1938 11.1927 46.7901 11.2818 46.0325C10.1914 42.9355 7.98845 49.0628 6.67558 47.5922C7.54341 49.2187 6.09702 51.9593 6.03026 54.0314H4.93992C4.38362 54.8113 4.02758 55.5688 3.89407 56.3264C3.78281 57.0839 3.82731 57.8415 3.89407 58.5768C4.02758 60.0696 4.33911 61.4956 3.89407 63.0775C3.53803 63.3003 3.31551 63.3003 3.15974 63.2112C3.96082 64.5704 5.2737 65.9963 5.36271 67.9793L5.47396 66.4865C6.47531 68.0462 7.14287 70.4748 7.9662 71.9899C8.36674 72.7475 8.83403 73.2822 9.41259 73.3713C9.79087 73.4382 10.2359 73.2822 10.7477 72.8812C10.5697 74.53 10.4584 76.201 10.3917 77.8721C10.3249 78.3177 10.2582 78.7634 10.1692 79.209C7.52115 78.3846 3.38226 76.7135 3.38226 72.1682L2.31417 71.522C1.29058 73.1263 1.80237 75.6217 2.69245 77.3374C3.62704 79.0753 5.07343 80.0111 6.27504 78.9861C9.34583 80.6795 9.70186 83.3087 9.39033 86.3612C9.19006 87.8763 9.12331 89.4805 9.25683 91.0179C9.39034 92.5553 9.72412 94.0258 10.5919 95.1844C8.90079 95.9197 7.76592 93.1123 6.34179 91.9537C5.89675 90.3495 5.67423 89.1463 7.14287 88.8566C6.3863 85.4254 5.05118 85.8264 3.84957 86.1829C2.67021 86.5394 1.66887 86.7622 1.78013 82.5511C2.49219 78.5183 4.87316 87.3638 4.82865 81.4816C3.09299 80.1225 1.62436 78.6519 0.0222116 77.1146C-0.178057 80.9692 1.02354 84.4227 1.71336 87.3861C4.11658 95.6078 5.91902 102.314 7.43216 107.127C8.18873 109.511 8.54475 111.516 8.98979 112.809C9.39033 114.123 9.5461 114.881 9.5461 114.881C15.0646 125.888 22.9196 135.714 32.666 143.066C42.3679 150.441 53.6942 155.588 65.5323 157.972C69.2929 158.44 71.8742 158.552 73.8991 158.24C75.924 157.839 77.4372 156.658 78.9503 154.318C78.2383 153.783 76.8364 153.583 75.7905 153.293C75.1897 153.137 74.7224 152.915 74.5889 152.603C77.2369 152.892 79.9072 153.048 82.6219 153.048C92.3016 153.048 101.536 151.132 109.992 147.656C110.17 147.634 110.348 147.612 110.526 147.589V147.456C111.194 147.166 111.883 146.854 112.551 146.542C112.64 146.542 112.707 146.564 112.818 146.564C112.751 146.564 112.729 146.498 112.684 146.475C116.601 144.693 120.317 142.554 123.811 140.125L127.371 138.855C127.148 138.476 127.104 138.075 127.104 137.674C127.883 137.073 128.639 136.449 129.396 135.825C129.552 136.493 130.019 136.939 130.82 136.961C132.022 135.09 133.245 133.33 134.313 131.458C133.69 132.126 132.978 132.862 132.355 133.174C133.735 131.859 135.07 130.522 136.338 129.096C137.295 128.829 138.074 128.249 138.141 127.024C139.142 125.821 140.099 124.573 141.034 123.325C140.922 123.994 140.811 124.685 140.7 125.286C141.39 123.437 142.235 122.3 143.125 121.498C143.926 120.629 144.816 120.072 145.618 119.515C146.396 118.958 147.108 118.401 147.509 117.488C147.954 116.619 147.998 115.349 147.464 113.477C147.197 113.834 146.864 114.168 146.552 114.524C147.331 113.054 148.043 111.561 148.711 110.046C149.423 111.138 149.756 112.608 149.712 114.056L150.09 109.712C151.247 109.556 152.271 109.333 153.383 109.11C153.294 107.439 153.473 106.124 153.851 104.899C154.029 104.275 154.274 103.696 154.541 103.072C154.763 102.448 155.008 101.802 155.253 101.111L155.319 101.579C157.344 100.265 157.344 98.3929 157.122 96.499C156.81 94.5829 156.098 92.5998 157.122 90.6837C157.233 91.1516 157.567 90.8619 157.812 91.7755L157.99 88.2551L158.724 88.1659C156.81 88.1659 156.187 84.6455 154.808 83.0859C154.83 82.2615 154.874 81.4594 154.874 80.6127C154.874 80.0334 154.852 79.4541 154.83 78.8748C155.141 80.0779 157.233 80.8355 155.965 82.9967C156.744 82.9967 158.635 80.6127 159.525 80.5904C158.947 77.5379 158.924 74.5077 158.613 71.4775C158.19 68.4695 158.19 65.3725 157.5 62.3645L157.522 62.3423ZM138.119 26.5812C139.031 29.4555 136.427 27.4725 135.604 27.9627L138.586 30.8815C136.539 31.3716 135.337 29.9902 134.113 29.812C133.401 29.099 132.689 28.386 131.955 27.7176C132.6 27.6284 133.156 27.3165 133.69 26.9823C134.892 26.2025 136.116 25.1107 138.096 26.6035L138.119 26.5812ZM121.185 18.2927L121.385 19.0503C122.809 18.8497 124.3 18.6269 125.702 18.5824C127.104 20.4762 128.617 22.7266 128.795 24.8879C127.304 23.6401 125.746 22.4593 124.144 21.3452C124.367 21.1224 124.589 20.8996 124.834 20.699C123.365 19.3399 123.232 19.8969 122.987 20.5208C122.119 19.9415 121.229 19.3622 120.339 18.8274C120.45 18.4932 120.651 18.2259 121.185 18.2927ZM105.497 9.91504C108.368 11.4079 111.349 12.9675 114.62 13.3463C114.598 14.4604 113.241 13.324 112.328 13.3018C113.975 16.3097 114.887 14.0816 116.779 14.1484C118.047 14.8614 119.227 15.9978 119.805 17.0004C120.139 17.5797 120.206 18.1145 119.983 18.5824C113.797 14.8391 107.01 12.0095 99.8005 10.2493C99.9785 9.80364 100.201 9.42486 100.557 9.2689L97.4418 9.09065C99.7337 7.73151 102.627 8.55591 105.519 9.89277L105.497 9.91504ZM78.9948 7.73151C80.9085 7.21904 82.8889 6.5729 83.6232 7.95432L82.5774 6.32781C85.5814 6.99624 88.3407 6.3278 91.2335 5.83762C92.6799 5.61481 94.1485 5.36972 95.6616 5.16919C96.4182 5.08007 97.197 4.99094 97.9759 4.94638C98.7547 4.94638 99.5335 5.0355 100.335 5.12463C98.2874 5.43656 97.4195 7.95432 94.9051 7.48641C96.4404 8.11028 96.6629 8.80099 96.4849 9.53627C91.9678 8.64503 87.3171 8.17713 82.5551 8.17713C79.7514 8.17713 76.9699 8.35537 74.2551 8.66731C74.6557 8.11028 74.8337 7.64239 74.3664 7.28589C75.212 8.62275 77.0589 8.26625 78.9726 7.68694L78.9948 7.73151ZM67.6463 8.19941C68.1803 7.48642 68.8701 6.92939 70.1385 6.99623C70.0717 7.55326 69.3152 8.71187 69.1149 9.46943C68.1803 9.64767 67.268 9.8482 66.3556 10.0487C66.8452 9.49171 67.2235 8.82328 67.6685 8.19941H67.6463ZM66.0441 9.95961V10.1379C65.7326 10.2047 65.4433 10.2715 65.1318 10.3384C65.4655 10.227 65.7771 10.0933 66.0441 9.95961ZM57.5438 10.4275C56.4534 12.7225 59.9025 11.1182 61.0596 11.4747C58.7899 12.1877 56.5647 13.0121 54.384 13.9256C54.6288 12.2323 54.5398 10.7394 57.5438 10.4275ZM50.3564 15.7972C49.5331 16.2206 48.6875 16.6439 47.8864 17.0895C48.0422 16.5771 48.2425 16.0423 48.5985 15.5299C49.4218 15.3739 49.9559 15.5299 50.3564 15.7972ZM27.6593 33.0204C26.8137 31.7059 27.5925 30.2576 28.6384 28.7648C29.6397 27.2051 31.1974 25.8905 31.5756 24.3086C32.7105 24.0858 33.7118 23.5956 34.6019 22.9494C35.5143 22.3256 36.4266 21.6126 37.2499 20.7659C38.0955 19.9415 38.8966 19.028 39.6977 18.1145C40.4987 17.2009 41.4111 16.4657 42.3012 15.775C43.1912 17.0227 42.7907 18.8497 43.1022 19.9638C42.4347 20.4094 41.7671 20.855 41.0995 21.3229C40.699 21.5457 40.343 21.7908 40.0537 22.0805C39.1414 22.7489 38.2513 23.4173 37.3834 24.1303C37.1609 24.264 36.9384 24.42 36.7159 24.5759C35.9148 25.1553 35.1805 25.8014 34.5129 26.4698C34.4017 26.6035 34.2904 26.7149 34.1791 26.8486C33.0443 27.8735 31.9317 28.943 30.8636 30.0571C30.8636 30.0348 30.8636 30.0125 30.8636 29.9902C30.8636 30.0125 30.8636 30.0571 30.8413 30.0794C30.3963 30.525 29.9512 30.9929 29.5285 31.4608C28.7496 31.5499 27.9041 31.2825 27.6593 33.0427V33.0204ZM11.4375 55.1678C13.0842 55.3237 13.9075 55.3683 14.6863 55.6579C13.9743 57.5964 13.3512 59.5794 12.8172 61.5847C12.2831 59.3789 11.7713 57.1508 11.4375 55.1678ZM12.1273 96.811C12.3276 97.6353 12.5056 98.4597 12.7281 99.2841C12.0161 98.2592 10.681 97.0783 10.8145 95.5409C11.1927 96.2985 11.6378 96.655 12.1051 96.811H12.1273ZM11.9938 101.646C12.6614 101.289 12.9952 100.933 13.0842 100.576C13.4179 101.735 13.774 102.871 14.1523 104.008C13.418 103.696 12.6836 103.005 11.9938 101.646ZM29.1057 130.277C28.1266 129.631 26.9917 129.364 25.8346 129.185C23.4314 128.896 21.0504 128.784 18.9365 127.18L20.4719 126.467C17.7349 123.414 17.2676 122.3 14.6196 119.716C13.9075 112.608 18.0241 124.395 20.4496 120.696L18.9587 119.515C19.7153 119.538 20.6499 119.493 21.6067 119.471C24.4995 123.994 27.8373 128.183 31.6201 131.948C31.3976 132.349 31.3531 132.839 31.7759 133.508C30.8858 131.97 30.1293 130.856 29.1057 130.232V130.277ZM57.4993 148.547C57.4993 148.547 57.5883 148.592 57.6328 148.592C57.6328 148.592 57.5883 148.592 57.5661 148.614C57.5438 148.592 57.5216 148.57 57.4993 148.547ZM67.4905 153.316C67.4905 151.555 70.9618 152.981 70.1162 152.447L69.4487 152.224C69.5377 152.09 69.6267 151.979 69.7157 151.867C71.2066 152.135 72.6975 152.357 74.2106 152.536C72.9423 153.628 70.5168 153.962 67.4905 153.316ZM123.922 140.014C124.144 139.858 124.345 139.702 124.567 139.546C124.411 139.702 124.167 139.858 123.922 140.014ZM153.161 101.624C152.56 103.05 151.359 104.721 152.048 105.857C151.225 107.238 150.179 108.219 149.267 108.709C150.557 105.657 151.626 102.493 152.493 99.2396C152.493 99.4178 152.471 99.5961 152.449 99.7966C154.207 99.195 153.829 100.198 153.183 101.624H153.161ZM154.808 89.28C154.741 90.3272 154.496 90.6837 154.185 90.8174C154.274 90.1712 154.363 89.5474 154.429 88.9012C154.563 89.0349 154.696 89.1686 154.808 89.3023V89.28ZM155.052 97.6131C153.673 98.8162 153.139 97.8359 152.849 97.7913C153.272 96.0757 153.628 94.3155 153.918 92.5553C154.229 92.9786 154.563 93.3574 154.852 93.7807C155.497 94.7165 155.92 95.8083 155.052 97.6131ZM154.719 87.7203C154.719 87.7203 154.607 87.6312 154.563 87.6089C154.63 86.8959 154.674 86.1829 154.719 85.4476C155.319 85.8933 155.965 86.2275 154.719 87.7203ZM156.432 80.1225L155.408 77.3596C155.075 77.7384 154.919 78.0726 154.852 78.3623C154.318 61.0054 147.709 45.1859 137.05 32.9759C137.829 33.7334 138.808 34.5355 140.477 35.4936L140.522 35.0926C141.99 35.2485 143.17 36.5408 144.193 38.0114C145.217 39.5042 145.862 41.309 146.775 42.3562C145.039 42.1111 143.526 39.5711 141.857 38.3456C142.836 41.309 147.375 47.1243 150.958 48.4612C151.136 49.3524 151.403 50.7561 151.292 51.7142C151.136 52.6946 150.691 53.1848 149.734 52.2267C151.359 58.0866 154.452 53.1848 155.386 58.6213L153.294 59.0447C152.916 60.6712 153.072 62.0972 153.495 63.4563C153.94 64.8154 154.63 66.0855 155.141 67.4223C156.254 70.0738 157.589 72.8366 156.232 75.6886L158.835 75.8668C157.812 77.1591 157.411 79.6323 156.432 80.1002V80.1225Z" fill="#FDB809"></path><path d="M13.2215 45.2749L13.3997 45.5423L13.4889 45.3195C13.3775 45.3195 13.2883 45.2749 13.1992 45.2749H13.2215Z" fill="#FDB809"></path><path d="M149.716 113.99L149.582 115.393C149.671 114.948 149.693 114.48 149.716 113.99Z" fill="#FDB809"></path><path d="M3.27359 105.701C4.81099 104.765 3.8529 101.913 3.05078 101.378C3.63009 102.247 3.54096 104.186 3.27359 105.701Z" fill="#FDB809"></path><path d="M79.099 158.752C78.1867 160.535 81.5913 159.532 82.5926 160C82.7706 159.554 80.6789 157.126 79.099 158.752Z" fill="#FDB809"></path><path d="M90.3296 72.0026C90.3296 75.9617 90.391 79.9208 90.3135 83.8799C90.2308 88.1166 88.1431 91.168 84.3628 92.9834C78.2119 95.9387 71.3615 91.9663 70.056 86.0183C69.8798 85.2147 69.7998 84.3711 69.7998 83.5462C69.7811 75.8496 69.7944 68.153 69.7891 60.4564C69.7891 58.1952 70.3524 56.1102 71.7166 54.2895C73.6227 51.7506 76.1643 50.301 79.3385 50.034C84.4349 49.6042 89.2457 53.2937 90.1587 58.3393C90.3029 59.1296 90.3269 59.9491 90.3296 60.7554C90.3456 64.5036 90.3376 68.2517 90.3376 71.9999H90.3322L90.3296 72.0026Z" fill="black"></path><path d="M82.1129 106.025C82.8765 106.025 83.64 106.025 84.4062 106.025C85.725 106.025 87.0465 106.009 88.3653 106.019C89.2677 106.027 90.0526 106.663 90.2554 107.514C90.477 108.443 90.1033 109.362 89.2597 109.757C88.8939 109.928 88.4481 109.986 88.037 109.989C84.3315 110.005 80.6259 109.997 76.9204 109.997C75.2572 109.997 73.5913 110.005 71.9281 109.994C70.911 109.989 70.1074 109.391 69.8832 108.507C69.5521 107.21 70.4545 106.027 71.816 106.019C73.6341 106.006 75.4548 106.019 77.2728 106.025C78.0844 106.025 78.0817 106.03 78.0791 105.216C78.0791 104.172 78.0711 103.131 78.0844 102.087C78.0871 101.855 78.0364 101.764 77.7881 101.729C74.5017 101.286 71.5223 100.074 68.898 98.0451C65.294 95.258 62.99 91.6326 62.1197 87.1476C61.9275 86.1518 61.8661 85.1266 61.8154 84.1095C61.7567 82.9429 62.5923 82.0459 63.6948 81.9951C64.7841 81.9471 65.6998 82.7853 65.7452 83.9573C65.8173 85.7433 66.0602 87.4919 66.7783 89.1418C68.7112 93.5814 72.0269 96.47 76.7229 97.6046C84.9028 99.5828 92.5487 94.1954 94.0704 86.7284C94.26 85.802 94.2626 84.8356 94.3614 83.8906C94.4815 82.7319 95.3599 81.9364 96.4411 81.9978C97.5517 82.0592 98.3499 82.9509 98.3285 84.1228C98.2885 86.0984 97.9842 88.0365 97.2607 89.8786C94.7191 96.3392 89.9671 100.17 83.2182 101.601C82.9032 101.668 82.5802 101.692 82.2705 101.764C82.185 101.785 82.0649 101.913 82.0622 101.991C82.0515 103.299 82.0569 104.607 82.0596 105.915C82.0596 105.934 82.0756 105.955 82.1103 106.027L82.1129 106.025Z" fill="black"></path><path d="M110.165 69.018C110.147 63.927 108.555 59.6822 105.173 56.1423C104.738 55.6858 104.329 55.2266 104.297 54.5539C104.257 53.7183 104.722 52.936 105.448 52.6157C106.262 52.2553 107.135 52.3994 107.736 53.0588C108.793 54.2255 109.815 55.4215 110.664 56.7563C112.242 59.2471 113.289 61.9435 113.801 64.848C114.618 69.4745 113.927 73.8901 111.927 78.1189C110.881 80.332 109.455 82.2889 107.773 84.0615C106.975 84.9051 105.803 84.9318 104.938 84.1576C104.129 83.4341 104.073 82.2622 104.815 81.3812C105.499 80.5669 106.249 79.8007 106.871 78.9438C108.454 76.768 109.455 74.3333 109.882 71.6743C110.034 70.7239 110.09 69.7602 110.168 69.0154L110.165 69.018Z" fill="black"></path><path d="M46.0119 69.7254C45.9371 67.0451 46.2201 65.0135 46.7353 63.0059C47.7178 59.191 49.6853 55.934 52.363 53.0828C52.9557 52.4501 53.6925 52.2659 54.5201 52.5489C55.3424 52.8292 55.7108 53.4752 55.8203 54.2815C55.8843 54.7487 55.7242 55.1865 55.4332 55.5549C55.1582 55.902 54.8538 56.225 54.5602 56.556C52.1548 59.2497 50.6598 62.3759 50.1712 65.9585C49.5679 70.3581 50.3768 74.4827 52.7848 78.2363C53.4202 79.2294 54.2318 80.1104 54.9793 81.0287C55.3077 81.4345 55.6707 81.8029 55.7749 82.3475C55.927 83.1351 55.5826 83.952 54.8778 84.4085C54.1997 84.849 53.3001 84.841 52.6701 84.3204C52.2643 83.984 51.9119 83.5756 51.5648 83.1724C48.9432 80.1451 47.1678 76.6932 46.4257 72.7475C46.2014 71.5541 46.0919 70.3368 46.0092 69.7254H46.0119Z" fill="black"></path><path d="M106.155 68.6684C106.011 72.3952 104.716 75.6789 102.057 78.3779C101.157 79.2909 99.932 79.2615 99.1205 78.3512C98.461 77.6144 98.4717 76.5972 99.1445 75.775C99.5663 75.2597 100.025 74.7738 100.405 74.2292C101.841 72.1656 102.337 69.867 102.073 67.3816C101.841 65.2112 100.955 63.3477 99.4835 61.7513C99.3474 61.6045 99.2192 61.4523 99.0991 61.2948C98.4317 60.4191 98.5251 59.3192 99.3233 58.6011C100.116 57.8883 101.192 57.9097 101.988 58.6865C103.13 59.8051 104.043 61.0919 104.735 62.5362C105.658 64.4637 106.107 66.5006 106.16 68.6657L106.155 68.6684Z" fill="black"></path><path d="M53.9688 68.5989C54.1129 64.7679 55.4077 61.4655 58.0827 58.7452C58.8863 57.9282 60.0316 57.8749 60.8325 58.5903C61.636 59.3085 61.7188 60.5045 60.9686 61.3641C60.1117 62.3465 59.2761 63.3396 58.8009 64.5677C57.2738 68.5107 57.8184 72.1148 60.6002 75.3504C60.9179 75.7215 61.2329 76.1406 61.3958 76.5918C61.6761 77.374 61.289 78.2336 60.5575 78.7195C59.8794 79.1707 58.9931 79.176 58.3684 78.618C57.8184 78.1268 57.3165 77.5689 56.868 76.9816C55.1461 74.731 54.2197 72.1735 54.0221 69.3464C54.0034 69.0821 53.9848 68.8151 53.9688 68.5962V68.5989Z" fill="black"></path><path d="M98.0887 68.3266C98.0833 70.174 97.4987 71.5382 96.4228 72.6968C95.6406 73.5404 94.4633 73.6205 93.649 72.9104C92.8481 72.2109 92.7466 71.0363 93.4541 70.1606C93.8786 69.6347 94.1989 69.0928 94.1322 68.3853C94.0895 67.9235 93.8946 67.5417 93.5983 67.1946C93.0403 66.5432 92.7947 65.8251 93.1497 64.9842C93.6864 63.7214 95.2722 63.3504 96.2626 64.2981C97.4746 65.4567 98.0646 66.9037 98.0887 68.3266Z" fill="black"></path><path d="M62.0352 68.6762C62.0592 66.9329 62.6519 65.5394 63.7785 64.3754C64.4325 63.6973 65.3883 63.5745 66.1838 64.0284C66.934 64.4555 67.3265 65.3792 67.0809 66.2308C67.0034 66.4978 66.8619 66.7754 66.6751 66.981C65.6793 68.0836 65.7861 69.1941 66.6857 70.1846C67.0995 70.6384 67.241 71.2177 67.1156 71.8291C66.8059 73.3294 65.0012 73.9034 63.8666 72.8409C62.8547 71.8958 62.2727 70.7025 62.0912 69.3249C62.0592 69.074 62.0485 68.8177 62.0352 68.6789V68.6762Z" fill="black"></path></svg>