<svg xmlns="http://www.w3.org/2000/svg" width="100" height="100" viewBox="0 0 100 100" fill="none"><path d="M42.1489 2.06104C41.94 2.24207 41.6058 2.49273 41.4805 2.71554C41.7868 2.63199 42.0236 2.45095 42.1489 2.06104Z" fill="#FDB809"></path><path d="M93.8945 28.0461L94.0756 28.3107C94.0756 28.2411 94.1034 28.1715 94.1173 28.1018L93.8945 28.0461Z" fill="#FDB809"></path><path d="M94.1172 28.1021L94.9249 28.3109C94.3261 27.6564 94.1868 27.7957 94.1172 28.1021Z" fill="#FDB809"></path><path d="M2.25475 44.0608C2.15727 44.4229 2.11549 44.7431 2.10156 45.0634L2.22689 45.1331C2.43577 44.9799 2.31045 44.3672 2.25475 44.0608Z" fill="#FDB809"></path><path d="M1.41797 38.3096C1.4876 38.6021 1.62686 38.8945 1.78004 39.173C1.69648 38.7413 1.80789 38.0729 1.41797 38.3096Z" fill="#FDB809"></path><path d="M42.2398 1.75439C42.2259 1.87973 42.1841 1.96328 42.1562 2.06076C42.2955 1.93543 42.3512 1.82402 42.2398 1.75439Z" fill="#FDB809"></path><path d="M99.7148 50.3552C99.7566 50.9401 99.7705 51.525 99.8541 52.1238C100.119 50.773 99.9934 50.3552 99.7148 50.3552Z" fill="#FDB809"></path><path d="M59.344 4.67914C59.1212 4.59558 58.8845 4.4981 58.5781 4.41455C58.8566 4.55381 59.1212 4.63736 59.344 4.67914Z" fill="#FDB809"></path><path d="M19.2891 18.7162C19.303 18.6466 19.3308 18.563 19.3448 18.4795C19.3169 18.5491 19.303 18.6327 19.2891 18.7162Z" fill="#FDB809"></path><path d="M98.4508 38.9639C98.2701 38.017 98.0893 37.07 97.8946 36.1231C97.6303 35.1901 97.2965 34.2849 96.9627 33.3797C96.3369 31.5416 95.266 29.8705 94.0839 28.3247C94.0283 28.6729 93.9865 29.0906 93.625 29.0628C93.625 28.6033 93.3746 28.0602 93.1799 27.6424C92.9852 27.2246 92.9157 26.8904 93.3607 26.779L93.6111 26.96C92.9296 26.1941 92.7766 25.1636 92.7071 24.1749C92.6653 23.6736 92.6514 23.2001 92.5958 22.7684C92.5263 22.3646 92.4011 22.0025 92.2203 21.7658C90.8435 21.7658 90.009 18.0337 89.0772 19.9554C89.1328 19.3288 89.105 18.7718 89.1189 18.159C88.2845 18.2844 87.7421 19.0503 86.9216 18.6882C86.1149 17.5741 86.6295 17.0171 87.7282 17.5184C84.6825 12.9926 79.2586 9.03773 74.0711 7.0603C74.6552 7.01852 75.2393 6.96282 75.8095 6.97674C74.8221 5.89054 70.7333 6.23868 72.7499 4.65116C71.3313 4.4005 69.6207 3.64852 68.1465 3.11934C66.6723 2.56232 65.4067 2.46484 64.9895 3.59281C64.4332 2.29773 62.8756 1.53182 60.9703 1.28116C59.051 1.10013 56.8676 1.04442 54.9622 1.1976C55.4629 3.27252 51.8609 1.53182 50.8734 2.57624C50.6092 1.83818 51.3741 1.30901 52.2364 1.04442C53.0986 0.751984 54.0583 0.515248 54.1278 0C53.0986 0.584877 51.9443 0.612726 50.7066 0.738057C49.4827 0.807685 48.1893 0.710206 46.9515 0.654504C44.5038 0.696281 42.2925 1.04442 41.9031 3.13327C41.4303 3.09149 41.3886 2.93831 41.5137 2.74335C40.8044 2.91046 39.6779 2.49269 38.913 2.50661C38.6627 3.28645 40.2899 3.20289 38.6488 3.89918C37.258 4.10806 37.7031 2.84083 36.9938 2.49269C35.8117 3.35608 34.2679 4.28909 33.058 5.18033C31.8619 6.11335 31.0414 7.12992 31.1944 7.93761C30.3182 7.88191 29.1361 7.43629 29.7897 6.76786C28.9553 7.50591 28.3295 7.99331 27.8149 8.39715C27.2864 8.77315 26.8275 8.99596 26.3546 9.21877C25.4923 9.60868 24.5605 9.97075 23.2671 11.3215C23.7678 10.5139 22.7943 9.69224 24.7413 9.12129C23.3506 8.57819 22.0572 9.77579 20.6525 11.0848C19.9294 11.7254 19.3035 12.547 18.5942 13.2433C17.8989 13.9535 17.1479 14.5523 16.2856 14.9422C16.2995 15.6385 16.3412 16.3208 16.369 16.9893C15.1591 18.7021 14.0048 17.8944 14.6445 16.4183C13.8657 16.9475 13.226 17.4767 12.6975 18.0058C12.1968 18.5629 11.8213 19.1338 11.4597 19.6908C10.7922 20.8327 10.1663 21.8493 9.47095 23.0748C9.23452 23.1165 9.05372 22.852 9.37359 22.4899L7.20403 25.9713C7.30139 26.5005 7.34311 28.1576 8.30272 28.3108C8.03848 27.907 7.8855 27.4474 7.98285 26.8765C8.09411 26.3194 8.51133 25.6789 9.31796 24.8851C11.3067 25.3447 8.20537 26.8904 9.91598 27.6424C10.1524 26.4587 10.3471 25.5396 11.4736 25.6232C11.9048 26.9739 10.1385 27.5867 11.3485 28.7564C11.418 28.1716 11.5571 27.6006 11.6544 27.0157C12.169 26.8068 12.5306 27.0157 12.8087 27.2664C11.9048 28.7704 11.0981 30.344 10.3749 31.9593C10.514 30.3161 9.16499 29.4806 8.41399 28.4779C7.84378 29.9262 7.13449 31.3048 6.74509 32.8227C6.20269 32.586 6.17489 31.7783 6.3835 30.9428C6.61993 30.1211 6.99542 29.2438 7.05105 28.7704C6.36959 26.8347 4.99275 30.6642 4.17221 29.7451C4.7146 30.7617 3.81061 32.4746 3.76889 33.7697H3.08743C2.73974 34.2571 2.51722 34.7305 2.43378 35.204C2.36424 35.6775 2.39205 36.1509 2.43378 36.6105C2.51722 37.5435 2.71193 38.4347 2.43378 39.4235C2.21126 39.5627 2.07218 39.5627 1.97483 39.507C2.4755 40.3565 3.29604 41.2477 3.35167 42.4871L3.4212 41.5541C4.04704 42.5289 4.46427 44.0468 4.97884 44.9937C5.22918 45.4672 5.52124 45.8014 5.88283 45.8571C6.11926 45.8989 6.3974 45.8014 6.71727 45.5507C6.60602 46.5812 6.53647 47.6257 6.49475 48.6701C6.45303 48.9486 6.41131 49.2271 6.35568 49.5056C4.70069 48.9904 2.1139 47.9459 2.1139 45.1051L1.44635 44.7013C0.806605 45.7039 1.12647 47.2636 1.68277 48.3359C2.26689 49.4221 3.17087 50.0069 3.92187 49.3664C5.8411 50.4247 6.06362 52.0679 5.86892 53.9758C5.74375 54.9227 5.70203 55.9253 5.78548 56.8862C5.86892 57.8471 6.07753 58.7662 6.61992 59.4903C5.56296 59.9498 4.85367 58.1952 3.96359 57.4711C3.68545 56.4684 3.54637 55.7164 4.46426 55.5354C3.99141 53.3909 3.15697 53.6415 2.40597 53.8643C1.66887 54.0872 1.04304 54.2264 1.11257 51.5945C1.55761 49.0739 3.0457 54.6024 3.01789 50.926C1.93311 50.0766 1.01522 49.1575 0.0138821 48.1966C-0.111285 50.6057 0.63971 52.7642 1.07084 54.6163C2.57285 59.7549 3.69936 63.9465 4.64507 66.9544C5.11792 68.4445 5.34044 69.6978 5.61858 70.5055C5.86892 71.3271 5.96627 71.8006 5.96627 71.8006C9.41532 78.6798 14.3247 84.821 20.4161 89.4165C26.4798 94.0259 33.5587 97.2427 40.9574 98.7327C43.3078 99.0252 44.9211 99.0948 46.1866 98.8998C47.4522 98.6492 48.3979 97.9111 49.3436 96.4489C48.8986 96.1147 48.0224 95.9894 47.3688 95.8084C46.9933 95.7109 46.7012 95.5716 46.6178 95.3767C48.2727 95.5577 49.9416 95.6552 51.6384 95.6552C57.6881 95.6552 63.4597 94.4576 68.7445 92.2852C68.8558 92.2712 68.967 92.2573 69.0783 92.2434V92.1598C69.4955 91.9788 69.9267 91.7839 70.3439 91.5889C70.3995 91.5889 70.4412 91.6028 70.5108 91.6028C70.4691 91.6028 70.4552 91.561 70.4273 91.5471C72.875 90.4331 75.1976 89.0962 77.3811 87.5783L79.6062 86.7845C79.4672 86.5478 79.4394 86.2971 79.4394 86.0465C79.9261 85.6705 80.399 85.2806 80.8718 84.8907C80.9692 85.3084 81.2612 85.5869 81.7619 85.6009C82.5129 84.4311 83.2778 83.331 83.9454 82.1612C83.556 82.579 83.1109 83.0386 82.7215 83.2335C83.5838 82.4119 84.4182 81.5764 85.2109 80.6851C85.809 80.518 86.2957 80.1559 86.3374 79.39C86.9633 78.638 87.5613 77.8582 88.1454 77.0784C88.0759 77.4961 88.0064 77.9278 87.9368 78.3038C88.368 77.148 88.8964 76.4378 89.4527 75.9365C89.9534 75.3934 90.5097 75.0452 91.0103 74.6971C91.4971 74.349 91.9422 74.0008 92.1925 73.4299C92.4706 72.8868 92.4985 72.093 92.1647 70.9232C91.9978 71.1461 91.7892 71.3549 91.5945 71.5778C92.0812 70.6587 92.5263 69.7256 92.9435 68.7787C93.3885 69.4611 93.5972 70.3801 93.5693 71.2853L93.8058 68.5698C94.5289 68.4723 95.1687 68.3331 95.8641 68.1938C95.8084 67.1494 95.9197 66.3278 96.1561 65.5619C96.2674 65.172 96.4204 64.8099 96.5872 64.42C96.7263 64.0301 96.8793 63.6262 97.0323 63.1945L97.074 63.487C98.3396 62.6653 98.3396 61.4956 98.2005 60.3119C98.0058 59.1143 97.5608 57.8749 98.2005 56.6773C98.27 56.9698 98.4787 56.7887 98.6316 57.3597L98.7429 55.1594L99.2018 55.1037C98.0058 55.1037 97.6164 52.9035 96.7541 51.9287C96.768 51.4134 96.7959 50.9121 96.7959 50.3829C96.7959 50.0209 96.7819 49.6588 96.768 49.2967C96.9627 50.0487 98.2701 50.5222 97.4773 51.873C97.9641 51.873 99.1462 50.3829 99.7025 50.369C99.3409 48.4612 99.327 46.5673 99.1323 44.6734C98.8681 42.7935 98.8681 40.8578 98.4369 38.9778L98.4508 38.9639ZM86.3235 16.6133C86.8938 18.4097 85.2666 17.1703 84.752 17.4767L86.6156 19.3009C85.3361 19.6073 84.5851 18.7439 83.8202 18.6325C83.3752 18.1869 82.9301 17.7413 82.4712 17.3235C82.8745 17.2678 83.2222 17.0728 83.556 16.8639C84.307 16.3765 85.0719 15.6942 86.3096 16.6272L86.3235 16.6133ZM75.74 11.4329L75.8651 11.9064C76.7552 11.7811 77.687 11.6418 78.5632 11.614C79.4394 12.7977 80.3851 14.2041 80.4963 15.5549C79.5645 14.7751 78.591 14.037 77.5897 13.3408C77.7287 13.2015 77.8678 13.0622 78.0208 12.9369C77.1029 12.0874 77.0195 12.4356 76.8665 12.8255C76.3241 12.4634 75.7678 12.1014 75.2115 11.7672C75.281 11.5583 75.4062 11.3912 75.74 11.4329ZM65.9352 6.1969C67.7293 7.12992 69.5929 8.10472 71.6373 8.34145C71.6234 9.03773 70.775 8.32753 70.2048 8.3136C71.234 10.1936 71.8042 8.801 72.9863 8.84278C73.779 9.2884 74.5161 9.9986 74.8777 10.6253C75.0863 10.9873 75.1281 11.3215 74.989 11.614C71.1227 9.27447 66.8809 7.50592 62.3749 6.40579C62.4862 6.12728 62.6252 5.89054 62.8478 5.79306L60.9007 5.68166C62.3332 4.83219 64.1412 5.34744 65.9491 6.18298L65.9352 6.1969ZM49.3714 4.83219C50.5675 4.5119 51.8052 4.10806 52.2642 4.97145L51.6105 3.95488C53.488 4.37265 55.2126 3.95488 57.0205 3.64851C57.9245 3.50926 58.8424 3.35608 59.7881 3.23075C60.261 3.17504 60.7477 3.11934 61.2345 3.09149C61.7213 3.09149 62.208 3.14719 62.7087 3.20289C61.4292 3.39785 60.8868 4.97145 59.3153 4.67901C60.2749 5.06893 60.4139 5.50062 60.3027 5.96017C57.4795 5.40314 54.5728 5.11071 51.5966 5.11071C49.8443 5.11071 48.1059 5.22211 46.4092 5.41707C46.6595 5.06893 46.7708 4.77649 46.4787 4.55368C47.0072 5.38922 48.1615 5.16641 49.3575 4.80434L49.3714 4.83219ZM42.2786 5.12463C42.6124 4.67901 43.0435 4.33087 43.8363 4.37265C43.7945 4.72079 43.3217 5.44492 43.1965 5.91839C42.6124 6.0298 42.0422 6.15513 41.472 6.28046C41.778 5.93232 42.0144 5.51455 42.2925 5.12463H42.2786ZM41.2773 6.22476V6.33616C41.0826 6.37794 40.9018 6.41972 40.7071 6.46149C40.9157 6.39186 41.1104 6.30831 41.2773 6.22476ZM35.9646 6.5172C35.2832 7.95154 37.4388 6.94889 38.162 7.1717C36.7435 7.61732 35.3527 8.13257 33.9898 8.70352C34.1428 7.64517 34.0871 6.71216 35.9646 6.5172ZM31.4725 9.87327C30.958 10.1379 30.4295 10.4024 29.9288 10.681C30.0262 10.3607 30.1513 10.0265 30.3739 9.70616C30.8884 9.60869 31.2222 9.70617 31.4725 9.87327ZM17.2869 20.6378C16.7585 19.8162 17.2452 18.911 17.8989 17.978C18.5247 17.0032 19.4982 16.1816 19.7346 15.1929C20.4439 15.0536 21.0698 14.7472 21.6261 14.3434C22.1963 13.9535 22.7665 13.5079 23.281 12.9787C23.8095 12.4634 24.3102 11.8925 24.8109 11.3215C25.3115 10.7506 25.8817 10.291 26.438 9.85935C26.9943 10.6392 26.744 11.7811 26.9387 12.4774C26.5215 12.7559 26.1043 13.0344 25.687 13.3268C25.4367 13.4661 25.2142 13.6193 25.0334 13.8003C24.4632 14.2181 23.9069 14.6358 23.3645 15.0815C23.2254 15.165 23.0864 15.2625 22.9473 15.36C22.4466 15.722 21.9877 16.1259 21.5704 16.5436C21.5009 16.6272 21.4314 16.6968 21.3618 16.7804C20.6525 17.421 19.9572 18.0894 19.2896 18.7857C19.2896 18.7718 19.2896 18.7578 19.2896 18.7439C19.2896 18.7578 19.2896 18.7857 19.2757 18.7996C18.9975 19.0781 18.7194 19.3706 18.4552 19.663C17.9684 19.7187 17.4399 19.5516 17.2869 20.6517V20.6378ZM7.1484 34.4799C8.17755 34.5773 8.69213 34.6052 9.17889 34.7862C8.73385 35.9978 8.34445 37.2371 8.01067 38.4904C7.67689 37.1118 7.35701 35.7192 7.1484 34.4799ZM7.57953 60.5069C7.7047 61.0221 7.81596 61.5374 7.95504 62.0526C7.51 61.412 6.67555 60.674 6.759 59.7131C6.99542 60.1866 7.27357 60.4094 7.56563 60.5069H7.57953ZM7.49609 63.5287C7.91331 63.3059 8.12192 63.0831 8.17755 62.8603C8.38616 63.5844 8.60869 64.2946 8.84511 65.0049C8.38617 64.8099 7.92722 64.3782 7.49609 63.5287ZM18.1909 81.4232C17.579 81.0193 16.8697 80.8522 16.1465 80.7408C14.6445 80.5598 13.1564 80.4902 11.8352 79.4875L12.7948 79.0419C11.0842 77.1341 10.7922 76.4378 9.13717 74.8224C8.69213 70.3801 11.265 77.7468 12.7809 75.4352L11.8491 74.6971C12.322 74.711 12.9061 74.6832 13.5041 74.6692C15.3121 77.4961 17.3982 80.1142 19.7625 82.4676C19.6234 82.7183 19.5956 83.0246 19.8598 83.4424C19.3035 82.4815 18.8307 81.7852 18.1909 81.3953V81.4232ZM35.9368 92.8422C35.9368 92.8422 35.9925 92.87 36.0203 92.87C36.0203 92.87 35.9925 92.87 35.9786 92.884C35.9647 92.87 35.9507 92.8561 35.9368 92.8422ZM42.1813 95.8223C42.1813 94.7222 44.3508 95.6134 43.8224 95.2792L43.4051 95.1399C43.4608 95.0564 43.5164 94.9867 43.572 94.9171C44.5038 95.0842 45.4356 95.2235 46.3813 95.3349C45.5886 96.0172 44.0727 96.2261 42.1813 95.8223ZM77.4506 87.5087C77.5897 87.4112 77.7148 87.3137 77.8539 87.2162C77.7566 87.3137 77.6036 87.4112 77.4506 87.5087ZM95.725 63.5148C95.3495 64.4061 94.5985 65.4505 95.0296 66.1607C94.515 67.0241 93.8614 67.6368 93.2912 67.9432C94.0978 66.0353 94.7654 64.0579 95.3078 62.0248C95.3078 62.1362 95.2939 62.2476 95.2799 62.3729C96.3786 61.9969 96.1422 62.6236 95.7389 63.5148H95.725ZM96.7541 55.8C96.7124 56.4545 96.5594 56.6773 96.3647 56.7609C96.4204 56.357 96.476 55.9671 96.5177 55.5633C96.6012 55.6468 96.6846 55.7304 96.7541 55.8139V55.8ZM96.9071 61.0082C96.0449 61.7602 95.7111 61.1474 95.5303 61.1196C95.7945 60.0473 96.017 58.9472 96.1978 57.8471C96.3925 58.1117 96.6012 58.3484 96.782 58.613C97.1853 59.1979 97.4495 59.8802 96.9071 61.0082ZM96.6985 54.8252C96.6985 54.8252 96.629 54.7695 96.6012 54.7556C96.6429 54.31 96.6707 53.8643 96.6985 53.4048C97.074 53.6833 97.4773 53.8922 96.6985 54.8252ZM97.7694 50.0766L97.1296 48.3498C96.921 48.5865 96.8237 48.7954 96.782 48.9764C96.4482 38.1284 92.3177 28.2412 85.656 20.6099C86.1428 21.0834 86.7547 21.5847 87.7977 22.1835L87.8256 21.9329C88.7434 22.0303 89.4805 22.838 90.1203 23.7571C90.76 24.6901 91.1633 25.8181 91.7335 26.4726C90.6488 26.3194 89.7031 24.7319 88.66 23.966C89.2719 25.8181 92.109 29.4527 94.3482 30.2882C94.4594 30.8453 94.6263 31.7226 94.5568 32.3214C94.4594 32.9341 94.1813 33.2405 93.5832 32.6417C94.5985 36.3041 96.5316 33.2405 97.1157 36.6383L95.8084 36.9029C95.572 37.9195 95.6694 38.8107 95.9336 39.6602C96.2117 40.5097 96.6429 41.3034 96.9627 42.139C97.6581 43.7961 98.4926 45.5229 97.6442 47.3054L99.2714 47.4168C98.6316 48.2245 98.3813 49.7702 97.7694 50.0626V50.0766Z" fill="#FDB809"></path><path d="M8.26393 28.2969L8.37533 28.464L8.43103 28.3247C8.3614 28.3247 8.3057 28.2969 8.25 28.2969H8.26393Z" fill="#FDB809"></path><path d="M93.5719 71.2437L93.4883 72.121C93.544 71.8425 93.5579 71.55 93.5719 71.2437Z" fill="#FDB809"></path><path d="M2.0455 66.0631C3.00637 65.4783 2.40757 63.6958 1.90625 63.3616C2.26832 63.9047 2.21261 65.1162 2.0455 66.0631Z" fill="#FDB809"></path><path d="M49.4359 99.2203C48.8657 100.334 50.9936 99.7077 51.6194 100C51.7307 99.7216 50.4233 98.2037 49.4359 99.2203Z" fill="#FDB809"></path><path d="M60.8858 37.3593C60.8858 38.0052 60.6005 38.5241 60.1568 38.9678C58.4621 40.6641 56.7673 42.3589 55.071 44.0536C53.9046 45.2184 52.7382 46.3833 51.5734 47.5481C47.6023 51.5177 43.6312 55.4888 39.6585 59.4584C39.3998 59.7155 39.138 59.9694 38.8715 60.2187C37.9215 61.1061 36.6626 61.1108 35.7392 60.1983C34.057 58.5365 32.392 56.8575 30.7192 55.1862C30.3696 54.8366 30.1298 54.429 30.0357 53.9399C29.9181 53.3237 30.1 52.7797 30.4496 52.2859C30.6032 52.0695 30.7882 51.872 30.9763 51.6839C37.9418 44.7168 44.9105 37.7528 51.8775 30.7873C52.2491 30.4157 52.6677 30.1335 53.196 30.0379C53.9187 29.9062 54.5443 30.1225 55.0632 30.6148C55.8235 31.3375 56.562 32.0822 57.3051 32.8238C58.2724 33.7911 59.2334 34.7662 60.1975 35.7351C60.6459 36.1866 60.8827 36.7244 60.8874 37.3624L60.8858 37.3593Z" fill="black"></path><path d="M54.6461 58.8987C56.068 57.4846 57.4759 56.083 58.9072 54.658C59.017 54.7599 59.1424 54.868 59.2584 54.984C61.8718 57.5944 64.4853 60.2031 67.0956 62.8165C67.7807 63.5032 68.4642 64.193 69.1321 64.897C70.2938 66.1245 70.2969 67.9133 69.1571 69.086C68.0644 70.2085 66.3258 70.3135 65.1186 69.3102C64.7439 68.9982 64.3912 68.6564 64.0463 68.3115C61.1005 65.3704 58.1578 62.4262 55.2136 59.4835C55.0255 59.2954 54.8436 59.1025 54.6445 58.8972L54.6461 58.8987Z" fill="black"></path><path d="M56.0554 54.9072C55.6807 55.2772 55.2747 55.6785 54.8263 56.1222C54.6601 55.9388 54.4892 55.7428 54.3089 55.5562C53.9766 55.216 53.6223 54.8962 53.304 54.5435C52.8572 54.0481 52.3116 53.9587 51.7018 54.0998C51.1625 54.2236 50.689 54.4839 50.2986 54.8711C48.5443 56.6082 46.7963 58.3515 45.0467 60.0949C43.4319 61.705 41.8203 63.3182 40.2071 64.9298C39.5126 65.6244 38.7005 66.1104 37.7253 66.2765C36.3724 66.5086 35.1276 66.2232 34.1023 65.3045C33.3466 64.6288 32.6333 63.8936 31.9842 63.1175C30.8413 61.7504 30.7473 59.7155 31.6817 58.1979C31.7554 58.0772 31.8322 57.958 31.9215 57.8169C31.9748 57.8561 32.0234 57.8828 32.0626 57.9204C32.3997 58.2559 32.7336 58.5945 33.0738 58.9269C33.1585 59.01 33.1632 59.0758 33.1052 59.1793C32.5737 60.1498 32.7007 61.5435 33.6006 62.376C34.0835 62.8228 34.5381 63.2994 34.9927 63.7744C36.0619 64.8891 37.8241 64.8718 38.9513 63.7321C42.1134 60.5354 45.3038 57.3686 48.48 54.1876C49.1965 53.4711 49.9694 52.8425 50.9508 52.5258C51.8413 52.2389 52.7286 52.2028 53.6003 52.5916C53.7994 52.681 54.0079 52.7892 54.16 52.9397C54.7996 53.5793 55.4189 54.2393 56.057 54.904L56.0554 54.9072Z" fill="black"></path><path d="M60.8858 37.3593C60.8858 38.0052 60.6005 38.5241 60.1568 38.9678C58.4621 40.6641 56.7673 42.3589 55.071 44.0536C53.9046 45.2184 52.7382 46.3833 51.5734 47.5481C47.6023 51.5177 43.6312 55.4888 39.6585 59.4584C39.3998 59.7155 39.138 59.9694 38.8715 60.2187C37.9215 61.1061 36.6626 61.1108 35.7392 60.1983C34.057 58.5365 32.392 56.8575 30.7192 55.1862C30.3696 54.8366 30.1298 54.429 30.0357 53.9399C29.9181 53.3237 30.1 52.7797 30.4496 52.2859C30.6032 52.0695 30.7882 51.872 30.9763 51.6839C37.9418 44.7168 44.9105 37.7528 51.8775 30.7873C52.2491 30.4157 52.6677 30.1335 53.196 30.0379C53.9187 29.9062 54.5443 30.1225 55.0632 30.6148C55.8235 31.3375 56.562 32.0822 57.3051 32.8238C58.2724 33.7911 59.2334 34.7662 60.1975 35.7351C60.6459 36.1866 60.8827 36.7244 60.8874 37.3624L60.8858 37.3593Z" fill="black"></path><path d="M54.6461 58.8987C56.068 57.4846 57.4759 56.083 58.9072 54.658C59.017 54.7599 59.1424 54.868 59.2584 54.984C61.8718 57.5944 64.4853 60.2031 67.0956 62.8165C67.7807 63.5032 68.4642 64.193 69.1321 64.897C70.2938 66.1245 70.2969 67.9133 69.1571 69.086C68.0644 70.2085 66.3258 70.3135 65.1186 69.3102C64.7439 68.9982 64.3912 68.6564 64.0463 68.3115C61.1005 65.3704 58.1578 62.4262 55.2136 59.4835C55.0255 59.2954 54.8436 59.1025 54.6445 58.8972L54.6461 58.8987Z" fill="black"></path><path d="M56.0554 54.9072C55.6807 55.2772 55.2747 55.6785 54.8263 56.1222C54.6601 55.9388 54.4892 55.7428 54.3089 55.5562C53.9766 55.216 53.6223 54.8962 53.304 54.5435C52.8572 54.0481 52.3116 53.9587 51.7018 54.0998C51.1625 54.2236 50.689 54.4839 50.2986 54.8711C48.5443 56.6082 46.7963 58.3515 45.0467 60.0949C43.4319 61.705 41.8203 63.3182 40.2071 64.9298C39.5126 65.6244 38.7005 66.1104 37.7253 66.2765C36.3724 66.5086 35.1276 66.2232 34.1023 65.3045C33.3466 64.6288 32.6333 63.8936 31.9842 63.1175C30.8413 61.7504 30.7473 59.7155 31.6817 58.1979C31.7554 58.0772 31.8322 57.958 31.9215 57.8169C31.9748 57.8561 32.0234 57.8828 32.0626 57.9204C32.3997 58.2559 32.7336 58.5945 33.0738 58.9269C33.1585 59.01 33.1632 59.0758 33.1052 59.1793C32.5737 60.1498 32.7007 61.5435 33.6006 62.376C34.0835 62.8228 34.5381 63.2994 34.9927 63.7744C36.0619 64.8891 37.8241 64.8718 38.9513 63.7321C42.1134 60.5354 45.3038 57.3686 48.48 54.1876C49.1965 53.4711 49.9694 52.8425 50.9508 52.5258C51.8413 52.2389 52.7286 52.2028 53.6003 52.5916C53.7994 52.681 54.0079 52.7892 54.16 52.9397C54.7996 53.5793 55.4189 54.2393 56.057 54.904L56.0554 54.9072Z" fill="black"></path></svg>